<?xml version="1.0" encoding="utf-8" standalone="no"?>
<!DOCTYPE svg PUBLIC "-//W3C//DTD SVG 1.1//EN"
  "http://www.w3.org/Graphics/SVG/1.1/DTD/svg11.dtd">
<svg xmlns:xlink="http://www.w3.org/1999/xlink" width="720pt" height="504pt" viewBox="0 0 720 504" xmlns="http://www.w3.org/2000/svg" version="1.1">
 <metadata>
  <rdf:RDF xmlns:dc="http://purl.org/dc/elements/1.1/" xmlns:cc="http://creativecommons.org/ns#" xmlns:rdf="http://www.w3.org/1999/02/22-rdf-syntax-ns#">
   <cc:Work>
    <dc:type rdf:resource="http://purl.org/dc/dcmitype/StillImage"/>
    <dc:date>2022-08-17T09:04:35.085156</dc:date>
    <dc:format>image/svg+xml</dc:format>
    <dc:creator>
     <cc:Agent>
      <dc:title>Matplotlib v3.5.1, https://matplotlib.org/</dc:title>
     </cc:Agent>
    </dc:creator>
   </cc:Work>
  </rdf:RDF>
 </metadata>
 <defs>
  <style type="text/css">*{stroke-linejoin: round; stroke-linecap: butt}</style>
 </defs>
 <g id="figure_1">
  <g id="patch_1">
   <path d="M 0 504 
L 720 504 
L 720 0 
L 0 0 
z
" style="fill: #ffffff"/>
  </g>
  <g id="axes_1">
   <g id="patch_2">
    <path d="M 90 441 
L 648 441 
L 648 60.48 
L 90 60.48 
z
" style="fill: #ffffff"/>
   </g>
   <g id="matplotlib.axis_1">
    <g id="xtick_1">
     <g id="line2d_1"/>
     <g id="text_1">
      <text style="fill: #262626; font: 20px 'sans-serif'; text-anchor: middle" x="90" y="466.515625" transform="rotate(-0, 90, 466.515625)">0.0</text>
     </g>
    </g>
    <g id="xtick_2">
     <g id="line2d_2"/>
     <g id="text_2">
      <text style="fill: #262626; font: 20px 'sans-serif'; text-anchor: middle" x="201.6" y="466.515625" transform="rotate(-0, 201.6, 466.515625)">0.2</text>
     </g>
    </g>
    <g id="xtick_3">
     <g id="line2d_3"/>
     <g id="text_3">
      <text style="fill: #262626; font: 20px 'sans-serif'; text-anchor: middle" x="313.2" y="466.515625" transform="rotate(-0, 313.2, 466.515625)">0.4</text>
     </g>
    </g>
    <g id="xtick_4">
     <g id="line2d_4"/>
     <g id="text_4">
      <text style="fill: #262626; font: 20px 'sans-serif'; text-anchor: middle" x="424.8" y="466.515625" transform="rotate(-0, 424.8, 466.515625)">0.6</text>
     </g>
    </g>
    <g id="xtick_5">
     <g id="line2d_5"/>
     <g id="text_5">
      <text style="fill: #262626; font: 20px 'sans-serif'; text-anchor: middle" x="536.4" y="466.515625" transform="rotate(-0, 536.4, 466.515625)">0.8</text>
     </g>
    </g>
    <g id="xtick_6">
     <g id="line2d_6"/>
     <g id="text_6">
      <text style="fill: #262626; font: 20px 'sans-serif'; text-anchor: middle" x="648" y="466.515625" transform="rotate(-0, 648, 466.515625)">1.0</text>
     </g>
    </g>
    <g id="text_7">
     <text style="fill: #262626; font: 25px 'sans-serif'; text-anchor: middle" x="369" y="492.689844" transform="rotate(-0, 369, 492.689844)">FCsp3</text>
    </g>
   </g>
   <g id="matplotlib.axis_2">
    <g id="ytick_1">
     <g id="line2d_7"/>
     <g id="text_8">
      <text style="fill: #262626; font: 20px 'sans-serif'; text-anchor: end" x="78.8" y="448.157812" transform="rotate(-0, 78.8, 448.157812)">0.0</text>
     </g>
    </g>
    <g id="ytick_2">
     <g id="line2d_8"/>
     <g id="text_9">
      <text style="fill: #262626; font: 20px 'sans-serif'; text-anchor: end" x="78.8" y="372.053813" transform="rotate(-0, 78.8, 372.053813)">0.2</text>
     </g>
    </g>
    <g id="ytick_3">
     <g id="line2d_9"/>
     <g id="text_10">
      <text style="fill: #262626; font: 20px 'sans-serif'; text-anchor: end" x="78.8" y="295.949813" transform="rotate(-0, 78.8, 295.949813)">0.4</text>
     </g>
    </g>
    <g id="ytick_4">
     <g id="line2d_10"/>
     <g id="text_11">
      <text style="fill: #262626; font: 20px 'sans-serif'; text-anchor: end" x="78.8" y="219.845812" transform="rotate(-0, 78.8, 219.845812)">0.6</text>
     </g>
    </g>
    <g id="ytick_5">
     <g id="line2d_11"/>
     <g id="text_12">
      <text style="fill: #262626; font: 20px 'sans-serif'; text-anchor: end" x="78.8" y="143.741812" transform="rotate(-0, 78.8, 143.741812)">0.8</text>
     </g>
    </g>
    <g id="ytick_6">
     <g id="line2d_12"/>
     <g id="text_13">
      <text style="fill: #262626; font: 20px 'sans-serif'; text-anchor: end" x="78.8" y="67.637812" transform="rotate(-0, 78.8, 67.637812)">1.0</text>
     </g>
    </g>
    <g id="text_14">
     <text style="fill: #262626; font: 25px 'sans-serif'; text-anchor: middle" x="42.03125" y="250.74" transform="rotate(-90, 42.03125, 250.74)">Proportion</text>
    </g>
   </g>
   <g id="line2d_13">
    <path d="M 183.186 441 
L 183.186 345.87 
L 183.186 345.87 
L 183.186 250.74 
L 207.738 250.74 
L 207.738 155.61 
L 207.738 155.61 
L 207.738 60.48 
" clip-path="url(#p538edbc65e)" style="fill: none; stroke: #7f7f7f; stroke-width: 2.8; stroke-linecap: round"/>
   </g>
   <g id="line2d_14">
    <path d="M 140.778 441 
L 140.778 421.974 
L 140.778 421.974 
L 140.778 402.948 
L 140.778 402.948 
L 140.778 383.922 
L 162.54 383.922 
L 162.54 364.896 
L 162.54 364.896 
L 162.54 345.87 
L 162.54 345.87 
L 162.54 326.844 
L 169.794 326.844 
L 169.794 307.818 
L 188.208 307.818 
L 188.208 288.792 
L 188.208 288.792 
L 188.208 269.766 
L 188.208 269.766 
L 188.208 250.74 
L 188.208 250.74 
L 188.208 231.714 
L 188.208 231.714 
L 188.208 212.688 
L 213.876 212.688 
L 213.876 193.662 
L 213.876 193.662 
L 213.876 174.636 
L 213.876 174.636 
L 213.876 155.61 
L 213.876 155.61 
L 213.876 136.584 
L 213.876 136.584 
L 213.876 117.558 
L 213.876 117.558 
L 213.876 98.532 
L 213.876 98.532 
L 213.876 79.506 
L 236.754 79.506 
L 236.754 60.48 
" clip-path="url(#p538edbc65e)" style="fill: none; stroke: #e377c2; stroke-width: 2.8; stroke-linecap: round"/>
   </g>
   <g id="line2d_15">
    <path d="M 143.01 441 
L 143.01 425.145 
L 143.01 425.145 
L 143.01 409.29 
L 143.01 409.29 
L 143.01 393.435 
L 143.01 393.435 
L 143.01 377.58 
L 143.01 377.58 
L 143.01 361.725 
L 143.01 361.725 
L 143.01 345.87 
L 143.01 345.87 
L 143.01 330.015 
L 143.01 330.015 
L 143.01 314.16 
L 165.888 314.16 
L 165.888 298.305 
L 165.888 298.305 
L 165.888 282.45 
L 173.7 282.45 
L 173.7 266.595 
L 173.7 266.595 
L 173.7 250.74 
L 194.904 250.74 
L 194.904 234.885 
L 194.904 234.885 
L 194.904 219.03 
L 194.904 219.03 
L 194.904 203.175 
L 194.904 203.175 
L 194.904 187.32 
L 194.904 187.32 
L 194.904 171.465 
L 221.13 171.465 
L 221.13 155.61 
L 221.13 155.61 
L 221.13 139.755 
L 221.13 139.755 
L 221.13 123.9 
L 221.13 123.9 
L 221.13 108.045 
L 221.13 108.045 
L 221.13 92.19 
L 221.13 92.19 
L 221.13 76.335 
L 245.124 76.335 
L 245.124 60.48 
" clip-path="url(#p538edbc65e)" style="fill: none; stroke: #8c564b; stroke-width: 2.8; stroke-linecap: round"/>
   </g>
   <g id="line2d_16">
    <path d="M 129.618 441 
L 129.618 421.974 
L 136.314 421.974 
L 136.314 402.948 
L 136.314 402.948 
L 136.314 383.922 
L 136.314 383.922 
L 136.314 364.896 
L 136.314 364.896 
L 136.314 345.87 
L 136.314 345.87 
L 136.314 326.844 
L 136.314 326.844 
L 136.314 307.818 
L 140.778 307.818 
L 140.778 288.792 
L 147.474 288.792 
L 147.474 269.766 
L 147.474 269.766 
L 147.474 250.74 
L 156.96 250.74 
L 156.96 231.714 
L 156.96 231.714 
L 156.96 212.688 
L 156.96 212.688 
L 156.96 193.662 
L 156.96 193.662 
L 156.96 174.636 
L 175.932 174.636 
L 175.932 155.61 
L 175.932 155.61 
L 175.932 136.584 
L 175.932 136.584 
L 175.932 117.558 
L 175.932 117.558 
L 175.932 98.532 
L 193.23 98.532 
L 193.23 79.506 
L 193.23 79.506 
L 193.23 60.48 
" clip-path="url(#p538edbc65e)" style="fill: none; stroke: #9467bd; stroke-width: 2.8; stroke-linecap: round"/>
   </g>
   <g id="line2d_17">
    <path d="M 156.96 441 
L 156.96 402.948 
L 162.54 402.948 
L 162.54 364.896 
L 178.164 364.896 
L 178.164 326.844 
L 178.164 326.844 
L 178.164 288.792 
L 178.164 288.792 
L 178.164 250.74 
L 178.164 250.74 
L 178.164 212.688 
L 178.164 212.688 
L 178.164 174.636 
L 178.164 174.636 
L 178.164 136.584 
L 201.6 136.584 
L 201.6 98.532 
L 222.804 98.532 
L 222.804 60.48 
" clip-path="url(#p538edbc65e)" style="fill: none; stroke: #d62728; stroke-width: 2.8; stroke-linecap: round"/>
   </g>
   <g id="line2d_18">
    <path d="M 187.092 441 
L 187.092 418.616471 
L 187.092 418.616471 
L 187.092 396.232941 
L 187.092 396.232941 
L 187.092 373.849412 
L 201.6 373.849412 
L 201.6 351.465882 
L 206.064 351.465882 
L 206.064 329.082353 
L 206.064 329.082353 
L 206.064 306.698824 
L 206.064 306.698824 
L 206.064 284.315294 
L 206.064 284.315294 
L 206.064 261.931765 
L 206.064 261.931765 
L 206.064 239.548235 
L 229.5 239.548235 
L 229.5 217.164706 
L 229.5 217.164706 
L 229.5 194.781176 
L 236.754 194.781176 
L 236.754 172.397647 
L 236.754 172.397647 
L 236.754 150.014118 
L 255.168 150.014118 
L 255.168 127.630588 
L 255.168 127.630588 
L 255.168 105.247059 
L 257.4 105.247059 
L 257.4 82.863529 
L 266.328 82.863529 
L 266.328 60.48 
" clip-path="url(#p538edbc65e)" style="fill: none; stroke: #2ca02c; stroke-width: 2.8; stroke-linecap: round"/>
   </g>
   <g id="line2d_19">
    <path d="M 196.02 441 
L 196.02 419.86 
L 221.13 419.86 
L 221.13 398.72 
L 221.13 398.72 
L 221.13 377.58 
L 221.13 377.58 
L 221.13 356.44 
L 221.13 356.44 
L 221.13 335.3 
L 221.13 335.3 
L 221.13 314.16 
L 221.13 314.16 
L 221.13 293.02 
L 221.13 293.02 
L 221.13 271.88 
L 245.124 271.88 
L 245.124 250.74 
L 245.124 250.74 
L 245.124 229.6 
L 245.124 229.6 
L 245.124 208.46 
L 245.124 208.46 
L 245.124 187.32 
L 245.124 187.32 
L 245.124 166.18 
L 245.124 166.18 
L 245.124 145.04 
L 266.328 145.04 
L 266.328 123.9 
L 266.328 123.9 
L 266.328 102.76 
L 266.328 102.76 
L 266.328 81.62 
L 285.3 81.62 
L 285.3 60.48 
" clip-path="url(#p538edbc65e)" style="fill: none; stroke: #ff7f0e; stroke-width: 2.8; stroke-linecap: round"/>
   </g>
   <g id="line2d_20">
    <path d="M 140.778 441 
L 140.778 431.487 
L 140.778 431.487 
L 140.778 421.974 
L 162.54 421.974 
L 162.54 412.461 
L 169.794 412.461 
L 169.794 402.948 
L 169.794 402.948 
L 169.794 393.435 
L 183.186 393.435 
L 183.186 383.922 
L 188.208 383.922 
L 188.208 374.409 
L 188.208 374.409 
L 188.208 364.896 
L 188.208 364.896 
L 188.208 355.383 
L 188.208 355.383 
L 188.208 345.87 
L 188.208 345.87 
L 188.208 336.357 
L 188.208 336.357 
L 188.208 326.844 
L 188.208 326.844 
L 188.208 317.331 
L 188.208 317.331 
L 188.208 307.818 
L 188.208 307.818 
L 188.208 298.305 
L 188.208 298.305 
L 188.208 288.792 
L 188.208 288.792 
L 188.208 279.279 
L 188.208 279.279 
L 188.208 269.766 
L 213.876 269.766 
L 213.876 260.253 
L 213.876 260.253 
L 213.876 250.74 
L 213.876 250.74 
L 213.876 241.227 
L 213.876 241.227 
L 213.876 231.714 
L 213.876 231.714 
L 213.876 222.201 
L 213.876 222.201 
L 213.876 212.688 
L 213.876 212.688 
L 213.876 203.175 
L 213.876 203.175 
L 213.876 193.662 
L 213.876 193.662 
L 213.876 184.149 
L 213.876 184.149 
L 213.876 174.636 
L 213.876 174.636 
L 213.876 165.123 
L 213.876 165.123 
L 213.876 155.61 
L 213.876 155.61 
L 213.876 146.097 
L 236.754 146.097 
L 236.754 136.584 
L 236.754 136.584 
L 236.754 127.071 
L 236.754 127.071 
L 236.754 117.558 
L 236.754 117.558 
L 236.754 108.045 
L 236.754 108.045 
L 236.754 98.532 
L 236.754 98.532 
L 236.754 89.019 
L 257.4 89.019 
L 257.4 79.506 
L 257.4 79.506 
L 257.4 69.993 
L 275.814 69.993 
L 275.814 60.48 
" clip-path="url(#p538edbc65e)" style="fill: none; stroke: #1f77b4; stroke-width: 2.8; stroke-linecap: round"/>
   </g>
   <g id="patch_3">
    <path d="M 90 441 
L 90 60.48 
" style="fill: none; stroke: #262626; stroke-width: 1.25; stroke-linejoin: miter; stroke-linecap: square"/>
   </g>
   <g id="patch_4">
    <path d="M 648 441 
L 648 60.48 
" style="fill: none; stroke: #262626; stroke-width: 1.25; stroke-linejoin: miter; stroke-linecap: square"/>
   </g>
   <g id="patch_5">
    <path d="M 90 441 
L 648 441 
" style="fill: none; stroke: #262626; stroke-width: 1.25; stroke-linejoin: miter; stroke-linecap: square"/>
   </g>
   <g id="patch_6">
    <path d="M 90 60.48 
L 648 60.48 
" style="fill: none; stroke: #262626; stroke-width: 1.25; stroke-linejoin: miter; stroke-linecap: square"/>
   </g>
   <g id="text_15">
    <text style="fill: #262626; font: 25px 'sans-serif'; text-anchor: middle" x="369" y="54.48" transform="rotate(-0, 369, 54.48)">Distribution of FCsp3</text>
   </g>
   <g id="legend_1">
    <g id="text_16">
     <text style="fill: #262626; font: 20px 'sans-serif'; text-anchor: start" x="547.803125" y="88.539375" transform="rotate(-0, 547.803125, 88.539375)">CpdClass</text>
    </g>
    <g id="line2d_21">
     <path d="M 564.317969 105.501094 
L 579.317969 105.501094 
L 579.317969 105.501094 
L 594.317969 105.501094 
L 594.317969 105.501094 
" style="fill: none; stroke: #1f77b4; stroke-width: 2.8; stroke-linecap: round"/>
    </g>
    <g id="text_17">
     <text style="fill: #262626; font: 15px 'sans-serif'; text-anchor: start" x="606.317969" y="110.751094" transform="rotate(-0, 606.317969, 110.751094)">A</text>
    </g>
    <g id="line2d_22">
     <path d="M 564.317969 126.719063 
L 579.317969 126.719063 
L 579.317969 126.719063 
L 594.317969 126.719063 
L 594.317969 126.719063 
" style="fill: none; stroke: #ff7f0e; stroke-width: 2.8; stroke-linecap: round"/>
    </g>
    <g id="text_18">
     <text style="fill: #262626; font: 15px 'sans-serif'; text-anchor: start" x="606.317969" y="131.969063" transform="rotate(-0, 606.317969, 131.969063)">B</text>
    </g>
    <g id="line2d_23">
     <path d="M 564.317969 147.937031 
L 579.317969 147.937031 
L 579.317969 147.937031 
L 594.317969 147.937031 
L 594.317969 147.937031 
" style="fill: none; stroke: #2ca02c; stroke-width: 2.8; stroke-linecap: round"/>
    </g>
    <g id="text_19">
     <text style="fill: #262626; font: 15px 'sans-serif'; text-anchor: start" x="606.317969" y="153.187031" transform="rotate(-0, 606.317969, 153.187031)">C</text>
    </g>
    <g id="line2d_24">
     <path d="M 564.317969 169.155 
L 579.317969 169.155 
L 579.317969 169.155 
L 594.317969 169.155 
L 594.317969 169.155 
" style="fill: none; stroke: #d62728; stroke-width: 2.8; stroke-linecap: round"/>
    </g>
    <g id="text_20">
     <text style="fill: #262626; font: 15px 'sans-serif'; text-anchor: start" x="606.317969" y="174.405" transform="rotate(-0, 606.317969, 174.405)">D</text>
    </g>
    <g id="line2d_25">
     <path d="M 564.317969 190.372969 
L 579.317969 190.372969 
L 579.317969 190.372969 
L 594.317969 190.372969 
L 594.317969 190.372969 
" style="fill: none; stroke: #9467bd; stroke-width: 2.8; stroke-linecap: round"/>
    </g>
    <g id="text_21">
     <text style="fill: #262626; font: 15px 'sans-serif'; text-anchor: start" x="606.317969" y="195.622969" transform="rotate(-0, 606.317969, 195.622969)">E</text>
    </g>
    <g id="line2d_26">
     <path d="M 564.317969 211.590937 
L 579.317969 211.590937 
L 579.317969 211.590937 
L 594.317969 211.590937 
L 594.317969 211.590937 
" style="fill: none; stroke: #8c564b; stroke-width: 2.8; stroke-linecap: round"/>
    </g>
    <g id="text_22">
     <text style="fill: #262626; font: 15px 'sans-serif'; text-anchor: start" x="606.317969" y="216.840937" transform="rotate(-0, 606.317969, 216.840937)">F</text>
    </g>
    <g id="line2d_27">
     <path d="M 564.317969 232.808906 
L 579.317969 232.808906 
L 579.317969 232.808906 
L 594.317969 232.808906 
L 594.317969 232.808906 
" style="fill: none; stroke: #e377c2; stroke-width: 2.8; stroke-linecap: round"/>
    </g>
    <g id="text_23">
     <text style="fill: #262626; font: 15px 'sans-serif'; text-anchor: start" x="606.317969" y="238.058906" transform="rotate(-0, 606.317969, 238.058906)">G</text>
    </g>
    <g id="line2d_28">
     <path d="M 564.317969 254.026875 
L 579.317969 254.026875 
L 579.317969 254.026875 
L 594.317969 254.026875 
L 594.317969 254.026875 
" style="fill: none; stroke: #7f7f7f; stroke-width: 2.8; stroke-linecap: round"/>
    </g>
    <g id="text_24">
     <text style="fill: #262626; font: 15px 'sans-serif'; text-anchor: start" x="606.317969" y="259.276875" transform="rotate(-0, 606.317969, 259.276875)">H</text>
    </g>
   </g>
  </g>
 </g>
 <defs>
  <clipPath id="p538edbc65e">
   <rect x="90" y="60.48" width="558" height="380.52"/>
  </clipPath>
 </defs>
</svg>
