<?xml version="1.0" encoding="utf-8" standalone="no"?>
<!DOCTYPE svg PUBLIC "-//W3C//DTD SVG 1.1//EN"
  "http://www.w3.org/Graphics/SVG/1.1/DTD/svg11.dtd">
<svg xmlns:xlink="http://www.w3.org/1999/xlink" width="720pt" height="504pt" viewBox="0 0 720 504" xmlns="http://www.w3.org/2000/svg" version="1.1">
 <metadata>
  <rdf:RDF xmlns:dc="http://purl.org/dc/elements/1.1/" xmlns:cc="http://creativecommons.org/ns#" xmlns:rdf="http://www.w3.org/1999/02/22-rdf-syntax-ns#">
   <cc:Work>
    <dc:type rdf:resource="http://purl.org/dc/dcmitype/StillImage"/>
    <dc:date>2023-05-25T14:34:07.333911</dc:date>
    <dc:format>image/svg+xml</dc:format>
    <dc:creator>
     <cc:Agent>
      <dc:title>Matplotlib v3.6.3, https://matplotlib.org/</dc:title>
     </cc:Agent>
    </dc:creator>
   </cc:Work>
  </rdf:RDF>
 </metadata>
 <defs>
  <style type="text/css">*{stroke-linejoin: round; stroke-linecap: butt}</style>
 </defs>
 <g id="figure_1">
  <g id="patch_1">
   <path d="M 0 504 
L 720 504 
L 720 0 
L 0 0 
z
" style="fill: #ffffff"/>
  </g>
  <g id="axes_1">
   <g id="patch_2">
    <path d="M 90 448.56 
L 648 448.56 
L 648 60.48 
L 90 60.48 
z
" style="fill: #ffffff"/>
   </g>
   <g id="matplotlib.axis_1">
    <g id="xtick_1">
     <g id="line2d_1"/>
     <g id="text_1">
      <text style="fill: #262626; font: 20px 'Arial', 'Liberation Sans', 'DejaVu Sans', 'Bitstream Vera Sans', sans-serif; text-anchor: middle" x="90" y="474.075625" transform="rotate(-0 90 474.075625)">0.0</text>
     </g>
    </g>
    <g id="xtick_2">
     <g id="line2d_2"/>
     <g id="text_2">
      <text style="fill: #262626; font: 20px 'Arial', 'Liberation Sans', 'DejaVu Sans', 'Bitstream Vera Sans', sans-serif; text-anchor: middle" x="201.6" y="474.075625" transform="rotate(-0 201.6 474.075625)">0.2</text>
     </g>
    </g>
    <g id="xtick_3">
     <g id="line2d_3"/>
     <g id="text_3">
      <text style="fill: #262626; font: 20px 'Arial', 'Liberation Sans', 'DejaVu Sans', 'Bitstream Vera Sans', sans-serif; text-anchor: middle" x="313.2" y="474.075625" transform="rotate(-0 313.2 474.075625)">0.4</text>
     </g>
    </g>
    <g id="xtick_4">
     <g id="line2d_4"/>
     <g id="text_4">
      <text style="fill: #262626; font: 20px 'Arial', 'Liberation Sans', 'DejaVu Sans', 'Bitstream Vera Sans', sans-serif; text-anchor: middle" x="424.8" y="474.075625" transform="rotate(-0 424.8 474.075625)">0.6</text>
     </g>
    </g>
    <g id="xtick_5">
     <g id="line2d_5"/>
     <g id="text_5">
      <text style="fill: #262626; font: 20px 'Arial', 'Liberation Sans', 'DejaVu Sans', 'Bitstream Vera Sans', sans-serif; text-anchor: middle" x="536.4" y="474.075625" transform="rotate(-0 536.4 474.075625)">0.8</text>
     </g>
    </g>
    <g id="xtick_6">
     <g id="line2d_6"/>
     <g id="text_6">
      <text style="fill: #262626; font: 20px 'Arial', 'Liberation Sans', 'DejaVu Sans', 'Bitstream Vera Sans', sans-serif; text-anchor: middle" x="648" y="474.075625" transform="rotate(-0 648 474.075625)">1.0</text>
     </g>
    </g>
    <g id="text_7">
     <text style="fill: #262626; font: 25px 'Arial', 'Liberation Sans', 'DejaVu Sans', 'Bitstream Vera Sans', sans-serif; text-anchor: middle" x="369" y="499.945156" transform="rotate(-0 369 499.945156)">QED</text>
    </g>
   </g>
   <g id="matplotlib.axis_2">
    <g id="ytick_1">
     <g id="line2d_7"/>
     <g id="text_8">
      <text style="fill: #262626; font: 20px 'Arial', 'Liberation Sans', 'DejaVu Sans', 'Bitstream Vera Sans', sans-serif; text-anchor: end" x="78.8" y="455.717813" transform="rotate(-0 78.8 455.717813)">0.0</text>
     </g>
    </g>
    <g id="ytick_2">
     <g id="line2d_8"/>
     <g id="text_9">
      <text style="fill: #262626; font: 20px 'Arial', 'Liberation Sans', 'DejaVu Sans', 'Bitstream Vera Sans', sans-serif; text-anchor: end" x="78.8" y="378.101813" transform="rotate(-0 78.8 378.101813)">0.2</text>
     </g>
    </g>
    <g id="ytick_3">
     <g id="line2d_9"/>
     <g id="text_10">
      <text style="fill: #262626; font: 20px 'Arial', 'Liberation Sans', 'DejaVu Sans', 'Bitstream Vera Sans', sans-serif; text-anchor: end" x="78.8" y="300.485813" transform="rotate(-0 78.8 300.485813)">0.4</text>
     </g>
    </g>
    <g id="ytick_4">
     <g id="line2d_10"/>
     <g id="text_11">
      <text style="fill: #262626; font: 20px 'Arial', 'Liberation Sans', 'DejaVu Sans', 'Bitstream Vera Sans', sans-serif; text-anchor: end" x="78.8" y="222.869812" transform="rotate(-0 78.8 222.869812)">0.6</text>
     </g>
    </g>
    <g id="ytick_5">
     <g id="line2d_11"/>
     <g id="text_12">
      <text style="fill: #262626; font: 20px 'Arial', 'Liberation Sans', 'DejaVu Sans', 'Bitstream Vera Sans', sans-serif; text-anchor: end" x="78.8" y="145.253812" transform="rotate(-0 78.8 145.253812)">0.8</text>
     </g>
    </g>
    <g id="ytick_6">
     <g id="line2d_12"/>
     <g id="text_13">
      <text style="fill: #262626; font: 20px 'Arial', 'Liberation Sans', 'DejaVu Sans', 'Bitstream Vera Sans', sans-serif; text-anchor: end" x="78.8" y="67.637812" transform="rotate(-0 78.8 67.637812)">1.0</text>
     </g>
    </g>
    <g id="text_14">
     <text style="fill: #262626; font: 25px 'Arial', 'Liberation Sans', 'DejaVu Sans', 'Bitstream Vera Sans', sans-serif; text-anchor: middle" x="42.03125" y="254.52" transform="rotate(-90 42.03125 254.52)">Proportion</text>
    </g>
   </g>
   <g id="line2d_13">
    <path d="M 442.098 448.56 
L 442.098 351.54 
L 443.772 351.54 
L 443.772 254.52 
L 444.888 254.52 
L 444.888 157.5 
L 476.694 157.5 
L 476.694 60.48 
" clip-path="url(#p09a5c2a50c)" style="fill: none; stroke: #7f7f7f; stroke-width: 2.8; stroke-linecap: round"/>
   </g>
   <g id="line2d_14">
    <path d="M 436.518 448.56 
L 436.518 429.156 
L 444.33 429.156 
L 444.33 409.752 
L 447.678 409.752 
L 447.678 390.348 
L 456.048 390.348 
L 456.048 370.944 
L 459.954 370.944 
L 459.954 351.54 
L 461.628 351.54 
L 461.628 332.136 
L 468.324 332.136 
L 468.324 312.732 
L 499.014 312.732 
L 499.014 293.328 
L 503.478 293.328 
L 503.478 273.924 
L 504.036 273.924 
L 504.036 254.52 
L 504.036 254.52 
L 504.036 235.116 
L 505.152 235.116 
L 505.152 215.712 
L 505.152 215.712 
L 505.152 196.308 
L 505.152 196.308 
L 505.152 176.904 
L 505.152 176.904 
L 505.152 157.5 
L 507.384 157.5 
L 507.384 138.096 
L 507.942 138.096 
L 507.942 118.692 
L 508.5 118.692 
L 508.5 99.288 
L 543.096 99.288 
L 543.096 79.884 
L 543.654 79.884 
L 543.654 60.48 
" clip-path="url(#p09a5c2a50c)" style="fill: none; stroke: #e377c2; stroke-width: 2.8; stroke-linecap: round"/>
   </g>
   <g id="line2d_15">
    <path d="M 423.126 448.56 
L 423.126 432.39 
L 423.126 432.39 
L 423.126 416.22 
L 426.474 416.22 
L 426.474 400.05 
L 428.148 400.05 
L 428.148 383.88 
L 433.728 383.88 
L 433.728 367.71 
L 433.728 367.71 
L 433.728 351.54 
L 449.352 351.54 
L 449.352 335.37 
L 454.374 335.37 
L 454.374 319.2 
L 454.374 319.2 
L 454.374 303.03 
L 454.374 303.03 
L 454.374 286.86 
L 458.28 286.86 
L 458.28 270.69 
L 461.07 270.69 
L 461.07 254.52 
L 479.484 254.52 
L 479.484 238.35 
L 486.18 238.35 
L 486.18 222.18 
L 486.18 222.18 
L 486.18 206.01 
L 489.528 206.01 
L 489.528 189.84 
L 489.528 189.84 
L 489.528 173.67 
L 490.644 173.67 
L 490.644 157.5 
L 492.318 157.5 
L 492.318 141.33 
L 493.992 141.33 
L 493.992 125.16 
L 495.108 125.16 
L 495.108 108.99 
L 504.594 108.99 
L 504.594 92.82 
L 506.268 92.82 
L 506.268 76.65 
L 531.936 76.65 
L 531.936 60.48 
" clip-path="url(#p09a5c2a50c)" style="fill: none; stroke: #8c564b; stroke-width: 2.8; stroke-linecap: round"/>
   </g>
   <g id="line2d_16">
    <path d="M 278.046 448.56 
L 278.046 429.156 
L 290.88 429.156 
L 290.88 409.752 
L 291.996 409.752 
L 291.996 390.348 
L 295.344 390.348 
L 295.344 370.944 
L 312.642 370.944 
L 312.642 351.54 
L 312.642 351.54 
L 312.642 332.136 
L 326.034 332.136 
L 326.034 312.732 
L 336.636 312.732 
L 336.636 293.328 
L 342.774 293.328 
L 342.774 273.924 
L 348.912 273.924 
L 348.912 254.52 
L 350.028 254.52 
L 350.028 235.116 
L 351.144 235.116 
L 351.144 215.712 
L 356.166 215.712 
L 356.166 196.308 
L 358.398 196.308 
L 358.398 176.904 
L 358.398 176.904 
L 358.398 157.5 
L 358.956 157.5 
L 358.956 138.096 
L 359.514 138.096 
L 359.514 118.692 
L 369.558 118.692 
L 369.558 99.288 
L 369.558 99.288 
L 369.558 79.884 
L 370.116 79.884 
L 370.116 60.48 
" clip-path="url(#p09a5c2a50c)" style="fill: none; stroke: #9467bd; stroke-width: 2.8; stroke-linecap: round"/>
   </g>
   <g id="line2d_17">
    <path d="M 415.872 448.56 
L 415.872 409.752 
L 468.882 409.752 
L 468.882 370.944 
L 479.484 370.944 
L 479.484 332.136 
L 479.484 332.136 
L 479.484 293.328 
L 482.832 293.328 
L 482.832 254.52 
L 492.318 254.52 
L 492.318 215.712 
L 504.594 215.712 
L 504.594 176.904 
L 506.268 176.904 
L 506.268 138.096 
L 510.732 138.096 
L 510.732 99.288 
L 512.964 99.288 
L 512.964 60.48 
" clip-path="url(#p09a5c2a50c)" style="fill: none; stroke: #d62728; stroke-width: 2.8; stroke-linecap: round"/>
   </g>
   <g id="line2d_18">
    <path d="M 331.614 448.56 
L 331.614 425.731765 
L 375.696 425.731765 
L 375.696 402.903529 
L 394.11 402.903529 
L 394.11 380.075294 
L 394.668 380.075294 
L 394.668 357.247059 
L 395.226 357.247059 
L 395.226 334.418824 
L 395.784 334.418824 
L 395.784 311.590588 
L 419.778 311.590588 
L 419.778 288.762353 
L 433.728 288.762353 
L 433.728 265.934118 
L 433.728 265.934118 
L 433.728 243.105882 
L 434.844 243.105882 
L 434.844 220.277647 
L 448.236 220.277647 
L 448.236 197.449412 
L 509.058 197.449412 
L 509.058 174.621176 
L 510.732 174.621176 
L 510.732 151.792941 
L 512.964 151.792941 
L 512.964 128.964706 
L 526.914 128.964706 
L 526.914 106.136471 
L 528.03 106.136471 
L 528.03 83.308235 
L 538.632 83.308235 
L 538.632 60.48 
" clip-path="url(#p09a5c2a50c)" style="fill: none; stroke: #2ca02c; stroke-width: 2.8; stroke-linecap: round"/>
   </g>
   <g id="line2d_19">
    <path d="M 463.302 448.56 
L 463.302 427 
L 523.566 427 
L 523.566 405.44 
L 529.704 405.44 
L 529.704 383.88 
L 531.936 383.88 
L 531.936 362.32 
L 532.494 362.32 
L 532.494 340.76 
L 532.494 340.76 
L 532.494 319.2 
L 535.284 319.2 
L 535.284 297.64 
L 535.284 297.64 
L 535.284 276.08 
L 535.284 276.08 
L 535.284 254.52 
L 538.074 254.52 
L 538.074 232.96 
L 542.538 232.96 
L 542.538 211.4 
L 543.096 211.4 
L 543.096 189.84 
L 543.096 189.84 
L 543.096 168.28 
L 576.018 168.28 
L 576.018 146.72 
L 579.366 146.72 
L 579.366 125.16 
L 602.802 125.16 
L 602.802 103.6 
L 602.802 103.6 
L 602.802 82.04 
L 606.15 82.04 
L 606.15 60.48 
" clip-path="url(#p09a5c2a50c)" style="fill: none; stroke: #ff7f0e; stroke-width: 2.8; stroke-linecap: round"/>
   </g>
   <g id="line2d_20">
    <path d="M 415.872 448.56 
L 415.872 438.858 
L 422.01 438.858 
L 422.01 429.156 
L 424.8 429.156 
L 424.8 419.454 
L 442.656 419.454 
L 442.656 409.752 
L 447.12 409.752 
L 447.12 400.05 
L 455.49 400.05 
L 455.49 390.348 
L 471.114 390.348 
L 471.114 380.646 
L 478.368 380.646 
L 478.368 370.944 
L 481.158 370.944 
L 481.158 361.242 
L 484.506 361.242 
L 484.506 351.54 
L 484.506 351.54 
L 484.506 341.838 
L 485.622 341.838 
L 485.622 332.136 
L 485.622 332.136 
L 485.622 322.434 
L 488.412 322.434 
L 488.412 312.732 
L 488.412 312.732 
L 488.412 303.03 
L 488.412 303.03 
L 488.412 293.328 
L 488.412 293.328 
L 488.412 283.626 
L 488.412 283.626 
L 488.412 273.924 
L 488.97 273.924 
L 488.97 264.222 
L 488.97 264.222 
L 488.97 254.52 
L 488.97 254.52 
L 488.97 244.818 
L 488.97 244.818 
L 488.97 235.116 
L 490.644 235.116 
L 490.644 225.414 
L 493.992 225.414 
L 493.992 215.712 
L 493.992 215.712 
L 493.992 206.01 
L 507.384 206.01 
L 507.384 196.308 
L 507.942 196.308 
L 507.942 186.606 
L 507.942 186.606 
L 507.942 176.904 
L 508.5 176.904 
L 508.5 167.202 
L 508.5 167.202 
L 508.5 157.5 
L 536.4 157.5 
L 536.4 147.798 
L 539.748 147.798 
L 539.748 138.096 
L 539.748 138.096 
L 539.748 128.394 
L 539.748 128.394 
L 539.748 118.692 
L 541.422 118.692 
L 541.422 108.99 
L 549.792 108.99 
L 549.792 99.288 
L 561.51 99.288 
L 561.51 89.586 
L 562.626 89.586 
L 562.626 79.884 
L 565.974 79.884 
L 565.974 70.182 
L 569.88 70.182 
L 569.88 60.48 
" clip-path="url(#p09a5c2a50c)" style="fill: none; stroke: #1f77b4; stroke-width: 2.8; stroke-linecap: round"/>
   </g>
   <g id="patch_3">
    <path d="M 90 448.56 
L 90 60.48 
" style="fill: none; stroke: #262626; stroke-width: 1.25; stroke-linejoin: miter; stroke-linecap: square"/>
   </g>
   <g id="patch_4">
    <path d="M 648 448.56 
L 648 60.48 
" style="fill: none; stroke: #262626; stroke-width: 1.25; stroke-linejoin: miter; stroke-linecap: square"/>
   </g>
   <g id="patch_5">
    <path d="M 90 448.56 
L 648 448.56 
" style="fill: none; stroke: #262626; stroke-width: 1.25; stroke-linejoin: miter; stroke-linecap: square"/>
   </g>
   <g id="patch_6">
    <path d="M 90 60.48 
L 648 60.48 
" style="fill: none; stroke: #262626; stroke-width: 1.25; stroke-linejoin: miter; stroke-linecap: square"/>
   </g>
   <g id="text_15">
    <text style="fill: #262626; font: 25px 'Arial', 'Liberation Sans', 'DejaVu Sans', 'Bitstream Vera Sans', sans-serif; text-anchor: middle" x="369" y="54.48" transform="rotate(-0 369 54.48)">Distribution of QED</text>
   </g>
   <g id="legend_1">
    <g id="text_16">
     <text style="fill: #262626; font: 20px 'Arial', 'Liberation Sans', 'DejaVu Sans', 'Bitstream Vera Sans', sans-serif; text-anchor: start" x="103.5" y="88.539375" transform="rotate(-0 103.5 88.539375)">CpdClass</text>
    </g>
    <g id="line2d_21">
     <path d="M 120.014844 105.501094 
L 135.014844 105.501094 
L 135.014844 105.501094 
L 150.014844 105.501094 
L 150.014844 105.501094 
" style="fill: none; stroke: #1f77b4; stroke-width: 2.8; stroke-linecap: round"/>
    </g>
    <g id="text_17">
     <text style="fill: #262626; font: 15px 'Arial', 'Liberation Sans', 'DejaVu Sans', 'Bitstream Vera Sans', sans-serif; text-anchor: start" x="162.014844" y="110.751094" transform="rotate(-0 162.014844 110.751094)">A</text>
    </g>
    <g id="line2d_22">
     <path d="M 120.014844 126.719063 
L 135.014844 126.719063 
L 135.014844 126.719063 
L 150.014844 126.719063 
L 150.014844 126.719063 
" style="fill: none; stroke: #ff7f0e; stroke-width: 2.8; stroke-linecap: round"/>
    </g>
    <g id="text_18">
     <text style="fill: #262626; font: 15px 'Arial', 'Liberation Sans', 'DejaVu Sans', 'Bitstream Vera Sans', sans-serif; text-anchor: start" x="162.014844" y="131.969063" transform="rotate(-0 162.014844 131.969063)">B</text>
    </g>
    <g id="line2d_23">
     <path d="M 120.014844 147.937031 
L 135.014844 147.937031 
L 135.014844 147.937031 
L 150.014844 147.937031 
L 150.014844 147.937031 
" style="fill: none; stroke: #2ca02c; stroke-width: 2.8; stroke-linecap: round"/>
    </g>
    <g id="text_19">
     <text style="fill: #262626; font: 15px 'Arial', 'Liberation Sans', 'DejaVu Sans', 'Bitstream Vera Sans', sans-serif; text-anchor: start" x="162.014844" y="153.187031" transform="rotate(-0 162.014844 153.187031)">C</text>
    </g>
    <g id="line2d_24">
     <path d="M 120.014844 169.155 
L 135.014844 169.155 
L 135.014844 169.155 
L 150.014844 169.155 
L 150.014844 169.155 
" style="fill: none; stroke: #d62728; stroke-width: 2.8; stroke-linecap: round"/>
    </g>
    <g id="text_20">
     <text style="fill: #262626; font: 15px 'Arial', 'Liberation Sans', 'DejaVu Sans', 'Bitstream Vera Sans', sans-serif; text-anchor: start" x="162.014844" y="174.405" transform="rotate(-0 162.014844 174.405)">D</text>
    </g>
    <g id="line2d_25">
     <path d="M 120.014844 190.372969 
L 135.014844 190.372969 
L 135.014844 190.372969 
L 150.014844 190.372969 
L 150.014844 190.372969 
" style="fill: none; stroke: #9467bd; stroke-width: 2.8; stroke-linecap: round"/>
    </g>
    <g id="text_21">
     <text style="fill: #262626; font: 15px 'Arial', 'Liberation Sans', 'DejaVu Sans', 'Bitstream Vera Sans', sans-serif; text-anchor: start" x="162.014844" y="195.622969" transform="rotate(-0 162.014844 195.622969)">E</text>
    </g>
    <g id="line2d_26">
     <path d="M 120.014844 211.590937 
L 135.014844 211.590937 
L 135.014844 211.590937 
L 150.014844 211.590937 
L 150.014844 211.590937 
" style="fill: none; stroke: #8c564b; stroke-width: 2.8; stroke-linecap: round"/>
    </g>
    <g id="text_22">
     <text style="fill: #262626; font: 15px 'Arial', 'Liberation Sans', 'DejaVu Sans', 'Bitstream Vera Sans', sans-serif; text-anchor: start" x="162.014844" y="216.840937" transform="rotate(-0 162.014844 216.840937)">F</text>
    </g>
    <g id="line2d_27">
     <path d="M 120.014844 232.808906 
L 135.014844 232.808906 
L 135.014844 232.808906 
L 150.014844 232.808906 
L 150.014844 232.808906 
" style="fill: none; stroke: #e377c2; stroke-width: 2.8; stroke-linecap: round"/>
    </g>
    <g id="text_23">
     <text style="fill: #262626; font: 15px 'Arial', 'Liberation Sans', 'DejaVu Sans', 'Bitstream Vera Sans', sans-serif; text-anchor: start" x="162.014844" y="238.058906" transform="rotate(-0 162.014844 238.058906)">G</text>
    </g>
    <g id="line2d_28">
     <path d="M 120.014844 254.026875 
L 135.014844 254.026875 
L 135.014844 254.026875 
L 150.014844 254.026875 
L 150.014844 254.026875 
" style="fill: none; stroke: #7f7f7f; stroke-width: 2.8; stroke-linecap: round"/>
    </g>
    <g id="text_24">
     <text style="fill: #262626; font: 15px 'Arial', 'Liberation Sans', 'DejaVu Sans', 'Bitstream Vera Sans', sans-serif; text-anchor: start" x="162.014844" y="259.276875" transform="rotate(-0 162.014844 259.276875)">H</text>
    </g>
   </g>
  </g>
 </g>
 <defs>
  <clipPath id="p09a5c2a50c">
   <rect x="90" y="60.48" width="558" height="388.08"/>
  </clipPath>
 </defs>
</svg>
