<?xml version="1.0" encoding="utf-8" standalone="no"?>
<!DOCTYPE svg PUBLIC "-//W3C//DTD SVG 1.1//EN"
  "http://www.w3.org/Graphics/SVG/1.1/DTD/svg11.dtd">
<svg xmlns:xlink="http://www.w3.org/1999/xlink" width="720pt" height="504pt" viewBox="0 0 720 504" xmlns="http://www.w3.org/2000/svg" version="1.1">
 <metadata>
  <rdf:RDF xmlns:dc="http://purl.org/dc/elements/1.1/" xmlns:cc="http://creativecommons.org/ns#" xmlns:rdf="http://www.w3.org/1999/02/22-rdf-syntax-ns#">
   <cc:Work>
    <dc:type rdf:resource="http://purl.org/dc/dcmitype/StillImage"/>
    <dc:date>2022-08-17T09:04:27.519343</dc:date>
    <dc:format>image/svg+xml</dc:format>
    <dc:creator>
     <cc:Agent>
      <dc:title>Matplotlib v3.5.1, https://matplotlib.org/</dc:title>
     </cc:Agent>
    </dc:creator>
   </cc:Work>
  </rdf:RDF>
 </metadata>
 <defs>
  <style type="text/css">*{stroke-linejoin: round; stroke-linecap: butt}</style>
 </defs>
 <g id="figure_1">
  <g id="patch_1">
   <path d="M 0 504 
L 720 504 
L 720 0 
L 0 0 
z
" style="fill: #ffffff"/>
  </g>
  <g id="axes_1">
   <g id="patch_2">
    <path d="M 90 441 
L 648 441 
L 648 60.48 
L 90 60.48 
z
" style="fill: #ffffff"/>
   </g>
   <g id="matplotlib.axis_1">
    <g id="xtick_1">
     <g id="line2d_1"/>
     <g id="text_1">
      <text style="fill: #262626; font: 20px 'sans-serif'; text-anchor: middle" x="145.8" y="466.515625" transform="rotate(-0, 145.8, 466.515625)">−4</text>
     </g>
    </g>
    <g id="xtick_2">
     <g id="line2d_2"/>
     <g id="text_2">
      <text style="fill: #262626; font: 20px 'sans-serif'; text-anchor: middle" x="257.4" y="466.515625" transform="rotate(-0, 257.4, 466.515625)">−2</text>
     </g>
    </g>
    <g id="xtick_3">
     <g id="line2d_3"/>
     <g id="text_3">
      <text style="fill: #262626; font: 20px 'sans-serif'; text-anchor: middle" x="369" y="466.515625" transform="rotate(-0, 369, 466.515625)">0</text>
     </g>
    </g>
    <g id="xtick_4">
     <g id="line2d_4"/>
     <g id="text_4">
      <text style="fill: #262626; font: 20px 'sans-serif'; text-anchor: middle" x="480.6" y="466.515625" transform="rotate(-0, 480.6, 466.515625)">2</text>
     </g>
    </g>
    <g id="xtick_5">
     <g id="line2d_5"/>
     <g id="text_5">
      <text style="fill: #262626; font: 20px 'sans-serif'; text-anchor: middle" x="592.2" y="466.515625" transform="rotate(-0, 592.2, 466.515625)">4</text>
     </g>
    </g>
    <g id="text_6">
     <text style="fill: #262626; font: 25px 'sans-serif'; text-anchor: middle" x="369" y="492.385156" transform="rotate(-0, 369, 492.385156)">NP_Like</text>
    </g>
   </g>
   <g id="matplotlib.axis_2">
    <g id="ytick_1">
     <g id="line2d_6"/>
     <g id="text_7">
      <text style="fill: #262626; font: 20px 'sans-serif'; text-anchor: end" x="78.8" y="448.157812" transform="rotate(-0, 78.8, 448.157812)">0.0</text>
     </g>
    </g>
    <g id="ytick_2">
     <g id="line2d_7"/>
     <g id="text_8">
      <text style="fill: #262626; font: 20px 'sans-serif'; text-anchor: end" x="78.8" y="372.053813" transform="rotate(-0, 78.8, 372.053813)">0.2</text>
     </g>
    </g>
    <g id="ytick_3">
     <g id="line2d_8"/>
     <g id="text_9">
      <text style="fill: #262626; font: 20px 'sans-serif'; text-anchor: end" x="78.8" y="295.949813" transform="rotate(-0, 78.8, 295.949813)">0.4</text>
     </g>
    </g>
    <g id="ytick_4">
     <g id="line2d_9"/>
     <g id="text_10">
      <text style="fill: #262626; font: 20px 'sans-serif'; text-anchor: end" x="78.8" y="219.845812" transform="rotate(-0, 78.8, 219.845812)">0.6</text>
     </g>
    </g>
    <g id="ytick_5">
     <g id="line2d_10"/>
     <g id="text_11">
      <text style="fill: #262626; font: 20px 'sans-serif'; text-anchor: end" x="78.8" y="143.741812" transform="rotate(-0, 78.8, 143.741812)">0.8</text>
     </g>
    </g>
    <g id="ytick_6">
     <g id="line2d_11"/>
     <g id="text_12">
      <text style="fill: #262626; font: 20px 'sans-serif'; text-anchor: end" x="78.8" y="67.637812" transform="rotate(-0, 78.8, 67.637812)">1.0</text>
     </g>
    </g>
    <g id="text_13">
     <text style="fill: #262626; font: 25px 'sans-serif'; text-anchor: middle" x="42.03125" y="250.74" transform="rotate(-90, 42.03125, 250.74)">Proportion</text>
    </g>
   </g>
   <g id="line2d_12">
    <path d="M 321.012 441 
L 321.012 438.512941 
L 324.918 438.512941 
L 324.918 436.025882 
L 331.056 436.025882 
L 331.056 431.051765 
L 332.73 431.051765 
L 332.73 428.564706 
L 333.846 428.564706 
L 333.846 421.103529 
L 336.636 421.103529 
L 336.636 418.616471 
L 337.752 418.616471 
L 337.752 416.129412 
L 338.31 416.129412 
L 338.31 413.642353 
L 338.868 413.642353 
L 338.868 408.668235 
L 339.984 408.668235 
L 339.984 406.181176 
L 341.1 406.181176 
L 341.1 403.694118 
L 341.658 403.694118 
L 341.658 396.232941 
L 342.216 396.232941 
L 342.216 393.745882 
L 343.89 393.745882 
L 343.89 388.771765 
L 345.006 388.771765 
L 345.006 386.284706 
L 346.68 386.284706 
L 346.68 381.310588 
L 348.354 381.310588 
L 348.354 376.336471 
L 348.912 376.336471 
L 348.912 363.901176 
L 349.47 363.901176 
L 349.47 361.414118 
L 350.028 361.414118 
L 350.028 358.927059 
L 351.144 358.927059 
L 351.144 346.491765 
L 352.26 346.491765 
L 352.26 339.030588 
L 353.376 339.030588 
L 353.376 336.543529 
L 353.934 336.543529 
L 353.934 331.569412 
L 354.492 331.569412 
L 354.492 329.082353 
L 355.05 329.082353 
L 355.05 319.134118 
L 355.608 319.134118 
L 355.608 311.672941 
L 356.166 311.672941 
L 356.166 306.698824 
L 356.724 306.698824 
L 356.724 301.724706 
L 358.398 301.724706 
L 358.398 294.263529 
L 358.956 294.263529 
L 358.956 291.776471 
L 360.072 291.776471 
L 360.072 286.802353 
L 361.746 286.802353 
L 361.746 279.341176 
L 362.862 279.341176 
L 362.862 274.367059 
L 363.978 274.367059 
L 363.978 266.905882 
L 364.536 266.905882 
L 364.536 264.418824 
L 365.094 264.418824 
L 365.094 261.931765 
L 366.768 261.931765 
L 366.768 256.957647 
L 367.326 256.957647 
L 367.326 247.009412 
L 367.884 247.009412 
L 367.884 234.574118 
L 368.442 234.574118 
L 368.442 229.6 
L 369 229.6 
L 369 224.625882 
L 369.558 224.625882 
L 369.558 222.138824 
L 370.116 222.138824 
L 370.116 219.651765 
L 371.232 219.651765 
L 371.232 217.164706 
L 371.79 217.164706 
L 371.79 207.216471 
L 372.348 207.216471 
L 372.348 199.755294 
L 372.906 199.755294 
L 372.906 197.268235 
L 373.464 197.268235 
L 373.464 189.807059 
L 374.022 189.807059 
L 374.022 184.832941 
L 374.58 184.832941 
L 374.58 182.345882 
L 375.138 182.345882 
L 375.138 177.371765 
L 375.696 177.371765 
L 375.696 172.397647 
L 376.812 172.397647 
L 376.812 164.936471 
L 377.37 164.936471 
L 377.37 159.962353 
L 380.16 159.962353 
L 380.16 157.475294 
L 380.718 157.475294 
L 380.718 152.501176 
L 381.834 152.501176 
L 381.834 147.527059 
L 382.392 147.527059 
L 382.392 145.04 
L 382.95 145.04 
L 382.95 137.578824 
L 384.066 137.578824 
L 384.066 130.117647 
L 384.624 130.117647 
L 384.624 127.630588 
L 385.182 127.630588 
L 385.182 120.169412 
L 385.74 120.169412 
L 385.74 115.195294 
L 386.298 115.195294 
L 386.298 112.708235 
L 387.972 112.708235 
L 387.972 110.221176 
L 391.32 110.221176 
L 391.32 102.76 
L 391.878 102.76 
L 391.878 95.298824 
L 392.436 95.298824 
L 392.436 92.811765 
L 394.668 92.811765 
L 394.668 90.324706 
L 396.342 90.324706 
L 396.342 87.837647 
L 398.574 87.837647 
L 398.574 85.350588 
L 399.132 85.350588 
L 399.132 82.863529 
L 399.69 82.863529 
L 399.69 80.376471 
L 401.922 80.376471 
L 401.922 77.889412 
L 402.48 77.889412 
L 402.48 75.402353 
L 406.386 75.402353 
L 406.386 72.915294 
L 406.944 72.915294 
L 406.944 70.428235 
L 410.292 70.428235 
L 410.292 65.454118 
L 413.64 65.454118 
L 413.64 62.967059 
L 432.054 62.967059 
L 432.054 60.48 
L 432.054 60.48 
" clip-path="url(#pd1409e8d3d)" style="fill: none; stroke: #d62728; stroke-width: 2.8; stroke-linecap: round"/>
   </g>
   <g id="line2d_13">
    <path d="M 244.008 441 
L 244.008 440.99167 
L 268.56 440.883376 
L 268.56 440.875045 
L 276.372 440.766751 
L 276.372 440.758421 
L 283.068 440.658457 
L 283.068 440.650127 
L 283.068 440.633467 
L 288.09 440.525173 
L 288.09 440.516842 
L 291.996 440.425209 
L 291.996 440.408548 
L 291.996 440.400218 
L 297.018 440.300254 
L 297.018 440.291924 
L 297.018 440.241942 
L 300.924 440.133648 
L 300.924 440.067006 
L 303.156 439.983703 
L 303.156 439.958712 
L 303.156 439.925391 
L 305.946 439.817097 
L 305.946 439.792106 
L 308.736 439.683812 
L 308.736 439.64216 
L 311.526 439.533866 
L 311.526 439.508875 
L 314.316 439.417242 
L 314.316 439.400581 
L 314.316 439.35893 
L 317.106 439.258966 
L 317.106 439.250636 
L 317.106 439.225645 
L 318.78 439.142342 
L 318.78 439.117351 
L 318.78 439.109021 
L 320.454 439.034048 
L 320.454 439.000727 
L 320.454 438.975736 
L 322.128 438.884103 
L 322.128 438.867442 
L 322.128 438.850781 
L 323.802 438.742487 
L 323.802 438.675845 
L 325.476 438.575881 
L 325.476 438.567551 
L 325.476 438.525899 
L 327.15 438.417605 
L 327.15 438.375954 
L 328.266 438.300981 
L 328.266 438.26766 
L 328.266 438.209348 
L 329.382 438.151036 
L 329.382 438.101054 
L 329.382 438.067733 
L 330.498 438.042742 
L 330.498 437.959439 
L 330.498 437.951108 
L 331.614 437.909457 
L 331.614 437.842814 
L 331.614 437.834484 
L 332.73 437.776172 
L 332.73 437.72619 
L 332.73 437.659548 
L 333.846 437.592905 
L 333.846 437.551254 
L 333.846 437.517933 
L 334.962 437.409639 
L 334.962 437.367987 
L 336.078 437.259693 
L 336.078 437.18472 
L 337.194 437.076426 
L 337.194 436.959802 
L 337.752 436.959802 
L 337.752 436.851508 
L 337.752 436.843178 
L 338.868 436.768205 
L 338.868 436.734884 
L 338.868 436.676572 
L 339.984 436.576608 
L 339.984 436.568278 
L 339.984 436.526626 
L 341.1 436.434993 
L 341.1 436.418332 
L 341.1 436.36002 
L 342.216 436.276717 
L 342.216 436.251726 
L 342.216 436.160093 
L 342.774 436.160093 
L 342.774 436.051799 
L 342.774 435.985156 
L 343.89 435.876862 
L 343.89 435.785229 
L 344.448 435.785229 
L 344.448 435.676935 
L 344.448 435.635284 
L 345.006 435.635284 
L 345.006 435.52699 
L 345.006 435.485338 
L 345.564 435.485338 
L 345.564 435.377044 
L 345.564 435.343723 
L 346.122 435.343723 
L 346.122 435.235429 
L 346.122 435.202108 
L 346.68 435.202108 
L 346.68 435.093814 
L 346.68 435.085483 
L 347.238 435.085483 
L 347.238 434.97719 
L 347.238 434.968859 
L 348.354 434.877226 
L 348.354 434.860565 
L 348.354 434.735611 
L 348.912 434.735611 
L 348.912 434.627317 
L 348.912 434.552344 
L 350.028 434.44405 
L 350.028 434.302435 
L 350.586 434.302435 
L 350.586 434.194141 
L 350.586 434.185811 
L 351.144 434.185811 
L 351.144 434.077517 
L 351.144 434.044195 
L 351.702 434.044195 
L 351.702 433.935901 
L 351.702 433.835938 
L 352.26 433.835938 
L 352.26 433.727644 
L 352.26 433.661001 
L 352.818 433.661001 
L 352.818 433.552707 
L 352.818 433.486065 
L 353.376 433.486065 
L 353.376 433.377771 
L 353.376 433.311129 
L 353.934 433.311129 
L 353.934 433.202835 
L 353.934 433.094541 
L 354.492 433.094541 
L 354.492 432.986247 
L 354.492 432.844631 
L 355.05 432.844631 
L 355.05 432.736337 
L 355.05 432.636374 
L 355.608 432.636374 
L 355.608 432.52808 
L 355.608 432.436447 
L 356.724 432.344813 
L 356.724 432.328153 
L 356.724 432.136556 
L 357.282 432.136556 
L 357.282 432.028262 
L 357.282 431.795013 
L 357.84 431.795013 
L 357.84 431.686719 
L 357.84 431.628407 
L 358.398 431.628407 
L 358.398 431.520113 
L 358.398 431.411819 
L 358.956 431.411819 
L 358.956 431.303525 
L 358.956 431.17024 
L 359.514 431.17024 
L 359.514 431.061946 
L 359.514 430.978643 
L 360.072 430.978643 
L 360.072 430.870349 
L 360.072 430.712073 
L 360.63 430.712073 
L 360.63 430.603779 
L 360.63 430.512146 
L 361.188 430.512146 
L 361.188 430.403852 
L 361.188 430.262237 
L 361.746 430.262237 
L 361.746 430.153943 
L 361.746 430.037319 
L 362.304 430.037319 
L 362.304 429.929025 
L 362.304 429.862382 
L 362.862 429.862382 
L 362.862 429.754088 
L 362.862 429.587482 
L 363.42 429.587482 
L 363.42 429.479188 
L 363.42 429.295922 
L 363.978 429.295922 
L 363.978 429.187628 
L 363.978 429.054343 
L 364.536 429.054343 
L 364.536 428.946049 
L 364.536 428.804434 
L 365.094 428.804434 
L 365.094 428.69614 
L 365.094 428.579515 
L 365.652 428.579515 
L 365.652 428.471221 
L 365.652 428.362927 
L 366.21 428.362927 
L 366.21 428.254633 
L 366.21 428.146339 
L 366.768 428.146339 
L 366.768 428.038045 
L 366.768 427.721494 
L 367.326 427.721494 
L 367.326 427.6132 
L 367.326 427.496576 
L 367.884 427.496576 
L 367.884 427.388282 
L 367.884 427.196685 
L 368.442 427.196685 
L 368.442 427.088391 
L 368.442 426.880133 
L 369 426.880133 
L 369 426.771839 
L 369 426.596903 
L 369.558 426.596903 
L 369.558 426.488609 
L 369.558 426.25536 
L 370.116 426.25536 
L 370.116 426.147066 
L 370.116 425.913818 
L 370.674 425.913818 
L 370.674 425.805524 
L 370.674 425.513963 
L 371.232 425.513963 
L 371.232 425.405669 
L 371.232 425.197412 
L 371.79 425.197412 
L 371.79 425.089118 
L 371.79 424.672602 
L 372.348 424.672602 
L 372.348 424.564308 
L 372.348 424.281078 
L 372.906 424.281078 
L 372.906 424.172784 
L 372.906 423.922875 
L 373.464 423.922875 
L 373.464 423.814581 
L 373.464 423.473038 
L 374.022 423.473038 
L 374.022 423.364744 
L 374.022 423.098175 
L 374.58 423.098175 
L 374.58 422.989881 
L 374.58 422.764962 
L 375.138 422.764962 
L 375.138 422.656668 
L 375.138 422.356778 
L 375.696 422.356778 
L 375.696 422.248484 
L 375.696 422.015235 
L 376.254 422.015235 
L 376.254 421.906941 
L 376.254 421.665362 
L 376.812 421.665362 
L 376.812 421.557068 
L 376.812 421.290498 
L 377.37 421.290498 
L 377.37 421.182205 
L 377.37 421.023929 
L 377.928 421.023929 
L 377.928 420.915635 
L 377.928 420.757359 
L 378.486 420.757359 
L 378.486 420.649065 
L 378.486 420.315853 
L 379.044 420.315853 
L 379.044 420.207559 
L 379.044 419.949319 
L 379.602 419.949319 
L 379.602 419.841025 
L 379.602 419.657759 
L 380.16 419.657759 
L 380.16 419.549465 
L 380.16 419.307886 
L 380.718 419.307886 
L 380.718 419.199592 
L 380.718 418.899701 
L 381.276 418.899701 
L 381.276 418.791407 
L 381.276 418.508177 
L 381.834 418.508177 
L 381.834 418.399883 
L 381.834 418.124983 
L 382.392 418.124983 
L 382.392 418.016689 
L 382.392 417.716798 
L 382.95 417.716798 
L 382.95 417.608504 
L 382.95 417.216979 
L 383.508 417.216979 
L 383.508 417.108685 
L 383.508 416.908758 
L 384.066 416.908758 
L 384.066 416.800464 
L 384.066 416.400609 
L 384.624 416.400609 
L 384.624 416.292316 
L 384.624 416.075728 
L 385.182 416.075728 
L 385.182 415.967434 
L 385.182 415.525927 
L 385.74 415.525927 
L 385.74 415.417633 
L 385.74 415.067761 
L 386.298 415.067761 
L 386.298 414.959467 
L 386.298 414.476309 
L 386.856 414.476309 
L 386.856 414.368015 
L 386.856 413.934839 
L 387.414 413.934839 
L 387.414 413.826545 
L 387.414 413.509994 
L 387.972 413.509994 
L 387.972 413.4017 
L 387.972 412.985184 
L 388.53 412.985184 
L 388.53 412.87689 
L 388.53 412.543678 
L 389.088 412.543678 
L 389.088 412.435384 
L 389.088 412.03553 
L 389.646 412.03553 
L 389.646 411.927236 
L 389.646 411.460739 
L 390.204 411.460739 
L 390.204 411.352445 
L 390.204 410.910939 
L 390.762 410.910939 
L 390.762 410.802645 
L 390.762 410.369469 
L 391.32 410.369469 
L 391.32 410.261175 
L 391.32 409.744696 
L 391.878 409.744696 
L 391.878 409.636402 
L 391.878 409.053281 
L 392.436 409.053281 
L 392.436 408.944987 
L 392.436 408.48682 
L 392.994 408.48682 
L 392.994 408.378526 
L 392.994 407.93702 
L 393.552 407.93702 
L 393.552 407.828726 
L 393.552 407.237274 
L 394.11 407.237274 
L 394.11 407.12898 
L 394.11 406.679144 
L 394.668 406.679144 
L 394.668 406.57085 
L 394.668 406.121013 
L 395.226 406.121013 
L 395.226 406.012719 
L 395.226 405.546222 
L 395.784 405.546222 
L 395.784 405.437928 
L 395.784 405.038074 
L 396.342 405.038074 
L 396.342 404.92978 
L 396.342 404.471613 
L 396.9 404.471613 
L 396.9 404.363319 
L 396.9 403.888491 
L 397.458 403.888491 
L 397.458 403.780197 
L 397.458 403.330361 
L 398.016 403.330361 
L 398.016 403.222067 
L 398.016 402.730579 
L 398.574 402.730579 
L 398.574 402.622285 
L 398.574 402.122467 
L 399.132 402.122467 
L 399.132 402.014173 
L 399.132 401.497694 
L 399.69 401.497694 
L 399.69 401.3894 
L 399.69 400.85626 
L 400.248 400.85626 
L 400.248 400.747966 
L 400.248 400.139854 
L 400.806 400.139854 
L 400.806 400.03156 
L 400.806 399.456769 
L 401.364 399.456769 
L 401.364 399.348475 
L 401.364 398.557096 
L 401.922 398.557096 
L 401.922 398.448802 
L 401.922 397.874011 
L 402.48 397.874011 
L 402.48 397.765717 
L 402.48 397.165935 
L 403.038 397.165935 
L 403.038 397.057641 
L 403.038 396.457859 
L 403.596 396.457859 
L 403.596 396.349565 
L 403.596 395.66648 
L 404.154 395.66648 
L 404.154 395.558186 
L 404.154 394.966735 
L 404.712 394.966735 
L 404.712 394.858441 
L 404.712 394.150365 
L 405.27 394.150365 
L 405.27 394.042071 
L 405.27 393.100747 
L 405.828 393.100747 
L 405.828 392.992453 
L 405.828 392.334358 
L 406.386 392.334358 
L 406.386 392.226064 
L 406.386 391.484667 
L 406.944 391.484667 
L 406.944 391.376373 
L 406.944 390.759931 
L 407.502 390.759931 
L 407.502 390.651637 
L 407.502 389.935231 
L 408.06 389.935231 
L 408.06 389.826937 
L 408.06 389.09387 
L 408.618 389.09387 
L 408.618 388.985576 
L 408.618 388.202527 
L 409.176 388.202527 
L 409.176 388.094233 
L 409.176 387.561094 
L 409.734 387.561094 
L 409.734 387.4528 
L 409.734 386.6281 
L 410.292 386.6281 
L 410.292 386.519806 
L 410.292 385.861712 
L 410.85 385.861712 
L 410.85 385.753418 
L 410.85 385.028681 
L 411.408 385.028681 
L 411.408 384.920387 
L 411.408 384.220641 
L 411.966 384.220641 
L 411.966 384.112347 
L 411.966 383.35429 
L 412.524 383.35429 
L 412.524 383.245996 
L 412.524 382.487938 
L 413.082 382.487938 
L 413.082 382.379644 
L 413.082 381.763201 
L 413.64 381.763201 
L 413.64 381.654908 
L 413.64 380.746904 
L 414.198 380.746904 
L 414.198 380.63861 
L 414.198 379.81391 
L 414.756 379.81391 
L 414.756 379.705616 
L 414.756 379.164146 
L 415.314 379.164146 
L 415.314 379.055852 
L 415.314 378.139519 
L 415.872 378.139519 
L 415.872 378.031225 
L 415.872 377.273167 
L 416.43 377.273167 
L 416.43 377.164873 
L 416.43 376.481788 
L 416.988 376.481788 
L 416.988 376.373494 
L 416.988 375.72373 
L 417.546 375.72373 
L 417.546 375.615436 
L 417.546 374.732424 
L 418.104 374.732424 
L 418.104 374.62413 
L 418.104 373.932715 
L 418.662 373.932715 
L 418.662 373.824421 
L 418.662 372.841445 
L 419.22 372.841445 
L 419.22 372.733151 
L 419.22 371.916781 
L 419.778 371.916781 
L 419.778 371.808487 
L 419.778 371.158723 
L 420.336 371.158723 
L 420.336 371.050429 
L 420.336 370.334023 
L 420.894 370.334023 
L 420.894 370.225729 
L 420.894 369.392699 
L 421.452 369.392699 
L 421.452 369.284405 
L 421.452 368.509686 
L 422.01 368.509686 
L 422.01 368.401392 
L 422.01 367.343444 
L 422.568 367.343444 
L 422.568 367.23515 
L 422.568 366.185531 
L 423.126 366.185531 
L 423.126 366.077237 
L 423.126 365.385822 
L 423.684 365.385822 
L 423.684 365.277528 
L 423.684 364.386185 
L 424.242 364.386185 
L 424.242 364.277891 
L 424.242 363.511503 
L 424.8 363.511503 
L 424.8 363.403209 
L 424.8 362.486876 
L 425.358 362.486876 
L 425.358 362.378582 
L 425.358 361.52056 
L 425.916 361.52056 
L 425.916 361.412266 
L 425.916 360.545915 
L 426.474 360.545915 
L 426.474 360.437621 
L 426.474 359.496296 
L 427.032 359.496296 
L 427.032 359.388002 
L 427.032 358.521651 
L 427.59 358.521651 
L 427.59 358.413357 
L 427.59 357.538675 
L 428.148 357.538675 
L 428.148 357.430381 
L 428.148 356.639002 
L 428.706 356.639002 
L 428.706 356.530708 
L 428.706 355.389456 
L 429.264 355.389456 
L 429.264 355.281162 
L 429.264 354.364828 
L 429.822 354.364828 
L 429.822 354.256535 
L 429.822 353.481816 
L 430.38 353.481816 
L 430.38 353.373522 
L 430.38 352.615464 
L 430.938 352.615464 
L 430.938 352.50717 
L 430.938 351.465882 
L 431.496 351.465882 
L 431.496 351.357588 
L 431.496 350.216337 
L 432.054 350.216337 
L 432.054 350.108043 
L 432.054 349.141727 
L 432.612 349.141727 
L 432.612 349.033433 
L 432.612 348.083779 
L 433.17 348.083779 
L 433.17 347.975485 
L 433.17 346.959187 
L 433.728 346.959187 
L 433.728 346.850893 
L 433.728 345.784614 
L 434.286 345.784614 
L 434.286 345.67632 
L 434.286 344.84329 
L 434.844 344.84329 
L 434.844 344.734996 
L 434.844 343.843653 
L 435.402 343.843653 
L 435.402 343.735359 
L 435.402 342.710732 
L 435.96 342.710732 
L 435.96 342.602438 
L 435.96 341.761077 
L 436.518 341.761077 
L 436.518 341.652783 
L 436.518 340.844744 
L 437.076 340.844744 
L 437.076 340.73645 
L 437.076 339.761804 
L 437.634 339.761804 
L 437.634 339.65351 
L 437.634 338.712185 
L 438.192 338.712185 
L 438.192 338.603892 
L 438.192 337.612585 
L 438.75 337.612585 
L 438.75 337.504291 
L 438.75 336.587958 
L 439.308 336.587958 
L 439.308 336.479664 
L 439.308 335.54667 
L 439.866 335.54667 
L 439.866 335.438376 
L 439.866 334.413748 
L 440.424 334.413748 
L 440.424 334.305454 
L 440.424 333.547396 
L 440.982 333.547396 
L 440.982 333.439102 
L 440.982 332.506108 
L 441.54 332.506108 
L 441.54 332.397814 
L 441.54 331.523132 
L 442.098 331.523132 
L 442.098 331.414838 
L 442.098 330.515165 
L 442.656 330.515165 
L 442.656 330.406871 
L 442.656 329.515529 
L 443.214 329.515529 
L 443.214 329.407235 
L 443.214 328.199341 
L 443.772 328.199341 
L 443.772 328.091047 
L 443.772 327.008107 
L 444.33 327.008107 
L 444.33 326.899813 
L 444.33 325.741901 
L 444.888 325.741901 
L 444.888 325.633607 
L 444.888 324.650631 
L 445.446 324.650631 
L 445.446 324.542337 
L 445.446 323.451067 
L 446.004 323.451067 
L 446.004 323.342773 
L 446.004 322.226512 
L 446.562 322.226512 
L 446.562 322.118218 
L 446.562 321.143572 
L 447.12 321.143572 
L 447.12 321.035278 
L 447.12 320.010651 
L 447.678 320.010651 
L 447.678 319.902357 
L 447.678 318.986023 
L 448.236 318.986023 
L 448.236 318.877729 
L 448.236 318.019708 
L 448.794 318.019708 
L 448.794 317.911414 
L 448.794 317.070053 
L 449.352 317.070053 
L 449.352 316.961759 
L 449.352 315.803847 
L 449.91 315.803847 
L 449.91 315.695553 
L 449.91 314.704247 
L 450.468 314.704247 
L 450.468 314.595953 
L 450.468 313.679619 
L 451.026 313.679619 
L 451.026 313.571325 
L 451.026 312.588349 
L 451.584 312.588349 
L 451.584 312.480055 
L 451.584 311.555391 
L 452.142 311.555391 
L 452.142 311.447097 
L 452.142 310.472452 
L 452.7 310.472452 
L 452.7 310.364158 
L 452.7 309.122942 
L 453.258 309.122942 
L 453.258 309.014648 
L 453.258 307.97336 
L 453.816 307.97336 
L 453.816 307.865066 
L 453.816 306.657172 
L 454.374 306.657172 
L 454.374 306.548878 
L 454.374 305.440947 
L 454.932 305.440947 
L 454.932 305.332654 
L 454.932 304.41632 
L 455.49 304.41632 
L 455.49 304.308026 
L 455.49 302.866883 
L 456.048 302.866883 
L 456.048 302.758589 
L 456.048 301.742292 
L 456.606 301.742292 
L 456.606 301.633998 
L 456.606 300.576049 
L 457.164 300.576049 
L 457.164 300.467755 
L 457.164 299.426467 
L 457.722 299.426467 
L 457.722 299.318173 
L 457.722 298.526794 
L 458.28 298.526794 
L 458.28 298.4185 
L 458.28 297.227267 
L 458.838 297.227267 
L 458.838 297.118973 
L 458.838 296.160988 
L 459.396 296.160988 
L 459.396 296.052694 
L 459.396 295.061388 
L 459.954 295.061388 
L 459.954 294.953094 
L 459.954 294.020099 
L 460.512 294.020099 
L 460.512 293.911805 
L 460.512 292.987142 
L 461.07 292.987142 
L 461.07 292.878848 
L 461.07 291.987505 
L 461.628 291.987505 
L 461.628 291.879211 
L 461.628 290.446399 
L 462.186 290.446399 
L 462.186 290.338105 
L 462.186 289.12188 
L 462.744 289.12188 
L 462.744 289.013586 
L 462.744 287.705728 
L 463.302 287.705728 
L 463.302 287.597434 
L 463.302 286.372879 
L 463.86 286.372879 
L 463.86 286.264585 
L 463.86 284.773461 
L 464.418 284.773461 
L 464.418 284.665167 
L 464.418 283.3823 
L 464.976 283.3823 
L 464.976 283.274006 
L 464.976 282.057781 
L 465.534 282.057781 
L 465.534 281.949488 
L 465.534 280.783245 
L 466.092 280.783245 
L 466.092 280.674951 
L 466.092 279.492048 
L 466.65 279.492048 
L 466.65 279.383754 
L 466.65 278.050905 
L 467.208 278.050905 
L 467.208 277.942611 
L 467.208 276.801359 
L 467.766 276.801359 
L 467.766 276.693065 
L 467.766 275.568474 
L 468.324 275.568474 
L 468.324 275.46018 
L 468.324 274.427222 
L 468.882 274.427222 
L 468.882 274.318928 
L 468.882 273.244319 
L 469.44 273.244319 
L 469.44 273.136025 
L 469.44 271.9198 
L 469.998 271.9198 
L 469.998 271.811506 
L 469.998 270.595282 
L 470.556 270.595282 
L 470.556 270.486988 
L 470.556 269.387388 
L 471.114 269.387388 
L 471.114 269.279094 
L 471.114 268.337769 
L 471.672 268.337769 
L 471.672 268.229475 
L 471.672 267.296481 
L 472.23 267.296481 
L 472.23 267.188187 
L 472.23 265.988623 
L 472.788 265.988623 
L 472.788 265.880329 
L 472.788 264.722417 
L 473.346 264.722417 
L 473.346 264.614123 
L 473.346 263.422889 
L 473.904 263.422889 
L 473.904 263.314595 
L 473.904 262.190004 
L 474.462 262.190004 
L 474.462 262.08171 
L 474.462 260.932128 
L 475.02 260.932128 
L 475.02 260.823834 
L 475.02 259.640931 
L 475.578 259.640931 
L 475.578 259.532637 
L 475.578 258.341403 
L 476.136 258.341403 
L 476.136 258.233109 
L 476.136 257.233473 
L 476.694 257.233473 
L 476.694 257.125179 
L 476.694 256.192185 
L 477.252 256.192185 
L 477.252 256.083891 
L 477.252 255.125906 
L 477.81 255.125906 
L 477.81 255.017612 
L 477.81 253.934672 
L 478.368 253.934672 
L 478.368 253.826378 
L 478.368 252.685126 
L 478.926 252.685126 
L 478.926 252.576832 
L 478.926 251.568865 
L 479.484 251.568865 
L 479.484 251.460571 
L 479.484 250.410953 
L 480.042 250.410953 
L 480.042 250.302659 
L 480.042 249.203059 
L 480.6 249.203059 
L 480.6 249.094765 
L 480.6 247.845219 
L 481.158 247.845219 
L 481.158 247.736925 
L 481.158 246.662316 
L 481.716 246.662316 
L 481.716 246.554022 
L 481.716 245.429431 
L 482.274 245.429431 
L 482.274 245.321137 
L 482.274 244.138233 
L 482.832 244.138233 
L 482.832 244.029939 
L 482.832 242.996982 
L 483.39 242.996982 
L 483.39 242.888688 
L 483.39 241.880721 
L 483.948 241.880721 
L 483.948 241.772427 
L 483.948 240.806111 
L 484.506 240.806111 
L 484.506 240.697817 
L 484.506 239.698181 
L 485.064 239.698181 
L 485.064 239.589887 
L 485.064 238.665223 
L 485.622 238.665223 
L 485.622 238.556929 
L 485.622 237.49898 
L 486.18 237.49898 
L 486.18 237.390686 
L 486.18 236.299416 
L 486.738 236.299416 
L 486.738 236.191122 
L 486.738 235.31644 
L 487.296 235.31644 
L 487.296 235.208146 
L 487.296 234.083555 
L 487.854 234.083555 
L 487.854 233.975261 
L 487.854 232.967294 
L 488.412 232.967294 
L 488.412 232.859 
L 488.412 231.467839 
L 488.97 231.467839 
L 488.97 231.359546 
L 488.97 230.309927 
L 489.528 230.309927 
L 489.528 230.201633 
L 489.528 228.935427 
L 490.086 228.935427 
L 490.086 228.827133 
L 490.086 227.735863 
L 490.644 227.735863 
L 490.644 227.627569 
L 490.644 226.611272 
L 491.202 226.611272 
L 491.202 226.502978 
L 491.202 225.46169 
L 491.76 225.46169 
L 491.76 225.353396 
L 491.76 224.345429 
L 492.318 224.345429 
L 492.318 224.237135 
L 492.318 223.27915 
L 492.876 223.27915 
L 492.876 223.170856 
L 492.876 222.18788 
L 493.434 222.18788 
L 493.434 222.079586 
L 493.434 221.221564 
L 493.992 221.221564 
L 493.992 221.11327 
L 493.992 220.246919 
L 494.55 220.246919 
L 494.55 220.138625 
L 494.55 218.90574 
L 495.108 218.90574 
L 495.108 218.797446 
L 495.108 217.622873 
L 495.666 217.622873 
L 495.666 217.514579 
L 495.666 216.573254 
L 496.224 216.573254 
L 496.224 216.46496 
L 496.224 215.506975 
L 496.782 215.506975 
L 496.782 215.398681 
L 496.782 214.240769 
L 497.34 214.240769 
L 497.34 214.132475 
L 497.34 213.049535 
L 497.898 213.049535 
L 497.898 212.941241 
L 497.898 211.799989 
L 498.456 211.799989 
L 498.456 211.691696 
L 498.456 210.800353 
L 499.014 210.800353 
L 499.014 210.692059 
L 499.014 209.842368 
L 499.572 209.842368 
L 499.572 209.734074 
L 499.572 208.667795 
L 500.13 208.667795 
L 500.13 208.559501 
L 500.13 207.72647 
L 500.688 207.72647 
L 500.688 207.618176 
L 500.688 206.476925 
L 501.246 206.476925 
L 501.246 206.368631 
L 501.246 205.510609 
L 501.804 205.510609 
L 501.804 205.402315 
L 501.804 204.569285 
L 502.362 204.569285 
L 502.362 204.460991 
L 502.362 203.527997 
L 502.92 203.527997 
L 502.92 203.419703 
L 502.92 202.561681 
L 503.478 202.561681 
L 503.478 202.453387 
L 503.478 201.387108 
L 504.036 201.387108 
L 504.036 201.278814 
L 504.036 200.34582 
L 504.594 200.34582 
L 504.594 200.237526 
L 504.594 199.037962 
L 505.152 199.037962 
L 505.152 198.929668 
L 505.152 197.555168 
L 505.71 197.555168 
L 505.71 197.446874 
L 505.71 196.638834 
L 506.268 196.638834 
L 506.268 196.530541 
L 506.268 195.605877 
L 506.826 195.605877 
L 506.826 195.497583 
L 506.826 194.572919 
L 507.384 194.572919 
L 507.384 194.464625 
L 507.384 193.373355 
L 507.942 193.373355 
L 507.942 193.265061 
L 507.942 192.357058 
L 508.5 192.357058 
L 508.5 192.248764 
L 508.5 191.349091 
L 509.058 191.349091 
L 509.058 191.240797 
L 509.058 190.249491 
L 509.616 190.249491 
L 509.616 190.141197 
L 509.616 189.041596 
L 510.174 189.041596 
L 510.174 188.933302 
L 510.174 188.016969 
L 510.732 188.016969 
L 510.732 187.908675 
L 510.732 186.96735 
L 511.29 186.96735 
L 511.29 186.859056 
L 511.29 186.150981 
L 511.848 186.150981 
L 511.848 186.042687 
L 511.848 185.134683 
L 512.406 185.134683 
L 512.406 185.026389 
L 512.406 184.085065 
L 512.964 184.085065 
L 512.964 183.976771 
L 512.964 182.960474 
L 513.522 182.960474 
L 513.522 182.85218 
L 513.522 181.894195 
L 514.08 181.894195 
L 514.08 181.785901 
L 514.08 180.702961 
L 514.638 180.702961 
L 514.638 180.594667 
L 514.638 179.661673 
L 515.196 179.661673 
L 515.196 179.553379 
L 515.196 178.595394 
L 515.754 178.595394 
L 515.754 178.4871 
L 515.754 177.445812 
L 516.312 177.445812 
L 516.312 177.337518 
L 516.312 176.137954 
L 516.87 176.137954 
L 516.87 176.02966 
L 516.87 175.080005 
L 517.428 175.080005 
L 517.428 174.971711 
L 517.428 173.930423 
L 517.986 173.930423 
L 517.986 173.822129 
L 517.986 172.864144 
L 518.544 172.864144 
L 518.544 172.75585 
L 518.544 171.839517 
L 519.102 171.839517 
L 519.102 171.731223 
L 519.102 170.83155 
L 519.66 170.83155 
L 519.66 170.723256 
L 519.66 169.798592 
L 520.218 169.798592 
L 520.218 169.690298 
L 520.218 168.732313 
L 520.776 168.732313 
L 520.776 168.624019 
L 520.776 167.657704 
L 521.334 167.657704 
L 521.334 167.54941 
L 521.334 166.599755 
L 521.892 166.599755 
L 521.892 166.491461 
L 521.892 165.558467 
L 522.45 165.558467 
L 522.45 165.450173 
L 522.45 164.500518 
L 523.008 164.500518 
L 523.008 164.392224 
L 523.008 163.442569 
L 523.566 163.442569 
L 523.566 163.334275 
L 523.566 162.226345 
L 524.124 162.226345 
L 524.124 162.118051 
L 524.124 161.193387 
L 524.682 161.193387 
L 524.682 161.085093 
L 524.682 160.068796 
L 525.24 160.068796 
L 525.24 159.960502 
L 525.24 158.844241 
L 525.798 158.844241 
L 525.798 158.735947 
L 525.798 157.886256 
L 526.356 157.886256 
L 526.356 157.777962 
L 526.356 156.695022 
L 526.914 156.695022 
L 526.914 156.586728 
L 526.914 155.345513 
L 527.472 155.345513 
L 527.472 155.237219 
L 527.472 154.17927 
L 528.03 154.17927 
L 528.03 154.070976 
L 528.03 153.038018 
L 528.588 153.038018 
L 528.588 152.929724 
L 528.588 151.738491 
L 529.146 151.738491 
L 529.146 151.630197 
L 529.146 150.397312 
L 529.704 150.397312 
L 529.704 150.289018 
L 529.704 149.24773 
L 530.262 149.24773 
L 530.262 149.139436 
L 530.262 147.989854 
L 530.82 147.989854 
L 530.82 147.88156 
L 530.82 146.840271 
L 531.378 146.840271 
L 531.378 146.731977 
L 531.378 145.674029 
L 531.936 145.674029 
L 531.936 145.565735 
L 531.936 144.307859 
L 532.494 144.307859 
L 532.494 144.199565 
L 532.494 143.049983 
L 533.052 143.049983 
L 533.052 142.941689 
L 533.052 141.842088 
L 533.61 141.842088 
L 533.61 141.733795 
L 533.61 140.484249 
L 534.168 140.484249 
L 534.168 140.375955 
L 534.168 139.259694 
L 534.726 139.259694 
L 534.726 139.1514 
L 534.726 137.960166 
L 535.284 137.960166 
L 535.284 137.851872 
L 535.284 136.710621 
L 535.842 136.710621 
L 535.842 136.602327 
L 535.842 135.236157 
L 536.4 135.236157 
L 536.4 135.127863 
L 536.4 133.720041 
L 536.958 133.720041 
L 536.958 133.611747 
L 536.958 132.528808 
L 537.516 132.528808 
L 537.516 132.420514 
L 537.516 131.22928 
L 538.074 131.22928 
L 538.074 131.120986 
L 538.074 130.029716 
L 538.632 130.029716 
L 538.632 129.921422 
L 538.632 128.638555 
L 539.19 128.638555 
L 539.19 128.530261 
L 539.19 127.39734 
L 539.748 127.39734 
L 539.748 127.289046 
L 539.748 126.147794 
L 540.306 126.147794 
L 540.306 126.0395 
L 540.306 125.048194 
L 540.864 125.048194 
L 540.864 124.9399 
L 540.864 123.823639 
L 541.422 123.823639 
L 541.422 123.715345 
L 541.422 122.374166 
L 541.98 122.374166 
L 541.98 122.265872 
L 541.98 121.074638 
L 542.538 121.074638 
L 542.538 120.966344 
L 542.538 119.825092 
L 543.096 119.825092 
L 543.096 119.716799 
L 543.096 118.550556 
L 543.654 118.550556 
L 543.654 118.442262 
L 543.654 117.126074 
L 544.212 117.126074 
L 544.212 117.01778 
L 544.212 115.734913 
L 544.77 115.734913 
L 544.77 115.626619 
L 544.77 113.993879 
L 545.328 113.993879 
L 545.328 113.885585 
L 545.328 112.794315 
L 545.886 112.794315 
L 545.886 112.686021 
L 545.886 111.153245 
L 546.444 111.153245 
L 546.444 111.044951 
L 546.444 110.111957 
L 547.002 110.111957 
L 547.002 110.003663 
L 547.002 108.454226 
L 547.56 108.454226 
L 547.56 108.345932 
L 547.56 107.371287 
L 548.118 107.371287 
L 548.118 107.262993 
L 548.118 105.82185 
L 548.676 105.82185 
L 548.676 105.713556 
L 548.676 103.989183 
L 549.234 103.989183 
L 549.234 103.880889 
L 549.234 102.672995 
L 549.792 102.672995 
L 549.792 102.564701 
L 549.792 101.515082 
L 550.35 101.515082 
L 550.35 101.406788 
L 550.35 100.232215 
L 550.908 100.232215 
L 550.908 100.123921 
L 550.908 98.941018 
L 551.466 98.941018 
L 551.466 98.832724 
L 551.466 96.991727 
L 552.024 96.991727 
L 552.024 96.883433 
L 552.024 95.808823 
L 552.582 95.808823 
L 552.582 95.700529 
L 552.582 94.534287 
L 553.14 94.534287 
L 553.14 94.425993 
L 553.14 93.459677 
L 553.698 93.459677 
L 553.698 93.351383 
L 553.698 91.951892 
L 554.256 91.951892 
L 554.256 91.843598 
L 554.256 91.102201 
L 554.814 91.102201 
L 554.814 90.993907 
L 554.814 89.877646 
L 555.372 89.877646 
L 555.372 89.769352 
L 555.372 89.011294 
L 555.93 89.011294 
L 555.93 88.903001 
L 555.93 88.144943 
L 556.488 88.144943 
L 556.488 88.036649 
L 556.488 86.595506 
L 557.046 86.595506 
L 557.046 86.487212 
L 557.046 85.362621 
L 557.604 85.362621 
L 557.604 85.254327 
L 557.604 84.387975 
L 558.162 84.387975 
L 558.162 84.279681 
L 558.162 83.42999 
L 558.72 83.42999 
L 558.72 83.321696 
L 558.72 82.455344 
L 559.278 82.455344 
L 559.278 82.347051 
L 559.278 81.422387 
L 559.836 81.422387 
L 559.836 81.314093 
L 559.836 80.41442 
L 560.394 80.41442 
L 560.394 80.306126 
L 560.394 79.481426 
L 560.952 79.481426 
L 560.952 79.373132 
L 560.952 78.448468 
L 561.51 78.448468 
L 561.51 78.340174 
L 561.51 77.732062 
L 562.068 77.732062 
L 562.068 77.623768 
L 562.068 76.87404 
L 562.626 76.87404 
L 562.626 76.765746 
L 562.626 76.05767 
L 563.184 76.05767 
L 563.184 75.949376 
L 563.184 75.207979 
L 563.742 75.207979 
L 563.742 75.099685 
L 563.742 74.599867 
L 564.3 74.599867 
L 564.3 74.491573 
L 564.3 73.883461 
L 564.858 73.883461 
L 564.858 73.775167 
L 564.858 73.000448 
L 565.416 73.000448 
L 565.416 72.892154 
L 565.416 72.250721 
L 565.974 72.250721 
L 565.974 72.142427 
L 565.974 71.617618 
L 566.532 71.617618 
L 566.532 71.509324 
L 566.532 71.009505 
L 567.09 71.009505 
L 567.09 70.901211 
L 567.09 70.293099 
L 567.648 70.293099 
L 567.648 70.184805 
L 567.648 69.843263 
L 568.206 69.843263 
L 568.206 69.734969 
L 568.206 69.276802 
L 568.764 69.276802 
L 568.764 69.168508 
L 568.764 68.985241 
L 569.322 68.985241 
L 569.322 68.876947 
L 569.322 68.477093 
L 569.88 68.477093 
L 569.88 68.368799 
L 569.88 67.927293 
L 570.438 67.927293 
L 570.438 67.818999 
L 570.438 67.510777 
L 570.996 67.510777 
L 570.996 67.402483 
L 570.996 67.177565 
L 571.554 67.177565 
L 571.554 67.069271 
L 571.554 66.75272 
L 572.112 66.75272 
L 572.112 66.644426 
L 572.112 66.444498 
L 572.67 66.444498 
L 572.67 66.336204 
L 572.67 66.044644 
L 573.228 66.044644 
L 573.228 65.93635 
L 573.228 65.853047 
L 573.786 65.853047 
L 573.786 65.744753 
L 573.786 65.561486 
L 574.344 65.561486 
L 574.344 65.453192 
L 574.344 65.211613 
L 574.902 65.211613 
L 574.902 65.103319 
L 574.902 64.811759 
L 575.46 64.811759 
L 575.46 64.703465 
L 575.46 64.486877 
L 576.018 64.486877 
L 576.018 64.378583 
L 576.018 64.345261 
L 576.576 64.345261 
L 576.576 64.236968 
L 576.576 64.02871 
L 577.134 64.02871 
L 577.134 63.920416 
L 577.134 63.837113 
L 577.692 63.837113 
L 577.692 63.728819 
L 577.692 63.703828 
L 578.25 63.703828 
L 578.25 63.595534 
L 578.25 63.462249 
L 578.808 63.462249 
L 578.808 63.353955 
L 578.808 63.320634 
L 579.366 63.320634 
L 579.366 63.21234 
L 579.366 63.137367 
L 579.924 63.137367 
L 579.924 63.029073 
L 579.924 62.995752 
L 581.04 62.895788 
L 581.04 62.887458 
L 581.04 62.804155 
L 581.598 62.804155 
L 581.598 62.695861 
L 581.598 62.637549 
L 582.156 62.637549 
L 582.156 62.529255 
L 582.156 62.504264 
L 582.714 62.504264 
L 582.714 62.39597 
L 582.714 62.354319 
L 583.272 62.354319 
L 583.272 62.246025 
L 583.272 62.237694 
L 584.388 62.162722 
L 584.388 62.1294 
L 584.388 62.037767 
L 585.504 61.929473 
L 585.504 61.746206 
L 586.62 61.696225 
L 586.62 61.637912 
L 586.62 61.587931 
L 588.294 61.504628 
L 588.294 61.479637 
L 588.294 61.379673 
L 589.41 61.329691 
L 589.41 61.271379 
L 589.41 61.263049 
L 591.642 61.154755 
L 591.642 61.138094 
L 592.758 61.054791 
L 592.758 61.0298 
L 592.758 60.913176 
L 593.316 60.913176 
L 593.316 60.804882 
L 593.316 60.771561 
L 594.432 60.704918 
L 594.432 60.663267 
L 594.432 60.654936 
L 596.664 60.554973 
L 596.664 60.546642 
L 596.664 60.504991 
L 599.454 60.48833 
L 599.454 60.48 
" clip-path="url(#pd1409e8d3d)" style="fill: none; stroke: #2ca02c; stroke-width: 2.8; stroke-linecap: round"/>
   </g>
   <g id="line2d_14">
    <path d="M 213.318 441 
L 213.318 440.9218 
L 226.152 440.8436 
L 226.152 440.765401 
L 227.268 440.687201 
L 227.268 440.609001 
L 229.5 440.530801 
L 229.5 440.452602 
L 232.29 440.374402 
L 232.29 440.296202 
L 235.08 440.296202 
L 235.08 440.218002 
L 235.08 440.139803 
L 236.754 440.061603 
L 236.754 439.983403 
L 238.428 439.905203 
L 238.428 439.827004 
L 240.102 439.748804 
L 240.102 439.670604 
L 243.45 439.592404 
L 243.45 439.514205 
L 244.566 439.436005 
L 244.566 439.201406 
L 246.798 439.123206 
L 246.798 439.045006 
L 247.914 439.045006 
L 247.914 438.966806 
L 247.914 438.888607 
L 249.588 438.888607 
L 249.588 438.810407 
L 249.588 438.732207 
L 250.704 438.654007 
L 250.704 438.497608 
L 251.262 438.497608 
L 251.262 438.419408 
L 251.262 438.341208 
L 251.82 438.341208 
L 251.82 438.263009 
L 251.82 438.184809 
L 254.052 438.106609 
L 254.052 438.028409 
L 255.168 437.95021 
L 255.168 437.79381 
L 257.958 437.71561 
L 257.958 437.637411 
L 259.632 437.637411 
L 259.632 437.559211 
L 259.632 437.324612 
L 260.748 437.324612 
L 260.748 437.246412 
L 260.748 437.090012 
L 261.306 437.090012 
L 261.306 437.011813 
L 261.306 436.777213 
L 261.864 436.777213 
L 261.864 436.699014 
L 261.864 436.542614 
L 262.98 436.464414 
L 262.98 436.308015 
L 263.538 436.308015 
L 263.538 436.229815 
L 263.538 436.073416 
L 264.096 436.073416 
L 264.096 435.995216 
L 264.096 435.760617 
L 264.654 435.760617 
L 264.654 435.682417 
L 264.654 435.213218 
L 265.212 435.213218 
L 265.212 435.135018 
L 265.212 434.900419 
L 265.77 434.900419 
L 265.77 434.822219 
L 265.77 434.66582 
L 266.328 434.66582 
L 266.328 434.58762 
L 266.328 434.50942 
L 266.886 434.50942 
L 266.886 434.431221 
L 266.886 434.196621 
L 267.444 434.196621 
L 267.444 434.118422 
L 267.444 433.727423 
L 268.56 433.649223 
L 268.56 433.023625 
L 269.118 433.023625 
L 269.118 432.945425 
L 269.118 432.710826 
L 269.676 432.710826 
L 269.676 432.632626 
L 269.676 432.319827 
L 270.234 432.319827 
L 270.234 432.241628 
L 270.234 431.850629 
L 270.792 431.850629 
L 270.792 431.772429 
L 270.792 431.225031 
L 271.35 431.225031 
L 271.35 431.146831 
L 271.35 430.755832 
L 271.908 430.755832 
L 271.908 430.677633 
L 271.908 430.208434 
L 272.466 430.208434 
L 272.466 430.130234 
L 272.466 429.661036 
L 273.024 429.661036 
L 273.024 429.582836 
L 273.024 429.270037 
L 273.582 429.270037 
L 273.582 429.191837 
L 273.582 429.035438 
L 274.14 429.035438 
L 274.14 428.957238 
L 274.14 428.488039 
L 274.698 428.488039 
L 274.698 428.40984 
L 274.698 427.862441 
L 275.256 427.862441 
L 275.256 427.784242 
L 275.256 427.471443 
L 275.814 427.471443 
L 275.814 427.393243 
L 275.814 427.002244 
L 276.372 427.002244 
L 276.372 426.924044 
L 276.372 426.689445 
L 276.93 426.689445 
L 276.93 426.611245 
L 276.93 425.985647 
L 277.488 425.985647 
L 277.488 425.907448 
L 277.488 425.438249 
L 278.046 425.438249 
L 278.046 425.360049 
L 278.046 424.656252 
L 278.604 424.656252 
L 278.604 424.578052 
L 278.604 423.952454 
L 279.162 423.952454 
L 279.162 423.874254 
L 279.162 423.170456 
L 279.72 423.170456 
L 279.72 423.092256 
L 279.72 422.544858 
L 280.278 422.544858 
L 280.278 422.466658 
L 280.278 422.232059 
L 280.836 422.232059 
L 280.836 422.153859 
L 280.836 421.293662 
L 281.394 421.293662 
L 281.394 421.215462 
L 281.394 420.511665 
L 281.952 420.511665 
L 281.952 420.433465 
L 281.952 420.277065 
L 282.51 420.277065 
L 282.51 420.198866 
L 282.51 420.042466 
L 283.068 420.042466 
L 283.068 419.964266 
L 283.068 418.86947 
L 283.626 418.86947 
L 283.626 418.79127 
L 283.626 418.478471 
L 284.184 418.478471 
L 284.184 418.400271 
L 284.184 418.087472 
L 284.742 418.087472 
L 284.742 418.009273 
L 284.742 417.461874 
L 285.3 417.461874 
L 285.3 417.383674 
L 285.3 416.914476 
L 285.858 416.914476 
L 285.858 416.836276 
L 285.858 416.132478 
L 286.416 416.132478 
L 286.416 416.054279 
L 286.416 415.350481 
L 286.974 415.350481 
L 286.974 415.272281 
L 286.974 414.646683 
L 287.532 414.646683 
L 287.532 414.568483 
L 287.532 413.551887 
L 288.09 413.551887 
L 288.09 413.473687 
L 288.09 412.926289 
L 288.648 412.926289 
L 288.648 412.848089 
L 288.648 412.45709 
L 289.206 412.45709 
L 289.206 412.37889 
L 289.206 411.596893 
L 289.764 411.596893 
L 289.764 411.518693 
L 289.764 410.971295 
L 290.322 410.971295 
L 290.322 410.893095 
L 290.322 409.3291 
L 290.88 409.3291 
L 290.88 409.2509 
L 290.88 407.921504 
L 291.438 407.921504 
L 291.438 407.843305 
L 291.438 407.139507 
L 291.996 407.139507 
L 291.996 407.061307 
L 291.996 405.731911 
L 292.554 405.731911 
L 292.554 405.653711 
L 292.554 404.715314 
L 293.112 404.715314 
L 293.112 404.637115 
L 293.112 403.776917 
L 293.67 403.776917 
L 293.67 403.698718 
L 293.67 402.83852 
L 294.228 402.83852 
L 294.228 402.760321 
L 294.228 402.134723 
L 294.786 402.134723 
L 294.786 402.056523 
L 294.786 400.805327 
L 295.344 400.805327 
L 295.344 400.727127 
L 295.344 399.78873 
L 295.902 399.78873 
L 295.902 399.71053 
L 295.902 397.599137 
L 296.46 397.599137 
L 296.46 397.520937 
L 296.46 396.191541 
L 297.018 396.191541 
L 297.018 396.113342 
L 297.018 395.096745 
L 297.576 395.096745 
L 297.576 395.018545 
L 297.576 393.53275 
L 298.134 393.53275 
L 298.134 393.45455 
L 298.134 392.437953 
L 298.692 392.437953 
L 298.692 392.359753 
L 298.692 391.343157 
L 299.25 391.343157 
L 299.25 391.264957 
L 299.25 390.32656 
L 299.808 390.32656 
L 299.808 390.24836 
L 299.808 389.622762 
L 300.366 389.622762 
L 300.366 389.544562 
L 300.366 389.075364 
L 300.924 389.075364 
L 300.924 388.997164 
L 300.924 388.058767 
L 301.482 388.058767 
L 301.482 387.980567 
L 301.482 386.885771 
L 302.04 386.885771 
L 302.04 386.807571 
L 302.04 385.165376 
L 302.598 385.165376 
L 302.598 385.087176 
L 302.598 384.07058 
L 303.156 384.07058 
L 303.156 383.99238 
L 303.156 382.819383 
L 303.714 382.819383 
L 303.714 382.741184 
L 303.714 381.568187 
L 304.272 381.568187 
L 304.272 381.489988 
L 304.272 380.004192 
L 304.83 380.004192 
L 304.83 379.925993 
L 304.83 379.065795 
L 305.388 379.065795 
L 305.388 378.987596 
L 305.388 377.58 
L 305.946 377.58 
L 305.946 377.5018 
L 305.946 376.172404 
L 306.504 376.172404 
L 306.504 376.094205 
L 306.504 374.764809 
L 307.062 374.764809 
L 307.062 374.686609 
L 307.062 373.200814 
L 307.62 373.200814 
L 307.62 373.122614 
L 307.62 371.32402 
L 308.178 371.32402 
L 308.178 371.24582 
L 308.178 370.151023 
L 308.736 370.151023 
L 308.736 370.072824 
L 308.736 369.212626 
L 309.294 369.212626 
L 309.294 369.134427 
L 309.294 367.96143 
L 309.852 367.96143 
L 309.852 367.883231 
L 309.852 366.084636 
L 310.41 366.084636 
L 310.41 366.006436 
L 310.41 364.98984 
L 310.968 364.98984 
L 310.968 364.91164 
L 310.968 362.956646 
L 311.526 362.956646 
L 311.526 362.878446 
L 311.526 361.70545 
L 312.084 361.70545 
L 312.084 361.62725 
L 312.084 360.297855 
L 312.642 360.297855 
L 312.642 360.219655 
L 312.642 359.359457 
L 313.2 359.359457 
L 313.2 359.281258 
L 313.2 358.342861 
L 313.758 358.342861 
L 313.758 358.264661 
L 313.758 356.466067 
L 314.316 356.466067 
L 314.316 356.387867 
L 314.316 354.745672 
L 314.874 354.745672 
L 314.874 354.667472 
L 314.874 352.868878 
L 315.432 352.868878 
L 315.432 352.790678 
L 315.432 351.461282 
L 315.99 351.461282 
L 315.99 351.383083 
L 315.99 350.288286 
L 316.548 350.288286 
L 316.548 350.210086 
L 316.548 348.95889 
L 317.106 348.95889 
L 317.106 348.880691 
L 317.106 347.864094 
L 317.664 347.864094 
L 317.664 347.785894 
L 317.664 346.300099 
L 318.222 346.300099 
L 318.222 346.221899 
L 318.222 344.736104 
L 318.78 344.736104 
L 318.78 344.657904 
L 318.78 343.250308 
L 319.338 343.250308 
L 319.338 343.172109 
L 319.338 341.217115 
L 319.896 341.217115 
L 319.896 341.138915 
L 319.896 339.887719 
L 320.454 339.887719 
L 320.454 339.809519 
L 320.454 338.323724 
L 321.012 338.323724 
L 321.012 338.245524 
L 321.012 337.150727 
L 321.57 337.150727 
L 321.57 337.072528 
L 321.57 335.977731 
L 322.128 335.977731 
L 322.128 335.899531 
L 322.128 334.179137 
L 322.686 334.179137 
L 322.686 334.100937 
L 322.686 332.302343 
L 323.244 332.302343 
L 323.244 332.224143 
L 323.244 330.581948 
L 323.802 330.581948 
L 323.802 330.503748 
L 323.802 328.705154 
L 324.36 328.705154 
L 324.36 328.626954 
L 324.36 327.453958 
L 324.918 327.453958 
L 324.918 327.375758 
L 324.918 326.124562 
L 325.476 326.124562 
L 325.476 326.046363 
L 325.476 324.404168 
L 326.034 324.404168 
L 326.034 324.325968 
L 326.034 322.605573 
L 326.592 322.605573 
L 326.592 322.527374 
L 326.592 320.885179 
L 327.15 320.885179 
L 327.15 320.806979 
L 327.15 319.321184 
L 327.708 319.321184 
L 327.708 319.242984 
L 327.708 317.757189 
L 328.266 317.757189 
L 328.266 317.678989 
L 328.266 316.271393 
L 328.824 316.271393 
L 328.824 316.193194 
L 328.824 314.785598 
L 329.382 314.785598 
L 329.382 314.707398 
L 329.382 313.143403 
L 329.94 313.143403 
L 329.94 313.065203 
L 329.94 311.814007 
L 330.498 311.814007 
L 330.498 311.735808 
L 330.498 311.03201 
L 331.056 311.03201 
L 331.056 310.95381 
L 331.056 309.624414 
L 331.614 309.624414 
L 331.614 309.546215 
L 331.614 307.74762 
L 332.172 307.74762 
L 332.172 307.66942 
L 332.172 306.731023 
L 332.73 306.731023 
L 332.73 306.652824 
L 332.73 305.401628 
L 333.288 305.401628 
L 333.288 305.323428 
L 333.288 303.837633 
L 333.846 303.837633 
L 333.846 303.759433 
L 333.846 301.882639 
L 334.404 301.882639 
L 334.404 301.804439 
L 334.404 300.709642 
L 334.962 300.709642 
L 334.962 300.631443 
L 334.962 299.302047 
L 335.52 299.302047 
L 335.52 299.223847 
L 335.52 296.565055 
L 336.078 296.565055 
L 336.078 296.486856 
L 336.078 295.23566 
L 336.636 295.23566 
L 336.636 295.15746 
L 336.636 293.124266 
L 337.194 293.124266 
L 337.194 293.046067 
L 337.194 292.10767 
L 337.752 292.10767 
L 337.752 292.02947 
L 337.752 290.856473 
L 338.31 290.856473 
L 338.31 290.778274 
L 338.31 289.605277 
L 338.868 289.605277 
L 338.868 289.527078 
L 338.868 287.963083 
L 339.426 287.963083 
L 339.426 287.884883 
L 339.426 286.477287 
L 339.984 286.477287 
L 339.984 286.399088 
L 339.984 285.304291 
L 340.542 285.304291 
L 340.542 285.226091 
L 340.542 284.444094 
L 341.1 284.444094 
L 341.1 284.365894 
L 341.1 283.114698 
L 341.658 283.114698 
L 341.658 283.036498 
L 341.658 281.550703 
L 342.216 281.550703 
L 342.216 281.472503 
L 342.216 280.377707 
L 342.774 280.377707 
L 342.774 280.299507 
L 342.774 279.28291 
L 343.332 279.28291 
L 343.332 279.20471 
L 343.332 278.500912 
L 343.89 278.500912 
L 343.89 278.422713 
L 343.89 276.936917 
L 344.448 276.936917 
L 344.448 276.858718 
L 344.448 276.23312 
L 345.006 276.23312 
L 345.006 276.15492 
L 345.006 274.825524 
L 345.564 274.825524 
L 345.564 274.747324 
L 345.564 273.417928 
L 346.122 273.417928 
L 346.122 273.339729 
L 346.122 272.010333 
L 346.68 272.010333 
L 346.68 271.932133 
L 346.68 270.133539 
L 347.238 270.133539 
L 347.238 270.055339 
L 347.238 268.960543 
L 347.796 268.960543 
L 347.796 268.882343 
L 347.796 267.631147 
L 348.354 267.631147 
L 348.354 267.552947 
L 348.354 266.53635 
L 348.912 266.53635 
L 348.912 266.45815 
L 348.912 265.128755 
L 349.47 265.128755 
L 349.47 265.050555 
L 349.47 263.642959 
L 350.028 263.642959 
L 350.028 263.56476 
L 350.028 262.469963 
L 350.586 262.469963 
L 350.586 262.391763 
L 350.586 261.218767 
L 351.144 261.218767 
L 351.144 261.140567 
L 351.144 259.732972 
L 351.702 259.732972 
L 351.702 259.654772 
L 351.702 258.247176 
L 352.26 258.247176 
L 352.26 258.168977 
L 352.26 256.99598 
L 352.818 256.99598 
L 352.818 256.917781 
L 352.818 255.588385 
L 353.376 255.588385 
L 353.376 255.510185 
L 353.376 254.337189 
L 353.934 254.337189 
L 353.934 254.258989 
L 353.934 253.398792 
L 354.492 253.398792 
L 354.492 253.320592 
L 354.492 252.694994 
L 355.05 252.694994 
L 355.05 252.616794 
L 355.05 251.052799 
L 355.608 251.052799 
L 355.608 250.974599 
L 355.608 249.332404 
L 356.166 249.332404 
L 356.166 249.254205 
L 356.166 247.45561 
L 356.724 247.45561 
L 356.724 247.377411 
L 356.724 245.969815 
L 357.282 245.969815 
L 357.282 245.891615 
L 357.282 244.24942 
L 357.84 244.24942 
L 357.84 244.171221 
L 357.84 242.763625 
L 358.398 242.763625 
L 358.398 242.685425 
L 358.398 241.512429 
L 358.956 241.512429 
L 358.956 241.434229 
L 358.956 240.417633 
L 359.514 240.417633 
L 359.514 240.339433 
L 359.514 238.931837 
L 360.072 238.931837 
L 360.072 238.853637 
L 360.072 237.602441 
L 360.63 237.602441 
L 360.63 237.524242 
L 360.63 235.803847 
L 361.188 235.803847 
L 361.188 235.725647 
L 361.188 234.78725 
L 361.746 234.78725 
L 361.746 234.709051 
L 361.746 234.396252 
L 362.304 234.396252 
L 362.304 234.318052 
L 362.304 233.301455 
L 362.862 233.301455 
L 362.862 233.223255 
L 362.862 232.050259 
L 363.42 232.050259 
L 363.42 231.972059 
L 363.42 230.720863 
L 363.978 230.720863 
L 363.978 230.642663 
L 363.978 229.313268 
L 364.536 229.313268 
L 364.536 229.235068 
L 364.536 227.436473 
L 365.094 227.436473 
L 365.094 227.358274 
L 365.094 226.263477 
L 365.652 226.263477 
L 365.652 226.185277 
L 365.652 224.855882 
L 366.21 224.855882 
L 366.21 224.777682 
L 366.21 222.900888 
L 366.768 222.900888 
L 366.768 222.822688 
L 366.768 221.336893 
L 367.326 221.336893 
L 367.326 221.258693 
L 367.326 219.929297 
L 367.884 219.929297 
L 367.884 219.851097 
L 367.884 218.287102 
L 368.442 218.287102 
L 368.442 218.208903 
L 368.442 216.879507 
L 369 216.879507 
L 369 216.801307 
L 369 208.824932 
L 369.558 208.824932 
L 369.558 208.746732 
L 369.558 207.886535 
L 370.116 207.886535 
L 370.116 207.808335 
L 370.116 206.557139 
L 370.674 206.557139 
L 370.674 206.47894 
L 370.674 204.680345 
L 371.232 204.680345 
L 371.232 204.602145 
L 371.232 203.429149 
L 371.79 203.429149 
L 371.79 203.350949 
L 371.79 201.317756 
L 372.348 201.317756 
L 372.348 201.239556 
L 372.348 199.831961 
L 372.906 199.831961 
L 372.906 199.753761 
L 372.906 198.033366 
L 373.464 198.033366 
L 373.464 197.955166 
L 373.464 196.93857 
L 374.022 196.93857 
L 374.022 196.86037 
L 374.022 196.000173 
L 374.58 196.000173 
L 374.58 195.921973 
L 374.58 194.592577 
L 375.138 194.592577 
L 375.138 194.514377 
L 375.138 193.184982 
L 375.696 193.184982 
L 375.696 193.106782 
L 375.696 192.324784 
L 376.254 192.324784 
L 376.254 192.246584 
L 376.254 190.60439 
L 376.812 190.60439 
L 376.812 190.52619 
L 376.812 189.744192 
L 377.37 189.744192 
L 377.37 189.665993 
L 377.37 188.805795 
L 377.928 188.805795 
L 377.928 188.727596 
L 377.928 187.710999 
L 378.486 187.710999 
L 378.486 187.632799 
L 378.486 186.616202 
L 379.044 186.616202 
L 379.044 186.538002 
L 379.044 185.130407 
L 379.602 185.130407 
L 379.602 185.052207 
L 379.602 183.801011 
L 380.16 183.801011 
L 380.16 183.722811 
L 380.16 182.940814 
L 380.718 182.940814 
L 380.718 182.862614 
L 380.718 182.158816 
L 381.276 182.158816 
L 381.276 182.080617 
L 381.276 181.220419 
L 381.834 181.220419 
L 381.834 181.142219 
L 381.834 179.891023 
L 382.392 179.891023 
L 382.392 179.812824 
L 382.392 178.561628 
L 382.95 178.561628 
L 382.95 178.483428 
L 382.95 177.310432 
L 383.508 177.310432 
L 383.508 177.232232 
L 383.508 176.215635 
L 384.066 176.215635 
L 384.066 176.137435 
L 384.066 175.277238 
L 384.624 175.277238 
L 384.624 175.199038 
L 384.624 174.182441 
L 385.182 174.182441 
L 385.182 174.104242 
L 385.182 173.165845 
L 385.74 173.165845 
L 385.74 173.087645 
L 385.74 171.836449 
L 386.298 171.836449 
L 386.298 171.758249 
L 386.298 171.054451 
L 386.856 171.054451 
L 386.856 170.976252 
L 386.856 169.959655 
L 387.414 169.959655 
L 387.414 169.881455 
L 387.414 169.099457 
L 387.972 169.099457 
L 387.972 169.021258 
L 387.972 168.473859 
L 388.53 168.473859 
L 388.53 168.39566 
L 388.53 167.222663 
L 389.088 167.222663 
L 389.088 167.144464 
L 389.088 166.049667 
L 389.646 166.049667 
L 389.646 165.971467 
L 389.646 165.18947 
L 390.204 165.18947 
L 390.204 165.11127 
L 390.204 163.703674 
L 390.762 163.703674 
L 390.762 163.625475 
L 390.762 162.530678 
L 391.32 162.530678 
L 391.32 162.452478 
L 391.32 162.06148 
L 391.878 162.06148 
L 391.878 161.98328 
L 391.878 160.966683 
L 392.436 160.966683 
L 392.436 160.888483 
L 392.436 160.653884 
L 392.994 160.653884 
L 392.994 160.575684 
L 392.994 159.168089 
L 393.552 159.168089 
L 393.552 159.089889 
L 393.552 158.151492 
L 394.11 158.151492 
L 394.11 158.073292 
L 394.11 156.900296 
L 394.668 156.900296 
L 394.668 156.822096 
L 394.668 155.7273 
L 395.226 155.7273 
L 395.226 155.6491 
L 395.226 154.867102 
L 395.784 154.867102 
L 395.784 154.788903 
L 395.784 153.850506 
L 396.342 153.850506 
L 396.342 153.772306 
L 396.342 153.224908 
L 396.9 153.224908 
L 396.9 153.146708 
L 396.9 152.208311 
L 397.458 152.208311 
L 397.458 152.130111 
L 397.458 151.035314 
L 398.016 151.035314 
L 398.016 150.957115 
L 398.016 150.096917 
L 398.574 150.096917 
L 398.574 150.018718 
L 398.574 149.471319 
L 399.132 149.471319 
L 399.132 149.39312 
L 399.132 149.002121 
L 399.69 149.002121 
L 399.69 148.923921 
L 399.69 148.220123 
L 400.248 148.220123 
L 400.248 148.141924 
L 400.248 147.438126 
L 400.806 147.438126 
L 400.806 147.359926 
L 400.806 146.968927 
L 401.364 146.968927 
L 401.364 146.890727 
L 401.364 145.639531 
L 401.922 145.639531 
L 401.922 145.561332 
L 401.922 144.857534 
L 402.48 144.857534 
L 402.48 144.779334 
L 402.48 143.919137 
L 403.038 143.919137 
L 403.038 143.840937 
L 403.038 142.90254 
L 403.596 142.90254 
L 403.596 142.82434 
L 403.596 142.120543 
L 404.154 142.120543 
L 404.154 142.042343 
L 404.154 141.573144 
L 404.712 141.573144 
L 404.712 141.494945 
L 404.712 140.869346 
L 405.27 140.869346 
L 405.27 140.791147 
L 405.27 140.400148 
L 405.828 140.400148 
L 405.828 140.321948 
L 405.828 139.461751 
L 406.386 139.461751 
L 406.386 139.383551 
L 406.386 138.836153 
L 406.944 138.836153 
L 406.944 138.757953 
L 406.944 137.663157 
L 407.502 137.663157 
L 407.502 137.584957 
L 407.502 137.115758 
L 408.06 137.115758 
L 408.06 137.037559 
L 408.06 136.72476 
L 408.618 136.72476 
L 408.618 136.64656 
L 408.618 136.255561 
L 409.176 136.255561 
L 409.176 136.177361 
L 409.176 135.786363 
L 409.734 135.786363 
L 409.734 135.708163 
L 409.734 135.317164 
L 410.292 135.317164 
L 410.292 135.238964 
L 410.292 134.378767 
L 410.85 134.378767 
L 410.85 134.300567 
L 410.85 133.909568 
L 411.408 133.909568 
L 411.408 133.831369 
L 411.408 133.51857 
L 411.966 133.51857 
L 411.966 133.44037 
L 411.966 132.971171 
L 412.524 132.971171 
L 412.524 132.892972 
L 412.524 132.345573 
L 413.082 132.345573 
L 413.082 132.267374 
L 413.082 131.250777 
L 413.64 131.250777 
L 413.64 131.172577 
L 413.64 130.625179 
L 414.198 130.625179 
L 414.198 130.546979 
L 414.198 130.15598 
L 414.756 130.15598 
L 414.756 130.077781 
L 414.756 129.764982 
L 415.314 129.764982 
L 415.314 129.686782 
L 415.314 128.357386 
L 415.872 128.357386 
L 415.872 128.279186 
L 415.872 127.10619 
L 416.43 127.10619 
L 416.43 127.02799 
L 416.43 126.715191 
L 416.988 126.715191 
L 416.988 126.636991 
L 416.988 126.558792 
L 417.546 126.558792 
L 417.546 126.480592 
L 417.546 125.542195 
L 418.104 125.542195 
L 418.104 125.463995 
L 418.104 125.151196 
L 418.662 125.151196 
L 418.662 125.072996 
L 418.662 124.681998 
L 419.22 124.681998 
L 419.22 124.603798 
L 419.22 124.290999 
L 419.778 124.290999 
L 419.778 124.212799 
L 419.778 123.9 
L 420.336 123.9 
L 420.336 123.8218 
L 420.336 123.352602 
L 420.894 123.352602 
L 420.894 123.274402 
L 420.894 122.570604 
L 421.452 122.570604 
L 421.452 122.492404 
L 421.452 122.257805 
L 422.01 122.257805 
L 422.01 122.179605 
L 422.01 121.475808 
L 422.568 121.475808 
L 422.568 121.397608 
L 422.568 121.319408 
L 423.126 121.319408 
L 423.126 121.241208 
L 423.126 120.928409 
L 423.684 120.928409 
L 423.684 120.85021 
L 423.684 120.224612 
L 424.242 120.224612 
L 424.242 120.146412 
L 424.242 119.755413 
L 424.8 119.755413 
L 424.8 119.677213 
L 424.8 119.208015 
L 425.358 119.208015 
L 425.358 119.129815 
L 425.358 118.817016 
L 425.916 118.817016 
L 425.916 118.738816 
L 425.916 117.956819 
L 426.474 117.956819 
L 426.474 117.878619 
L 426.474 117.64402 
L 427.032 117.64402 
L 427.032 117.56582 
L 427.032 116.627423 
L 427.59 116.627423 
L 427.59 116.549223 
L 427.59 116.080025 
L 428.148 116.080025 
L 428.148 116.001825 
L 428.148 115.689026 
L 428.706 115.689026 
L 428.706 115.610826 
L 428.706 115.376227 
L 429.264 115.376227 
L 429.264 115.298027 
L 429.264 114.985228 
L 429.822 114.985228 
L 429.822 114.907028 
L 429.822 114.594229 
L 430.38 114.594229 
L 430.38 114.51603 
L 430.38 114.28143 
L 430.938 114.28143 
L 430.938 114.203231 
L 430.938 113.186634 
L 431.496 113.186634 
L 431.496 113.108434 
L 431.496 112.482836 
L 432.054 112.482836 
L 432.054 112.404636 
L 432.054 111.700838 
L 432.612 111.700838 
L 432.612 111.622639 
L 432.612 110.918841 
L 433.17 110.918841 
L 433.17 110.840641 
L 433.17 110.136843 
L 433.728 110.136843 
L 433.728 110.058644 
L 433.728 109.745845 
L 434.286 109.745845 
L 434.286 109.667645 
L 434.286 109.198446 
L 434.844 109.198446 
L 434.844 109.120247 
L 434.844 108.729248 
L 435.402 108.729248 
L 435.402 108.651048 
L 435.402 107.634451 
L 435.96 107.634451 
L 435.96 107.556252 
L 435.96 107.243453 
L 436.518 107.243453 
L 436.518 107.165253 
L 436.518 106.852454 
L 437.076 106.852454 
L 437.076 106.774254 
L 437.076 106.461455 
L 437.634 106.461455 
L 437.634 106.383255 
L 437.634 106.148656 
L 438.192 106.148656 
L 438.192 106.070456 
L 438.192 105.523058 
L 438.75 105.523058 
L 438.75 105.444858 
L 438.75 105.288459 
L 439.308 105.288459 
L 439.308 105.210259 
L 439.308 104.584661 
L 439.866 104.584661 
L 439.866 104.506461 
L 439.866 104.428261 
L 440.424 104.428261 
L 440.424 104.350062 
L 440.424 104.115462 
L 440.982 104.115462 
L 440.982 104.037263 
L 440.982 103.880863 
L 441.54 103.880863 
L 441.54 103.802663 
L 441.54 103.411665 
L 442.098 103.411665 
L 442.098 103.333465 
L 442.098 103.020666 
L 442.656 103.020666 
L 442.656 102.942466 
L 442.656 102.395068 
L 443.214 102.395068 
L 443.214 102.316868 
L 443.214 102.160469 
L 443.772 102.160469 
L 443.772 102.082269 
L 443.772 101.69127 
L 444.33 101.69127 
L 444.33 101.61307 
L 444.33 101.534871 
L 444.888 101.534871 
L 444.888 101.456671 
L 444.888 100.909273 
L 445.446 100.909273 
L 445.446 100.831073 
L 445.446 100.518274 
L 446.004 100.518274 
L 446.004 100.440074 
L 446.004 100.127275 
L 446.562 100.127275 
L 446.562 100.049075 
L 446.562 99.814476 
L 447.12 99.814476 
L 447.12 99.736276 
L 447.12 99.579877 
L 447.678 99.579877 
L 447.678 99.501677 
L 447.678 99.345277 
L 448.236 99.345277 
L 448.236 99.267078 
L 448.236 98.876079 
L 448.794 98.876079 
L 448.794 98.797879 
L 448.794 98.328681 
L 449.352 98.328681 
L 449.352 98.250481 
L 449.352 97.781282 
L 449.91 97.781282 
L 449.91 97.703083 
L 449.91 97.312084 
L 450.468 97.312084 
L 450.468 97.233884 
L 450.468 96.921085 
L 451.026 96.921085 
L 451.026 96.842885 
L 451.026 96.686486 
L 451.584 96.686486 
L 451.584 96.608286 
L 451.584 96.060888 
L 452.142 96.060888 
L 452.142 95.982688 
L 452.142 95.904488 
L 452.7 95.904488 
L 452.7 95.826289 
L 452.7 95.51349 
L 453.258 95.51349 
L 453.258 95.43529 
L 453.258 95.35709 
L 453.816 95.35709 
L 453.816 95.27889 
L 453.816 95.044291 
L 454.374 95.044291 
L 454.374 94.966091 
L 454.374 94.418693 
L 454.932 94.418693 
L 454.932 94.340493 
L 454.932 94.105894 
L 455.49 94.105894 
L 455.49 94.027694 
L 455.49 93.480296 
L 456.048 93.480296 
L 456.048 93.402096 
L 456.048 92.854698 
L 456.606 92.854698 
L 456.606 92.776498 
L 456.606 92.541899 
L 457.164 92.541899 
L 457.164 92.463699 
L 457.164 92.1509 
L 457.722 92.1509 
L 457.722 92.0727 
L 457.722 91.681702 
L 458.28 91.681702 
L 458.28 91.603502 
L 458.28 91.447102 
L 459.396 91.368903 
L 459.396 91.056104 
L 459.954 91.056104 
L 459.954 90.977904 
L 459.954 90.743305 
L 460.512 90.743305 
L 460.512 90.665105 
L 460.512 90.430506 
L 461.07 90.430506 
L 461.07 90.352306 
L 461.07 90.274106 
L 461.628 90.274106 
L 461.628 90.195906 
L 461.628 89.961307 
L 462.186 89.961307 
L 462.186 89.883107 
L 462.186 89.804908 
L 462.744 89.804908 
L 462.744 89.726708 
L 462.744 89.492109 
L 463.86 89.492109 
L 463.86 89.413909 
L 463.86 88.94471 
L 464.418 88.94471 
L 464.418 88.86651 
L 464.418 88.788311 
L 464.976 88.788311 
L 464.976 88.710111 
L 464.976 88.553711 
L 465.534 88.553711 
L 465.534 88.475512 
L 465.534 88.240912 
L 466.092 88.240912 
L 466.092 88.162713 
L 466.092 88.006313 
L 466.65 88.006313 
L 466.65 87.928113 
L 466.65 87.458915 
L 467.208 87.458915 
L 467.208 87.380715 
L 467.208 87.302515 
L 467.766 87.302515 
L 467.766 87.224316 
L 467.766 86.989716 
L 468.324 86.989716 
L 468.324 86.911517 
L 468.324 86.598718 
L 468.882 86.598718 
L 468.882 86.520518 
L 468.882 86.442318 
L 469.44 86.442318 
L 469.44 86.364118 
L 469.44 86.207719 
L 469.998 86.207719 
L 469.998 86.129519 
L 469.998 85.81672 
L 470.556 85.81672 
L 470.556 85.73852 
L 470.556 85.425721 
L 471.114 85.425721 
L 471.114 85.347522 
L 471.114 85.112922 
L 471.672 85.112922 
L 471.672 85.034723 
L 471.672 84.721924 
L 472.23 84.721924 
L 472.23 84.643724 
L 472.23 84.330925 
L 472.788 84.330925 
L 472.788 84.252725 
L 472.788 84.096326 
L 473.904 84.018126 
L 473.904 83.627127 
L 474.462 83.627127 
L 474.462 83.548927 
L 474.462 83.079729 
L 475.02 83.079729 
L 475.02 83.001529 
L 475.02 82.923329 
L 475.578 82.923329 
L 475.578 82.845129 
L 475.578 82.53233 
L 476.136 82.53233 
L 476.136 82.454131 
L 476.136 82.063132 
L 476.694 82.063132 
L 476.694 81.984932 
L 476.694 81.593933 
L 477.252 81.593933 
L 477.252 81.515734 
L 477.252 81.281134 
L 477.81 81.281134 
L 477.81 81.202935 
L 477.81 80.890136 
L 478.368 80.890136 
L 478.368 80.811936 
L 478.368 80.577337 
L 478.926 80.577337 
L 478.926 80.499137 
L 478.926 80.264538 
L 479.484 80.264538 
L 479.484 80.186338 
L 479.484 79.717139 
L 480.042 79.717139 
L 480.042 79.63894 
L 480.042 79.169741 
L 480.6 79.169741 
L 480.6 79.091541 
L 480.6 78.856942 
L 481.158 78.856942 
L 481.158 78.778742 
L 481.158 78.231344 
L 481.716 78.231344 
L 481.716 78.153144 
L 481.716 77.918545 
L 482.274 77.918545 
L 482.274 77.840345 
L 482.274 77.683946 
L 482.832 77.683946 
L 482.832 77.605746 
L 482.832 77.449346 
L 483.948 77.371147 
L 483.948 77.214747 
L 484.506 77.214747 
L 484.506 77.136547 
L 484.506 76.589149 
L 485.622 76.510949 
L 485.622 76.43275 
L 486.18 76.43275 
L 486.18 76.35455 
L 486.18 76.041751 
L 486.738 76.041751 
L 486.738 75.963551 
L 486.738 75.337953 
L 487.296 75.337953 
L 487.296 75.259753 
L 487.296 74.946954 
L 487.854 74.946954 
L 487.854 74.868755 
L 487.854 74.712355 
L 488.412 74.712355 
L 488.412 74.634155 
L 488.412 74.477756 
L 489.528 74.399556 
L 489.528 74.008557 
L 490.086 74.008557 
L 490.086 73.930358 
L 490.086 73.695758 
L 490.644 73.695758 
L 490.644 73.617559 
L 490.644 73.539359 
L 491.202 73.539359 
L 491.202 73.461159 
L 491.202 73.30476 
L 491.76 73.30476 
L 491.76 73.22656 
L 491.76 73.07016 
L 492.318 73.07016 
L 492.318 72.991961 
L 492.318 72.679162 
L 492.876 72.679162 
L 492.876 72.600962 
L 492.876 72.522762 
L 493.434 72.522762 
L 493.434 72.444562 
L 493.434 72.288163 
L 493.992 72.288163 
L 493.992 72.209963 
L 493.992 72.053564 
L 494.55 72.053564 
L 494.55 71.975364 
L 494.55 71.740764 
L 495.108 71.740764 
L 495.108 71.662565 
L 495.108 71.506165 
L 495.666 71.506165 
L 495.666 71.427965 
L 495.666 71.349766 
L 496.224 71.349766 
L 496.224 71.271566 
L 496.224 71.115166 
L 496.782 71.115166 
L 496.782 71.036967 
L 496.782 70.880567 
L 497.34 70.880567 
L 497.34 70.802367 
L 497.34 70.567768 
L 497.898 70.567768 
L 497.898 70.489568 
L 497.898 69.94217 
L 498.456 69.94217 
L 498.456 69.86397 
L 498.456 69.707571 
L 499.572 69.629371 
L 499.572 69.472972 
L 500.13 69.472972 
L 500.13 69.394772 
L 500.13 69.160173 
L 500.688 69.160173 
L 500.688 69.081973 
L 500.688 68.769174 
L 501.246 68.769174 
L 501.246 68.690974 
L 501.246 68.456375 
L 501.804 68.456375 
L 501.804 68.378175 
L 501.804 68.299975 
L 502.362 68.299975 
L 502.362 68.221776 
L 502.362 67.908977 
L 502.92 67.908977 
L 502.92 67.830777 
L 502.92 67.596178 
L 503.478 67.596178 
L 503.478 67.517978 
L 503.478 67.361578 
L 504.036 67.361578 
L 504.036 67.283379 
L 504.036 67.205179 
L 504.594 67.205179 
L 504.594 67.126979 
L 504.594 66.81418 
L 505.152 66.81418 
L 505.152 66.73598 
L 505.152 66.344982 
L 506.268 66.344982 
L 506.268 66.266782 
L 506.268 66.110382 
L 506.826 66.110382 
L 506.826 66.032182 
L 506.826 65.953983 
L 507.384 65.953983 
L 507.384 65.875783 
L 507.384 65.797583 
L 507.942 65.797583 
L 507.942 65.719383 
L 507.942 65.641184 
L 509.058 65.562984 
L 509.058 65.328385 
L 509.616 65.328385 
L 509.616 65.250185 
L 509.616 65.171985 
L 510.174 65.171985 
L 510.174 65.093785 
L 510.174 64.780986 
L 512.406 64.702787 
L 512.406 64.624587 
L 513.522 64.546387 
L 513.522 64.468187 
L 514.638 64.389988 
L 514.638 64.311788 
L 515.196 64.311788 
L 515.196 64.233588 
L 515.196 64.155388 
L 516.87 64.077189 
L 516.87 63.920789 
L 517.428 63.920789 
L 517.428 63.842589 
L 517.428 63.68619 
L 519.102 63.60799 
L 519.102 63.451591 
L 521.334 63.373391 
L 521.334 63.216991 
L 524.124 63.138792 
L 524.124 62.982392 
L 525.24 62.982392 
L 525.24 62.904192 
L 525.24 62.747793 
L 525.798 62.747793 
L 525.798 62.669593 
L 525.798 62.591393 
L 526.914 62.591393 
L 526.914 62.513194 
L 526.914 62.356794 
L 529.146 62.278594 
L 529.146 62.122195 
L 529.704 62.122195 
L 529.704 62.043995 
L 529.704 61.965795 
L 535.284 61.887596 
L 535.284 61.809396 
L 537.516 61.731196 
L 537.516 61.574797 
L 538.632 61.574797 
L 538.632 61.496597 
L 538.632 61.418397 
L 539.748 61.340197 
L 539.748 61.261998 
L 541.422 61.183798 
L 541.422 61.105598 
L 544.77 61.027398 
L 544.77 60.949199 
L 566.532 60.870999 
L 566.532 60.792799 
L 583.272 60.714599 
L 583.272 60.6364 
L 588.294 60.5582 
L 588.294 60.48 
L 588.294 60.48 
" clip-path="url(#pd1409e8d3d)" style="fill: none; stroke: #ff7f0e; stroke-width: 2.8; stroke-linecap: round"/>
   </g>
   <g id="line2d_15">
    <path d="M 171.468 441 
L 171.468 440.99239 
L 190.998 440.885844 
L 190.998 440.863013 
L 196.578 440.756467 
L 196.578 440.733636 
L 201.042 440.62709 
L 201.042 440.61948 
L 203.832 440.535766 
L 203.832 440.512934 
L 203.832 440.505324 
L 205.506 440.42161 
L 205.506 440.398778 
L 205.506 440.375947 
L 207.18 440.284622 
L 207.18 440.269402 
L 207.18 440.23135 
L 208.296 440.162856 
L 208.296 440.124804 
L 208.296 440.094362 
L 209.412 440.025869 
L 209.412 439.987817 
L 209.412 439.964986 
L 210.528 439.881271 
L 210.528 439.85844 
L 210.528 439.789946 
L 211.086 439.789946 
L 211.086 439.683401 
L 211.086 439.622518 
L 212.202 439.576855 
L 212.202 439.515972 
L 212.202 439.508362 
L 213.318 439.447478 
L 213.318 439.401816 
L 213.318 439.386595 
L 214.434 439.318102 
L 214.434 439.28005 
L 214.434 439.226777 
L 214.992 439.226777 
L 214.992 439.120231 
L 214.992 439.112621 
L 216.108 439.044127 
L 216.108 439.006075 
L 216.108 438.922361 
L 216.666 438.922361 
L 216.666 438.815815 
L 216.666 438.785374 
L 217.224 438.785374 
L 217.224 438.678828 
L 217.224 438.671218 
L 218.34 438.572282 
L 218.34 438.564672 
L 218.34 438.404854 
L 218.898 438.404854 
L 218.898 438.298308 
L 218.898 438.267866 
L 219.456 438.267866 
L 219.456 438.161321 
L 219.456 438.130879 
L 220.014 438.130879 
L 220.014 438.024334 
L 220.014 438.001502 
L 220.572 438.001502 
L 220.572 437.894957 
L 220.572 437.826463 
L 221.13 437.826463 
L 221.13 437.719918 
L 221.13 437.605762 
L 221.688 437.605762 
L 221.688 437.499216 
L 221.688 437.407891 
L 222.246 437.407891 
L 222.246 437.301346 
L 222.246 437.225242 
L 222.804 437.225242 
L 222.804 437.118696 
L 222.804 437.00454 
L 223.362 437.00454 
L 223.362 436.897994 
L 223.362 436.768618 
L 223.92 436.768618 
L 223.92 436.662072 
L 223.92 436.555526 
L 224.478 436.555526 
L 224.478 436.448981 
L 224.478 436.395708 
L 225.036 436.395708 
L 225.036 436.289162 
L 225.036 436.182617 
L 225.594 436.182617 
L 225.594 436.076071 
L 225.594 435.977136 
L 226.152 435.977136 
L 226.152 435.87059 
L 226.152 435.771655 
L 226.71 435.771655 
L 226.71 435.66511 
L 226.71 435.512902 
L 227.268 435.512902 
L 227.268 435.406356 
L 227.268 435.315031 
L 227.826 435.315031 
L 227.826 435.208486 
L 227.826 434.980174 
L 228.384 434.980174 
L 228.384 434.873628 
L 228.384 434.751862 
L 228.942 434.751862 
L 228.942 434.645316 
L 228.942 434.432225 
L 229.5 434.432225 
L 229.5 434.325679 
L 229.5 434.112588 
L 230.058 434.112588 
L 230.058 434.006042 
L 230.058 433.853834 
L 230.616 433.853834 
L 230.616 433.747289 
L 230.616 433.420042 
L 231.174 433.420042 
L 231.174 433.313496 
L 231.174 433.047132 
L 231.732 433.047132 
L 231.732 432.940586 
L 231.732 432.651391 
L 232.29 432.651391 
L 232.29 432.544846 
L 232.29 432.25565 
L 232.848 432.25565 
L 232.848 432.149105 
L 232.848 431.799026 
L 233.406 431.799026 
L 233.406 431.692481 
L 233.406 431.388065 
L 233.964 431.388065 
L 233.964 431.281519 
L 233.964 430.855337 
L 234.522 430.855337 
L 234.522 430.748791 
L 234.522 430.467206 
L 235.08 430.467206 
L 235.08 430.360661 
L 235.08 429.995362 
L 235.638 429.995362 
L 235.638 429.888816 
L 235.638 429.531127 
L 236.196 429.531127 
L 236.196 429.424582 
L 236.196 429.20388 
L 236.754 429.20388 
L 236.754 429.097334 
L 236.754 428.701594 
L 237.312 428.701594 
L 237.312 428.595048 
L 237.312 428.100372 
L 237.87 428.100372 
L 237.87 427.993826 
L 237.87 427.598086 
L 238.428 427.598086 
L 238.428 427.49154 
L 238.428 427.10341 
L 238.986 427.10341 
L 238.986 426.996864 
L 238.986 426.646786 
L 239.544 426.646786 
L 239.544 426.54024 
L 239.544 426.106447 
L 240.102 426.106447 
L 240.102 425.999902 
L 240.102 425.543278 
L 240.66 425.543278 
L 240.66 425.436732 
L 240.66 424.942056 
L 241.218 424.942056 
L 241.218 424.83551 
L 241.218 424.340834 
L 241.776 424.340834 
L 241.776 424.234289 
L 241.776 423.648288 
L 242.334 423.648288 
L 242.334 423.541742 
L 242.334 422.872027 
L 242.892 422.872027 
L 242.892 422.765482 
L 242.892 422.240364 
L 243.45 422.240364 
L 243.45 422.133818 
L 243.45 421.464103 
L 244.008 421.464103 
L 244.008 421.357558 
L 244.008 420.695453 
L 244.566 420.695453 
L 244.566 420.588907 
L 244.566 420.018127 
L 245.124 420.018127 
L 245.124 419.911582 
L 245.124 419.043996 
L 245.682 419.043996 
L 245.682 418.93745 
L 245.682 418.1688 
L 246.24 418.1688 
L 246.24 418.062254 
L 246.24 417.339266 
L 246.798 417.339266 
L 246.798 417.232721 
L 246.798 416.563006 
L 247.356 416.563006 
L 247.356 416.45646 
L 247.356 415.649758 
L 247.914 415.649758 
L 247.914 415.543212 
L 247.914 414.858276 
L 248.472 414.858276 
L 248.472 414.75173 
L 248.472 413.952638 
L 249.03 413.952638 
L 249.03 413.846093 
L 249.03 412.986118 
L 249.588 412.986118 
L 249.588 412.879572 
L 249.588 412.187026 
L 250.146 412.187026 
L 250.146 412.08048 
L 250.146 411.075907 
L 250.704 411.075907 
L 250.704 410.969362 
L 250.704 410.17027 
L 251.262 410.17027 
L 251.262 410.063724 
L 251.262 408.960216 
L 251.82 408.960216 
L 251.82 408.85367 
L 251.82 407.940422 
L 252.378 407.940422 
L 252.378 407.833877 
L 252.378 406.913018 
L 252.936 406.913018 
L 252.936 406.806473 
L 252.936 405.680134 
L 253.494 405.680134 
L 253.494 405.573588 
L 253.494 404.797327 
L 254.052 404.797327 
L 254.052 404.690782 
L 254.052 403.739482 
L 254.61 403.739482 
L 254.61 403.632936 
L 254.61 402.544649 
L 255.168 402.544649 
L 255.168 402.438103 
L 255.168 401.387868 
L 255.726 401.387868 
L 255.726 401.281322 
L 255.726 400.08649 
L 256.284 400.08649 
L 256.284 399.979944 
L 256.284 398.838384 
L 256.842 398.838384 
L 256.842 398.731838 
L 256.842 397.575058 
L 257.4 397.575058 
L 257.4 397.468512 
L 257.4 396.060588 
L 257.958 396.060588 
L 257.958 395.954042 
L 257.958 394.797262 
L 258.516 394.797262 
L 258.516 394.690716 
L 258.516 393.457831 
L 259.074 393.457831 
L 259.074 393.351286 
L 259.074 392.080349 
L 259.632 392.080349 
L 259.632 391.973803 
L 259.632 390.809412 
L 260.19 390.809412 
L 260.19 390.702866 
L 260.19 389.363436 
L 260.748 389.363436 
L 260.748 389.25689 
L 260.748 387.841356 
L 261.306 387.841356 
L 261.306 387.73481 
L 261.306 386.349718 
L 261.864 386.349718 
L 261.864 386.243172 
L 261.864 384.827638 
L 262.422 384.827638 
L 262.422 384.721092 
L 262.422 383.282726 
L 262.98 383.282726 
L 262.98 383.176181 
L 262.98 381.798698 
L 263.538 381.798698 
L 263.538 381.692153 
L 263.538 380.033086 
L 264.096 380.033086 
L 264.096 379.92654 
L 264.096 378.282694 
L 264.654 378.282694 
L 264.654 378.176148 
L 264.654 376.775834 
L 265.212 376.775834 
L 265.212 376.669289 
L 265.212 374.98739 
L 265.77 374.98739 
L 265.77 374.880845 
L 265.77 373.138063 
L 266.328 373.138063 
L 266.328 373.031518 
L 266.328 371.281126 
L 266.886 371.281126 
L 266.886 371.17458 
L 266.886 369.606838 
L 267.444 369.606838 
L 267.444 369.500292 
L 267.444 367.924939 
L 268.002 367.924939 
L 268.002 367.818394 
L 268.002 366.090833 
L 268.56 366.090833 
L 268.56 365.984287 
L 268.56 364.340441 
L 269.118 364.340441 
L 269.118 364.233895 
L 269.118 362.346516 
L 269.676 362.346516 
L 269.676 362.23997 
L 269.676 360.596124 
L 270.234 360.596124 
L 270.234 360.489578 
L 270.234 358.640251 
L 270.792 358.640251 
L 270.792 358.533706 
L 270.792 356.691989 
L 271.35 356.691989 
L 271.35 356.585443 
L 271.35 354.698064 
L 271.908 354.698064 
L 271.908 354.591518 
L 271.908 352.803074 
L 272.466 352.803074 
L 272.466 352.696529 
L 272.466 350.854812 
L 273.024 350.854812 
L 273.024 350.748266 
L 273.024 348.792394 
L 273.582 348.792394 
L 273.582 348.685848 
L 273.582 346.783248 
L 274.14 346.783248 
L 274.14 346.676702 
L 274.14 344.92631 
L 274.698 344.92631 
L 274.698 344.819765 
L 274.698 342.719294 
L 275.256 342.719294 
L 275.256 342.612749 
L 275.256 340.519889 
L 275.814 340.519889 
L 275.814 340.413343 
L 275.814 338.213938 
L 276.372 338.213938 
L 276.372 338.107392 
L 276.372 335.961259 
L 276.93 335.961259 
L 276.93 335.854714 
L 276.93 333.929282 
L 277.488 333.929282 
L 277.488 333.822737 
L 277.488 331.874474 
L 278.046 331.874474 
L 278.046 331.767929 
L 278.046 329.637017 
L 278.604 329.637017 
L 278.604 329.530471 
L 278.604 327.384338 
L 279.162 327.384338 
L 279.162 327.277793 
L 279.162 325.245816 
L 279.72 325.245816 
L 279.72 325.13927 
L 279.72 322.932254 
L 280.278 322.932254 
L 280.278 322.825709 
L 280.278 320.527368 
L 280.836 320.527368 
L 280.836 320.420822 
L 280.836 318.442118 
L 281.394 318.442118 
L 281.394 318.335573 
L 281.394 316.227492 
L 281.952 316.227492 
L 281.952 316.120946 
L 281.952 313.776943 
L 282.51 313.776943 
L 282.51 313.670398 
L 282.51 311.470992 
L 283.068 311.470992 
L 283.068 311.364446 
L 283.068 309.203093 
L 283.626 309.203093 
L 283.626 309.096547 
L 283.626 306.8667 
L 284.184 306.8667 
L 284.184 306.760154 
L 284.184 304.690126 
L 284.742 304.690126 
L 284.742 304.58358 
L 284.742 302.239577 
L 285.3 302.239577 
L 285.3 302.133031 
L 285.3 299.857522 
L 285.858 299.857522 
L 285.858 299.750976 
L 285.858 297.483077 
L 286.416 297.483077 
L 286.416 297.376531 
L 286.416 294.948814 
L 286.974 294.948814 
L 286.974 294.842268 
L 286.974 292.58959 
L 287.532 292.58959 
L 287.532 292.483044 
L 287.532 290.32169 
L 288.09 290.32169 
L 288.09 290.215145 
L 288.09 287.962466 
L 288.648 287.962466 
L 288.648 287.855921 
L 288.648 285.641294 
L 289.206 285.641294 
L 289.206 285.534749 
L 289.206 283.07659 
L 289.764 283.07659 
L 289.764 282.970044 
L 289.764 280.549937 
L 290.322 280.549937 
L 290.322 280.443391 
L 290.322 278.12983 
L 290.88 278.12983 
L 290.88 278.023284 
L 290.88 275.823878 
L 291.438 275.823878 
L 291.438 275.717333 
L 291.438 273.282005 
L 291.996 273.282005 
L 291.996 273.175459 
L 291.996 271.006495 
L 292.554 271.006495 
L 292.554 270.89995 
L 292.554 268.571167 
L 293.112 268.571167 
L 293.112 268.464622 
L 293.112 265.9608 
L 293.67 265.9608 
L 293.67 265.854254 
L 293.67 263.632018 
L 294.228 263.632018 
L 294.228 263.525472 
L 294.228 260.839001 
L 294.786 260.839001 
L 294.786 260.732455 
L 294.786 258.3504 
L 295.344 258.3504 
L 295.344 258.243854 
L 295.344 255.87702 
L 295.902 255.87702 
L 295.902 255.770474 
L 295.902 253.373198 
L 296.46 253.373198 
L 296.46 253.266653 
L 296.46 251.150962 
L 297.018 251.150962 
L 297.018 251.044416 
L 297.018 248.784127 
L 297.576 248.784127 
L 297.576 248.677582 
L 297.576 246.379241 
L 298.134 246.379241 
L 298.134 246.272695 
L 298.134 244.0809 
L 298.692 244.0809 
L 298.692 243.974354 
L 298.692 241.782559 
L 299.25 241.782559 
L 299.25 241.676014 
L 299.25 239.529881 
L 299.808 239.529881 
L 299.808 239.423335 
L 299.808 237.018449 
L 300.366 237.018449 
L 300.366 236.911903 
L 300.366 234.613562 
L 300.924 234.613562 
L 300.924 234.507017 
L 300.924 232.201066 
L 301.482 232.201066 
L 301.482 232.09452 
L 301.482 229.872283 
L 302.04 229.872283 
L 302.04 229.765738 
L 302.04 227.657657 
L 302.598 227.657657 
L 302.598 227.551111 
L 302.598 225.44303 
L 303.156 225.44303 
L 303.156 225.336485 
L 303.156 222.748949 
L 303.714 222.748949 
L 303.714 222.642403 
L 303.714 220.465829 
L 304.272 220.465829 
L 304.272 220.359283 
L 304.272 218.038111 
L 304.83 218.038111 
L 304.83 217.931566 
L 304.83 215.625614 
L 305.388 215.625614 
L 305.388 215.519069 
L 305.388 213.228338 
L 305.946 213.228338 
L 305.946 213.121793 
L 305.946 210.952829 
L 306.504 210.952829 
L 306.504 210.846283 
L 306.504 208.50228 
L 307.062 208.50228 
L 307.062 208.395734 
L 307.062 206.302874 
L 307.62 206.302874 
L 307.62 206.196329 
L 307.62 203.867546 
L 308.178 203.867546 
L 308.178 203.761001 
L 308.178 201.64531 
L 308.736 201.64531 
L 308.736 201.538764 
L 308.736 199.430683 
L 309.294 199.430683 
L 309.294 199.324138 
L 309.294 197.193226 
L 309.852 197.193226 
L 309.852 197.08668 
L 309.852 195.237353 
L 310.41 195.237353 
L 310.41 195.130807 
L 310.41 192.687869 
L 310.968 192.687869 
L 310.968 192.581323 
L 310.968 190.412359 
L 311.526 190.412359 
L 311.526 190.305814 
L 311.526 188.319499 
L 312.084 188.319499 
L 312.084 188.212954 
L 312.084 186.013548 
L 312.642 186.013548 
L 312.642 185.907002 
L 312.642 183.935909 
L 313.2 183.935909 
L 313.2 183.829363 
L 313.2 181.85827 
L 313.758 181.85827 
L 313.758 181.751724 
L 313.758 179.605591 
L 314.316 179.605591 
L 314.316 179.499046 
L 314.316 177.444238 
L 314.874 177.444238 
L 314.874 177.337692 
L 314.874 175.435092 
L 315.432 175.435092 
L 315.432 175.328546 
L 315.432 173.349842 
L 315.99 173.349842 
L 315.99 173.243297 
L 315.99 171.21893 
L 316.548 171.21893 
L 316.548 171.112385 
L 316.548 169.232616 
L 317.106 169.232616 
L 317.106 169.12607 
L 317.106 167.352847 
L 317.664 167.352847 
L 317.664 167.246302 
L 317.664 165.30565 
L 318.222 165.30565 
L 318.222 165.199104 
L 318.222 163.334556 
L 318.78 163.334556 
L 318.78 163.22801 
L 318.78 161.333021 
L 319.338 161.333021 
L 319.338 161.226475 
L 319.338 159.483694 
L 319.896 159.483694 
L 319.896 159.377148 
L 319.896 157.687639 
L 320.454 157.687639 
L 320.454 157.581094 
L 320.454 155.724156 
L 321.012 155.724156 
L 321.012 155.61761 
L 321.012 153.966154 
L 321.57 153.966154 
L 321.57 153.859608 
L 321.57 152.086385 
L 322.128 152.086385 
L 322.128 151.979839 
L 322.128 149.963083 
L 322.686 149.963083 
L 322.686 149.856538 
L 322.686 148.037652 
L 323.244 148.037652 
L 323.244 147.931106 
L 323.244 146.46991 
L 323.802 146.46991 
L 323.802 146.363364 
L 323.802 144.818453 
L 324.36 144.818453 
L 324.36 144.711907 
L 324.36 143.136554 
L 324.918 143.136554 
L 324.918 143.030009 
L 324.918 141.53837 
L 325.476 141.53837 
L 325.476 141.431825 
L 325.476 140.00107 
L 326.034 140.00107 
L 326.034 139.894524 
L 326.034 138.281119 
L 326.592 138.281119 
L 326.592 138.174574 
L 326.592 136.629662 
L 327.15 136.629662 
L 327.15 136.523117 
L 327.15 135.023868 
L 327.708 135.023868 
L 327.708 134.917322 
L 327.708 133.380022 
L 328.266 133.380022 
L 328.266 133.273476 
L 328.266 131.903604 
L 328.824 131.903604 
L 328.824 131.797058 
L 328.824 130.427186 
L 329.382 130.427186 
L 329.382 130.320641 
L 329.382 128.813782 
L 329.94 128.813782 
L 329.94 128.707236 
L 329.94 127.405858 
L 330.498 127.405858 
L 330.498 127.299312 
L 330.498 125.92944 
L 331.056 125.92944 
L 331.056 125.822894 
L 331.056 124.544347 
L 331.614 124.544347 
L 331.614 124.437802 
L 331.614 123.189696 
L 332.172 123.189696 
L 332.172 123.08315 
L 332.172 121.880707 
L 332.73 121.880707 
L 332.73 121.774162 
L 332.73 120.465173 
L 333.288 120.465173 
L 333.288 120.358627 
L 333.288 119.217067 
L 333.846 119.217067 
L 333.846 119.110522 
L 333.846 117.991793 
L 334.404 117.991793 
L 334.404 117.885247 
L 334.404 116.629531 
L 334.962 116.629531 
L 334.962 116.522986 
L 334.962 115.396646 
L 335.52 115.396646 
L 335.52 115.290101 
L 335.52 114.049606 
L 336.078 114.049606 
L 336.078 113.94306 
L 336.078 112.763448 
L 336.636 112.763448 
L 336.636 112.656902 
L 336.636 111.561005 
L 337.194 111.561005 
L 337.194 111.454459 
L 337.194 110.297678 
L 337.752 110.297678 
L 337.752 110.191133 
L 337.752 109.171339 
L 338.31 109.171339 
L 338.31 109.064794 
L 338.31 108.029779 
L 338.868 108.029779 
L 338.868 107.923234 
L 338.868 106.812115 
L 339.426 106.812115 
L 339.426 106.70557 
L 339.426 105.76188 
L 339.984 105.76188 
L 339.984 105.655334 
L 339.984 104.62793 
L 340.542 104.62793 
L 340.542 104.521385 
L 340.542 103.608137 
L 341.1 103.608137 
L 341.1 103.501591 
L 341.1 102.72533 
L 341.658 102.72533 
L 341.658 102.618785 
L 341.658 101.659874 
L 342.216 101.659874 
L 342.216 101.553329 
L 342.216 100.61725 
L 342.774 100.61725 
L 342.774 100.510704 
L 342.774 99.597456 
L 343.332 99.597456 
L 343.332 99.49091 
L 343.332 98.585273 
L 343.89 98.585273 
L 343.89 98.478727 
L 343.89 97.595921 
L 344.448 97.595921 
L 344.448 97.489375 
L 344.448 96.697894 
L 345.006 96.697894 
L 345.006 96.591348 
L 345.006 95.784646 
L 345.564 95.784646 
L 345.564 95.6781 
L 345.564 94.901839 
L 346.122 94.901839 
L 346.122 94.795294 
L 346.122 93.859214 
L 346.68 93.859214 
L 346.68 93.752669 
L 346.68 93.037291 
L 347.238 93.037291 
L 347.238 92.930746 
L 347.238 92.306693 
L 347.796 92.306693 
L 347.796 92.200147 
L 347.796 91.401055 
L 348.354 91.401055 
L 348.354 91.29451 
L 348.354 90.518249 
L 348.912 90.518249 
L 348.912 90.411703 
L 348.912 89.818092 
L 349.47 89.818092 
L 349.47 89.711546 
L 349.47 89.02661 
L 350.028 89.02661 
L 350.028 88.920065 
L 350.028 88.26557 
L 350.586 88.26557 
L 350.586 88.159025 
L 350.586 87.633907 
L 351.144 87.633907 
L 351.144 87.527362 
L 351.144 86.979413 
L 351.702 86.979413 
L 351.702 86.872867 
L 351.702 86.256425 
L 352.26 86.256425 
L 352.26 86.149879 
L 352.26 85.58671 
L 352.818 85.58671 
L 352.818 85.480164 
L 352.818 84.924605 
L 353.376 84.924605 
L 353.376 84.818059 
L 353.376 84.277721 
L 353.934 84.277721 
L 353.934 84.171175 
L 353.934 83.516681 
L 354.492 83.516681 
L 354.492 83.410135 
L 354.492 82.999174 
L 355.05 82.999174 
L 355.05 82.892628 
L 355.05 82.413173 
L 355.608 82.413173 
L 355.608 82.306627 
L 355.608 81.804341 
L 356.166 81.804341 
L 356.166 81.697795 
L 356.166 81.340106 
L 356.724 81.340106 
L 356.724 81.233561 
L 356.724 80.746495 
L 357.282 80.746495 
L 357.282 80.63995 
L 357.282 80.213767 
L 357.84 80.213767 
L 357.84 80.107222 
L 357.84 79.589714 
L 358.398 79.589714 
L 358.398 79.483169 
L 358.398 79.148311 
L 358.956 79.148311 
L 358.956 79.041766 
L 358.956 78.676466 
L 359.514 78.676466 
L 359.514 78.569921 
L 359.514 78.082855 
L 360.072 78.082855 
L 360.072 77.97631 
L 360.072 77.550127 
L 360.63 77.550127 
L 360.63 77.443582 
L 360.63 77.161997 
L 361.188 77.161997 
L 361.188 77.055451 
L 361.188 76.690152 
L 361.746 76.690152 
L 361.746 76.583606 
L 361.746 76.165034 
L 362.304 76.165034 
L 362.304 76.058489 
L 362.304 75.738852 
L 362.862 75.738852 
L 362.862 75.632306 
L 362.862 75.267007 
L 363.42 75.267007 
L 363.42 75.160462 
L 363.42 74.909318 
L 363.978 74.909318 
L 363.978 74.802773 
L 363.978 74.437474 
L 364.536 74.437474 
L 364.536 74.330928 
L 364.536 74.026512 
L 365.094 74.026512 
L 365.094 73.919966 
L 365.094 73.592719 
L 365.652 73.592719 
L 365.652 73.486174 
L 365.652 73.189368 
L 366.21 73.189368 
L 366.21 73.082822 
L 366.21 72.793627 
L 366.768 72.793627 
L 366.768 72.687082 
L 366.768 72.45877 
L 367.326 72.45877 
L 367.326 72.352224 
L 367.326 72.108691 
L 367.884 72.108691 
L 367.884 72.002146 
L 367.884 71.781444 
L 368.442 71.781444 
L 368.442 71.674898 
L 368.442 71.400924 
L 369 71.400924 
L 369 71.294378 
L 369 71.13456 
L 369.558 71.13456 
L 369.558 71.028014 
L 369.558 70.898638 
L 370.116 70.898638 
L 370.116 70.792092 
L 370.116 70.586611 
L 370.674 70.586611 
L 370.674 70.480066 
L 370.674 70.259364 
L 371.232 70.259364 
L 371.232 70.152818 
L 371.232 69.939727 
L 371.79 69.939727 
L 371.79 69.833182 
L 371.79 69.642922 
L 372.348 69.642922 
L 372.348 69.536376 
L 372.348 69.368947 
L 372.906 69.368947 
L 372.906 69.262402 
L 372.906 69.079752 
L 373.464 69.079752 
L 373.464 68.973206 
L 373.464 68.874271 
L 374.022 68.874271 
L 374.022 68.767726 
L 374.022 68.600297 
L 374.58 68.600297 
L 374.58 68.493751 
L 374.58 68.440478 
L 375.138 68.440478 
L 375.138 68.333933 
L 375.138 68.242608 
L 375.696 68.242608 
L 375.696 68.136062 
L 375.696 67.983854 
L 376.254 67.983854 
L 376.254 67.877309 
L 376.254 67.70227 
L 376.812 67.70227 
L 376.812 67.595724 
L 376.812 67.451126 
L 377.37 67.451126 
L 377.37 67.344581 
L 377.37 67.253256 
L 377.928 67.253256 
L 377.928 67.14671 
L 377.928 67.047775 
L 378.486 67.047775 
L 378.486 66.94123 
L 378.486 66.880346 
L 379.044 66.880346 
L 379.044 66.773801 
L 379.044 66.735749 
L 379.602 66.735749 
L 379.602 66.629203 
L 379.602 66.591151 
L 380.16 66.591151 
L 380.16 66.484606 
L 380.16 66.301956 
L 380.718 66.301956 
L 380.718 66.19541 
L 380.718 66.157358 
L 381.276 66.157358 
L 381.276 66.050813 
L 381.276 65.936657 
L 381.834 65.936657 
L 381.834 65.830111 
L 381.834 65.80728 
L 382.392 65.80728 
L 382.392 65.700734 
L 382.392 65.639851 
L 382.95 65.639851 
L 382.95 65.533306 
L 382.95 65.487643 
L 384.066 65.388708 
L 384.066 65.381098 
L 384.066 65.2365 
L 385.182 65.137565 
L 385.182 65.129954 
L 385.182 65.023409 
L 385.74 65.023409 
L 385.74 64.916863 
L 385.74 64.886422 
L 386.298 64.886422 
L 386.298 64.779876 
L 386.298 64.734214 
L 387.414 64.642889 
L 387.414 64.627668 
L 387.414 64.536343 
L 387.972 64.536343 
L 387.972 64.429798 
L 387.972 64.399356 
L 389.088 64.29281 
L 389.088 64.201486 
L 390.204 64.10255 
L 390.204 64.09494 
L 390.204 64.003615 
L 391.32 63.91229 
L 391.32 63.89707 
L 391.32 63.820966 
L 392.436 63.71442 
L 392.436 63.661147 
L 393.552 63.577433 
L 393.552 63.554602 
L 393.552 63.53177 
L 394.668 63.440446 
L 394.668 63.425225 
L 394.668 63.356731 
L 395.784 63.265406 
L 395.784 63.250186 
L 395.784 63.196913 
L 396.9 63.097978 
L 396.9 63.090367 
L 396.9 63.044705 
L 399.132 62.938159 
L 399.132 62.877276 
L 400.248 62.831614 
L 400.248 62.77073 
L 400.248 62.747899 
L 401.364 62.687016 
L 401.364 62.641354 
L 401.364 62.595691 
L 403.038 62.504366 
L 403.038 62.489146 
L 403.038 62.443483 
L 404.154 62.39021 
L 404.154 62.336938 
L 404.154 62.329327 
L 406.386 62.230392 
L 406.386 62.222782 
L 406.386 62.177119 
L 408.06 62.101015 
L 408.06 62.070574 
L 408.06 62.062963 
L 409.176 62.00208 
L 409.176 61.956418 
L 409.176 61.948807 
L 411.408 61.857482 
L 411.408 61.842262 
L 411.408 61.81943 
L 414.198 61.735716 
L 414.198 61.712885 
L 414.198 61.682443 
L 416.43 61.636781 
L 416.43 61.575898 
L 416.43 61.568287 
L 418.104 61.461742 
L 418.104 61.446521 
L 423.126 61.339975 
L 423.126 61.332365 
L 425.358 61.256261 
L 425.358 61.225819 
L 425.358 61.218209 
L 429.822 61.111663 
L 429.822 61.096442 
L 435.402 60.997507 
L 435.402 60.989897 
L 435.402 60.982286 
L 440.982 60.875741 
L 440.982 60.86813 
L 449.91 60.769195 
L 449.91 60.761585 
L 449.91 60.753974 
L 459.396 60.647429 
L 459.396 60.624598 
L 479.484 60.518052 
L 479.484 60.510442 
L 502.362 60.48761 
L 502.362 60.48 
" clip-path="url(#pd1409e8d3d)" style="fill: none; stroke: #1f77b4; stroke-width: 2.8; stroke-linecap: round"/>
   </g>
   <g id="patch_3">
    <path d="M 90 441 
L 90 60.48 
" style="fill: none; stroke: #262626; stroke-width: 1.25; stroke-linejoin: miter; stroke-linecap: square"/>
   </g>
   <g id="patch_4">
    <path d="M 648 441 
L 648 60.48 
" style="fill: none; stroke: #262626; stroke-width: 1.25; stroke-linejoin: miter; stroke-linecap: square"/>
   </g>
   <g id="patch_5">
    <path d="M 90 441 
L 648 441 
" style="fill: none; stroke: #262626; stroke-width: 1.25; stroke-linejoin: miter; stroke-linecap: square"/>
   </g>
   <g id="patch_6">
    <path d="M 90 60.48 
L 648 60.48 
" style="fill: none; stroke: #262626; stroke-width: 1.25; stroke-linejoin: miter; stroke-linecap: square"/>
   </g>
   <g id="text_14">
    <text style="fill: #262626; font: 25px 'sans-serif'; text-anchor: middle" x="369" y="54.48" transform="rotate(-0, 369, 54.48)">Distribution of NP_Like</text>
   </g>
   <g id="legend_1">
    <g id="text_15">
     <text style="fill: #262626; font: 20px 'sans-serif'; text-anchor: start" x="130.600781" y="88.295625" transform="rotate(-0, 130.600781, 88.295625)">DataSet</text>
    </g>
    <g id="line2d_16">
     <path d="M 103.5 105.257344 
L 118.5 105.257344 
L 118.5 105.257344 
L 133.5 105.257344 
L 133.5 105.257344 
" style="fill: none; stroke: #1f77b4; stroke-width: 2.8; stroke-linecap: round"/>
    </g>
    <g id="text_16">
     <text style="fill: #262626; font: 15px 'sans-serif'; text-anchor: start" x="145.5" y="110.507344" transform="rotate(-0, 145.5, 110.507344)">Enamine</text>
    </g>
    <g id="line2d_17">
     <path d="M 103.5 126.475313 
L 118.5 126.475313 
L 118.5 126.475313 
L 133.5 126.475313 
L 133.5 126.475313 
" style="fill: none; stroke: #ff7f0e; stroke-width: 2.8; stroke-linecap: round"/>
    </g>
    <g id="text_17">
     <text style="fill: #262626; font: 15px 'sans-serif'; text-anchor: start" x="145.5" y="131.725313" transform="rotate(-0, 145.5, 131.725313)">DrugBank</text>
    </g>
    <g id="line2d_18">
     <path d="M 103.5 147.869063 
L 118.5 147.869063 
L 118.5 147.869063 
L 133.5 147.869063 
L 133.5 147.869063 
" style="fill: none; stroke: #2ca02c; stroke-width: 2.8; stroke-linecap: round"/>
    </g>
    <g id="text_18">
     <text style="fill: #262626; font: 15px 'sans-serif'; text-anchor: start" x="145.5" y="153.119063" transform="rotate(-0, 145.5, 153.119063)">ChEMBL NP</text>
    </g>
    <g id="line2d_19">
     <path d="M 103.5 169.087031 
L 118.5 169.087031 
L 118.5 169.087031 
L 133.5 169.087031 
L 133.5 169.087031 
" style="fill: none; stroke: #d62728; stroke-width: 2.8; stroke-linecap: round"/>
    </g>
    <g id="text_19">
     <text style="fill: #262626; font: 15px 'sans-serif'; text-anchor: start" x="145.5" y="174.337031" transform="rotate(-0, 145.5, 174.337031)">PNPs</text>
    </g>
   </g>
  </g>
 </g>
 <defs>
  <clipPath id="pd1409e8d3d">
   <rect x="90" y="60.48" width="558" height="380.52"/>
  </clipPath>
 </defs>
</svg>
