<?xml version="1.0" encoding="utf-8" standalone="no"?>
<!DOCTYPE svg PUBLIC "-//W3C//DTD SVG 1.1//EN"
  "http://www.w3.org/Graphics/SVG/1.1/DTD/svg11.dtd">
<svg xmlns:xlink="http://www.w3.org/1999/xlink" width="720pt" height="504pt" viewBox="0 0 720 504" xmlns="http://www.w3.org/2000/svg" version="1.1">
 <metadata>
  <rdf:RDF xmlns:dc="http://purl.org/dc/elements/1.1/" xmlns:cc="http://creativecommons.org/ns#" xmlns:rdf="http://www.w3.org/1999/02/22-rdf-syntax-ns#">
   <cc:Work>
    <dc:type rdf:resource="http://purl.org/dc/dcmitype/StillImage"/>
    <dc:date>2023-05-25T14:34:06.988899</dc:date>
    <dc:format>image/svg+xml</dc:format>
    <dc:creator>
     <cc:Agent>
      <dc:title>Matplotlib v3.6.3, https://matplotlib.org/</dc:title>
     </cc:Agent>
    </dc:creator>
   </cc:Work>
  </rdf:RDF>
 </metadata>
 <defs>
  <style type="text/css">*{stroke-linejoin: round; stroke-linecap: butt}</style>
 </defs>
 <g id="figure_1">
  <g id="patch_1">
   <path d="M 0 504 
L 720 504 
L 720 0 
L 0 0 
z
" style="fill: #ffffff"/>
  </g>
  <g id="axes_1">
   <g id="patch_2">
    <path d="M 90 448.56 
L 648 448.56 
L 648 60.48 
L 90 60.48 
z
" style="fill: #ffffff"/>
   </g>
   <g id="matplotlib.axis_1">
    <g id="xtick_1">
     <g id="line2d_1"/>
     <g id="text_1">
      <text style="fill: #262626; font: 20px 'Arial', 'Liberation Sans', 'DejaVu Sans', 'Bitstream Vera Sans', sans-serif; text-anchor: middle" x="145.8" y="474.075625" transform="rotate(-0 145.8 474.075625)">−4</text>
     </g>
    </g>
    <g id="xtick_2">
     <g id="line2d_2"/>
     <g id="text_2">
      <text style="fill: #262626; font: 20px 'Arial', 'Liberation Sans', 'DejaVu Sans', 'Bitstream Vera Sans', sans-serif; text-anchor: middle" x="257.4" y="474.075625" transform="rotate(-0 257.4 474.075625)">−2</text>
     </g>
    </g>
    <g id="xtick_3">
     <g id="line2d_3"/>
     <g id="text_3">
      <text style="fill: #262626; font: 20px 'Arial', 'Liberation Sans', 'DejaVu Sans', 'Bitstream Vera Sans', sans-serif; text-anchor: middle" x="369" y="474.075625" transform="rotate(-0 369 474.075625)">0</text>
     </g>
    </g>
    <g id="xtick_4">
     <g id="line2d_4"/>
     <g id="text_4">
      <text style="fill: #262626; font: 20px 'Arial', 'Liberation Sans', 'DejaVu Sans', 'Bitstream Vera Sans', sans-serif; text-anchor: middle" x="480.6" y="474.075625" transform="rotate(-0 480.6 474.075625)">2</text>
     </g>
    </g>
    <g id="xtick_5">
     <g id="line2d_5"/>
     <g id="text_5">
      <text style="fill: #262626; font: 20px 'Arial', 'Liberation Sans', 'DejaVu Sans', 'Bitstream Vera Sans', sans-serif; text-anchor: middle" x="592.2" y="474.075625" transform="rotate(-0 592.2 474.075625)">4</text>
     </g>
    </g>
    <g id="text_6">
     <text style="fill: #262626; font: 25px 'Arial', 'Liberation Sans', 'DejaVu Sans', 'Bitstream Vera Sans', sans-serif; text-anchor: middle" x="369" y="499.945156" transform="rotate(-0 369 499.945156)">NP_Like</text>
    </g>
   </g>
   <g id="matplotlib.axis_2">
    <g id="ytick_1">
     <g id="line2d_6"/>
     <g id="text_7">
      <text style="fill: #262626; font: 20px 'Arial', 'Liberation Sans', 'DejaVu Sans', 'Bitstream Vera Sans', sans-serif; text-anchor: end" x="78.8" y="455.717813" transform="rotate(-0 78.8 455.717813)">0.0</text>
     </g>
    </g>
    <g id="ytick_2">
     <g id="line2d_7"/>
     <g id="text_8">
      <text style="fill: #262626; font: 20px 'Arial', 'Liberation Sans', 'DejaVu Sans', 'Bitstream Vera Sans', sans-serif; text-anchor: end" x="78.8" y="378.101813" transform="rotate(-0 78.8 378.101813)">0.2</text>
     </g>
    </g>
    <g id="ytick_3">
     <g id="line2d_8"/>
     <g id="text_9">
      <text style="fill: #262626; font: 20px 'Arial', 'Liberation Sans', 'DejaVu Sans', 'Bitstream Vera Sans', sans-serif; text-anchor: end" x="78.8" y="300.485813" transform="rotate(-0 78.8 300.485813)">0.4</text>
     </g>
    </g>
    <g id="ytick_4">
     <g id="line2d_9"/>
     <g id="text_10">
      <text style="fill: #262626; font: 20px 'Arial', 'Liberation Sans', 'DejaVu Sans', 'Bitstream Vera Sans', sans-serif; text-anchor: end" x="78.8" y="222.869812" transform="rotate(-0 78.8 222.869812)">0.6</text>
     </g>
    </g>
    <g id="ytick_5">
     <g id="line2d_10"/>
     <g id="text_11">
      <text style="fill: #262626; font: 20px 'Arial', 'Liberation Sans', 'DejaVu Sans', 'Bitstream Vera Sans', sans-serif; text-anchor: end" x="78.8" y="145.253812" transform="rotate(-0 78.8 145.253812)">0.8</text>
     </g>
    </g>
    <g id="ytick_6">
     <g id="line2d_11"/>
     <g id="text_12">
      <text style="fill: #262626; font: 20px 'Arial', 'Liberation Sans', 'DejaVu Sans', 'Bitstream Vera Sans', sans-serif; text-anchor: end" x="78.8" y="67.637812" transform="rotate(-0 78.8 67.637812)">1.0</text>
     </g>
    </g>
    <g id="text_13">
     <text style="fill: #262626; font: 25px 'Arial', 'Liberation Sans', 'DejaVu Sans', 'Bitstream Vera Sans', sans-serif; text-anchor: middle" x="42.03125" y="254.52" transform="rotate(-90 42.03125 254.52)">Proportion</text>
    </g>
   </g>
   <g id="line2d_12">
    <path d="M 352.26 448.56 
L 352.26 351.54 
L 366.768 351.54 
L 366.768 254.52 
L 368.442 254.52 
L 368.442 157.5 
L 373.464 157.5 
L 373.464 60.48 
" clip-path="url(#p9e1248334e)" style="fill: none; stroke: #7f7f7f; stroke-width: 2.8; stroke-linecap: round"/>
   </g>
   <g id="line2d_13">
    <path d="M 333.846 448.56 
L 333.846 429.156 
L 333.846 429.156 
L 333.846 409.752 
L 348.912 409.752 
L 348.912 390.348 
L 348.912 390.348 
L 348.912 370.944 
L 348.912 370.944 
L 348.912 351.54 
L 350.028 351.54 
L 350.028 332.136 
L 351.144 332.136 
L 351.144 312.732 
L 356.166 312.732 
L 356.166 293.328 
L 356.724 293.328 
L 356.724 273.924 
L 358.398 273.924 
L 358.398 254.52 
L 361.746 254.52 
L 361.746 235.116 
L 362.862 235.116 
L 362.862 215.712 
L 363.978 215.712 
L 363.978 196.308 
L 367.326 196.308 
L 367.326 176.904 
L 369 176.904 
L 369 157.5 
L 371.79 157.5 
L 371.79 138.096 
L 372.906 138.096 
L 372.906 118.692 
L 384.624 118.692 
L 384.624 99.288 
L 391.32 99.288 
L 391.32 79.884 
L 391.32 79.884 
L 391.32 60.48 
" clip-path="url(#p9e1248334e)" style="fill: none; stroke: #e377c2; stroke-width: 2.8; stroke-linecap: round"/>
   </g>
   <g id="line2d_14">
    <path d="M 333.846 448.56 
L 333.846 432.39 
L 341.1 432.39 
L 341.1 416.22 
L 341.658 416.22 
L 341.658 400.05 
L 346.68 400.05 
L 346.68 383.88 
L 351.144 383.88 
L 351.144 367.71 
L 351.144 367.71 
L 351.144 351.54 
L 352.26 351.54 
L 352.26 335.37 
L 355.05 335.37 
L 355.05 319.2 
L 355.05 319.2 
L 355.05 303.03 
L 358.956 303.03 
L 358.956 286.86 
L 361.746 286.86 
L 361.746 270.69 
L 361.746 270.69 
L 361.746 254.52 
L 366.768 254.52 
L 366.768 238.35 
L 367.884 238.35 
L 367.884 222.18 
L 368.442 222.18 
L 368.442 206.01 
L 369 206.01 
L 369 189.84 
L 371.79 189.84 
L 371.79 173.67 
L 374.022 173.67 
L 374.022 157.5 
L 374.022 157.5 
L 374.022 141.33 
L 382.95 141.33 
L 382.95 125.16 
L 384.066 125.16 
L 384.066 108.99 
L 385.182 108.99 
L 385.182 92.82 
L 391.878 92.82 
L 391.878 76.65 
L 392.436 76.65 
L 392.436 60.48 
" clip-path="url(#p9e1248334e)" style="fill: none; stroke: #8c564b; stroke-width: 2.8; stroke-linecap: round"/>
   </g>
   <g id="line2d_15">
    <path d="M 337.752 448.56 
L 337.752 429.156 
L 342.216 429.156 
L 342.216 409.752 
L 343.89 409.752 
L 343.89 390.348 
L 345.006 390.348 
L 345.006 370.944 
L 353.376 370.944 
L 353.376 351.54 
L 353.934 351.54 
L 353.934 332.136 
L 354.492 332.136 
L 354.492 312.732 
L 355.05 312.732 
L 355.05 293.328 
L 363.978 293.328 
L 363.978 273.924 
L 367.884 273.924 
L 367.884 254.52 
L 370.116 254.52 
L 370.116 235.116 
L 374.58 235.116 
L 374.58 215.712 
L 375.138 215.712 
L 375.138 196.308 
L 380.718 196.308 
L 380.718 176.904 
L 381.834 176.904 
L 381.834 157.5 
L 381.834 157.5 
L 381.834 138.096 
L 382.392 138.096 
L 382.392 118.692 
L 382.95 118.692 
L 382.95 99.288 
L 385.182 99.288 
L 385.182 79.884 
L 386.298 79.884 
L 386.298 60.48 
" clip-path="url(#p9e1248334e)" style="fill: none; stroke: #9467bd; stroke-width: 2.8; stroke-linecap: round"/>
   </g>
   <g id="line2d_16">
    <path d="M 336.636 448.56 
L 336.636 409.752 
L 338.31 409.752 
L 338.31 370.944 
L 348.912 370.944 
L 348.912 332.136 
L 351.144 332.136 
L 351.144 293.328 
L 352.26 293.328 
L 352.26 254.52 
L 367.326 254.52 
L 367.326 215.712 
L 369.558 215.712 
L 369.558 176.904 
L 372.348 176.904 
L 372.348 138.096 
L 376.812 138.096 
L 376.812 99.288 
L 382.95 99.288 
L 382.95 60.48 
" clip-path="url(#p9e1248334e)" style="fill: none; stroke: #d62728; stroke-width: 2.8; stroke-linecap: round"/>
   </g>
   <g id="line2d_17">
    <path d="M 321.012 448.56 
L 321.012 425.731765 
L 331.056 425.731765 
L 331.056 402.903529 
L 331.056 402.903529 
L 331.056 380.075294 
L 332.73 380.075294 
L 332.73 357.247059 
L 338.868 357.247059 
L 338.868 334.418824 
L 339.984 334.418824 
L 339.984 311.590588 
L 341.658 311.590588 
L 341.658 288.762353 
L 348.354 288.762353 
L 348.354 265.934118 
L 348.354 265.934118 
L 348.354 243.105882 
L 351.144 243.105882 
L 351.144 220.277647 
L 355.05 220.277647 
L 355.05 197.449412 
L 367.326 197.449412 
L 367.326 174.621176 
L 372.348 174.621176 
L 372.348 151.792941 
L 373.464 151.792941 
L 373.464 128.964706 
L 375.696 128.964706 
L 375.696 106.136471 
L 376.812 106.136471 
L 376.812 83.308235 
L 391.32 83.308235 
L 391.32 60.48 
" clip-path="url(#p9e1248334e)" style="fill: none; stroke: #2ca02c; stroke-width: 2.8; stroke-linecap: round"/>
   </g>
   <g id="line2d_18">
    <path d="M 355.608 448.56 
L 355.608 427 
L 358.398 427 
L 358.398 405.44 
L 362.862 405.44 
L 362.862 383.88 
L 365.094 383.88 
L 365.094 362.32 
L 371.79 362.32 
L 371.79 340.76 
L 371.79 340.76 
L 371.79 319.2 
L 377.37 319.2 
L 377.37 297.64 
L 384.066 297.64 
L 384.066 276.08 
L 384.066 276.08 
L 384.066 254.52 
L 385.74 254.52 
L 385.74 232.96 
L 391.878 232.96 
L 391.878 211.4 
L 399.132 211.4 
L 399.132 189.84 
L 399.69 189.84 
L 399.69 168.28 
L 402.48 168.28 
L 402.48 146.72 
L 406.386 146.72 
L 406.386 125.16 
L 406.944 125.16 
L 406.944 103.6 
L 410.292 103.6 
L 410.292 82.04 
L 432.054 82.04 
L 432.054 60.48 
" clip-path="url(#p9e1248334e)" style="fill: none; stroke: #ff7f0e; stroke-width: 2.8; stroke-linecap: round"/>
   </g>
   <g id="line2d_19">
    <path d="M 324.918 448.56 
L 324.918 438.858 
L 338.868 438.858 
L 338.868 429.156 
L 341.658 429.156 
L 341.658 419.454 
L 343.89 419.454 
L 343.89 409.752 
L 346.68 409.752 
L 346.68 400.05 
L 348.912 400.05 
L 348.912 390.348 
L 349.47 390.348 
L 349.47 380.646 
L 353.934 380.646 
L 353.934 370.944 
L 355.608 370.944 
L 355.608 361.242 
L 355.608 361.242 
L 355.608 351.54 
L 356.166 351.54 
L 356.166 341.838 
L 356.724 341.838 
L 356.724 332.136 
L 358.398 332.136 
L 358.398 322.434 
L 360.072 322.434 
L 360.072 312.732 
L 360.072 312.732 
L 360.072 303.03 
L 363.978 303.03 
L 363.978 293.328 
L 364.536 293.328 
L 364.536 283.626 
L 367.326 283.626 
L 367.326 273.924 
L 367.884 273.924 
L 367.884 264.222 
L 367.884 264.222 
L 367.884 254.52 
L 367.884 254.52 
L 367.884 244.818 
L 371.232 244.818 
L 371.232 235.116 
L 372.348 235.116 
L 372.348 225.414 
L 373.464 225.414 
L 373.464 215.712 
L 375.138 215.712 
L 375.138 206.01 
L 375.696 206.01 
L 375.696 196.308 
L 376.812 196.308 
L 376.812 186.606 
L 377.37 186.606 
L 377.37 176.904 
L 380.16 176.904 
L 380.16 167.202 
L 380.718 167.202 
L 380.718 157.5 
L 385.182 157.5 
L 385.182 147.798 
L 385.74 147.798 
L 385.74 138.096 
L 387.972 138.096 
L 387.972 128.394 
L 391.878 128.394 
L 391.878 118.692 
L 394.668 118.692 
L 394.668 108.99 
L 396.342 108.99 
L 396.342 99.288 
L 398.574 99.288 
L 398.574 89.586 
L 401.922 89.586 
L 401.922 79.884 
L 410.292 79.884 
L 410.292 70.182 
L 413.64 70.182 
L 413.64 60.48 
" clip-path="url(#p9e1248334e)" style="fill: none; stroke: #1f77b4; stroke-width: 2.8; stroke-linecap: round"/>
   </g>
   <g id="patch_3">
    <path d="M 90 448.56 
L 90 60.48 
" style="fill: none; stroke: #262626; stroke-width: 1.25; stroke-linejoin: miter; stroke-linecap: square"/>
   </g>
   <g id="patch_4">
    <path d="M 648 448.56 
L 648 60.48 
" style="fill: none; stroke: #262626; stroke-width: 1.25; stroke-linejoin: miter; stroke-linecap: square"/>
   </g>
   <g id="patch_5">
    <path d="M 90 448.56 
L 648 448.56 
" style="fill: none; stroke: #262626; stroke-width: 1.25; stroke-linejoin: miter; stroke-linecap: square"/>
   </g>
   <g id="patch_6">
    <path d="M 90 60.48 
L 648 60.48 
" style="fill: none; stroke: #262626; stroke-width: 1.25; stroke-linejoin: miter; stroke-linecap: square"/>
   </g>
   <g id="text_14">
    <text style="fill: #262626; font: 25px 'Arial', 'Liberation Sans', 'DejaVu Sans', 'Bitstream Vera Sans', sans-serif; text-anchor: middle" x="369" y="54.48" transform="rotate(-0 369 54.48)">Distribution of NP_Like</text>
   </g>
   <g id="legend_1">
    <g id="text_15">
     <text style="fill: #262626; font: 20px 'Arial', 'Liberation Sans', 'DejaVu Sans', 'Bitstream Vera Sans', sans-serif; text-anchor: start" x="547.803125" y="88.539375" transform="rotate(-0 547.803125 88.539375)">CpdClass</text>
    </g>
    <g id="line2d_20">
     <path d="M 564.317969 105.501094 
L 579.317969 105.501094 
L 579.317969 105.501094 
L 594.317969 105.501094 
L 594.317969 105.501094 
" style="fill: none; stroke: #1f77b4; stroke-width: 2.8; stroke-linecap: round"/>
    </g>
    <g id="text_16">
     <text style="fill: #262626; font: 15px 'Arial', 'Liberation Sans', 'DejaVu Sans', 'Bitstream Vera Sans', sans-serif; text-anchor: start" x="606.317969" y="110.751094" transform="rotate(-0 606.317969 110.751094)">A</text>
    </g>
    <g id="line2d_21">
     <path d="M 564.317969 126.719063 
L 579.317969 126.719063 
L 579.317969 126.719063 
L 594.317969 126.719063 
L 594.317969 126.719063 
" style="fill: none; stroke: #ff7f0e; stroke-width: 2.8; stroke-linecap: round"/>
    </g>
    <g id="text_17">
     <text style="fill: #262626; font: 15px 'Arial', 'Liberation Sans', 'DejaVu Sans', 'Bitstream Vera Sans', sans-serif; text-anchor: start" x="606.317969" y="131.969063" transform="rotate(-0 606.317969 131.969063)">B</text>
    </g>
    <g id="line2d_22">
     <path d="M 564.317969 147.937031 
L 579.317969 147.937031 
L 579.317969 147.937031 
L 594.317969 147.937031 
L 594.317969 147.937031 
" style="fill: none; stroke: #2ca02c; stroke-width: 2.8; stroke-linecap: round"/>
    </g>
    <g id="text_18">
     <text style="fill: #262626; font: 15px 'Arial', 'Liberation Sans', 'DejaVu Sans', 'Bitstream Vera Sans', sans-serif; text-anchor: start" x="606.317969" y="153.187031" transform="rotate(-0 606.317969 153.187031)">C</text>
    </g>
    <g id="line2d_23">
     <path d="M 564.317969 169.155 
L 579.317969 169.155 
L 579.317969 169.155 
L 594.317969 169.155 
L 594.317969 169.155 
" style="fill: none; stroke: #d62728; stroke-width: 2.8; stroke-linecap: round"/>
    </g>
    <g id="text_19">
     <text style="fill: #262626; font: 15px 'Arial', 'Liberation Sans', 'DejaVu Sans', 'Bitstream Vera Sans', sans-serif; text-anchor: start" x="606.317969" y="174.405" transform="rotate(-0 606.317969 174.405)">D</text>
    </g>
    <g id="line2d_24">
     <path d="M 564.317969 190.372969 
L 579.317969 190.372969 
L 579.317969 190.372969 
L 594.317969 190.372969 
L 594.317969 190.372969 
" style="fill: none; stroke: #9467bd; stroke-width: 2.8; stroke-linecap: round"/>
    </g>
    <g id="text_20">
     <text style="fill: #262626; font: 15px 'Arial', 'Liberation Sans', 'DejaVu Sans', 'Bitstream Vera Sans', sans-serif; text-anchor: start" x="606.317969" y="195.622969" transform="rotate(-0 606.317969 195.622969)">E</text>
    </g>
    <g id="line2d_25">
     <path d="M 564.317969 211.590937 
L 579.317969 211.590937 
L 579.317969 211.590937 
L 594.317969 211.590937 
L 594.317969 211.590937 
" style="fill: none; stroke: #8c564b; stroke-width: 2.8; stroke-linecap: round"/>
    </g>
    <g id="text_21">
     <text style="fill: #262626; font: 15px 'Arial', 'Liberation Sans', 'DejaVu Sans', 'Bitstream Vera Sans', sans-serif; text-anchor: start" x="606.317969" y="216.840937" transform="rotate(-0 606.317969 216.840937)">F</text>
    </g>
    <g id="line2d_26">
     <path d="M 564.317969 232.808906 
L 579.317969 232.808906 
L 579.317969 232.808906 
L 594.317969 232.808906 
L 594.317969 232.808906 
" style="fill: none; stroke: #e377c2; stroke-width: 2.8; stroke-linecap: round"/>
    </g>
    <g id="text_22">
     <text style="fill: #262626; font: 15px 'Arial', 'Liberation Sans', 'DejaVu Sans', 'Bitstream Vera Sans', sans-serif; text-anchor: start" x="606.317969" y="238.058906" transform="rotate(-0 606.317969 238.058906)">G</text>
    </g>
    <g id="line2d_27">
     <path d="M 564.317969 254.026875 
L 579.317969 254.026875 
L 579.317969 254.026875 
L 594.317969 254.026875 
L 594.317969 254.026875 
" style="fill: none; stroke: #7f7f7f; stroke-width: 2.8; stroke-linecap: round"/>
    </g>
    <g id="text_23">
     <text style="fill: #262626; font: 15px 'Arial', 'Liberation Sans', 'DejaVu Sans', 'Bitstream Vera Sans', sans-serif; text-anchor: start" x="606.317969" y="259.276875" transform="rotate(-0 606.317969 259.276875)">H</text>
    </g>
   </g>
  </g>
 </g>
 <defs>
  <clipPath id="p9e1248334e">
   <rect x="90" y="60.48" width="558" height="388.08"/>
  </clipPath>
 </defs>
</svg>
