<?xml version="1.0" encoding="utf-8" standalone="no"?>
<!DOCTYPE svg PUBLIC "-//W3C//DTD SVG 1.1//EN"
  "http://www.w3.org/Graphics/SVG/1.1/DTD/svg11.dtd">
<svg xmlns:xlink="http://www.w3.org/1999/xlink" width="720pt" height="504pt" viewBox="0 0 720 504" xmlns="http://www.w3.org/2000/svg" version="1.1">
 <metadata>
  <rdf:RDF xmlns:dc="http://purl.org/dc/elements/1.1/" xmlns:cc="http://creativecommons.org/ns#" xmlns:rdf="http://www.w3.org/1999/02/22-rdf-syntax-ns#">
   <cc:Work>
    <dc:type rdf:resource="http://purl.org/dc/dcmitype/StillImage"/>
    <dc:date>2023-05-25T14:34:06.385212</dc:date>
    <dc:format>image/svg+xml</dc:format>
    <dc:creator>
     <cc:Agent>
      <dc:title>Matplotlib v3.6.3, https://matplotlib.org/</dc:title>
     </cc:Agent>
    </dc:creator>
   </cc:Work>
  </rdf:RDF>
 </metadata>
 <defs>
  <style type="text/css">*{stroke-linejoin: round; stroke-linecap: butt}</style>
 </defs>
 <g id="figure_1">
  <g id="patch_1">
   <path d="M 0 504 
L 720 504 
L 720 0 
L 0 0 
z
" style="fill: #ffffff"/>
  </g>
  <g id="axes_1">
   <g id="patch_2">
    <path d="M 90 448.56 
L 648 448.56 
L 648 60.48 
L 90 60.48 
z
" style="fill: #ffffff"/>
   </g>
   <g id="matplotlib.axis_1">
    <g id="xtick_1">
     <g id="line2d_1"/>
     <g id="text_1">
      <text style="fill: #262626; font: 20px 'Arial', 'Liberation Sans', 'DejaVu Sans', 'Bitstream Vera Sans', sans-serif; text-anchor: middle" x="90" y="474.075625" transform="rotate(-0 90 474.075625)">0.0</text>
     </g>
    </g>
    <g id="xtick_2">
     <g id="line2d_2"/>
     <g id="text_2">
      <text style="fill: #262626; font: 20px 'Arial', 'Liberation Sans', 'DejaVu Sans', 'Bitstream Vera Sans', sans-serif; text-anchor: middle" x="201.6" y="474.075625" transform="rotate(-0 201.6 474.075625)">0.2</text>
     </g>
    </g>
    <g id="xtick_3">
     <g id="line2d_3"/>
     <g id="text_3">
      <text style="fill: #262626; font: 20px 'Arial', 'Liberation Sans', 'DejaVu Sans', 'Bitstream Vera Sans', sans-serif; text-anchor: middle" x="313.2" y="474.075625" transform="rotate(-0 313.2 474.075625)">0.4</text>
     </g>
    </g>
    <g id="xtick_4">
     <g id="line2d_4"/>
     <g id="text_4">
      <text style="fill: #262626; font: 20px 'Arial', 'Liberation Sans', 'DejaVu Sans', 'Bitstream Vera Sans', sans-serif; text-anchor: middle" x="424.8" y="474.075625" transform="rotate(-0 424.8 474.075625)">0.6</text>
     </g>
    </g>
    <g id="xtick_5">
     <g id="line2d_5"/>
     <g id="text_5">
      <text style="fill: #262626; font: 20px 'Arial', 'Liberation Sans', 'DejaVu Sans', 'Bitstream Vera Sans', sans-serif; text-anchor: middle" x="536.4" y="474.075625" transform="rotate(-0 536.4 474.075625)">0.8</text>
     </g>
    </g>
    <g id="xtick_6">
     <g id="line2d_6"/>
     <g id="text_6">
      <text style="fill: #262626; font: 20px 'Arial', 'Liberation Sans', 'DejaVu Sans', 'Bitstream Vera Sans', sans-serif; text-anchor: middle" x="648" y="474.075625" transform="rotate(-0 648 474.075625)">1.0</text>
     </g>
    </g>
    <g id="text_7">
     <text style="fill: #262626; font: 25px 'Arial', 'Liberation Sans', 'DejaVu Sans', 'Bitstream Vera Sans', sans-serif; text-anchor: middle" x="369" y="500.249844" transform="rotate(-0 369 500.249844)">FCsp3</text>
    </g>
   </g>
   <g id="matplotlib.axis_2">
    <g id="ytick_1">
     <g id="line2d_7"/>
     <g id="text_8">
      <text style="fill: #262626; font: 20px 'Arial', 'Liberation Sans', 'DejaVu Sans', 'Bitstream Vera Sans', sans-serif; text-anchor: end" x="78.8" y="455.717813" transform="rotate(-0 78.8 455.717813)">0.0</text>
     </g>
    </g>
    <g id="ytick_2">
     <g id="line2d_8"/>
     <g id="text_9">
      <text style="fill: #262626; font: 20px 'Arial', 'Liberation Sans', 'DejaVu Sans', 'Bitstream Vera Sans', sans-serif; text-anchor: end" x="78.8" y="378.101813" transform="rotate(-0 78.8 378.101813)">0.2</text>
     </g>
    </g>
    <g id="ytick_3">
     <g id="line2d_9"/>
     <g id="text_10">
      <text style="fill: #262626; font: 20px 'Arial', 'Liberation Sans', 'DejaVu Sans', 'Bitstream Vera Sans', sans-serif; text-anchor: end" x="78.8" y="300.485813" transform="rotate(-0 78.8 300.485813)">0.4</text>
     </g>
    </g>
    <g id="ytick_4">
     <g id="line2d_10"/>
     <g id="text_11">
      <text style="fill: #262626; font: 20px 'Arial', 'Liberation Sans', 'DejaVu Sans', 'Bitstream Vera Sans', sans-serif; text-anchor: end" x="78.8" y="222.869812" transform="rotate(-0 78.8 222.869812)">0.6</text>
     </g>
    </g>
    <g id="ytick_5">
     <g id="line2d_11"/>
     <g id="text_12">
      <text style="fill: #262626; font: 20px 'Arial', 'Liberation Sans', 'DejaVu Sans', 'Bitstream Vera Sans', sans-serif; text-anchor: end" x="78.8" y="145.253812" transform="rotate(-0 78.8 145.253812)">0.8</text>
     </g>
    </g>
    <g id="ytick_6">
     <g id="line2d_12"/>
     <g id="text_13">
      <text style="fill: #262626; font: 20px 'Arial', 'Liberation Sans', 'DejaVu Sans', 'Bitstream Vera Sans', sans-serif; text-anchor: end" x="78.8" y="67.637812" transform="rotate(-0 78.8 67.637812)">1.0</text>
     </g>
    </g>
    <g id="text_14">
     <text style="fill: #262626; font: 25px 'Arial', 'Liberation Sans', 'DejaVu Sans', 'Bitstream Vera Sans', sans-serif; text-anchor: middle" x="42.03125" y="254.52" transform="rotate(-90 42.03125 254.52)">Proportion</text>
    </g>
   </g>
   <g id="line2d_13">
    <path d="M 90 448.56 
L 90 445.525214 
L 113.436 445.439837 
L 113.436 445.416552 
L 113.436 445.346698 
L 115.11 445.253558 
L 115.11 445.238035 
L 115.11 445.090565 
L 116.784 445.082803 
L 116.784 444.981902 
L 116.784 444.857717 
L 117.9 444.857717 
L 117.9 444.749054 
L 117.9 444.601584 
L 119.574 444.593822 
L 119.574 444.492922 
L 119.574 444.112603 
L 121.248 444.112603 
L 121.248 444.003941 
L 121.248 443.530483 
L 122.922 443.522722 
L 122.922 443.421821 
L 122.922 442.93284 
L 124.596 442.93284 
L 124.596 442.824178 
L 124.596 442.172203 
L 127.386 442.172203 
L 127.386 442.063541 
L 127.386 441.512467 
L 129.618 441.512467 
L 129.618 441.403805 
L 129.618 440.883778 
L 132.966 440.852731 
L 132.966 440.775115 
L 132.966 440.185234 
L 136.314 440.076571 
L 136.314 439.471166 
L 138.546 439.471166 
L 138.546 439.362504 
L 138.546 439.308173 
L 140.778 439.308173 
L 140.778 439.19951 
L 140.778 438.524251 
L 143.01 438.51649 
L 143.01 438.415589 
L 143.01 438.213787 
L 145.8 438.206026 
L 145.8 438.105125 
L 145.8 437.274634 
L 148.59 437.266872 
L 148.59 437.165971 
L 148.59 436.552805 
L 151.938 436.537282 
L 151.938 436.444142 
L 151.938 435.140194 
L 155.844 435.070339 
L 155.844 435.031531 
L 155.844 433.882814 
L 156.96 433.882814 
L 156.96 433.774152 
L 156.96 433.712059 
L 159.75 433.704298 
L 159.75 433.603397 
L 159.75 432.02003 
L 162.54 432.012269 
L 162.54 431.911368 
L 162.54 431.818229 
L 164.214 431.818229 
L 164.214 431.709566 
L 164.214 430.770413 
L 165.888 430.770413 
L 165.888 430.66175 
L 165.888 430.359048 
L 169.794 430.335763 
L 169.794 430.250386 
L 169.794 428.612688 
L 173.7 428.542834 
L 173.7 428.504026 
L 173.7 427.890859 
L 175.932 427.890859 
L 175.932 427.782197 
L 175.932 427.06813 
L 178.164 427.06813 
L 178.164 426.959467 
L 178.164 426.012552 
L 179.28 426.012552 
L 179.28 425.90389 
L 179.28 425.818512 
L 183.186 425.818512 
L 183.186 425.70985 
L 183.186 423.303754 
L 187.092 423.280469 
L 187.092 423.195091 
L 187.092 422.962243 
L 188.208 422.962243 
L 188.208 422.853581 
L 188.208 421.611725 
L 191.556 421.557394 
L 191.556 421.503062 
L 191.556 420.594955 
L 194.904 420.509578 
L 194.904 420.486293 
L 194.904 419.143536 
L 196.02 419.143536 
L 196.02 419.034874 
L 196.02 418.452754 
L 197.136 418.452754 
L 197.136 418.344091 
L 197.136 418.266475 
L 201.6 418.258714 
L 201.6 418.157813 
L 201.6 415.37916 
L 206.064 415.317067 
L 206.064 415.270498 
L 206.064 415.084219 
L 207.738 415.084219 
L 207.738 414.975557 
L 207.738 413.966549 
L 209.412 413.966549 
L 209.412 413.857886 
L 209.412 413.00411 
L 211.086 413.00411 
L 211.086 412.895448 
L 211.086 412.569461 
L 213.876 412.561699 
L 213.876 412.460798 
L 213.876 410.419498 
L 216.666 410.411736 
L 216.666 410.310835 
L 216.666 409.829616 
L 218.898 409.814093 
L 218.898 409.720954 
L 218.898 408.944794 
L 221.13 408.921509 
L 221.13 408.836131 
L 221.13 407.136341 
L 222.804 407.136341 
L 222.804 407.027678 
L 222.804 406.088525 
L 223.92 406.088525 
L 223.92 405.979862 
L 223.92 405.948816 
L 229.5 405.91777 
L 229.5 405.840154 
L 229.5 397.217016 
L 235.638 397.131638 
L 235.638 397.108354 
L 235.638 396.60385 
L 236.754 396.60385 
L 236.754 396.495187 
L 236.754 393.312931 
L 238.986 393.297408 
L 238.986 393.204269 
L 238.986 389.81245 
L 240.102 389.81245 
L 240.102 389.703787 
L 240.102 389.688264 
L 242.334 389.688264 
L 242.334 389.579602 
L 242.334 387.4374 
L 245.124 387.421877 
L 245.124 387.328738 
L 245.124 383.191805 
L 246.24 383.191805 
L 246.24 383.083142 
L 246.24 382.958957 
L 249.588 382.951195 
L 249.588 382.850294 
L 249.588 377.944963 
L 252.936 377.937202 
L 252.936 377.836301 
L 252.936 377.618976 
L 254.052 377.618976 
L 254.052 377.510314 
L 254.052 373.062917 
L 257.4 372.954254 
L 257.4 368.398195 
L 259.632 368.382672 
L 259.632 368.289533 
L 259.632 367.785029 
L 261.864 367.777267 
L 261.864 367.676366 
L 261.864 364.672627 
L 264.096 364.649342 
L 264.096 364.563965 
L 264.096 359.674157 
L 266.328 359.674157 
L 266.328 359.565494 
L 266.328 355.187952 
L 267.444 355.187952 
L 267.444 355.07929 
L 267.444 353.938334 
L 268.56 353.938334 
L 268.56 353.829672 
L 268.56 353.783102 
L 275.814 353.736533 
L 275.814 353.67444 
L 275.814 338.127955 
L 283.068 338.081386 
L 283.068 338.019293 
L 283.068 337.964962 
L 284.184 337.964962 
L 284.184 337.856299 
L 284.184 337.312987 
L 285.3 337.312987 
L 285.3 337.204325 
L 285.3 334.410149 
L 286.974 334.410149 
L 286.974 334.301486 
L 286.974 328.278485 
L 289.206 328.278485 
L 289.206 328.169822 
L 289.206 324.13379 
L 290.88 324.13379 
L 290.88 324.025128 
L 290.88 323.963035 
L 293.112 323.963035 
L 293.112 323.854373 
L 293.112 320.726448 
L 295.344 320.68764 
L 295.344 320.617786 
L 295.344 317.109542 
L 299.25 317.070734 
L 299.25 317.00088 
L 299.25 309.937824 
L 302.598 309.930062 
L 302.598 309.829162 
L 302.598 308.059517 
L 304.83 308.059517 
L 304.83 307.950854 
L 304.83 304.512466 
L 307.062 304.489181 
L 307.062 304.403803 
L 307.062 298.76112 
L 308.178 298.76112 
L 308.178 298.652458 
L 308.178 297.961675 
L 313.2 297.930629 
L 313.2 297.853013 
L 313.2 287.281714 
L 318.222 287.196336 
L 318.222 287.173051 
L 318.222 286.10195 
L 319.896 286.10195 
L 319.896 285.993288 
L 319.896 278.790523 
L 322.686 278.767238 
L 322.686 278.681861 
L 322.686 274.979578 
L 324.918 274.948531 
L 324.918 274.870915 
L 324.918 271.0134 
L 329.382 270.912499 
L 329.382 270.904738 
L 329.382 263.849443 
L 332.73 263.849443 
L 332.73 263.740781 
L 332.73 263.244038 
L 334.404 263.244038 
L 334.404 263.135376 
L 334.404 256.50697 
L 335.52 256.50697 
L 335.52 256.398307 
L 335.52 256.289645 
L 337.752 256.274122 
L 337.752 256.180982 
L 337.752 249.669 
L 341.1 249.661238 
L 341.1 249.560338 
L 341.1 247.643222 
L 343.89 247.643222 
L 343.89 247.53456 
L 343.89 245.213842 
L 345.564 245.20608 
L 345.564 245.105179 
L 345.564 244.996517 
L 347.796 244.996517 
L 347.796 244.887854 
L 347.796 240.35508 
L 350.586 240.347318 
L 350.586 240.246418 
L 350.586 233.796528 
L 352.818 233.796528 
L 352.818 233.687866 
L 352.818 227.517394 
L 354.492 227.509632 
L 354.492 227.408731 
L 354.492 223.364938 
L 355.608 223.364938 
L 355.608 223.256275 
L 355.608 222.255029 
L 356.724 222.255029 
L 356.724 222.146366 
L 356.724 221.96785 
L 359.514 221.866949 
L 359.514 221.859187 
L 359.514 221.851426 
L 369 221.843664 
L 369 221.742763 
L 369 197.627472 
L 381.276 197.526571 
L 381.276 197.51881 
L 381.276 197.293723 
L 382.392 197.293723 
L 382.392 197.185061 
L 382.392 195.96649 
L 383.508 195.96649 
L 383.508 195.857827 
L 383.508 192.753187 
L 385.182 192.753187 
L 385.182 192.644525 
L 385.182 186.45853 
L 387.414 186.443006 
L 387.414 186.349867 
L 387.414 179.96207 
L 390.204 179.946547 
L 390.204 179.853408 
L 390.204 176.376211 
L 394.11 176.283072 
L 394.11 176.267549 
L 394.11 174.195202 
L 396.9 174.195202 
L 396.9 174.086539 
L 396.9 172.324656 
L 400.248 172.324656 
L 400.248 172.215994 
L 400.248 167.093338 
L 403.596 167.062291 
L 403.596 166.984675 
L 403.596 160.860773 
L 405.27 160.860773 
L 405.27 160.75211 
L 405.27 160.643448 
L 408.618 160.627925 
L 408.618 160.534786 
L 408.618 155.75364 
L 413.082 155.75364 
L 413.082 155.644978 
L 413.082 153.013795 
L 415.314 153.006034 
L 415.314 152.905133 
L 415.314 150.731885 
L 418.104 150.724123 
L 418.104 150.623222 
L 418.104 145.531613 
L 419.778 145.531613 
L 419.778 145.42295 
L 419.778 145.120248 
L 424.8 145.120248 
L 424.8 145.011586 
L 424.8 138.297802 
L 429.822 138.297802 
L 429.822 138.189139 
L 429.822 138.181378 
L 430.938 138.181378 
L 430.938 138.072715 
L 430.938 133.951306 
L 433.17 133.951306 
L 433.17 133.842643 
L 433.17 131.234746 
L 435.402 131.234746 
L 435.402 131.126083 
L 435.402 130.171406 
L 438.75 130.171406 
L 438.75 130.062744 
L 438.75 126.25956 
L 442.656 126.25956 
L 442.656 126.150898 
L 442.656 123.597331 
L 444.888 123.597331 
L 444.888 123.488669 
L 444.888 121.804402 
L 448.794 121.765594 
L 448.794 121.695739 
L 448.794 119.343974 
L 451.026 119.343974 
L 451.026 119.235312 
L 451.026 116.650699 
L 452.7 116.650699 
L 452.7 116.542037 
L 452.7 115.191518 
L 453.816 115.191518 
L 453.816 115.082856 
L 453.816 115.00524 
L 462.186 114.997478 
L 462.186 114.896578 
L 462.186 107.360064 
L 470.556 107.336779 
L 470.556 107.251402 
L 470.556 107.103931 
L 471.672 107.103931 
L 471.672 106.995269 
L 471.672 106.157016 
L 473.904 106.157016 
L 473.904 106.048354 
L 473.904 103.867344 
L 476.136 103.867344 
L 476.136 103.758682 
L 476.136 101.639765 
L 478.368 101.639765 
L 478.368 101.531102 
L 478.368 101.500056 
L 480.6 101.500056 
L 480.6 101.391394 
L 480.6 100.584187 
L 483.948 100.584187 
L 483.948 100.475525 
L 483.948 98.907682 
L 488.412 98.861112 
L 488.412 98.799019 
L 488.412 96.03589 
L 492.876 96.004843 
L 492.876 95.927227 
L 492.876 95.011358 
L 495.666 95.011358 
L 495.666 94.902696 
L 495.666 94.025635 
L 499.014 94.017874 
L 499.014 93.916973 
L 499.014 91.743725 
L 501.246 91.743725 
L 501.246 91.635062 
L 501.246 91.161605 
L 508.5 91.146082 
L 508.5 91.052942 
L 508.5 87.397229 
L 516.87 87.296328 
L 516.87 87.288566 
L 516.87 85.907002 
L 519.102 85.89924 
L 519.102 85.798339 
L 519.102 84.696192 
L 524.124 84.634099 
L 524.124 84.58753 
L 524.124 83.438813 
L 528.588 83.431051 
L 528.588 83.33015 
L 528.588 82.243526 
L 530.262 82.243526 
L 530.262 82.134864 
L 530.262 81.762307 
L 536.4 81.762307 
L 536.4 81.653645 
L 536.4 79.651152 
L 543.096 79.550251 
L 543.096 79.54249 
L 543.096 78.448104 
L 546.444 78.440342 
L 546.444 78.339442 
L 546.444 77.772845 
L 549.792 77.765083 
L 549.792 77.664182 
L 549.792 77.058778 
L 554.814 77.051016 
L 554.814 76.950115 
L 554.814 75.576312 
L 559.836 75.576312 
L 559.836 75.46765 
L 559.836 75.397795 
L 562.068 75.397795 
L 562.068 75.289133 
L 562.068 74.272363 
L 568.206 74.194747 
L 568.206 74.163701 
L 568.206 72.688997 
L 573.786 72.65795 
L 573.786 72.580334 
L 573.786 71.633419 
L 578.25 71.617896 
L 578.25 71.524757 
L 578.25 70.360517 
L 582.156 70.352755 
L 582.156 70.251854 
L 582.156 69.778397 
L 586.062 69.778397 
L 586.062 69.669734 
L 586.062 69.048806 
L 589.41 69.048806 
L 589.41 68.940144 
L 589.41 68.847005 
L 592.2 68.847005 
L 592.2 68.738342 
L 592.2 68.187269 
L 597.222 68.140699 
L 597.222 68.078606 
L 597.222 67.457678 
L 601.686 67.434394 
L 601.686 67.349016 
L 601.686 66.73585 
L 605.034 66.73585 
L 605.034 66.627187 
L 605.034 65.95969 
L 608.382 65.95969 
L 608.382 65.851027 
L 608.382 65.105914 
L 610.614 65.105914 
L 610.614 64.997251 
L 610.614 64.236614 
L 613.404 64.236614 
L 613.404 64.127952 
L 613.404 63.530309 
L 615.078 63.530309 
L 615.078 63.421646 
L 615.078 63.103421 
L 616.752 63.103421 
L 616.752 62.994758 
L 616.752 62.730864 
L 618.426 62.730864 
L 618.426 62.622202 
L 618.426 62.591155 
L 648 62.498016 
L 648 62.482493 
L 648 60.48 
L 648 60.48 
" clip-path="url(#p1f86321ec1)" style="fill: none; stroke-dasharray: 10.36,4.48; stroke-dashoffset: 0; stroke: #1f77b4; stroke-width: 2.8"/>
   </g>
   <g id="line2d_14">
    <path d="M 90 448.56 
L 90 424.314969 
L 111.762 424.235216 
L 111.762 424.155462 
L 112.32 424.155462 
L 112.32 424.075709 
L 112.32 423.916202 
L 113.994 423.916202 
L 113.994 423.836449 
L 113.994 423.676942 
L 115.11 423.676942 
L 115.11 423.597189 
L 115.11 423.118668 
L 116.784 423.038915 
L 116.784 423.038915 
L 116.784 422.959162 
L 117.9 422.959162 
L 117.9 422.879408 
L 117.9 422.161628 
L 119.574 422.081874 
L 119.574 422.081874 
L 119.574 421.762861 
L 121.248 421.762861 
L 121.248 421.683107 
L 121.248 421.364094 
L 122.922 421.28434 
L 122.922 421.28434 
L 122.922 420.56656 
L 124.596 420.56656 
L 124.596 420.486806 
L 124.596 419.769026 
L 127.386 419.769026 
L 127.386 419.689273 
L 127.386 418.014451 
L 129.618 418.014451 
L 129.618 417.934698 
L 129.618 416.020617 
L 132.966 416.020617 
L 132.966 415.940863 
L 132.966 415.382589 
L 134.64 415.302836 
L 134.64 414.983822 
L 136.314 414.983822 
L 136.314 414.904069 
L 136.314 413.947028 
L 138.546 413.947028 
L 138.546 413.867275 
L 138.546 413.548261 
L 140.778 413.548261 
L 140.778 413.468508 
L 140.778 412.351961 
L 143.01 412.272207 
L 143.01 411.554427 
L 145.8 411.554427 
L 145.8 411.474673 
L 145.8 409.959359 
L 148.59 409.879605 
L 148.59 408.922565 
L 149.706 408.922565 
L 149.706 408.842811 
L 149.706 408.763058 
L 151.938 408.763058 
L 151.938 408.683305 
L 151.938 406.051443 
L 154.17 406.051443 
L 154.17 405.971689 
L 154.17 405.891936 
L 155.844 405.891936 
L 155.844 405.812182 
L 155.844 404.775388 
L 156.96 404.775388 
L 156.96 404.695635 
L 156.96 404.296868 
L 159.75 404.296868 
L 159.75 404.217115 
L 159.75 400.388952 
L 162.54 400.388952 
L 162.54 400.309199 
L 162.54 399.591418 
L 164.214 399.591418 
L 164.214 399.511665 
L 164.214 397.99635 
L 165.888 397.99635 
L 165.888 397.916597 
L 165.888 397.438076 
L 167.562 397.358323 
L 167.562 397.27857 
L 169.794 397.27857 
L 169.794 397.198816 
L 169.794 394.726461 
L 172.584 394.646708 
L 172.584 394.327694 
L 173.7 394.327694 
L 173.7 394.247941 
L 173.7 393.53016 
L 175.932 393.53016 
L 175.932 393.450407 
L 175.932 392.971887 
L 178.164 392.892133 
L 178.164 391.616079 
L 179.28 391.616079 
L 179.28 391.536326 
L 179.28 391.297065 
L 179.838 391.297065 
L 179.838 391.217312 
L 179.838 390.978052 
L 183.186 390.898298 
L 183.186 388.027176 
L 185.976 388.027176 
L 185.976 387.947423 
L 185.976 387.86767 
L 187.092 387.86767 
L 187.092 387.787916 
L 187.092 387.229642 
L 188.208 387.229642 
L 188.208 387.149889 
L 188.208 385.554821 
L 189.882 385.554821 
L 189.882 385.475068 
L 189.882 385.156054 
L 191.556 385.156054 
L 191.556 385.076301 
L 191.556 383.082466 
L 193.23 383.082466 
L 193.23 383.002713 
L 193.23 382.603946 
L 194.904 382.524192 
L 194.904 381.327891 
L 196.02 381.248138 
L 196.02 380.291097 
L 197.136 380.291097 
L 197.136 380.211344 
L 197.136 379.493564 
L 198.252 379.493564 
L 198.252 379.41381 
L 198.252 379.254303 
L 201.6 379.17455 
L 201.6 374.628607 
L 205.506 374.628607 
L 205.506 374.548853 
L 205.506 374.309593 
L 206.064 374.309593 
L 206.064 374.22984 
L 206.064 373.671566 
L 207.738 373.671566 
L 207.738 373.591813 
L 207.738 371.837238 
L 208.296 371.837238 
L 208.296 371.757485 
L 208.296 371.597978 
L 209.412 371.518224 
L 209.412 370.24217 
L 211.086 370.24217 
L 211.086 370.162417 
L 211.086 369.52439 
L 212.202 369.52439 
L 212.202 369.444636 
L 212.202 369.285129 
L 213.876 369.285129 
L 213.876 369.205376 
L 213.876 366.01524 
L 216.108 366.01524 
L 216.108 365.935487 
L 216.108 365.855734 
L 216.666 365.855734 
L 216.666 365.77598 
L 216.666 365.137953 
L 218.898 365.137953 
L 218.898 365.0582 
L 218.898 362.585845 
L 220.014 362.585845 
L 220.014 362.506091 
L 220.014 362.426338 
L 221.13 362.426338 
L 221.13 362.346584 
L 221.13 360.35275 
L 222.804 360.272996 
L 222.804 358.917189 
L 223.92 358.917189 
L 223.92 358.837435 
L 223.92 358.119655 
L 224.478 358.119655 
L 224.478 358.039901 
L 224.478 357.720888 
L 229.5 357.641134 
L 229.5 349.187275 
L 232.848 349.187275 
L 232.848 349.107522 
L 232.848 349.027768 
L 233.964 348.948015 
L 233.964 348.788508 
L 234.522 348.788508 
L 234.522 348.708755 
L 234.522 348.070727 
L 235.638 348.070727 
L 235.638 347.990974 
L 235.638 346.95418 
L 236.754 346.95418 
L 236.754 346.874427 
L 236.754 344.561578 
L 237.87 344.561578 
L 237.87 344.481825 
L 237.87 344.402072 
L 238.986 344.402072 
L 238.986 344.322318 
L 238.986 342.96651 
L 240.102 342.96651 
L 240.102 342.886757 
L 240.102 341.929716 
L 242.334 341.849963 
L 242.334 338.500321 
L 244.008 338.420567 
L 244.008 337.942047 
L 245.124 337.942047 
L 245.124 337.862293 
L 245.124 336.905253 
L 246.24 336.825499 
L 246.24 335.708952 
L 246.798 335.708952 
L 246.798 335.629199 
L 246.798 335.469692 
L 249.588 335.469692 
L 249.588 335.389938 
L 249.588 331.083255 
L 251.82 331.083255 
L 251.82 331.003502 
L 251.82 330.923748 
L 252.936 330.923748 
L 252.936 330.843995 
L 252.936 329.727448 
L 254.052 329.647694 
L 254.052 327.334846 
L 255.168 327.334846 
L 255.168 327.255092 
L 255.168 326.537312 
L 257.4 326.537312 
L 257.4 326.457559 
L 257.4 322.390136 
L 259.074 322.310382 
L 259.074 322.230629 
L 259.632 322.230629 
L 259.632 322.150875 
L 259.632 320.316547 
L 261.864 320.316547 
L 261.864 320.236794 
L 261.864 318.561973 
L 262.98 318.561973 
L 262.98 318.482219 
L 262.98 318.163206 
L 264.096 318.163206 
L 264.096 318.083453 
L 264.096 316.408631 
L 265.212 316.408631 
L 265.212 316.328878 
L 265.212 316.089618 
L 266.328 316.089618 
L 266.328 316.009864 
L 266.328 313.617263 
L 267.444 313.617263 
L 267.444 313.537509 
L 267.444 311.384168 
L 268.56 311.304414 
L 268.56 310.50688 
L 269.118 310.50688 
L 269.118 310.427127 
L 269.118 309.948607 
L 270.792 309.868853 
L 270.792 309.709346 
L 273.024 309.629593 
L 273.024 309.470086 
L 275.814 309.470086 
L 275.814 309.390333 
L 275.814 298.065351 
L 281.394 297.985598 
L 281.394 297.905845 
L 281.952 297.905845 
L 281.952 297.826091 
L 281.952 297.586831 
L 282.51 297.586831 
L 282.51 297.507078 
L 282.51 296.709544 
L 283.068 296.709544 
L 283.068 296.62979 
L 283.068 295.67275 
L 284.184 295.592996 
L 284.184 294.237189 
L 285.3 294.237189 
L 285.3 294.157435 
L 285.3 292.004094 
L 286.974 291.92434 
L 286.974 290.169766 
L 288.09 290.169766 
L 288.09 290.090012 
L 288.09 289.531739 
L 289.206 289.531739 
L 289.206 289.451985 
L 289.206 287.059383 
L 290.88 287.059383 
L 290.88 286.97963 
L 290.88 286.580863 
L 291.438 286.580863 
L 291.438 286.50111 
L 291.438 286.421356 
L 293.112 286.341603 
L 293.112 282.114673 
L 294.786 282.114673 
L 294.786 282.03492 
L 294.786 281.875413 
L 295.344 281.875413 
L 295.344 281.79566 
L 295.344 279.084044 
L 296.46 279.084044 
L 296.46 279.004291 
L 296.46 278.446017 
L 297.576 278.366264 
L 297.576 278.28651 
L 299.25 278.28651 
L 299.25 278.206757 
L 299.25 274.378594 
L 301.482 274.298841 
L 301.482 273.58106 
L 302.598 273.58106 
L 302.598 273.501307 
L 302.598 270.470678 
L 303.714 270.470678 
L 303.714 270.390925 
L 303.714 270.311171 
L 304.83 270.311171 
L 304.83 270.231418 
L 304.83 268.476843 
L 305.946 268.39709 
L 305.946 268.15783 
L 306.504 268.15783 
L 306.504 268.078076 
L 306.504 267.91857 
L 307.062 267.91857 
L 307.062 267.838816 
L 307.062 266.163995 
L 308.178 266.163995 
L 308.178 266.084242 
L 308.178 265.286708 
L 309.294 265.286708 
L 309.294 265.206954 
L 309.294 265.127201 
L 309.852 265.127201 
L 309.852 265.047448 
L 309.852 264.648681 
L 313.2 264.648681 
L 313.2 264.568927 
L 313.2 257.311369 
L 315.99 257.311369 
L 315.99 257.231615 
L 315.99 256.992355 
L 316.548 256.992355 
L 316.548 256.912602 
L 316.548 256.753095 
L 317.106 256.753095 
L 317.106 256.673342 
L 317.106 255.955561 
L 318.222 255.955561 
L 318.222 255.875808 
L 318.222 253.961726 
L 319.896 253.961726 
L 319.896 253.881973 
L 319.896 252.526165 
L 321.012 252.526165 
L 321.012 252.446412 
L 321.012 252.207152 
L 321.57 252.207152 
L 321.57 252.127398 
L 321.57 251.888138 
L 322.686 251.888138 
L 322.686 251.808385 
L 322.686 249.256276 
L 323.802 249.256276 
L 323.802 249.176523 
L 323.802 249.096769 
L 324.918 249.096769 
L 324.918 249.017016 
L 324.918 248.139729 
L 326.034 248.059975 
L 326.034 247.501702 
L 326.592 247.501702 
L 326.592 247.421948 
L 326.592 247.262441 
L 327.15 247.262441 
L 327.15 247.182688 
L 327.15 247.102935 
L 329.382 247.023181 
L 329.382 242.158224 
L 331.056 242.158224 
L 331.056 242.078471 
L 331.056 241.759457 
L 331.614 241.759457 
L 331.614 241.679704 
L 331.614 241.599951 
L 332.73 241.599951 
L 332.73 241.520197 
L 332.73 239.765623 
L 334.404 239.685869 
L 334.404 238.170555 
L 335.52 238.090801 
L 335.52 237.532528 
L 336.078 237.532528 
L 336.078 237.452774 
L 336.078 237.373021 
L 337.752 237.293268 
L 337.752 235.299433 
L 339.426 235.219679 
L 339.426 234.820912 
L 339.984 234.820912 
L 339.984 234.741159 
L 339.984 234.342392 
L 340.542 234.342392 
L 340.542 234.262639 
L 340.542 234.182885 
L 341.1 234.182885 
L 341.1 234.103132 
L 341.1 231.311763 
L 342.216 231.311763 
L 342.216 231.23201 
L 342.216 231.072503 
L 343.89 231.072503 
L 343.89 230.99275 
L 343.89 227.403847 
L 345.564 227.403847 
L 345.564 227.324094 
L 345.564 225.968286 
L 346.122 225.968286 
L 346.122 225.888533 
L 346.122 225.729026 
L 347.238 225.649273 
L 347.238 225.569519 
L 347.796 225.569519 
L 347.796 225.489766 
L 347.796 222.379383 
L 348.354 222.379383 
L 348.354 222.29963 
L 348.354 222.219877 
L 348.912 222.219877 
L 348.912 222.140123 
L 348.912 221.900863 
L 350.586 221.82111 
L 350.586 220.704562 
L 351.702 220.624809 
L 351.702 219.907028 
L 352.818 219.907028 
L 352.818 219.827275 
L 352.818 218.710727 
L 353.376 218.710727 
L 353.376 218.630974 
L 353.376 218.551221 
L 353.934 218.551221 
L 353.934 218.471467 
L 353.934 218.391714 
L 354.492 218.391714 
L 354.492 218.311961 
L 354.492 216.796646 
L 355.608 216.716893 
L 355.608 215.919359 
L 356.724 215.919359 
L 356.724 215.839605 
L 356.724 214.643305 
L 357.84 214.643305 
L 357.84 214.563551 
L 357.84 213.12799 
L 358.398 213.12799 
L 358.398 213.048237 
L 358.398 212.330456 
L 359.514 212.250703 
L 359.514 211.692429 
L 360.072 211.692429 
L 360.072 211.612676 
L 360.072 211.453169 
L 360.63 211.453169 
L 360.63 211.373416 
L 360.63 211.213909 
L 361.188 211.213909 
L 361.188 211.134155 
L 361.188 210.815142 
L 361.746 210.815142 
L 361.746 210.735388 
L 361.746 210.655635 
L 362.862 210.655635 
L 362.862 210.575882 
L 362.862 210.496128 
L 365.094 210.416375 
L 365.094 210.336621 
L 365.652 210.336621 
L 365.652 210.256868 
L 365.652 210.177115 
L 369 210.097361 
L 369 193.82767 
L 373.464 193.82767 
L 373.464 193.747916 
L 373.464 193.588409 
L 374.022 193.588409 
L 374.022 193.508656 
L 374.022 193.428903 
L 374.58 193.428903 
L 374.58 193.349149 
L 374.58 193.269396 
L 375.138 193.269396 
L 375.138 193.189642 
L 375.138 193.109889 
L 376.812 193.030136 
L 376.812 192.790875 
L 377.37 192.790875 
L 377.37 192.711122 
L 377.37 192.551615 
L 377.928 192.551615 
L 377.928 192.471862 
L 377.928 192.152848 
L 378.486 192.152848 
L 378.486 192.073095 
L 378.486 191.275561 
L 379.602 191.275561 
L 379.602 191.195808 
L 379.602 190.717287 
L 380.16 190.717287 
L 380.16 190.637534 
L 380.16 190.238767 
L 381.276 190.159014 
L 381.276 189.441233 
L 381.834 189.441233 
L 381.834 189.36148 
L 381.834 189.281726 
L 382.392 189.281726 
L 382.392 189.201973 
L 382.392 188.324686 
L 382.95 188.324686 
L 382.95 188.244932 
L 382.95 187.925919 
L 383.508 187.925919 
L 383.508 187.846165 
L 383.508 186.729618 
L 384.624 186.729618 
L 384.624 186.649864 
L 384.624 186.330851 
L 385.182 186.330851 
L 385.182 186.251097 
L 385.182 185.772577 
L 386.298 185.772577 
L 386.298 185.692824 
L 386.298 185.453564 
L 387.414 185.37381 
L 387.414 182.901455 
L 388.53 182.901455 
L 388.53 182.821702 
L 388.53 182.662195 
L 389.088 182.662195 
L 389.088 182.582441 
L 389.088 181.864661 
L 390.204 181.864661 
L 390.204 181.784908 
L 390.204 180.110086 
L 391.32 180.110086 
L 391.32 180.030333 
L 391.32 179.95058 
L 391.878 179.95058 
L 391.878 179.870826 
L 391.878 179.791073 
L 392.436 179.791073 
L 392.436 179.711319 
L 392.436 179.232799 
L 392.994 179.232799 
L 392.994 179.153046 
L 392.994 179.073292 
L 394.11 179.073292 
L 394.11 178.993539 
L 394.11 177.956745 
L 395.784 177.956745 
L 395.784 177.876991 
L 395.784 177.478224 
L 396.9 177.478224 
L 396.9 177.398471 
L 396.9 176.521184 
L 398.016 176.44143 
L 398.016 175.803403 
L 399.132 175.72365 
L 399.132 175.643896 
L 400.248 175.643896 
L 400.248 175.564143 
L 400.248 171.656227 
L 401.922 171.576473 
L 401.922 171.416967 
L 402.48 171.416967 
L 402.48 171.337213 
L 402.48 170.77894 
L 403.596 170.699186 
L 403.596 168.705351 
L 405.27 168.625598 
L 405.27 168.386338 
L 406.386 168.306584 
L 406.386 168.147078 
L 408.618 168.067324 
L 408.618 165.116449 
L 409.734 165.036695 
L 409.734 164.877189 
L 410.292 164.877189 
L 410.292 164.797435 
L 410.292 164.717682 
L 410.85 164.717682 
L 410.85 164.637928 
L 410.85 164.478422 
L 411.966 164.398668 
L 411.966 164.079655 
L 412.524 164.079655 
L 412.524 163.999901 
L 412.524 163.840395 
L 413.082 163.840395 
L 413.082 163.760641 
L 413.082 162.484587 
L 414.198 162.484587 
L 414.198 162.404834 
L 414.198 161.926313 
L 415.314 161.926313 
L 415.314 161.84656 
L 415.314 160.969273 
L 416.988 160.969273 
L 416.988 160.889519 
L 416.988 160.650259 
L 417.546 160.650259 
L 417.546 160.570506 
L 417.546 160.490752 
L 418.104 160.490752 
L 418.104 160.410999 
L 418.104 158.337411 
L 419.778 158.257657 
L 419.778 157.699383 
L 420.894 157.61963 
L 420.894 156.90185 
L 421.452 156.90185 
L 421.452 156.822096 
L 421.452 156.662589 
L 423.126 156.582836 
L 423.126 156.503083 
L 424.8 156.503083 
L 424.8 156.423329 
L 424.8 152.036893 
L 427.59 151.957139 
L 427.59 151.877386 
L 428.706 151.877386 
L 428.706 151.797633 
L 428.706 151.558372 
L 429.822 151.558372 
L 429.822 151.478619 
L 429.822 150.840592 
L 430.38 150.840592 
L 430.38 150.760838 
L 430.38 150.681085 
L 430.938 150.681085 
L 430.938 150.601332 
L 430.938 149.325277 
L 432.612 149.245524 
L 432.612 149.086017 
L 433.17 149.086017 
L 433.17 149.006264 
L 433.17 148.44799 
L 434.844 148.44799 
L 434.844 148.368237 
L 434.844 148.288483 
L 435.402 148.288483 
L 435.402 148.20873 
L 435.402 147.411196 
L 436.518 147.411196 
L 436.518 147.331443 
L 436.518 146.932676 
L 438.75 146.852922 
L 438.75 145.257855 
L 440.424 145.178101 
L 440.424 145.098348 
L 440.982 145.098348 
L 440.982 145.018594 
L 440.982 144.859088 
L 441.54 144.859088 
L 441.54 144.779334 
L 441.54 144.300814 
L 442.656 144.300814 
L 442.656 144.22106 
L 442.656 143.184266 
L 443.214 143.184266 
L 443.214 143.104513 
L 443.214 143.02476 
L 444.33 143.02476 
L 444.33 142.945006 
L 444.33 142.865253 
L 444.888 142.865253 
L 444.888 142.785499 
L 444.888 141.748705 
L 447.12 141.748705 
L 447.12 141.668952 
L 447.12 141.349938 
L 448.794 141.349938 
L 448.794 141.270185 
L 448.794 140.871418 
L 449.352 140.871418 
L 449.352 140.791665 
L 449.352 140.711911 
L 451.026 140.632158 
L 451.026 139.675117 
L 452.7 139.675117 
L 452.7 139.595364 
L 452.7 138.718076 
L 453.816 138.718076 
L 453.816 138.638323 
L 453.816 137.920543 
L 454.932 137.840789 
L 454.932 137.521776 
L 455.49 137.521776 
L 455.49 137.442022 
L 455.49 137.362269 
L 456.048 137.362269 
L 456.048 137.282515 
L 456.048 137.202762 
L 457.164 137.123009 
L 457.164 137.043255 
L 458.28 136.963502 
L 458.28 136.883748 
L 462.186 136.803995 
L 462.186 129.785697 
L 466.092 129.705943 
L 466.092 129.62619 
L 467.766 129.546436 
L 467.766 129.466683 
L 468.882 129.38693 
L 468.882 129.227423 
L 469.44 129.227423 
L 469.44 129.14767 
L 469.44 128.509642 
L 470.556 128.509642 
L 470.556 128.429889 
L 470.556 127.393095 
L 471.672 127.393095 
L 471.672 127.313342 
L 471.672 126.515808 
L 473.904 126.515808 
L 473.904 126.436054 
L 473.904 126.117041 
L 475.02 126.037287 
L 475.02 125.798027 
L 476.136 125.798027 
L 476.136 125.718274 
L 476.136 125.319507 
L 478.368 125.239753 
L 478.368 124.202959 
L 480.6 124.123206 
L 480.6 122.528138 
L 481.716 122.528138 
L 481.716 122.448385 
L 481.716 122.368631 
L 482.832 122.368631 
L 482.832 122.288878 
L 482.832 121.890111 
L 483.948 121.890111 
L 483.948 121.810358 
L 483.948 121.571097 
L 485.064 121.571097 
L 485.064 121.491344 
L 485.064 120.853317 
L 486.18 120.773564 
L 486.18 120.614057 
L 487.296 120.534303 
L 487.296 120.45455 
L 488.412 120.45455 
L 488.412 120.374797 
L 488.412 118.141702 
L 491.202 118.061948 
L 491.202 117.982195 
L 491.76 117.982195 
L 491.76 117.902441 
L 491.76 117.663181 
L 492.318 117.663181 
L 492.318 117.583428 
L 492.318 117.503674 
L 492.876 117.503674 
L 492.876 117.423921 
L 492.876 117.025154 
L 495.108 116.945401 
L 495.108 116.865647 
L 495.666 116.865647 
L 495.666 116.785894 
L 495.666 114.313539 
L 497.898 114.313539 
L 497.898 114.233785 
L 497.898 113.994525 
L 499.014 113.994525 
L 499.014 113.914772 
L 499.014 113.595758 
L 501.246 113.595758 
L 501.246 113.516005 
L 501.246 113.276745 
L 502.362 113.196991 
L 502.362 112.718471 
L 503.478 112.718471 
L 503.478 112.638718 
L 503.478 112.319704 
L 504.036 112.319704 
L 504.036 112.239951 
L 504.036 112.160197 
L 505.71 112.080444 
L 505.71 112.000691 
L 508.5 112.000691 
L 508.5 111.920937 
L 508.5 108.411788 
L 511.29 108.411788 
L 511.29 108.332035 
L 511.29 108.252281 
L 512.964 108.252281 
L 512.964 108.172528 
L 512.964 108.092774 
L 514.08 108.092774 
L 514.08 108.013021 
L 514.08 107.694007 
L 515.196 107.614254 
L 515.196 106.896473 
L 517.986 106.81672 
L 517.986 106.736967 
L 519.102 106.736967 
L 519.102 106.657213 
L 519.102 106.258446 
L 520.218 106.258446 
L 520.218 106.178693 
L 520.218 106.09894 
L 521.334 106.09894 
L 521.334 106.019186 
L 521.334 105.939433 
L 524.124 105.859679 
L 524.124 104.264612 
L 526.914 104.184858 
L 526.914 103.945598 
L 528.588 103.945598 
L 528.588 103.865845 
L 528.588 103.307571 
L 529.704 103.307571 
L 529.704 103.227818 
L 529.704 103.148064 
L 530.82 103.068311 
L 530.82 102.908804 
L 531.936 102.908804 
L 531.936 102.829051 
L 531.936 102.510037 
L 532.494 102.510037 
L 532.494 102.430284 
L 532.494 102.11127 
L 536.4 102.031517 
L 536.4 98.203354 
L 539.748 98.1236 
L 539.748 97.964094 
L 540.864 97.964094 
L 540.864 97.88434 
L 540.864 97.804587 
L 541.98 97.804587 
L 541.98 97.724834 
L 541.98 97.086806 
L 543.096 97.086806 
L 543.096 97.007053 
L 543.096 96.767793 
L 544.77 96.688039 
L 544.77 96.369026 
L 546.444 96.369026 
L 546.444 96.289273 
L 546.444 95.252478 
L 548.118 95.252478 
L 548.118 95.172725 
L 548.118 95.092972 
L 549.792 95.092972 
L 549.792 95.013218 
L 549.792 94.933465 
L 550.908 94.933465 
L 550.908 94.853711 
L 550.908 94.694205 
L 554.814 94.614451 
L 554.814 91.504069 
L 559.836 91.504069 
L 559.836 91.424316 
L 559.836 90.786289 
L 562.068 90.706535 
L 562.068 90.068508 
L 564.3 89.988755 
L 564.3 89.669741 
L 565.416 89.669741 
L 565.416 89.589988 
L 565.416 89.430481 
L 568.206 89.430481 
L 568.206 89.350727 
L 568.206 88.154427 
L 570.438 88.074673 
L 570.438 87.99492 
L 573.786 87.915166 
L 573.786 87.596153 
L 575.46 87.596153 
L 575.46 87.5164 
L 575.46 87.436646 
L 576.576 87.356893 
L 576.576 87.277139 
L 578.25 87.277139 
L 578.25 87.197386 
L 578.25 86.240345 
L 581.04 86.160592 
L 581.04 86.001085 
L 583.272 85.921332 
L 583.272 85.841578 
L 584.388 85.761825 
L 584.388 85.682072 
L 586.062 85.682072 
L 586.062 85.602318 
L 586.062 84.406017 
L 589.41 84.326264 
L 589.41 84.00725 
L 592.2 83.927497 
L 592.2 82.332429 
L 593.316 82.332429 
L 593.316 82.252676 
L 593.316 82.172922 
L 594.99 82.093169 
L 594.99 81.534895 
L 595.548 81.534895 
L 595.548 81.455142 
L 595.548 81.375388 
L 597.222 81.375388 
L 597.222 81.295635 
L 597.222 80.976621 
L 600.57 80.896868 
L 600.57 80.817115 
L 601.686 80.817115 
L 601.686 80.737361 
L 601.686 80.577855 
L 605.034 80.577855 
L 605.034 80.498101 
L 605.034 80.418348 
L 606.708 80.338594 
L 606.708 80.258841 
L 608.382 80.258841 
L 608.382 80.179088 
L 608.382 80.019581 
L 610.056 79.939827 
L 610.056 79.860074 
L 610.614 79.860074 
L 610.614 79.780321 
L 610.614 79.54106 
L 613.404 79.461307 
L 613.404 79.222047 
L 615.078 79.222047 
L 615.078 79.142293 
L 615.078 78.903033 
L 616.194 78.903033 
L 616.194 78.82328 
L 616.194 78.743527 
L 616.752 78.743527 
L 616.752 78.663773 
L 616.752 78.34476 
L 618.426 78.265006 
L 618.426 77.706732 
L 620.1 77.626979 
L 620.1 77.547226 
L 621.216 77.467472 
L 621.216 77.228212 
L 622.89 77.228212 
L 622.89 77.148459 
L 622.89 76.829445 
L 624.006 76.749692 
L 624.006 76.669938 
L 624.564 76.669938 
L 624.564 76.590185 
L 624.564 76.191418 
L 626.796 76.111665 
L 626.796 75.792651 
L 633.492 75.712898 
L 633.492 75.633144 
L 648 75.553391 
L 648 60.48 
L 648 60.48 
" clip-path="url(#p1f86321ec1)" style="fill: none; stroke-dasharray: 2.8,4.62; stroke-dashoffset: 0; stroke: #ff7f0e; stroke-width: 2.8"/>
   </g>
   <g id="line2d_15">
    <path d="M 90 448.56 
L 90 439.019208 
L 107.856 438.968233 
L 107.856 438.908762 
L 107.856 438.891771 
L 113.436 438.823804 
L 113.436 438.781325 
L 113.436 438.755838 
L 115.11 438.738846 
L 115.11 438.645392 
L 115.11 438.56893 
L 117.9 438.543443 
L 117.9 438.458485 
L 117.9 438.40751 
L 119.574 438.399014 
L 119.574 438.297064 
L 119.574 437.923249 
L 121.248 437.923249 
L 121.248 437.812803 
L 121.248 437.557929 
L 122.922 437.549433 
L 122.922 437.447484 
L 122.922 437.014197 
L 124.596 437.005702 
L 124.596 436.903752 
L 124.596 434.040665 
L 127.386 434.032169 
L 127.386 433.930219 
L 127.386 432.698327 
L 129.618 432.67284 
L 129.618 432.587882 
L 129.618 431.41546 
L 132.966 431.355989 
L 132.966 431.305015 
L 132.966 430.78677 
L 134.64 430.778274 
L 134.64 430.676325 
L 134.64 430.633846 
L 136.314 430.633846 
L 136.314 430.5234 
L 136.314 430.013652 
L 138.546 429.962677 
L 138.546 429.903206 
L 138.546 429.83524 
L 140.778 429.83524 
L 140.778 429.724794 
L 140.778 429.325491 
L 143.01 429.316996 
L 143.01 429.215046 
L 143.01 429.130088 
L 145.8 429.1046 
L 145.8 429.019642 
L 145.8 427.966162 
L 148.59 427.8897 
L 148.59 427.855717 
L 148.59 427.379951 
L 149.706 427.379951 
L 149.706 427.269506 
L 149.706 427.252514 
L 151.938 427.252514 
L 151.938 427.142069 
L 151.938 426.080093 
L 155.844 426.037614 
L 155.844 425.969647 
L 155.844 423.845695 
L 157.518 423.743746 
L 157.518 423.73525 
L 157.518 423.701267 
L 159.75 423.692771 
L 159.75 423.590821 
L 159.75 421.772718 
L 162.54 421.721743 
L 162.54 421.662273 
L 162.54 421.645281 
L 164.214 421.645281 
L 164.214 421.534836 
L 164.214 419.071051 
L 165.888 419.05406 
L 165.888 418.960606 
L 165.888 418.731219 
L 167.562 418.620774 
L 167.562 418.603782 
L 169.794 418.552807 
L 169.794 418.493337 
L 169.794 416.165485 
L 171.468 416.165485 
L 171.468 416.05504 
L 171.468 415.85114 
L 172.584 415.817157 
L 172.584 415.740695 
L 172.584 415.681224 
L 173.7 415.681224 
L 173.7 415.570779 
L 173.7 414.202954 
L 175.932 414.160475 
L 175.932 414.092508 
L 175.932 413.200448 
L 178.164 413.157969 
L 178.164 413.090003 
L 178.164 412.206439 
L 179.28 412.206439 
L 179.28 412.095993 
L 179.28 411.875102 
L 179.838 411.875102 
L 179.838 411.764657 
L 179.838 411.679699 
L 183.186 411.620228 
L 183.186 411.569253 
L 183.186 408.53625 
L 185.418 408.53625 
L 185.418 408.425804 
L 185.418 408.417309 
L 185.976 408.417309 
L 185.976 408.306863 
L 185.976 408.230401 
L 187.092 408.230401 
L 187.092 408.119955 
L 187.092 407.933048 
L 188.208 407.856585 
L 188.208 407.822602 
L 188.208 406.191407 
L 189.882 406.123441 
L 189.882 406.080961 
L 189.882 405.945029 
L 191.556 405.945029 
L 191.556 405.834583 
L 191.556 404.849069 
L 193.23 404.840574 
L 193.23 404.738624 
L 193.23 404.713136 
L 194.904 404.679153 
L 194.904 404.602691 
L 194.904 402.725117 
L 196.02 402.69963 
L 196.02 402.614672 
L 196.02 401.476234 
L 197.136 401.476234 
L 197.136 401.365788 
L 197.136 401.246847 
L 199.926 401.144897 
L 199.926 401.136401 
L 199.926 401.127906 
L 201.6 401.127906 
L 201.6 401.01746 
L 201.6 397.432229 
L 204.948 397.398246 
L 204.948 397.321784 
L 204.948 397.304792 
L 206.064 397.219834 
L 206.064 397.194347 
L 206.064 396.752565 
L 207.738 396.752565 
L 207.738 396.642119 
L 207.738 394.81552 
L 208.296 394.81552 
L 208.296 394.705075 
L 208.296 394.6541 
L 209.412 394.6541 
L 209.412 394.543655 
L 209.412 393.677082 
L 211.086 393.660091 
L 211.086 393.566637 
L 211.086 393.430704 
L 212.76 393.345746 
L 212.76 393.320258 
L 212.76 393.311763 
L 213.876 393.311763 
L 213.876 393.201317 
L 213.876 390.907449 
L 216.108 390.898953 
L 216.108 390.797003 
L 216.108 390.771516 
L 216.666 390.771516 
L 216.666 390.661071 
L 216.666 390.295751 
L 217.782 390.295751 
L 217.782 390.185305 
L 217.782 390.176809 
L 218.898 390.176809 
L 218.898 390.066364 
L 218.898 389.403691 
L 220.014 389.403691 
L 220.014 389.293245 
L 220.014 389.225279 
L 221.13 389.225279 
L 221.13 389.114834 
L 221.13 387.959404 
L 222.804 387.933916 
L 222.804 387.848958 
L 222.804 387.305226 
L 223.92 387.288235 
L 223.92 387.194781 
L 223.92 386.149797 
L 224.478 386.149797 
L 224.478 386.039351 
L 224.478 385.869435 
L 225.594 385.784477 
L 225.594 385.758989 
L 225.594 385.750494 
L 229.5 385.648544 
L 229.5 385.640048 
L 229.5 379.973344 
L 234.522 379.879891 
L 234.522 379.862899 
L 234.522 379.616521 
L 235.638 379.616521 
L 235.638 379.506075 
L 235.638 378.82641 
L 236.754 378.809419 
L 236.754 378.715965 
L 236.754 377.840897 
L 238.986 377.764434 
L 238.986 377.730451 
L 238.986 376.583517 
L 240.102 376.55803 
L 240.102 376.473072 
L 240.102 375.895357 
L 242.334 375.869869 
L 242.334 375.784911 
L 242.334 374.468061 
L 244.008 374.417086 
L 244.008 374.357616 
L 244.008 374.298145 
L 245.124 374.298145 
L 245.124 374.187699 
L 245.124 372.938816 
L 246.24 372.913328 
L 246.24 372.82837 
L 246.24 372.40358 
L 249.588 372.310126 
L 249.588 372.293134 
L 249.588 369.413055 
L 251.82 369.370576 
L 251.82 369.30261 
L 251.82 369.149685 
L 252.936 369.149685 
L 252.936 369.03924 
L 252.936 368.61445 
L 254.052 368.61445 
L 254.052 368.504004 
L 254.052 367.297599 
L 255.168 367.272112 
L 255.168 367.187154 
L 255.168 366.949271 
L 257.4 366.898296 
L 257.4 366.838826 
L 257.4 364.19663 
L 259.632 364.137159 
L 259.632 364.086184 
L 259.632 363.62741 
L 261.864 363.576436 
L 261.864 363.516965 
L 261.864 362.200115 
L 262.98 362.200115 
L 262.98 362.089669 
L 262.98 361.911257 
L 264.096 361.894266 
L 264.096 361.800812 
L 264.096 360.874769 
L 265.212 360.874769 
L 265.212 360.764323 
L 265.212 360.738836 
L 266.328 360.738836 
L 266.328 360.62839 
L 266.328 359.320036 
L 267.444 359.320036 
L 267.444 359.20959 
L 267.444 358.597892 
L 268.56 358.580901 
L 268.56 358.487447 
L 268.56 357.145109 
L 269.118 357.145109 
L 269.118 357.034664 
L 269.118 356.703327 
L 270.234 356.694831 
L 270.234 356.592882 
L 270.234 356.516419 
L 270.792 356.516419 
L 270.792 356.405974 
L 270.792 356.329512 
L 275.814 356.295528 
L 275.814 356.219066 
L 275.814 349.762252 
L 281.394 349.660303 
L 281.394 349.651807 
L 281.394 349.575344 
L 281.952 349.575344 
L 281.952 349.464899 
L 281.952 349.456403 
L 282.51 349.456403 
L 282.51 349.345958 
L 282.51 349.074092 
L 283.068 349.074092 
L 283.068 348.963646 
L 283.068 348.241503 
L 284.184 348.241503 
L 284.184 348.131057 
L 284.184 347.077577 
L 285.3 347.043594 
L 285.3 346.967132 
L 285.3 345.301953 
L 285.858 345.301953 
L 285.858 345.191508 
L 285.858 344.928138 
L 286.974 344.928138 
L 286.974 344.817692 
L 286.974 344.104044 
L 288.09 344.095549 
L 288.09 343.993599 
L 288.09 343.908641 
L 289.206 343.891649 
L 289.206 343.798195 
L 289.206 342.821177 
L 290.88 342.770203 
L 290.88 342.710732 
L 290.88 342.031067 
L 291.996 341.929118 
L 291.996 341.920622 
L 291.996 341.90363 
L 293.112 341.90363 
L 293.112 341.793185 
L 293.112 340.153494 
L 294.786 340.043048 
L 294.786 339.567283 
L 295.344 339.567283 
L 295.344 339.456837 
L 295.344 337.859626 
L 296.46 337.859626 
L 296.46 337.74918 
L 296.46 337.264919 
L 297.018 337.264919 
L 297.018 337.154474 
L 297.018 337.12049 
L 299.25 337.111995 
L 299.25 337.010045 
L 299.25 334.920076 
L 301.482 334.869101 
L 301.482 334.809631 
L 301.482 334.699185 
L 302.598 334.690689 
L 302.598 334.58874 
L 302.598 333.424814 
L 303.156 333.424814 
L 303.156 333.314369 
L 303.156 333.305873 
L 304.83 333.288881 
L 304.83 333.195427 
L 304.83 332.133451 
L 305.946 332.124955 
L 305.946 332.023006 
L 305.946 332.006014 
L 307.062 331.997518 
L 307.062 331.895569 
L 307.062 331.079971 
L 308.178 331.037492 
L 308.178 330.969526 
L 308.178 330.179415 
L 309.294 330.179415 
L 309.294 330.06897 
L 309.294 329.848079 
L 309.852 329.848079 
L 309.852 329.737633 
L 309.852 329.686659 
L 313.2 329.576213 
L 313.2 324.444745 
L 316.548 324.3343 
L 316.548 324.053938 
L 317.106 324.053938 
L 317.106 323.943493 
L 317.106 323.671627 
L 318.222 323.671627 
L 318.222 323.561181 
L 318.222 322.354777 
L 319.896 322.295306 
L 319.896 322.244331 
L 319.896 321.33528 
L 321.012 321.326784 
L 321.012 321.224834 
L 321.012 321.088901 
L 322.686 320.978456 
L 322.686 319.576647 
L 323.802 319.568152 
L 323.802 319.466202 
L 323.802 319.330269 
L 324.918 319.304782 
L 324.918 319.219824 
L 324.918 318.327764 
L 326.034 318.302276 
L 326.034 318.217318 
L 326.034 317.733057 
L 326.592 317.733057 
L 326.592 317.622612 
L 326.592 317.571637 
L 327.708 317.486679 
L 327.708 317.461191 
L 327.708 317.410217 
L 329.382 317.410217 
L 329.382 317.299771 
L 329.382 314.428188 
L 331.056 314.377213 
L 331.056 314.317743 
L 331.056 314.292255 
L 331.614 314.292255 
L 331.614 314.18181 
L 331.614 314.045877 
L 332.73 314.045877 
L 332.73 313.935431 
L 332.73 313.162313 
L 334.404 313.094346 
L 334.404 313.051867 
L 334.404 312.142816 
L 335.52 312.125824 
L 335.52 312.03237 
L 335.52 311.70953 
L 336.078 311.70953 
L 336.078 311.599084 
L 336.078 311.471647 
L 337.752 311.420672 
L 337.752 311.361201 
L 337.752 309.56009 
L 339.426 309.534603 
L 339.426 309.449645 
L 339.426 309.330703 
L 339.984 309.330703 
L 339.984 309.220258 
L 339.984 308.905913 
L 341.1 308.880426 
L 341.1 308.795468 
L 341.1 307.708004 
L 342.216 307.648533 
L 342.216 307.597559 
L 342.216 307.342684 
L 343.89 307.29171 
L 343.89 307.232239 
L 343.89 304.598538 
L 345.006 304.598538 
L 345.006 304.488093 
L 345.006 304.411631 
L 345.564 304.411631 
L 345.564 304.301185 
L 345.564 303.604529 
L 346.122 303.604529 
L 346.122 303.494083 
L 346.122 303.477092 
L 347.796 303.434613 
L 347.796 303.366646 
L 347.796 302.287679 
L 348.912 302.194225 
L 348.912 302.177233 
L 348.912 301.726955 
L 350.586 301.675981 
L 350.586 301.61651 
L 350.586 300.061777 
L 351.702 300.03629 
L 351.702 299.951332 
L 351.702 299.83239 
L 352.818 299.823895 
L 352.818 299.721945 
L 352.818 299.101751 
L 353.376 299.101751 
L 353.376 298.991305 
L 353.376 298.957322 
L 354.492 298.948826 
L 354.492 298.846877 
L 354.492 297.88685 
L 355.05 297.88685 
L 355.05 297.776405 
L 355.05 297.682951 
L 355.608 297.682951 
L 355.608 297.572506 
L 355.608 296.637967 
L 356.724 296.612479 
L 356.724 296.527521 
L 356.724 295.686436 
L 357.84 295.601478 
L 357.84 295.575991 
L 357.84 294.921814 
L 358.398 294.921814 
L 358.398 294.811368 
L 358.398 294.310115 
L 359.514 294.310115 
L 359.514 294.19967 
L 359.514 293.961787 
L 360.072 293.961787 
L 360.072 293.851342 
L 360.072 293.443543 
L 360.63 293.443543 
L 360.63 293.333097 
L 360.63 293.018753 
L 361.188 293.018753 
L 361.188 292.908307 
L 361.188 292.551483 
L 362.304 292.466525 
L 362.304 292.441038 
L 362.304 292.390063 
L 363.978 292.279617 
L 363.978 292.169172 
L 369 292.126693 
L 369 292.058726 
L 369 282.577405 
L 374.58 282.466959 
L 374.58 282.432976 
L 375.696 282.373506 
L 375.696 282.322531 
L 375.696 282.135623 
L 376.812 282.067656 
L 376.812 282.025177 
L 376.812 281.387992 
L 377.37 281.387992 
L 377.37 281.277546 
L 377.37 280.929218 
L 377.928 280.929218 
L 377.928 280.818773 
L 377.928 280.563899 
L 378.486 280.563899 
L 378.486 280.453453 
L 378.486 279.867242 
L 379.602 279.850251 
L 379.602 279.756797 
L 379.602 279.16209 
L 380.16 279.16209 
L 380.16 279.051645 
L 380.16 278.490921 
L 381.276 278.439947 
L 381.276 278.380476 
L 381.276 277.74329 
L 382.392 277.632845 
L 382.392 276.485911 
L 382.95 276.485911 
L 382.95 276.375465 
L 382.95 276.273516 
L 383.508 276.273516 
L 383.508 276.16307 
L 383.508 275.347473 
L 384.624 275.321985 
L 384.624 275.237027 
L 384.624 274.914186 
L 385.182 274.914186 
L 385.182 274.803741 
L 385.182 273.95416 
L 386.298 273.95416 
L 386.298 273.843715 
L 386.298 273.69079 
L 387.414 273.597336 
L 387.414 273.580345 
L 387.414 271.167535 
L 389.088 271.065585 
L 389.088 271.05709 
L 389.088 270.717257 
L 389.646 270.717257 
L 389.646 270.606812 
L 389.646 270.470879 
L 390.204 270.470879 
L 390.204 270.360433 
L 390.204 269.213499 
L 391.878 269.162525 
L 391.878 269.103054 
L 391.878 268.90765 
L 392.436 268.90765 
L 392.436 268.797205 
L 392.436 268.143028 
L 392.994 268.143028 
L 392.994 268.032582 
L 392.994 267.803195 
L 394.11 267.786204 
L 394.11 267.69275 
L 394.11 266.01058 
L 395.784 266.002084 
L 395.784 265.900134 
L 395.784 265.526319 
L 396.9 265.466848 
L 396.9 265.415873 
L 396.9 263.716712 
L 398.016 263.64025 
L 398.016 263.606266 
L 398.016 263.291921 
L 398.574 263.291921 
L 398.574 263.181476 
L 398.574 262.765181 
L 400.248 262.765181 
L 400.248 262.654736 
L 400.248 260.751675 
L 401.364 260.751675 
L 401.364 260.641229 
L 401.364 260.513792 
L 401.922 260.513792 
L 401.922 260.403347 
L 401.922 260.309893 
L 402.48 260.309893 
L 402.48 260.199447 
L 402.48 259.638724 
L 403.038 259.638724 
L 403.038 259.528279 
L 403.038 259.460312 
L 403.596 259.460312 
L 403.596 259.349867 
L 403.596 258.296387 
L 404.712 258.296387 
L 404.712 258.185941 
L 404.712 258.134966 
L 405.27 258.134966 
L 405.27 258.024521 
L 405.27 257.33636 
L 406.386 257.302377 
L 406.386 257.225915 
L 406.386 256.945553 
L 406.944 256.945553 
L 406.944 256.835108 
L 406.944 256.410317 
L 408.618 256.367838 
L 408.618 256.299872 
L 408.618 253.44528 
L 410.85 253.351826 
L 410.85 253.334835 
L 410.85 253.241381 
L 411.408 253.241381 
L 411.408 253.130935 
L 411.408 253.096952 
L 411.966 253.096952 
L 411.966 252.986507 
L 411.966 252.502246 
L 412.524 252.502246 
L 412.524 252.3918 
L 412.524 252.340825 
L 413.082 252.340825 
L 413.082 252.23038 
L 413.082 251.261858 
L 414.198 251.185395 
L 414.198 251.151412 
L 414.198 250.70963 
L 415.314 250.70963 
L 415.314 250.599185 
L 415.314 249.65615 
L 416.43 249.65615 
L 416.43 249.545705 
L 416.43 249.435259 
L 416.988 249.435259 
L 416.988 249.324814 
L 416.988 248.891527 
L 417.546 248.891527 
L 417.546 248.781082 
L 417.546 248.670636 
L 418.104 248.670636 
L 418.104 248.560191 
L 418.104 247.753089 
L 419.22 247.736098 
L 419.22 247.642644 
L 419.22 247.583173 
L 419.778 247.583173 
L 419.778 247.472728 
L 419.778 246.325793 
L 420.894 246.266323 
L 420.894 246.215348 
L 420.894 245.578162 
L 421.452 245.578162 
L 421.452 245.467717 
L 421.452 245.263818 
L 422.01 245.263818 
L 422.01 245.153372 
L 422.01 244.983456 
L 423.126 244.890002 
L 423.126 244.87301 
L 423.126 244.847523 
L 424.8 244.839027 
L 424.8 244.737077 
L 424.8 239.104357 
L 427.59 239.053382 
L 427.59 238.993911 
L 427.59 238.722046 
L 428.148 238.722046 
L 428.148 238.6116 
L 428.148 238.416197 
L 428.706 238.416197 
L 428.706 238.305751 
L 428.706 237.812994 
L 429.822 237.762019 
L 429.822 237.702549 
L 429.822 236.835976 
L 430.938 236.725531 
L 430.938 235.918429 
L 432.054 235.918429 
L 432.054 235.807984 
L 432.054 235.468151 
L 432.612 235.468151 
L 432.612 235.357706 
L 432.612 235.315227 
L 433.17 235.315227 
L 433.17 235.204781 
L 433.17 234.397679 
L 434.844 234.372192 
L 434.844 234.287234 
L 434.844 233.998376 
L 435.402 233.998376 
L 435.402 233.887931 
L 435.402 232.834451 
L 436.518 232.817459 
L 436.518 232.724005 
L 436.518 232.426652 
L 437.076 232.426652 
L 437.076 232.316207 
L 437.076 232.137795 
L 438.75 232.103811 
L 438.75 232.027349 
L 438.75 230.251725 
L 440.424 230.175263 
L 440.424 230.14128 
L 440.424 230.064818 
L 440.982 230.064818 
L 440.982 229.954372 
L 440.982 229.61454 
L 441.54 229.61454 
L 441.54 229.504094 
L 441.54 228.98585 
L 442.656 228.977354 
L 442.656 228.875404 
L 442.656 227.906882 
L 443.214 227.906882 
L 443.214 227.796437 
L 443.214 227.261201 
L 444.888 227.150755 
L 444.888 225.290174 
L 446.562 225.213711 
L 446.562 225.179728 
L 446.562 224.848392 
L 447.12 224.848392 
L 447.12 224.737946 
L 447.12 224.177223 
L 447.678 224.177223 
L 447.678 224.066777 
L 447.678 223.947836 
L 448.794 223.922349 
L 448.794 223.83739 
L 448.794 222.52054 
L 449.352 222.52054 
L 449.352 222.410095 
L 449.352 222.367616 
L 449.91 222.367616 
L 449.91 222.25717 
L 449.91 222.121237 
L 451.026 222.078758 
L 451.026 222.010792 
L 451.026 221.050766 
L 452.142 221.050766 
L 452.142 220.94032 
L 452.142 220.719429 
L 452.7 220.719429 
L 452.7 220.608984 
L 452.7 217.592972 
L 453.816 217.508014 
L 453.816 217.482526 
L 453.816 216.564979 
L 454.932 216.5225 
L 454.932 216.454534 
L 454.932 215.579465 
L 455.49 215.579465 
L 455.49 215.46902 
L 455.49 214.925288 
L 456.048 214.925288 
L 456.048 214.814843 
L 456.048 214.449523 
L 456.606 214.449523 
L 456.606 214.339077 
L 456.606 214.067212 
L 457.164 214.067212 
L 457.164 213.956766 
L 457.164 213.727379 
L 457.722 213.727379 
L 457.722 213.616934 
L 457.722 213.175152 
L 458.28 213.175152 
L 458.28 213.064706 
L 458.28 213.047715 
L 462.186 213.013731 
L 462.186 212.937269 
L 462.186 204.781294 
L 465.534 204.721823 
L 465.534 204.670848 
L 465.534 204.636865 
L 466.092 204.636865 
L 466.092 204.52642 
L 466.092 204.483941 
L 466.65 204.483941 
L 466.65 204.373495 
L 466.65 204.26305 
L 467.208 204.26305 
L 467.208 204.152604 
L 467.208 203.736309 
L 467.766 203.736309 
L 467.766 203.625864 
L 467.766 203.26904 
L 468.882 203.209569 
L 468.882 203.158595 
L 468.882 202.300518 
L 469.44 202.300518 
L 469.44 202.190072 
L 469.44 201.433946 
L 470.556 201.3235 
L 470.556 200.176566 
L 471.114 200.176566 
L 471.114 200.066121 
L 471.114 200.032137 
L 471.672 200.032137 
L 471.672 199.921692 
L 471.672 199.046624 
L 472.788 199.004145 
L 472.788 198.936178 
L 472.788 198.655816 
L 473.904 198.647321 
L 473.904 198.545371 
L 473.904 197.43242 
L 474.462 197.43242 
L 474.462 197.321975 
L 474.462 197.313479 
L 475.02 197.313479 
L 475.02 197.203033 
L 475.02 196.54036 
L 476.136 196.472394 
L 476.136 196.429915 
L 476.136 194.849695 
L 477.252 194.841199 
L 477.252 194.739249 
L 477.252 194.501366 
L 478.368 194.484375 
L 478.368 194.390921 
L 478.368 193.685769 
L 478.926 193.685769 
L 478.926 193.575323 
L 478.926 193.422399 
L 479.484 193.422399 
L 479.484 193.311953 
L 479.484 193.303458 
L 480.6 193.286466 
L 480.6 193.193012 
L 480.6 188.469343 
L 481.716 188.43536 
L 481.716 188.358898 
L 481.716 188.316418 
L 482.274 188.316418 
L 482.274 188.205973 
L 482.274 188.07004 
L 482.832 188.07004 
L 482.832 187.959595 
L 482.832 187.568787 
L 483.948 187.492325 
L 483.948 187.458342 
L 483.948 186.727702 
L 484.506 186.727702 
L 484.506 186.617257 
L 484.506 186.515307 
L 485.064 186.515307 
L 485.064 186.404862 
L 485.064 185.682718 
L 486.18 185.665726 
L 486.18 185.572273 
L 486.18 185.198457 
L 486.738 185.198457 
L 486.738 185.088012 
L 486.738 184.935087 
L 488.412 184.850129 
L 488.412 184.824642 
L 488.412 182.182445 
L 490.644 182.114479 
L 490.644 182.072 
L 490.644 181.766151 
L 491.202 181.766151 
L 491.202 181.655705 
L 491.202 181.273394 
L 491.76 181.273394 
L 491.76 181.162948 
L 491.76 180.406822 
L 492.876 180.364342 
L 492.876 180.296376 
L 492.876 179.59972 
L 493.992 179.548745 
L 493.992 179.489274 
L 493.992 178.962534 
L 494.55 178.962534 
L 494.55 178.852089 
L 494.55 178.716156 
L 495.666 178.699164 
L 495.666 178.60571 
L 495.666 176.813095 
L 497.34 176.745128 
L 497.34 176.702649 
L 497.34 176.345825 
L 497.898 176.345825 
L 497.898 176.23538 
L 497.898 175.496245 
L 499.014 175.44527 
L 499.014 175.385799 
L 499.014 172.556695 
L 500.13 172.556695 
L 500.13 172.44625 
L 500.13 172.165888 
L 501.246 172.157392 
L 501.246 172.055443 
L 501.246 171.256837 
L 502.362 171.214358 
L 502.362 171.146391 
L 502.362 170.449735 
L 503.478 170.449735 
L 503.478 170.339289 
L 503.478 169.778566 
L 504.036 169.778566 
L 504.036 169.668121 
L 504.036 169.34528 
L 504.594 169.34528 
L 504.594 169.234834 
L 504.594 169.166868 
L 505.152 169.166868 
L 505.152 169.056422 
L 505.152 168.971464 
L 506.268 168.87801 
L 506.268 168.861019 
L 506.268 168.844027 
L 508.5 168.827036 
L 508.5 168.733582 
L 508.5 162.599609 
L 511.848 162.531642 
L 511.848 162.489163 
L 511.848 162.259776 
L 512.406 162.259776 
L 512.406 162.149331 
L 512.406 161.911448 
L 512.964 161.911448 
L 512.964 161.801003 
L 512.964 161.639582 
L 513.522 161.639582 
L 513.522 161.529137 
L 513.522 161.070363 
L 514.08 161.070363 
L 514.08 160.959918 
L 514.08 160.501144 
L 514.638 160.501144 
L 514.638 160.390699 
L 514.638 160.382203 
L 515.196 160.382203 
L 515.196 160.271757 
L 515.196 159.379697 
L 515.754 159.379697 
L 515.754 159.269252 
L 515.754 159.209781 
L 516.87 159.209781 
L 516.87 159.099336 
L 516.87 158.164797 
L 517.986 158.130814 
L 517.986 158.054351 
L 517.986 156.686526 
L 519.102 156.678031 
L 519.102 156.576081 
L 519.102 155.284718 
L 520.218 155.276222 
L 520.218 155.174273 
L 520.218 155.029844 
L 521.334 155.029844 
L 521.334 154.919398 
L 521.334 153.636531 
L 521.892 153.636531 
L 521.892 153.526086 
L 521.892 153.101296 
L 522.45 153.101296 
L 522.45 152.99085 
L 522.45 152.973858 
L 524.124 152.871909 
L 524.124 152.863413 
L 524.124 151.351159 
L 525.24 151.342663 
L 525.24 151.240714 
L 525.24 151.198235 
L 525.798 151.198235 
L 525.798 151.087789 
L 525.798 150.578041 
L 526.914 150.561049 
L 526.914 150.467595 
L 526.914 150.161746 
L 527.472 150.161746 
L 527.472 150.051301 
L 527.472 149.932359 
L 528.588 149.923863 
L 528.588 149.821914 
L 528.588 148.190719 
L 529.704 148.14824 
L 529.704 148.080273 
L 529.704 147.850886 
L 530.262 147.850886 
L 530.262 147.740441 
L 530.262 146.848381 
L 531.936 146.746431 
L 531.936 146.737936 
L 531.936 145.650472 
L 532.494 145.650472 
L 532.494 145.540027 
L 532.494 145.004791 
L 533.052 145.004791 
L 533.052 144.894345 
L 533.052 144.673454 
L 533.61 144.673454 
L 533.61 144.563009 
L 533.61 144.478051 
L 536.4 144.367605 
L 536.4 135.098679 
L 539.19 134.996729 
L 539.19 134.988234 
L 539.19 134.937259 
L 539.748 134.937259 
L 539.748 134.826813 
L 539.748 134.079182 
L 540.864 134.053695 
L 540.864 133.968737 
L 540.864 133.662888 
L 541.98 133.662888 
L 541.98 133.552442 
L 541.98 132.813307 
L 542.538 132.813307 
L 542.538 132.702861 
L 542.538 132.68587 
L 543.096 132.68587 
L 543.096 132.575424 
L 543.096 131.012196 
L 544.77 130.944229 
L 544.77 130.90175 
L 544.77 130.315539 
L 545.328 130.315539 
L 545.328 130.205094 
L 545.328 130.154119 
L 546.444 130.145623 
L 546.444 130.043673 
L 546.444 128.293537 
L 548.118 128.234066 
L 548.118 128.183092 
L 548.118 127.43546 
L 549.792 127.350502 
L 549.792 127.325015 
L 549.792 126.475434 
L 550.35 126.475434 
L 550.35 126.364989 
L 550.35 126.314014 
L 550.908 126.314014 
L 550.908 126.203568 
L 550.908 125.277525 
L 552.024 125.252038 
L 552.024 125.16708 
L 552.024 124.674323 
L 552.582 124.674323 
L 552.582 124.563877 
L 552.582 124.359978 
L 554.814 124.317499 
L 554.814 124.249533 
L 554.814 120.987142 
L 557.046 120.919176 
L 557.046 120.876697 
L 557.046 120.80873 
L 557.604 120.80873 
L 557.604 120.698285 
L 557.604 120.48589 
L 558.162 120.48589 
L 558.162 120.375444 
L 558.162 119.789234 
L 558.72 119.789234 
L 558.72 119.678788 
L 558.72 119.06709 
L 559.836 118.990628 
L 559.836 118.956644 
L 559.836 118.4384 
L 560.952 118.4384 
L 560.952 118.327955 
L 560.952 117.869181 
L 562.068 117.869181 
L 562.068 117.758736 
L 562.068 117.087567 
L 563.184 117.079071 
L 563.184 116.977121 
L 563.184 116.798709 
L 564.3 116.773222 
L 564.3 116.688264 
L 564.3 113.944118 
L 565.416 113.901639 
L 565.416 113.833672 
L 565.416 112.950108 
L 565.974 112.950108 
L 565.974 112.839663 
L 565.974 112.678243 
L 566.532 112.678243 
L 566.532 112.567797 
L 566.532 112.516822 
L 568.206 112.482839 
L 568.206 112.406377 
L 568.206 110.435349 
L 569.88 110.426853 
L 569.88 110.324904 
L 569.88 110.256937 
L 570.438 110.256937 
L 570.438 110.146492 
L 570.438 110.019055 
L 570.996 110.019055 
L 570.996 109.908609 
L 570.996 108.97407 
L 572.112 108.940087 
L 572.112 108.863625 
L 572.112 108.056523 
L 572.67 108.056523 
L 572.67 107.946078 
L 572.67 107.886607 
L 573.786 107.886607 
L 573.786 107.776161 
L 573.786 103.256392 
L 575.46 103.154442 
L 575.46 103.145946 
L 575.46 101.888567 
L 576.018 101.888567 
L 576.018 101.778121 
L 576.018 101.038986 
L 576.576 101.038986 
L 576.576 100.92854 
L 576.576 100.877566 
L 578.25 100.860574 
L 578.25 100.76712 
L 578.25 98.974505 
L 580.482 98.906538 
L 580.482 98.864059 
L 580.482 98.702639 
L 581.04 98.702639 
L 581.04 98.592193 
L 581.04 98.269353 
L 581.598 98.269353 
L 581.598 98.158907 
L 581.598 98.082445 
L 582.156 98.082445 
L 582.156 97.971999 
L 582.156 97.615175 
L 583.83 97.589688 
L 583.83 97.50473 
L 583.83 97.377293 
L 584.388 97.377293 
L 584.388 97.266847 
L 584.388 97.113923 
L 586.062 97.07994 
L 586.062 97.003477 
L 586.062 95.890527 
L 587.178 95.890527 
L 587.178 95.780081 
L 587.178 95.771585 
L 587.736 95.771585 
L 587.736 95.66114 
L 587.736 95.601669 
L 588.294 95.601669 
L 588.294 95.491224 
L 588.294 95.253341 
L 589.41 95.219358 
L 589.41 95.142895 
L 589.41 94.692618 
L 590.526 94.658634 
L 590.526 94.582172 
L 590.526 94.03844 
L 592.2 94.03844 
L 592.2 93.927995 
L 592.2 86.145835 
L 593.874 86.111852 
L 593.874 86.03539 
L 593.874 85.593608 
L 594.99 85.593608 
L 594.99 85.483162 
L 594.99 85.151826 
L 595.548 85.151826 
L 595.548 85.04138 
L 595.548 84.489153 
L 597.222 84.421186 
L 597.222 84.378707 
L 597.222 83.605589 
L 598.896 83.588597 
L 598.896 83.495143 
L 598.896 83.478151 
L 599.454 83.478151 
L 599.454 83.367706 
L 599.454 83.282748 
L 600.012 83.282748 
L 600.012 83.172302 
L 600.012 82.5691 
L 601.686 82.560604 
L 601.686 82.458655 
L 601.686 81.982889 
L 602.802 81.982889 
L 602.802 81.872444 
L 602.802 81.243754 
L 603.36 81.243754 
L 603.36 81.133309 
L 603.36 81.082334 
L 605.034 80.971888 
L 605.034 80.657543 
L 606.708 80.632056 
L 606.708 80.547098 
L 606.708 79.10281 
L 608.382 79.10281 
L 608.382 78.992365 
L 608.382 78.406154 
L 609.498 78.338188 
L 609.498 78.295709 
L 609.498 77.896406 
L 610.056 77.896406 
L 610.056 77.78596 
L 610.056 77.743481 
L 610.614 77.743481 
L 610.614 77.633036 
L 610.614 74.52357 
L 611.73 74.52357 
L 611.73 74.413125 
L 611.73 74.124267 
L 613.404 74.090284 
L 613.404 74.013822 
L 613.404 73.614519 
L 615.078 73.538056 
L 615.078 73.504073 
L 615.078 73.240703 
L 616.194 73.232207 
L 616.194 73.130258 
L 616.194 73.096274 
L 616.752 73.096274 
L 616.752 72.985829 
L 616.752 72.960342 
L 617.868 72.960342 
L 617.868 72.849896 
L 617.868 72.798921 
L 618.426 72.798921 
L 618.426 72.688476 
L 618.426 72.662988 
L 620.1 72.603518 
L 620.1 72.552543 
L 620.1 71.601012 
L 621.216 71.575525 
L 621.216 71.490567 
L 621.216 71.312155 
L 622.89 71.303659 
L 622.89 71.201709 
L 622.89 70.955331 
L 624.006 70.938339 
L 624.006 70.844885 
L 624.006 70.700457 
L 624.564 70.700457 
L 624.564 70.590011 
L 624.564 70.564524 
L 626.796 70.488061 
L 626.796 70.454078 
L 626.796 70.36912 
L 627.354 70.36912 
L 627.354 70.258675 
L 627.354 70.037784 
L 627.912 70.037784 
L 627.912 69.927338 
L 627.912 69.460069 
L 629.028 69.460069 
L 629.028 69.349623 
L 629.028 69.196699 
L 629.586 69.196699 
L 629.586 69.086253 
L 629.586 67.947815 
L 630.702 67.862857 
L 630.702 67.837369 
L 630.702 67.506033 
L 631.818 67.404083 
L 631.818 67.395587 
L 631.818 67.302134 
L 635.724 67.191688 
L 635.724 67.183192 
L 648 67.132217 
L 648 67.072747 
L 648 60.48 
L 648 60.48 
" clip-path="url(#p1f86321ec1)" style="fill: none; stroke-dasharray: 17.92,4.48,2.8,4.48; stroke-dashoffset: 0; stroke: #2ca02c; stroke-width: 2.8"/>
   </g>
   <g id="line2d_16">
    <path d="M 129.618 448.56 
L 129.618 446.023529 
L 136.314 446.023529 
L 136.314 430.804706 
L 140.778 430.804706 
L 140.778 415.585882 
L 143.01 415.585882 
L 143.01 395.294118 
L 147.474 395.294118 
L 147.474 390.221176 
L 156.96 390.221176 
L 156.96 377.538824 
L 162.54 377.538824 
L 162.54 364.856471 
L 165.888 364.856471 
L 165.888 359.783529 
L 169.794 359.783529 
L 169.794 352.174118 
L 173.7 352.174118 
L 173.7 347.101176 
L 175.932 347.101176 
L 175.932 336.955294 
L 178.164 336.955294 
L 178.164 321.736471 
L 183.186 321.736471 
L 183.186 314.127059 
L 187.092 314.127059 
L 187.092 306.517647 
L 188.208 306.517647 
L 188.208 263.397647 
L 193.23 263.397647 
L 193.23 258.324706 
L 194.904 258.324706 
L 194.904 245.642353 
L 196.02 245.642353 
L 196.02 243.105882 
L 201.6 243.105882 
L 201.6 238.032941 
L 206.064 238.032941 
L 206.064 225.350588 
L 207.738 225.350588 
L 207.738 220.277647 
L 213.876 220.277647 
L 213.876 169.548235 
L 221.13 169.548235 
L 221.13 136.574118 
L 222.804 136.574118 
L 222.804 134.037647 
L 229.5 134.037647 
L 229.5 128.964706 
L 236.754 128.964706 
L 236.754 106.136471 
L 245.124 106.136471 
L 245.124 88.381176 
L 255.168 88.381176 
L 255.168 83.308235 
L 257.4 83.308235 
L 257.4 75.698824 
L 266.328 75.698824 
L 266.328 65.552941 
L 275.814 65.552941 
L 275.814 63.016471 
L 285.3 63.016471 
L 285.3 60.48 
L 285.3 60.48 
" clip-path="url(#p1f86321ec1)" style="fill: none; stroke: #000000; stroke-width: 2.8; stroke-linecap: round"/>
   </g>
   <g id="patch_3">
    <path d="M 90 448.56 
L 90 60.48 
" style="fill: none; stroke: #262626; stroke-width: 1.25; stroke-linejoin: miter; stroke-linecap: square"/>
   </g>
   <g id="patch_4">
    <path d="M 648 448.56 
L 648 60.48 
" style="fill: none; stroke: #262626; stroke-width: 1.25; stroke-linejoin: miter; stroke-linecap: square"/>
   </g>
   <g id="patch_5">
    <path d="M 90 448.56 
L 648 448.56 
" style="fill: none; stroke: #262626; stroke-width: 1.25; stroke-linejoin: miter; stroke-linecap: square"/>
   </g>
   <g id="patch_6">
    <path d="M 90 60.48 
L 648 60.48 
" style="fill: none; stroke: #262626; stroke-width: 1.25; stroke-linejoin: miter; stroke-linecap: square"/>
   </g>
   <g id="text_15">
    <text style="fill: #262626; font: 25px 'Arial', 'Liberation Sans', 'DejaVu Sans', 'Bitstream Vera Sans', sans-serif; text-anchor: middle" x="369" y="54.48" transform="rotate(-0 369 54.48)">Distribution of FCsp3</text>
   </g>
   <g id="legend_1">
    <g id="text_16">
     <text style="fill: #262626; font: 20px 'Arial', 'Liberation Sans', 'DejaVu Sans', 'Bitstream Vera Sans', sans-serif; text-anchor: start" x="535.136719" y="346.037344" transform="rotate(-0 535.136719 346.037344)">DataSet</text>
    </g>
    <g id="line2d_17">
     <path d="M 508.035937 362.999063 
L 523.035938 362.999063 
L 523.035938 362.999063 
L 538.035938 362.999063 
L 538.035938 362.999063 
" style="fill: none; stroke-dasharray: 10.36,4.48; stroke-dashoffset: 0; stroke: #1f77b4; stroke-width: 2.8"/>
    </g>
    <g id="text_17">
     <text style="fill: #262626; font: 15px 'Arial', 'Liberation Sans', 'DejaVu Sans', 'Bitstream Vera Sans', sans-serif; text-anchor: start" x="550.035938" y="368.249063" transform="rotate(-0 550.035938 368.249063)">Enamine</text>
    </g>
    <g id="line2d_18">
     <path d="M 508.035937 384.217031 
L 523.035938 384.217031 
L 523.035938 384.217031 
L 538.035938 384.217031 
L 538.035938 384.217031 
" style="fill: none; stroke-dasharray: 2.8,4.62; stroke-dashoffset: 0; stroke: #ff7f0e; stroke-width: 2.8"/>
    </g>
    <g id="text_18">
     <text style="fill: #262626; font: 15px 'Arial', 'Liberation Sans', 'DejaVu Sans', 'Bitstream Vera Sans', sans-serif; text-anchor: start" x="550.035938" y="389.467031" transform="rotate(-0 550.035938 389.467031)">DrugBank</text>
    </g>
    <g id="line2d_19">
     <path d="M 508.035937 405.610781 
L 523.035938 405.610781 
L 523.035938 405.610781 
L 538.035938 405.610781 
L 538.035938 405.610781 
" style="fill: none; stroke-dasharray: 17.92,4.48,2.8,4.48; stroke-dashoffset: 0; stroke: #2ca02c; stroke-width: 2.8"/>
    </g>
    <g id="text_19">
     <text style="fill: #262626; font: 15px 'Arial', 'Liberation Sans', 'DejaVu Sans', 'Bitstream Vera Sans', sans-serif; text-anchor: start" x="550.035938" y="410.860781" transform="rotate(-0 550.035938 410.860781)">ChEMBL NP</text>
    </g>
    <g id="line2d_20">
     <path d="M 508.035937 426.82875 
L 523.035938 426.82875 
L 523.035938 426.82875 
L 538.035938 426.82875 
L 538.035938 426.82875 
" style="fill: none; stroke: #000000; stroke-width: 2.8; stroke-linecap: round"/>
    </g>
    <g id="text_20">
     <text style="fill: #262626; font: 15px 'Arial', 'Liberation Sans', 'DejaVu Sans', 'Bitstream Vera Sans', sans-serif; text-anchor: start" x="550.035938" y="432.07875" transform="rotate(-0 550.035938 432.07875)">PNPs</text>
    </g>
   </g>
  </g>
 </g>
 <defs>
  <clipPath id="p1f86321ec1">
   <rect x="90" y="60.48" width="558" height="388.08"/>
  </clipPath>
 </defs>
</svg>
