<?xml version="1.0" encoding="utf-8" standalone="no"?>
<!DOCTYPE svg PUBLIC "-//W3C//DTD SVG 1.1//EN"
  "http://www.w3.org/Graphics/SVG/1.1/DTD/svg11.dtd">
<svg xmlns:xlink="http://www.w3.org/1999/xlink" width="720pt" height="504pt" viewBox="0 0 720 504" xmlns="http://www.w3.org/2000/svg" version="1.1">
 <metadata>
  <rdf:RDF xmlns:dc="http://purl.org/dc/elements/1.1/" xmlns:cc="http://creativecommons.org/ns#" xmlns:rdf="http://www.w3.org/1999/02/22-rdf-syntax-ns#">
   <cc:Work>
    <dc:type rdf:resource="http://purl.org/dc/dcmitype/StillImage"/>
    <dc:date>2023-05-25T14:34:04.856225</dc:date>
    <dc:format>image/svg+xml</dc:format>
    <dc:creator>
     <cc:Agent>
      <dc:title>Matplotlib v3.6.3, https://matplotlib.org/</dc:title>
     </cc:Agent>
    </dc:creator>
   </cc:Work>
  </rdf:RDF>
 </metadata>
 <defs>
  <style type="text/css">*{stroke-linejoin: round; stroke-linecap: butt}</style>
 </defs>
 <g id="figure_1">
  <g id="patch_1">
   <path d="M 0 504 
L 720 504 
L 720 0 
L 0 0 
z
" style="fill: #ffffff"/>
  </g>
  <g id="axes_1">
   <g id="patch_2">
    <path d="M 90 448.56 
L 648 448.56 
L 648 60.48 
L 90 60.48 
z
" style="fill: #ffffff"/>
   </g>
   <g id="matplotlib.axis_1">
    <g id="xtick_1">
     <g id="line2d_1"/>
     <g id="text_1">
      <text style="fill: #262626; font: 20px 'Arial', 'Liberation Sans', 'DejaVu Sans', 'Bitstream Vera Sans', sans-serif; text-anchor: middle" x="145.8" y="474.075625" transform="rotate(-0 145.8 474.075625)">−4</text>
     </g>
    </g>
    <g id="xtick_2">
     <g id="line2d_2"/>
     <g id="text_2">
      <text style="fill: #262626; font: 20px 'Arial', 'Liberation Sans', 'DejaVu Sans', 'Bitstream Vera Sans', sans-serif; text-anchor: middle" x="257.4" y="474.075625" transform="rotate(-0 257.4 474.075625)">−2</text>
     </g>
    </g>
    <g id="xtick_3">
     <g id="line2d_3"/>
     <g id="text_3">
      <text style="fill: #262626; font: 20px 'Arial', 'Liberation Sans', 'DejaVu Sans', 'Bitstream Vera Sans', sans-serif; text-anchor: middle" x="369" y="474.075625" transform="rotate(-0 369 474.075625)">0</text>
     </g>
    </g>
    <g id="xtick_4">
     <g id="line2d_4"/>
     <g id="text_4">
      <text style="fill: #262626; font: 20px 'Arial', 'Liberation Sans', 'DejaVu Sans', 'Bitstream Vera Sans', sans-serif; text-anchor: middle" x="480.6" y="474.075625" transform="rotate(-0 480.6 474.075625)">2</text>
     </g>
    </g>
    <g id="xtick_5">
     <g id="line2d_5"/>
     <g id="text_5">
      <text style="fill: #262626; font: 20px 'Arial', 'Liberation Sans', 'DejaVu Sans', 'Bitstream Vera Sans', sans-serif; text-anchor: middle" x="592.2" y="474.075625" transform="rotate(-0 592.2 474.075625)">4</text>
     </g>
    </g>
    <g id="text_6">
     <text style="fill: #262626; font: 25px 'Arial', 'Liberation Sans', 'DejaVu Sans', 'Bitstream Vera Sans', sans-serif; text-anchor: middle" x="369" y="499.945156" transform="rotate(-0 369 499.945156)">NP_Like</text>
    </g>
   </g>
   <g id="matplotlib.axis_2">
    <g id="ytick_1">
     <g id="line2d_6"/>
     <g id="text_7">
      <text style="fill: #262626; font: 20px 'Arial', 'Liberation Sans', 'DejaVu Sans', 'Bitstream Vera Sans', sans-serif; text-anchor: end" x="78.8" y="455.717813" transform="rotate(-0 78.8 455.717813)">0.0</text>
     </g>
    </g>
    <g id="ytick_2">
     <g id="line2d_7"/>
     <g id="text_8">
      <text style="fill: #262626; font: 20px 'Arial', 'Liberation Sans', 'DejaVu Sans', 'Bitstream Vera Sans', sans-serif; text-anchor: end" x="78.8" y="378.101813" transform="rotate(-0 78.8 378.101813)">0.2</text>
     </g>
    </g>
    <g id="ytick_3">
     <g id="line2d_8"/>
     <g id="text_9">
      <text style="fill: #262626; font: 20px 'Arial', 'Liberation Sans', 'DejaVu Sans', 'Bitstream Vera Sans', sans-serif; text-anchor: end" x="78.8" y="300.485813" transform="rotate(-0 78.8 300.485813)">0.4</text>
     </g>
    </g>
    <g id="ytick_4">
     <g id="line2d_9"/>
     <g id="text_10">
      <text style="fill: #262626; font: 20px 'Arial', 'Liberation Sans', 'DejaVu Sans', 'Bitstream Vera Sans', sans-serif; text-anchor: end" x="78.8" y="222.869812" transform="rotate(-0 78.8 222.869812)">0.6</text>
     </g>
    </g>
    <g id="ytick_5">
     <g id="line2d_10"/>
     <g id="text_11">
      <text style="fill: #262626; font: 20px 'Arial', 'Liberation Sans', 'DejaVu Sans', 'Bitstream Vera Sans', sans-serif; text-anchor: end" x="78.8" y="145.253812" transform="rotate(-0 78.8 145.253812)">0.8</text>
     </g>
    </g>
    <g id="ytick_6">
     <g id="line2d_11"/>
     <g id="text_12">
      <text style="fill: #262626; font: 20px 'Arial', 'Liberation Sans', 'DejaVu Sans', 'Bitstream Vera Sans', sans-serif; text-anchor: end" x="78.8" y="67.637812" transform="rotate(-0 78.8 67.637812)">1.0</text>
     </g>
    </g>
    <g id="text_13">
     <text style="fill: #262626; font: 25px 'Arial', 'Liberation Sans', 'DejaVu Sans', 'Bitstream Vera Sans', sans-serif; text-anchor: middle" x="42.03125" y="254.52" transform="rotate(-90 42.03125 254.52)">Proportion</text>
    </g>
   </g>
   <g id="line2d_12">
    <path d="M 171.468 448.56 
L 171.468 448.552238 
L 190.998 448.443576 
L 190.998 448.420291 
L 196.578 448.311629 
L 196.578 448.288344 
L 201.042 448.179682 
L 201.042 448.17192 
L 203.832 448.086542 
L 203.832 448.063258 
L 203.832 448.055496 
L 205.506 447.970118 
L 205.506 447.946834 
L 205.506 447.923549 
L 207.18 447.83041 
L 207.18 447.814886 
L 207.18 447.776078 
L 208.296 447.706224 
L 208.296 447.667416 
L 208.296 447.63637 
L 209.412 447.566515 
L 209.412 447.527707 
L 209.412 447.504422 
L 210.528 447.419045 
L 210.528 447.39576 
L 210.528 447.325906 
L 211.086 447.325906 
L 211.086 447.217243 
L 211.086 447.15515 
L 212.202 447.108581 
L 212.202 447.046488 
L 212.202 447.038726 
L 213.318 446.976634 
L 213.318 446.930064 
L 213.318 446.914541 
L 214.434 446.844686 
L 214.434 446.805878 
L 214.434 446.751547 
L 214.992 446.751547 
L 214.992 446.642885 
L 214.992 446.635123 
L 216.108 446.565269 
L 216.108 446.526461 
L 216.108 446.441083 
L 216.666 446.441083 
L 216.666 446.332421 
L 216.666 446.301374 
L 217.224 446.301374 
L 217.224 446.192712 
L 217.224 446.18495 
L 218.34 446.08405 
L 218.34 446.076288 
L 218.34 445.913294 
L 218.898 445.913294 
L 218.898 445.804632 
L 218.898 445.773586 
L 219.456 445.773586 
L 219.456 445.664923 
L 219.456 445.633877 
L 220.014 445.633877 
L 220.014 445.525214 
L 220.014 445.50193 
L 220.572 445.50193 
L 220.572 445.393267 
L 220.572 445.323413 
L 221.13 445.323413 
L 221.13 445.21475 
L 221.13 445.098326 
L 221.688 445.098326 
L 221.688 444.989664 
L 221.688 444.896525 
L 222.246 444.896525 
L 222.246 444.787862 
L 222.246 444.710246 
L 222.804 444.710246 
L 222.804 444.601584 
L 222.804 444.48516 
L 223.362 444.48516 
L 223.362 444.376498 
L 223.362 444.24455 
L 223.92 444.24455 
L 223.92 444.135888 
L 223.92 444.027226 
L 224.478 444.027226 
L 224.478 443.918563 
L 224.478 443.864232 
L 225.036 443.864232 
L 225.036 443.75557 
L 225.036 443.646907 
L 225.594 443.646907 
L 225.594 443.538245 
L 225.594 443.437344 
L 226.152 443.437344 
L 226.152 443.328682 
L 226.152 443.227781 
L 226.71 443.227781 
L 226.71 443.119118 
L 226.71 442.963886 
L 227.268 442.963886 
L 227.268 442.855224 
L 227.268 442.762085 
L 227.826 442.762085 
L 227.826 442.653422 
L 227.826 442.420574 
L 228.384 442.420574 
L 228.384 442.311912 
L 228.384 442.187726 
L 228.942 442.187726 
L 228.942 442.079064 
L 228.942 441.861739 
L 229.5 441.861739 
L 229.5 441.753077 
L 229.5 441.535752 
L 230.058 441.535752 
L 230.058 441.42709 
L 230.058 441.271858 
L 230.616 441.271858 
L 230.616 441.163195 
L 230.616 440.829446 
L 231.174 440.829446 
L 231.174 440.720784 
L 231.174 440.449128 
L 231.732 440.449128 
L 231.732 440.340466 
L 231.732 440.045525 
L 232.29 440.045525 
L 232.29 439.936862 
L 232.29 439.641922 
L 232.848 439.641922 
L 232.848 439.533259 
L 232.848 439.176226 
L 233.406 439.176226 
L 233.406 439.067563 
L 233.406 438.757099 
L 233.964 438.757099 
L 233.964 438.648437 
L 233.964 438.213787 
L 234.522 438.213787 
L 234.522 438.105125 
L 234.522 437.817946 
L 235.08 437.817946 
L 235.08 437.709283 
L 235.08 437.336726 
L 235.638 437.336726 
L 235.638 437.228064 
L 235.638 436.863269 
L 236.196 436.863269 
L 236.196 436.754606 
L 236.196 436.52952 
L 236.754 436.52952 
L 236.754 436.420858 
L 236.754 436.017254 
L 237.312 436.017254 
L 237.312 435.908592 
L 237.312 435.404088 
L 237.87 435.404088 
L 237.87 435.295426 
L 237.87 434.891822 
L 238.428 434.891822 
L 238.428 434.78316 
L 238.428 434.387318 
L 238.986 434.387318 
L 238.986 434.278656 
L 238.986 433.921622 
L 239.544 433.921622 
L 239.544 433.81296 
L 239.544 433.370549 
L 240.102 433.370549 
L 240.102 433.261886 
L 240.102 432.79619 
L 240.66 432.79619 
L 240.66 432.687528 
L 240.66 432.183024 
L 241.218 432.183024 
L 241.218 432.074362 
L 241.218 431.569858 
L 241.776 431.569858 
L 241.776 431.461195 
L 241.776 430.863552 
L 242.334 430.863552 
L 242.334 430.75489 
L 242.334 430.071869 
L 242.892 430.071869 
L 242.892 429.963206 
L 242.892 429.427656 
L 243.45 429.427656 
L 243.45 429.318994 
L 243.45 428.635973 
L 244.008 428.635973 
L 244.008 428.52731 
L 244.008 427.852051 
L 244.566 427.852051 
L 244.566 427.743389 
L 244.566 427.161269 
L 245.124 427.161269 
L 245.124 427.052606 
L 245.124 426.167784 
L 245.682 426.167784 
L 245.682 426.059122 
L 245.682 425.2752 
L 246.24 425.2752 
L 246.24 425.166538 
L 246.24 424.429186 
L 246.798 424.429186 
L 246.798 424.320523 
L 246.798 423.637502 
L 247.356 423.637502 
L 247.356 423.52884 
L 247.356 422.70611 
L 247.914 422.70611 
L 247.914 422.597448 
L 247.914 421.898904 
L 248.472 421.898904 
L 248.472 421.790242 
L 248.472 420.975274 
L 249.03 420.975274 
L 249.03 420.866611 
L 249.03 419.98955 
L 249.588 419.98955 
L 249.588 419.880888 
L 249.588 419.174582 
L 250.146 419.174582 
L 250.146 419.06592 
L 250.146 418.041389 
L 250.704 418.041389 
L 250.704 417.932726 
L 250.704 417.117758 
L 251.262 417.117758 
L 251.262 417.009096 
L 251.262 415.883664 
L 251.82 415.883664 
L 251.82 415.775002 
L 251.82 414.84361 
L 252.378 414.84361 
L 252.378 414.734947 
L 252.378 413.795794 
L 252.936 413.795794 
L 252.936 413.687131 
L 252.936 412.538414 
L 253.494 412.538414 
L 253.494 412.429752 
L 253.494 411.638069 
L 254.052 411.638069 
L 254.052 411.529406 
L 254.052 410.559206 
L 254.61 410.559206 
L 254.61 410.450544 
L 254.61 409.340635 
L 255.168 409.340635 
L 255.168 409.231973 
L 255.168 408.160872 
L 255.726 408.160872 
L 255.726 408.05221 
L 255.726 406.833638 
L 256.284 406.833638 
L 256.284 406.724976 
L 256.284 405.560736 
L 256.842 405.560736 
L 256.842 405.452074 
L 256.842 404.27231 
L 257.4 404.27231 
L 257.4 404.163648 
L 257.4 402.727752 
L 257.958 402.727752 
L 257.958 402.61909 
L 257.958 401.439326 
L 258.516 401.439326 
L 258.516 401.330664 
L 258.516 400.073285 
L 259.074 400.073285 
L 259.074 399.964622 
L 259.074 398.668435 
L 259.632 398.668435 
L 259.632 398.559773 
L 259.632 397.372248 
L 260.19 397.372248 
L 260.19 397.263586 
L 260.19 395.897544 
L 260.748 395.897544 
L 260.748 395.788882 
L 260.748 394.345224 
L 261.306 394.345224 
L 261.306 394.236562 
L 261.306 392.82395 
L 261.864 392.82395 
L 261.864 392.715288 
L 261.864 391.27163 
L 262.422 391.27163 
L 262.422 391.162968 
L 262.422 389.696026 
L 262.98 389.696026 
L 262.98 389.587363 
L 262.98 388.182514 
L 263.538 388.182514 
L 263.538 388.073851 
L 263.538 386.381822 
L 264.096 386.381822 
L 264.096 386.27316 
L 264.096 384.596654 
L 264.654 384.596654 
L 264.654 384.487992 
L 264.654 383.059858 
L 265.212 383.059858 
L 265.212 382.951195 
L 265.212 381.235882 
L 265.77 381.235882 
L 265.77 381.127219 
L 265.77 379.349813 
L 266.328 379.349813 
L 266.328 379.24115 
L 266.328 377.455982 
L 266.886 377.455982 
L 266.886 377.34732 
L 266.886 375.74843 
L 267.444 375.74843 
L 267.444 375.639768 
L 267.444 374.033117 
L 268.002 374.033117 
L 268.002 373.924454 
L 268.002 372.162571 
L 268.56 372.162571 
L 268.56 372.053909 
L 268.56 370.377403 
L 269.118 370.377403 
L 269.118 370.268741 
L 269.118 368.343864 
L 269.676 368.343864 
L 269.676 368.235202 
L 269.676 366.558696 
L 270.234 366.558696 
L 270.234 366.450034 
L 270.234 364.563965 
L 270.792 364.563965 
L 270.792 364.455302 
L 270.792 362.576995 
L 271.35 362.576995 
L 271.35 362.468333 
L 271.35 360.543456 
L 271.908 360.543456 
L 271.908 360.434794 
L 271.908 358.610818 
L 272.466 358.610818 
L 272.466 358.502155 
L 272.466 356.623848 
L 273.024 356.623848 
L 273.024 356.515186 
L 273.024 354.520454 
L 273.582 354.520454 
L 273.582 354.411792 
L 273.582 352.471392 
L 274.14 352.471392 
L 274.14 352.36273 
L 274.14 350.577562 
L 274.698 350.577562 
L 274.698 350.468899 
L 274.698 348.326698 
L 275.256 348.326698 
L 275.256 348.218035 
L 275.256 346.083595 
L 275.814 346.083595 
L 275.814 345.974933 
L 275.814 343.73183 
L 276.372 343.73183 
L 276.372 343.623168 
L 276.372 341.434397 
L 276.93 341.434397 
L 276.93 341.325734 
L 276.93 339.36205 
L 277.488 339.36205 
L 277.488 339.253387 
L 277.488 337.266418 
L 278.046 337.266418 
L 278.046 337.157755 
L 278.046 334.984507 
L 278.604 334.984507 
L 278.604 334.875845 
L 278.604 332.687074 
L 279.162 332.687074 
L 279.162 332.578411 
L 279.162 330.506064 
L 279.72 330.506064 
L 279.72 330.397402 
L 279.72 328.146538 
L 280.278 328.146538 
L 280.278 328.037875 
L 280.278 325.693872 
L 280.836 325.693872 
L 280.836 325.58521 
L 280.836 323.567194 
L 281.394 323.567194 
L 281.394 323.458531 
L 281.394 321.308568 
L 281.952 321.308568 
L 281.952 321.199906 
L 281.952 318.809333 
L 282.51 318.809333 
L 282.51 318.70067 
L 282.51 316.457568 
L 283.068 316.457568 
L 283.068 316.348906 
L 283.068 314.144611 
L 283.626 314.144611 
L 283.626 314.035949 
L 283.626 311.7618 
L 284.184 311.7618 
L 284.184 311.653138 
L 284.184 309.541982 
L 284.742 309.541982 
L 284.742 309.43332 
L 284.742 307.042747 
L 285.3 307.042747 
L 285.3 306.934085 
L 285.3 304.613366 
L 285.858 304.613366 
L 285.858 304.504704 
L 285.858 302.191747 
L 286.416 302.191747 
L 286.416 302.083085 
L 286.416 299.607134 
L 286.974 299.607134 
L 286.974 299.498472 
L 286.974 297.201038 
L 287.532 297.201038 
L 287.532 297.092376 
L 287.532 294.888082 
L 288.09 294.888082 
L 288.09 294.779419 
L 288.09 292.481986 
L 288.648 292.481986 
L 288.648 292.373323 
L 288.648 290.114698 
L 289.206 290.114698 
L 289.206 290.006035 
L 289.206 287.499038 
L 289.764 287.499038 
L 289.764 287.390376 
L 289.764 284.922187 
L 290.322 284.922187 
L 290.322 284.813525 
L 290.322 282.453998 
L 290.88 282.453998 
L 290.88 282.345336 
L 290.88 280.102234 
L 291.438 280.102234 
L 291.438 279.993571 
L 291.438 277.509859 
L 291.996 277.509859 
L 291.996 277.401197 
L 291.996 275.189141 
L 292.554 275.189141 
L 292.554 275.080478 
L 292.554 272.705429 
L 293.112 272.705429 
L 293.112 272.596766 
L 293.112 270.0432 
L 293.67 270.0432 
L 293.67 269.934538 
L 293.67 267.66815 
L 294.228 267.66815 
L 294.228 267.559488 
L 294.228 264.819643 
L 294.786 264.819643 
L 294.786 264.710981 
L 294.786 262.2816 
L 295.344 262.2816 
L 295.344 262.172938 
L 295.344 259.75908 
L 295.902 259.75908 
L 295.902 259.650418 
L 295.902 257.205514 
L 296.46 257.205514 
L 296.46 257.096851 
L 296.46 254.939126 
L 297.018 254.939126 
L 297.018 254.830464 
L 297.018 252.525269 
L 297.576 252.525269 
L 297.576 252.416606 
L 297.576 250.072603 
L 298.134 250.072603 
L 298.134 249.963941 
L 298.134 247.7286 
L 298.692 247.7286 
L 298.692 247.619938 
L 298.692 245.384597 
L 299.25 245.384597 
L 299.25 245.275934 
L 299.25 243.087163 
L 299.808 243.087163 
L 299.808 242.978501 
L 299.808 240.525835 
L 300.366 240.525835 
L 300.366 240.417173 
L 300.366 238.07317 
L 300.924 238.07317 
L 300.924 237.964507 
L 300.924 235.612742 
L 301.482 235.612742 
L 301.482 235.50408 
L 301.482 233.237693 
L 302.04 233.237693 
L 302.04 233.12903 
L 302.04 230.979067 
L 302.598 230.979067 
L 302.598 230.870405 
L 302.598 228.720442 
L 303.156 228.720442 
L 303.156 228.611779 
L 303.156 225.972835 
L 303.714 225.972835 
L 303.714 225.864173 
L 303.714 223.644355 
L 304.272 223.644355 
L 304.272 223.535693 
L 304.272 221.168405 
L 304.83 221.168405 
L 304.83 221.059742 
L 304.83 218.707978 
L 305.388 218.707978 
L 305.388 218.599315 
L 305.388 216.263074 
L 305.946 216.263074 
L 305.946 216.154411 
L 305.946 213.942355 
L 306.504 213.942355 
L 306.504 213.833693 
L 306.504 211.44312 
L 307.062 211.44312 
L 307.062 211.334458 
L 307.062 209.200018 
L 307.62 209.200018 
L 307.62 209.091355 
L 307.62 206.716306 
L 308.178 206.716306 
L 308.178 206.607643 
L 308.178 204.449918 
L 308.736 204.449918 
L 308.736 204.341256 
L 308.736 202.191293 
L 309.294 202.191293 
L 309.294 202.08263 
L 309.294 199.909382 
L 309.852 199.909382 
L 309.852 199.80072 
L 309.852 197.914651 
L 310.41 197.914651 
L 310.41 197.805989 
L 310.41 195.314515 
L 310.968 195.314515 
L 310.968 195.205853 
L 310.968 192.993797 
L 311.526 192.993797 
L 311.526 192.885134 
L 311.526 190.859357 
L 312.084 190.859357 
L 312.084 190.750694 
L 312.084 188.507592 
L 312.642 188.507592 
L 312.642 188.39893 
L 312.642 186.388675 
L 313.2 186.388675 
L 313.2 186.280013 
L 313.2 184.269758 
L 313.758 184.269758 
L 313.758 184.161096 
L 313.758 181.972325 
L 314.316 181.972325 
L 314.316 181.863662 
L 314.316 179.76803 
L 314.874 179.76803 
L 314.874 179.659368 
L 314.874 177.718968 
L 315.432 177.718968 
L 315.432 177.610306 
L 315.432 175.59229 
L 315.99 175.59229 
L 315.99 175.483627 
L 315.99 173.419042 
L 316.548 173.419042 
L 316.548 173.310379 
L 316.548 171.393264 
L 317.106 171.393264 
L 317.106 171.284602 
L 317.106 169.476149 
L 317.664 169.476149 
L 317.664 169.367486 
L 317.664 167.388278 
L 318.222 167.388278 
L 318.222 167.279616 
L 318.222 165.378024 
L 318.78 165.378024 
L 318.78 165.269362 
L 318.78 163.336723 
L 319.338 163.336723 
L 319.338 163.228061 
L 319.338 161.450654 
L 319.896 161.450654 
L 319.896 161.341992 
L 319.896 159.618917 
L 320.454 159.618917 
L 320.454 159.510254 
L 320.454 157.616424 
L 321.012 157.616424 
L 321.012 157.507762 
L 321.012 155.823494 
L 321.57 155.823494 
L 321.57 155.714832 
L 321.57 153.906379 
L 322.128 153.906379 
L 322.128 153.797717 
L 322.128 151.740893 
L 322.686 151.740893 
L 322.686 151.63223 
L 322.686 149.777208 
L 323.244 149.777208 
L 323.244 149.668546 
L 323.244 148.178318 
L 323.802 148.178318 
L 323.802 148.069656 
L 323.802 146.494051 
L 324.36 146.494051 
L 324.36 146.385389 
L 324.36 144.778738 
L 324.918 144.778738 
L 324.918 144.670075 
L 324.918 143.148802 
L 325.476 143.148802 
L 325.476 143.040139 
L 325.476 141.580958 
L 326.034 141.580958 
L 326.034 141.472296 
L 326.034 139.826837 
L 326.592 139.826837 
L 326.592 139.718174 
L 326.592 138.14257 
L 327.15 138.14257 
L 327.15 138.033907 
L 327.15 136.504872 
L 327.708 136.504872 
L 327.708 136.39621 
L 327.708 134.828366 
L 328.266 134.828366 
L 328.266 134.719704 
L 328.266 133.322616 
L 328.824 133.322616 
L 328.824 133.213954 
L 328.824 131.816866 
L 329.382 131.816866 
L 329.382 131.708203 
L 329.382 130.171406 
L 329.94 130.171406 
L 329.94 130.062744 
L 329.94 128.73551 
L 330.498 128.73551 
L 330.498 128.626848 
L 330.498 127.22976 
L 331.056 127.22976 
L 331.056 127.121098 
L 331.056 125.817149 
L 331.614 125.817149 
L 331.614 125.708486 
L 331.614 124.435584 
L 332.172 124.435584 
L 332.172 124.326922 
L 332.172 123.100589 
L 332.73 123.100589 
L 332.73 122.991926 
L 332.73 121.656931 
L 333.288 121.656931 
L 333.288 121.548269 
L 333.288 120.384029 
L 333.846 120.384029 
L 333.846 120.275366 
L 333.846 119.134411 
L 334.404 119.134411 
L 334.404 119.025749 
L 334.404 117.745085 
L 334.962 117.745085 
L 334.962 117.636422 
L 334.962 116.487706 
L 335.52 116.487706 
L 335.52 116.379043 
L 335.52 115.113902 
L 336.078 115.113902 
L 336.078 115.00524 
L 336.078 113.802192 
L 336.636 113.802192 
L 336.636 113.69353 
L 336.636 112.575859 
L 337.194 112.575859 
L 337.194 112.467197 
L 337.194 111.287434 
L 337.752 111.287434 
L 337.752 111.178771 
L 337.752 110.138717 
L 338.31 110.138717 
L 338.31 110.030054 
L 338.31 108.974477 
L 338.868 108.974477 
L 338.868 108.865814 
L 338.868 107.732621 
L 339.426 107.732621 
L 339.426 107.623958 
L 339.426 106.66152 
L 339.984 106.66152 
L 339.984 106.552858 
L 339.984 105.505042 
L 340.542 105.505042 
L 340.542 105.396379 
L 340.542 104.464987 
L 341.1 104.464987 
L 341.1 104.356325 
L 341.1 103.564642 
L 341.658 103.564642 
L 341.658 103.455979 
L 341.658 102.478018 
L 342.216 102.478018 
L 342.216 102.369355 
L 342.216 101.414678 
L 342.774 101.414678 
L 342.774 101.306016 
L 342.774 100.374624 
L 343.332 100.374624 
L 343.332 100.265962 
L 343.332 99.342331 
L 343.89 99.342331 
L 343.89 99.233669 
L 343.89 98.333323 
L 344.448 98.333323 
L 344.448 98.224661 
L 344.448 97.417454 
L 345.006 97.417454 
L 345.006 97.308792 
L 345.006 96.486062 
L 345.564 96.486062 
L 345.564 96.3774 
L 345.564 95.585717 
L 346.122 95.585717 
L 346.122 95.477054 
L 346.122 94.522378 
L 346.68 94.522378 
L 346.68 94.413715 
L 346.68 93.684125 
L 347.238 93.684125 
L 347.238 93.575462 
L 347.238 92.939011 
L 347.796 92.939011 
L 347.796 92.830349 
L 347.796 92.015381 
L 348.354 92.015381 
L 348.354 91.906718 
L 348.354 91.115035 
L 348.912 91.115035 
L 348.912 91.006373 
L 348.912 90.400968 
L 349.47 90.400968 
L 349.47 90.292306 
L 349.47 89.593762 
L 350.028 89.593762 
L 350.028 89.485099 
L 350.028 88.817602 
L 350.586 88.817602 
L 350.586 88.708939 
L 350.586 88.173389 
L 351.144 88.173389 
L 351.144 88.064726 
L 351.144 87.505891 
L 351.702 87.505891 
L 351.702 87.397229 
L 351.702 86.768539 
L 352.26 86.768539 
L 352.26 86.659877 
L 352.26 86.085518 
L 352.818 86.085518 
L 352.818 85.976856 
L 352.818 85.410259 
L 353.376 85.410259 
L 353.376 85.301597 
L 353.376 84.750523 
L 353.934 84.750523 
L 353.934 84.641861 
L 353.934 83.974363 
L 354.492 83.974363 
L 354.492 83.865701 
L 354.492 83.446574 
L 355.05 83.446574 
L 355.05 83.337912 
L 355.05 82.848931 
L 355.608 82.848931 
L 355.608 82.740269 
L 355.608 82.228003 
L 356.166 82.228003 
L 356.166 82.119341 
L 356.166 81.754546 
L 356.724 81.754546 
L 356.724 81.645883 
L 356.724 81.149141 
L 357.282 81.149141 
L 357.282 81.040478 
L 357.282 80.605829 
L 357.84 80.605829 
L 357.84 80.497166 
L 357.84 79.969378 
L 358.398 79.969378 
L 358.398 79.860715 
L 358.398 79.519205 
L 358.956 79.519205 
L 358.956 79.410542 
L 358.956 79.037986 
L 359.514 79.037986 
L 359.514 78.929323 
L 359.514 78.432581 
L 360.072 78.432581 
L 360.072 78.323918 
L 360.072 77.889269 
L 360.63 77.889269 
L 360.63 77.780606 
L 360.63 77.493427 
L 361.188 77.493427 
L 361.188 77.384765 
L 361.188 77.012208 
L 361.746 77.012208 
L 361.746 76.903546 
L 361.746 76.476658 
L 362.304 76.476658 
L 362.304 76.367995 
L 362.304 76.042008 
L 362.862 76.042008 
L 362.862 75.933346 
L 362.862 75.560789 
L 363.42 75.560789 
L 363.42 75.452126 
L 363.42 75.195994 
L 363.978 75.195994 
L 363.978 75.087331 
L 363.978 74.714774 
L 364.536 74.714774 
L 364.536 74.606112 
L 364.536 74.295648 
L 365.094 74.295648 
L 365.094 74.186986 
L 365.094 73.853237 
L 365.652 73.853237 
L 365.652 73.744574 
L 365.652 73.441872 
L 366.21 73.441872 
L 366.21 73.33321 
L 366.21 73.038269 
L 366.768 73.038269 
L 366.768 72.929606 
L 366.768 72.696758 
L 367.326 72.696758 
L 367.326 72.588096 
L 367.326 72.339725 
L 367.884 72.339725 
L 367.884 72.231062 
L 367.884 72.005976 
L 368.442 72.005976 
L 368.442 71.897314 
L 368.442 71.617896 
L 369 71.617896 
L 369 71.509234 
L 369 71.34624 
L 369.558 71.34624 
L 369.558 71.237578 
L 369.558 71.10563 
L 370.116 71.10563 
L 370.116 70.996968 
L 370.116 70.787405 
L 370.674 70.787405 
L 370.674 70.678742 
L 370.674 70.453656 
L 371.232 70.453656 
L 371.232 70.344994 
L 371.232 70.127669 
L 371.79 70.127669 
L 371.79 70.019006 
L 371.79 69.824966 
L 372.348 69.824966 
L 372.348 69.716304 
L 372.348 69.545549 
L 372.906 69.545549 
L 372.906 69.436886 
L 372.906 69.250608 
L 373.464 69.250608 
L 373.464 69.141946 
L 373.464 69.041045 
L 374.022 69.041045 
L 374.022 68.932382 
L 374.022 68.761627 
L 374.58 68.761627 
L 374.58 68.652965 
L 374.58 68.598634 
L 375.138 68.598634 
L 375.138 68.489971 
L 375.138 68.396832 
L 375.696 68.396832 
L 375.696 68.28817 
L 375.696 68.132938 
L 376.254 68.132938 
L 376.254 68.024275 
L 376.254 67.845758 
L 376.812 67.845758 
L 376.812 67.737096 
L 376.812 67.589626 
L 377.37 67.589626 
L 377.37 67.480963 
L 377.37 67.387824 
L 377.928 67.387824 
L 377.928 67.279162 
L 377.928 67.178261 
L 378.486 67.178261 
L 378.486 67.069598 
L 378.486 67.007506 
L 379.044 67.007506 
L 379.044 66.898843 
L 379.044 66.860035 
L 379.602 66.860035 
L 379.602 66.751373 
L 379.602 66.712565 
L 380.16 66.712565 
L 380.16 66.603902 
L 380.16 66.417624 
L 380.718 66.417624 
L 380.718 66.308962 
L 380.718 66.270154 
L 381.276 66.270154 
L 381.276 66.161491 
L 381.276 66.045067 
L 381.834 66.045067 
L 381.834 65.936405 
L 381.834 65.91312 
L 382.392 65.91312 
L 382.392 65.804458 
L 382.392 65.742365 
L 382.95 65.742365 
L 382.95 65.633702 
L 382.95 65.587133 
L 384.066 65.486232 
L 384.066 65.47847 
L 384.066 65.331 
L 385.182 65.230099 
L 385.182 65.222338 
L 385.182 65.113675 
L 385.74 65.113675 
L 385.74 65.005013 
L 385.74 64.973966 
L 386.298 64.973966 
L 386.298 64.865304 
L 386.298 64.818734 
L 387.414 64.725595 
L 387.414 64.710072 
L 387.414 64.616933 
L 387.972 64.616933 
L 387.972 64.50827 
L 387.972 64.477224 
L 389.088 64.368562 
L 389.088 64.275422 
L 390.204 64.174522 
L 390.204 64.16676 
L 390.204 64.073621 
L 391.32 63.980482 
L 391.32 63.964958 
L 391.32 63.887342 
L 392.436 63.77868 
L 392.436 63.724349 
L 393.552 63.638971 
L 393.552 63.615686 
L 393.552 63.592402 
L 394.668 63.499262 
L 394.668 63.483739 
L 394.668 63.413885 
L 395.784 63.320746 
L 395.784 63.305222 
L 395.784 63.250891 
L 396.9 63.14999 
L 396.9 63.142229 
L 396.9 63.095659 
L 399.132 62.986997 
L 399.132 62.924904 
L 400.248 62.878334 
L 400.248 62.816242 
L 400.248 62.792957 
L 401.364 62.730864 
L 401.364 62.684294 
L 401.364 62.637725 
L 403.038 62.544586 
L 403.038 62.529062 
L 403.038 62.482493 
L 404.154 62.428162 
L 404.154 62.37383 
L 404.154 62.366069 
L 406.386 62.265168 
L 406.386 62.257406 
L 406.386 62.210837 
L 408.06 62.133221 
L 408.06 62.102174 
L 408.06 62.094413 
L 409.176 62.03232 
L 409.176 61.98575 
L 409.176 61.977989 
L 411.408 61.88485 
L 411.408 61.869326 
L 411.408 61.846042 
L 414.198 61.760664 
L 414.198 61.737379 
L 414.198 61.706333 
L 416.43 61.659763 
L 416.43 61.59767 
L 416.43 61.589909 
L 418.104 61.481246 
L 418.104 61.465723 
L 423.126 61.357061 
L 423.126 61.349299 
L 425.358 61.271683 
L 425.358 61.240637 
L 425.358 61.232875 
L 429.822 61.124213 
L 429.822 61.10869 
L 435.402 61.007789 
L 435.402 61.000027 
L 435.402 60.992266 
L 440.982 60.883603 
L 440.982 60.875842 
L 449.91 60.774941 
L 449.91 60.767179 
L 449.91 60.759418 
L 459.396 60.650755 
L 459.396 60.62747 
L 479.484 60.518808 
L 479.484 60.511046 
L 502.362 60.487762 
L 502.362 60.48 
" clip-path="url(#p363dca2a38)" style="fill: none; stroke-dasharray: 10.36,4.48; stroke-dashoffset: 0; stroke: #1f77b4; stroke-width: 2.8"/>
   </g>
   <g id="line2d_13">
    <path d="M 213.318 448.56 
L 213.318 448.480247 
L 226.152 448.400493 
L 226.152 448.32074 
L 227.268 448.240986 
L 227.268 448.161233 
L 229.5 448.08148 
L 229.5 448.001726 
L 232.29 447.921973 
L 232.29 447.842219 
L 235.08 447.842219 
L 235.08 447.762466 
L 235.08 447.682713 
L 236.754 447.602959 
L 236.754 447.523206 
L 238.428 447.443453 
L 238.428 447.363699 
L 240.102 447.283946 
L 240.102 447.204192 
L 243.45 447.124439 
L 243.45 447.044686 
L 244.566 446.964932 
L 244.566 446.725672 
L 246.798 446.645919 
L 246.798 446.566165 
L 247.914 446.566165 
L 247.914 446.486412 
L 247.914 446.406658 
L 249.588 446.406658 
L 249.588 446.326905 
L 249.588 446.247152 
L 250.704 446.167398 
L 250.704 446.007891 
L 251.262 446.007891 
L 251.262 445.928138 
L 251.262 445.848385 
L 251.82 445.848385 
L 251.82 445.768631 
L 251.82 445.688878 
L 254.052 445.609125 
L 254.052 445.529371 
L 255.168 445.449618 
L 255.168 445.290111 
L 257.958 445.210358 
L 257.958 445.130604 
L 259.632 445.130604 
L 259.632 445.050851 
L 259.632 444.811591 
L 260.748 444.811591 
L 260.748 444.731837 
L 260.748 444.57233 
L 261.306 444.57233 
L 261.306 444.492577 
L 261.306 444.253317 
L 261.864 444.253317 
L 261.864 444.173564 
L 261.864 444.014057 
L 262.98 443.934303 
L 262.98 443.774797 
L 263.538 443.774797 
L 263.538 443.695043 
L 263.538 443.535536 
L 264.096 443.535536 
L 264.096 443.455783 
L 264.096 443.216523 
L 264.654 443.216523 
L 264.654 443.136769 
L 264.654 442.658249 
L 265.212 442.658249 
L 265.212 442.578496 
L 265.212 442.339236 
L 265.77 442.339236 
L 265.77 442.259482 
L 265.77 442.099975 
L 266.328 442.099975 
L 266.328 442.020222 
L 266.328 441.940469 
L 266.886 441.940469 
L 266.886 441.860715 
L 266.886 441.621455 
L 267.444 441.621455 
L 267.444 441.541702 
L 267.444 441.142935 
L 268.56 441.063181 
L 268.56 440.425154 
L 269.118 440.425154 
L 269.118 440.345401 
L 269.118 440.106141 
L 269.676 440.106141 
L 269.676 440.026387 
L 269.676 439.707374 
L 270.234 439.707374 
L 270.234 439.62762 
L 270.234 439.228853 
L 270.792 439.228853 
L 270.792 439.1491 
L 270.792 438.590826 
L 271.35 438.590826 
L 271.35 438.511073 
L 271.35 438.112306 
L 271.908 438.112306 
L 271.908 438.032552 
L 271.908 437.554032 
L 272.466 437.554032 
L 272.466 437.474279 
L 272.466 436.995758 
L 273.024 436.995758 
L 273.024 436.916005 
L 273.024 436.596991 
L 273.582 436.596991 
L 273.582 436.517238 
L 273.582 436.357731 
L 274.14 436.357731 
L 274.14 436.277978 
L 274.14 435.799457 
L 274.698 435.799457 
L 274.698 435.719704 
L 274.698 435.16143 
L 275.256 435.16143 
L 275.256 435.081677 
L 275.256 434.762663 
L 275.814 434.762663 
L 275.814 434.68291 
L 275.814 434.284143 
L 276.372 434.284143 
L 276.372 434.20439 
L 276.372 433.965129 
L 276.93 433.965129 
L 276.93 433.885376 
L 276.93 433.247349 
L 277.488 433.247349 
L 277.488 433.167596 
L 277.488 432.689075 
L 278.046 432.689075 
L 278.046 432.609322 
L 278.046 431.891541 
L 278.604 431.891541 
L 278.604 431.811788 
L 278.604 431.173761 
L 279.162 431.173761 
L 279.162 431.094007 
L 279.162 430.376227 
L 279.72 430.376227 
L 279.72 430.296473 
L 279.72 429.7382 
L 280.278 429.7382 
L 280.278 429.658446 
L 280.278 429.419186 
L 280.836 429.419186 
L 280.836 429.339433 
L 280.836 428.462145 
L 281.394 428.462145 
L 281.394 428.382392 
L 281.394 427.664612 
L 281.952 427.664612 
L 281.952 427.584858 
L 281.952 427.425351 
L 282.51 427.425351 
L 282.51 427.345598 
L 282.51 427.186091 
L 283.068 427.186091 
L 283.068 427.106338 
L 283.068 425.98979 
L 283.626 425.98979 
L 283.626 425.910037 
L 283.626 425.591023 
L 284.184 425.591023 
L 284.184 425.51127 
L 284.184 425.192256 
L 284.742 425.192256 
L 284.742 425.112503 
L 284.742 424.554229 
L 285.3 424.554229 
L 285.3 424.474476 
L 285.3 423.995956 
L 285.858 423.995956 
L 285.858 423.916202 
L 285.858 423.198422 
L 286.416 423.198422 
L 286.416 423.118668 
L 286.416 422.400888 
L 286.974 422.400888 
L 286.974 422.321134 
L 286.974 421.683107 
L 287.532 421.683107 
L 287.532 421.603354 
L 287.532 420.56656 
L 288.09 420.56656 
L 288.09 420.486806 
L 288.09 419.928533 
L 288.648 419.928533 
L 288.648 419.848779 
L 288.648 419.450012 
L 289.206 419.450012 
L 289.206 419.370259 
L 289.206 418.572725 
L 289.764 418.572725 
L 289.764 418.492972 
L 289.764 417.934698 
L 290.322 417.934698 
L 290.322 417.854945 
L 290.322 416.259877 
L 290.88 416.259877 
L 290.88 416.180123 
L 290.88 414.824316 
L 291.438 414.824316 
L 291.438 414.744562 
L 291.438 414.026782 
L 291.996 414.026782 
L 291.996 413.947028 
L 291.996 412.591221 
L 292.554 412.591221 
L 292.554 412.511467 
L 292.554 411.554427 
L 293.112 411.554427 
L 293.112 411.474673 
L 293.112 410.597386 
L 293.67 410.597386 
L 293.67 410.517633 
L 293.67 409.640345 
L 294.228 409.640345 
L 294.228 409.560592 
L 294.228 408.922565 
L 294.786 408.922565 
L 294.786 408.842811 
L 294.786 407.566757 
L 295.344 407.566757 
L 295.344 407.487004 
L 295.344 406.529963 
L 295.902 406.529963 
L 295.902 406.45021 
L 295.902 404.296868 
L 296.46 404.296868 
L 296.46 404.217115 
L 296.46 402.861307 
L 297.018 402.861307 
L 297.018 402.781554 
L 297.018 401.74476 
L 297.576 401.74476 
L 297.576 401.665006 
L 297.576 400.149692 
L 298.134 400.149692 
L 298.134 400.069938 
L 298.134 399.033144 
L 298.692 399.033144 
L 298.692 398.953391 
L 298.692 397.916597 
L 299.25 397.916597 
L 299.25 397.836843 
L 299.25 396.879803 
L 299.808 396.879803 
L 299.808 396.800049 
L 299.808 396.162022 
L 300.366 396.162022 
L 300.366 396.082269 
L 300.366 395.603748 
L 300.924 395.603748 
L 300.924 395.523995 
L 300.924 394.566954 
L 301.482 394.566954 
L 301.482 394.487201 
L 301.482 393.370654 
L 302.04 393.370654 
L 302.04 393.2909 
L 302.04 391.616079 
L 302.598 391.616079 
L 302.598 391.536326 
L 302.598 390.499531 
L 303.156 390.499531 
L 303.156 390.419778 
L 303.156 389.223477 
L 303.714 389.223477 
L 303.714 389.143724 
L 303.714 387.947423 
L 304.272 387.947423 
L 304.272 387.86767 
L 304.272 386.352355 
L 304.83 386.352355 
L 304.83 386.272602 
L 304.83 385.395314 
L 305.388 385.395314 
L 305.388 385.315561 
L 305.388 383.88 
L 305.946 383.88 
L 305.946 383.800247 
L 305.946 382.444439 
L 306.504 382.444439 
L 306.504 382.364686 
L 306.504 381.008878 
L 307.062 381.008878 
L 307.062 380.929125 
L 307.062 379.41381 
L 307.62 379.41381 
L 307.62 379.334057 
L 307.62 377.499729 
L 308.178 377.499729 
L 308.178 377.419975 
L 308.178 376.303428 
L 308.736 376.303428 
L 308.736 376.223674 
L 308.736 375.346387 
L 309.294 375.346387 
L 309.294 375.266634 
L 309.294 374.070333 
L 309.852 374.070333 
L 309.852 373.99058 
L 309.852 372.156252 
L 310.41 372.156252 
L 310.41 372.076498 
L 310.41 371.039704 
L 310.968 371.039704 
L 310.968 370.959951 
L 310.968 368.966116 
L 311.526 368.966116 
L 311.526 368.886363 
L 311.526 367.690062 
L 312.084 367.690062 
L 312.084 367.610308 
L 312.084 366.254501 
L 312.642 366.254501 
L 312.642 366.174747 
L 312.642 365.29746 
L 313.2 365.29746 
L 313.2 365.217707 
L 313.2 364.260666 
L 313.758 364.260666 
L 313.758 364.180912 
L 313.758 362.346584 
L 314.316 362.346584 
L 314.316 362.266831 
L 314.316 360.59201 
L 314.874 360.59201 
L 314.874 360.512256 
L 314.874 358.677928 
L 315.432 358.677928 
L 315.432 358.598175 
L 315.432 357.242367 
L 315.99 357.242367 
L 315.99 357.162614 
L 315.99 356.046067 
L 316.548 356.046067 
L 316.548 355.966313 
L 316.548 354.690259 
L 317.106 354.690259 
L 317.106 354.610506 
L 317.106 353.573711 
L 317.664 353.573711 
L 317.664 353.493958 
L 317.664 351.978644 
L 318.222 351.978644 
L 318.222 351.89889 
L 318.222 350.383576 
L 318.78 350.383576 
L 318.78 350.303822 
L 318.78 348.868261 
L 319.338 348.868261 
L 319.338 348.788508 
L 319.338 346.794673 
L 319.896 346.794673 
L 319.896 346.71492 
L 319.896 345.438866 
L 320.454 345.438866 
L 320.454 345.359112 
L 320.454 343.843798 
L 321.012 343.843798 
L 321.012 343.764044 
L 321.012 342.647497 
L 321.57 342.647497 
L 321.57 342.567744 
L 321.57 341.451196 
L 322.128 341.451196 
L 322.128 341.371443 
L 322.128 339.616868 
L 322.686 339.616868 
L 322.686 339.537115 
L 322.686 337.702787 
L 323.244 337.702787 
L 323.244 337.623033 
L 323.244 335.948212 
L 323.802 335.948212 
L 323.802 335.868459 
L 323.802 334.034131 
L 324.36 334.034131 
L 324.36 333.954377 
L 324.36 332.758076 
L 324.918 332.758076 
L 324.918 332.678323 
L 324.918 331.402269 
L 325.476 331.402269 
L 325.476 331.322515 
L 325.476 329.647694 
L 326.034 329.647694 
L 326.034 329.567941 
L 326.034 327.813366 
L 326.592 327.813366 
L 326.592 327.733613 
L 326.592 326.058792 
L 327.15 326.058792 
L 327.15 325.979038 
L 327.15 324.463724 
L 327.708 324.463724 
L 327.708 324.38397 
L 327.708 322.868656 
L 328.266 322.868656 
L 328.266 322.788903 
L 328.266 321.353342 
L 328.824 321.353342 
L 328.824 321.273588 
L 328.824 319.838027 
L 329.382 319.838027 
L 329.382 319.758274 
L 329.382 318.163206 
L 329.94 318.163206 
L 329.94 318.083453 
L 329.94 316.807398 
L 330.498 316.807398 
L 330.498 316.727645 
L 330.498 316.009864 
L 331.056 316.009864 
L 331.056 315.930111 
L 331.056 314.574303 
L 331.614 314.574303 
L 331.614 314.49455 
L 331.614 312.660222 
L 332.172 312.660222 
L 332.172 312.580469 
L 332.172 311.623428 
L 332.73 311.623428 
L 332.73 311.543674 
L 332.73 310.26762 
L 333.288 310.26762 
L 333.288 310.187867 
L 333.288 308.672552 
L 333.846 308.672552 
L 333.846 308.592799 
L 333.846 306.678718 
L 334.404 306.678718 
L 334.404 306.598964 
L 334.404 305.482417 
L 334.962 305.482417 
L 334.962 305.402663 
L 334.962 304.046856 
L 335.52 304.046856 
L 335.52 303.967102 
L 335.52 301.255487 
L 336.078 301.255487 
L 336.078 301.175734 
L 336.078 299.899679 
L 336.636 299.899679 
L 336.636 299.819926 
L 336.636 297.746338 
L 337.194 297.746338 
L 337.194 297.666584 
L 337.194 296.709544 
L 337.752 296.709544 
L 337.752 296.62979 
L 337.752 295.43349 
L 338.31 295.43349 
L 338.31 295.353736 
L 338.31 294.157435 
L 338.868 294.157435 
L 338.868 294.077682 
L 338.868 292.482614 
L 339.426 292.482614 
L 339.426 292.402861 
L 339.426 290.9673 
L 339.984 290.9673 
L 339.984 290.887546 
L 339.984 289.770999 
L 340.542 289.770999 
L 340.542 289.691245 
L 340.542 288.893711 
L 341.1 288.893711 
L 341.1 288.813958 
L 341.1 287.537904 
L 341.658 287.537904 
L 341.658 287.45815 
L 341.658 285.942836 
L 342.216 285.942836 
L 342.216 285.863083 
L 342.216 284.746535 
L 342.774 284.746535 
L 342.774 284.666782 
L 342.774 283.629988 
L 343.332 283.629988 
L 343.332 283.550234 
L 343.332 282.832454 
L 343.89 282.832454 
L 343.89 282.7527 
L 343.89 281.237386 
L 344.448 281.237386 
L 344.448 281.157633 
L 344.448 280.519605 
L 345.006 280.519605 
L 345.006 280.439852 
L 345.006 279.084044 
L 345.564 279.084044 
L 345.564 279.004291 
L 345.564 277.648483 
L 346.122 277.648483 
L 346.122 277.56873 
L 346.122 276.212922 
L 346.68 276.212922 
L 346.68 276.133169 
L 346.68 274.298841 
L 347.238 274.298841 
L 347.238 274.219088 
L 347.238 273.10254 
L 347.796 273.10254 
L 347.796 273.022787 
L 347.796 271.746732 
L 348.354 271.746732 
L 348.354 271.666979 
L 348.354 270.630185 
L 348.912 270.630185 
L 348.912 270.550432 
L 348.912 269.194624 
L 349.47 269.194624 
L 349.47 269.114871 
L 349.47 267.679309 
L 350.028 267.679309 
L 350.028 267.599556 
L 350.028 266.483009 
L 350.586 266.483009 
L 350.586 266.403255 
L 350.586 265.206954 
L 351.144 265.206954 
L 351.144 265.127201 
L 351.144 263.69164 
L 351.702 263.69164 
L 351.702 263.611887 
L 351.702 262.176326 
L 352.26 262.176326 
L 352.26 262.096572 
L 352.26 260.900271 
L 352.818 260.900271 
L 352.818 260.820518 
L 352.818 259.46471 
L 353.376 259.46471 
L 353.376 259.384957 
L 353.376 258.188656 
L 353.934 258.188656 
L 353.934 258.108903 
L 353.934 257.231615 
L 354.492 257.231615 
L 354.492 257.151862 
L 354.492 256.513835 
L 355.05 256.513835 
L 355.05 256.434081 
L 355.05 254.839014 
L 355.608 254.839014 
L 355.608 254.75926 
L 355.608 253.084439 
L 356.166 253.084439 
L 356.166 253.004686 
L 356.166 251.170358 
L 356.724 251.170358 
L 356.724 251.090604 
L 356.724 249.655043 
L 357.282 249.655043 
L 357.282 249.57529 
L 357.282 247.900469 
L 357.84 247.900469 
L 357.84 247.820715 
L 357.84 246.385154 
L 358.398 246.385154 
L 358.398 246.305401 
L 358.398 245.1091 
L 358.956 245.1091 
L 358.956 245.029346 
L 358.956 243.992552 
L 359.514 243.992552 
L 359.514 243.912799 
L 359.514 242.477238 
L 360.072 242.477238 
L 360.072 242.397485 
L 360.072 241.12143 
L 360.63 241.12143 
L 360.63 241.041677 
L 360.63 239.287102 
L 361.188 239.287102 
L 361.188 239.207349 
L 361.188 238.250308 
L 361.746 238.250308 
L 361.746 238.170555 
L 361.746 237.851541 
L 362.304 237.851541 
L 362.304 237.771788 
L 362.304 236.734994 
L 362.862 236.734994 
L 362.862 236.65524 
L 362.862 235.45894 
L 363.42 235.45894 
L 363.42 235.379186 
L 363.42 234.103132 
L 363.978 234.103132 
L 363.978 234.023379 
L 363.978 232.667571 
L 364.536 232.667571 
L 364.536 232.587818 
L 364.536 230.75349 
L 365.094 230.75349 
L 365.094 230.673736 
L 365.094 229.557189 
L 365.652 229.557189 
L 365.652 229.477435 
L 365.652 228.121628 
L 366.21 228.121628 
L 366.21 228.041874 
L 366.21 226.127793 
L 366.768 226.127793 
L 366.768 226.048039 
L 366.768 224.532725 
L 367.326 224.532725 
L 367.326 224.452972 
L 367.326 223.097164 
L 367.884 223.097164 
L 367.884 223.017411 
L 367.884 221.422343 
L 368.442 221.422343 
L 368.442 221.342589 
L 368.442 219.986782 
L 369 219.986782 
L 369 219.907028 
L 369 211.772182 
L 369.558 211.772182 
L 369.558 211.692429 
L 369.558 210.815142 
L 370.116 210.815142 
L 370.116 210.735388 
L 370.116 209.459334 
L 370.674 209.459334 
L 370.674 209.379581 
L 370.674 207.545253 
L 371.232 207.545253 
L 371.232 207.465499 
L 371.232 206.269199 
L 371.79 206.269199 
L 371.79 206.189445 
L 371.79 204.115857 
L 372.348 204.115857 
L 372.348 204.036104 
L 372.348 202.600543 
L 372.906 202.600543 
L 372.906 202.520789 
L 372.906 200.766215 
L 373.464 200.766215 
L 373.464 200.686461 
L 373.464 199.649667 
L 374.022 199.649667 
L 374.022 199.569914 
L 374.022 198.692626 
L 374.58 198.692626 
L 374.58 198.612873 
L 374.58 197.257065 
L 375.138 197.257065 
L 375.138 197.177312 
L 375.138 195.821504 
L 375.696 195.821504 
L 375.696 195.741751 
L 375.696 194.944217 
L 376.254 194.944217 
L 376.254 194.864464 
L 376.254 193.189642 
L 376.812 193.189642 
L 376.812 193.109889 
L 376.812 192.312355 
L 377.37 192.312355 
L 377.37 192.232602 
L 377.37 191.355314 
L 377.928 191.355314 
L 377.928 191.275561 
L 377.928 190.238767 
L 378.486 190.238767 
L 378.486 190.159014 
L 378.486 189.122219 
L 379.044 189.122219 
L 379.044 189.042466 
L 379.044 187.606905 
L 379.602 187.606905 
L 379.602 187.527152 
L 379.602 186.251097 
L 380.16 186.251097 
L 380.16 186.171344 
L 380.16 185.37381 
L 380.718 185.37381 
L 380.718 185.294057 
L 380.718 184.576276 
L 381.276 184.576276 
L 381.276 184.496523 
L 381.276 183.619236 
L 381.834 183.619236 
L 381.834 183.539482 
L 381.834 182.263428 
L 382.392 182.263428 
L 382.392 182.183674 
L 382.392 180.90762 
L 382.95 180.90762 
L 382.95 180.827867 
L 382.95 179.631566 
L 383.508 179.631566 
L 383.508 179.551813 
L 383.508 178.515018 
L 384.066 178.515018 
L 384.066 178.435265 
L 384.066 177.557978 
L 384.624 177.557978 
L 384.624 177.478224 
L 384.624 176.44143 
L 385.182 176.44143 
L 385.182 176.361677 
L 385.182 175.404636 
L 385.74 175.404636 
L 385.74 175.324883 
L 385.74 174.048829 
L 386.298 174.048829 
L 386.298 173.969075 
L 386.298 173.251295 
L 386.856 173.251295 
L 386.856 173.171541 
L 386.856 172.134747 
L 387.414 172.134747 
L 387.414 172.054994 
L 387.414 171.25746 
L 387.972 171.25746 
L 387.972 171.177707 
L 387.972 170.619433 
L 388.53 170.619433 
L 388.53 170.539679 
L 388.53 169.343379 
L 389.088 169.343379 
L 389.088 169.263625 
L 389.088 168.147078 
L 389.646 168.147078 
L 389.646 168.067324 
L 389.646 167.26979 
L 390.204 167.26979 
L 390.204 167.190037 
L 390.204 165.754476 
L 390.762 165.754476 
L 390.762 165.674723 
L 390.762 164.558175 
L 391.32 164.558175 
L 391.32 164.478422 
L 391.32 164.079655 
L 391.878 164.079655 
L 391.878 163.999901 
L 391.878 162.963107 
L 392.436 162.963107 
L 392.436 162.883354 
L 392.436 162.644094 
L 392.994 162.644094 
L 392.994 162.56434 
L 392.994 161.128779 
L 393.552 161.128779 
L 393.552 161.049026 
L 393.552 160.091985 
L 394.11 160.091985 
L 394.11 160.012232 
L 394.11 158.815931 
L 394.668 158.815931 
L 394.668 158.736178 
L 394.668 157.61963 
L 395.226 157.61963 
L 395.226 157.539877 
L 395.226 156.742343 
L 395.784 156.742343 
L 395.784 156.662589 
L 395.784 155.705549 
L 396.342 155.705549 
L 396.342 155.625795 
L 396.342 155.067522 
L 396.9 155.067522 
L 396.9 154.987768 
L 396.9 154.030727 
L 397.458 154.030727 
L 397.458 153.950974 
L 397.458 152.834427 
L 398.016 152.834427 
L 398.016 152.754673 
L 398.016 151.877386 
L 398.574 151.877386 
L 398.574 151.797633 
L 398.574 151.239359 
L 399.132 151.239359 
L 399.132 151.159605 
L 399.132 150.760838 
L 399.69 150.760838 
L 399.69 150.681085 
L 399.69 149.963305 
L 400.248 149.963305 
L 400.248 149.883551 
L 400.248 149.165771 
L 400.806 149.165771 
L 400.806 149.086017 
L 400.806 148.68725 
L 401.364 148.68725 
L 401.364 148.607497 
L 401.364 147.331443 
L 401.922 147.331443 
L 401.922 147.251689 
L 401.922 146.533909 
L 402.48 146.533909 
L 402.48 146.454155 
L 402.48 145.576868 
L 403.038 145.576868 
L 403.038 145.497115 
L 403.038 144.540074 
L 403.596 144.540074 
L 403.596 144.460321 
L 403.596 143.74254 
L 404.154 143.74254 
L 404.154 143.662787 
L 404.154 143.184266 
L 404.712 143.184266 
L 404.712 143.104513 
L 404.712 142.466486 
L 405.27 142.466486 
L 405.27 142.386732 
L 405.27 141.987965 
L 405.828 141.987965 
L 405.828 141.908212 
L 405.828 141.030925 
L 406.386 141.030925 
L 406.386 140.951171 
L 406.386 140.392898 
L 406.944 140.392898 
L 406.944 140.313144 
L 406.944 139.196597 
L 407.502 139.196597 
L 407.502 139.116843 
L 407.502 138.638323 
L 408.06 138.638323 
L 408.06 138.55857 
L 408.06 138.239556 
L 408.618 138.239556 
L 408.618 138.159803 
L 408.618 137.761036 
L 409.176 137.761036 
L 409.176 137.681282 
L 409.176 137.282515 
L 409.734 137.282515 
L 409.734 137.202762 
L 409.734 136.803995 
L 410.292 136.803995 
L 410.292 136.724242 
L 410.292 135.846954 
L 410.85 135.846954 
L 410.85 135.767201 
L 410.85 135.368434 
L 411.408 135.368434 
L 411.408 135.288681 
L 411.408 134.969667 
L 411.966 134.969667 
L 411.966 134.889914 
L 411.966 134.411393 
L 412.524 134.411393 
L 412.524 134.33164 
L 412.524 133.773366 
L 413.082 133.773366 
L 413.082 133.693613 
L 413.082 132.656819 
L 413.64 132.656819 
L 413.64 132.577065 
L 413.64 132.018792 
L 414.198 132.018792 
L 414.198 131.939038 
L 414.198 131.540271 
L 414.756 131.540271 
L 414.756 131.460518 
L 414.756 131.141504 
L 415.314 131.141504 
L 415.314 131.061751 
L 415.314 129.705943 
L 415.872 129.705943 
L 415.872 129.62619 
L 415.872 128.429889 
L 416.43 128.429889 
L 416.43 128.350136 
L 416.43 128.031122 
L 416.988 128.031122 
L 416.988 127.951369 
L 416.988 127.871615 
L 417.546 127.871615 
L 417.546 127.791862 
L 417.546 126.834821 
L 418.104 126.834821 
L 418.104 126.755068 
L 418.104 126.436054 
L 418.662 126.436054 
L 418.662 126.356301 
L 418.662 125.957534 
L 419.22 125.957534 
L 419.22 125.877781 
L 419.22 125.558767 
L 419.778 125.558767 
L 419.778 125.479014 
L 419.778 125.16 
L 420.336 125.16 
L 420.336 125.080247 
L 420.336 124.601726 
L 420.894 124.601726 
L 420.894 124.521973 
L 420.894 123.804192 
L 421.452 123.804192 
L 421.452 123.724439 
L 421.452 123.485179 
L 422.01 123.485179 
L 422.01 123.405425 
L 422.01 122.687645 
L 422.568 122.687645 
L 422.568 122.607891 
L 422.568 122.528138 
L 423.126 122.528138 
L 423.126 122.448385 
L 423.126 122.129371 
L 423.684 122.129371 
L 423.684 122.049618 
L 423.684 121.411591 
L 424.242 121.411591 
L 424.242 121.331837 
L 424.242 120.93307 
L 424.8 120.93307 
L 424.8 120.853317 
L 424.8 120.374797 
L 425.358 120.374797 
L 425.358 120.295043 
L 425.358 119.97603 
L 425.916 119.97603 
L 425.916 119.896276 
L 425.916 119.098742 
L 426.474 119.098742 
L 426.474 119.018989 
L 426.474 118.779729 
L 427.032 118.779729 
L 427.032 118.699975 
L 427.032 117.742935 
L 427.59 117.742935 
L 427.59 117.663181 
L 427.59 117.184661 
L 428.148 117.184661 
L 428.148 117.104908 
L 428.148 116.785894 
L 428.706 116.785894 
L 428.706 116.706141 
L 428.706 116.46688 
L 429.264 116.46688 
L 429.264 116.387127 
L 429.264 116.068113 
L 429.822 116.068113 
L 429.822 115.98836 
L 429.822 115.669346 
L 430.38 115.669346 
L 430.38 115.589593 
L 430.38 115.350333 
L 430.938 115.350333 
L 430.938 115.27058 
L 430.938 114.233785 
L 431.496 114.233785 
L 431.496 114.154032 
L 431.496 113.516005 
L 432.054 113.516005 
L 432.054 113.436252 
L 432.054 112.718471 
L 432.612 112.718471 
L 432.612 112.638718 
L 432.612 111.920937 
L 433.17 111.920937 
L 433.17 111.841184 
L 433.17 111.123403 
L 433.728 111.123403 
L 433.728 111.04365 
L 433.728 110.724636 
L 434.286 110.724636 
L 434.286 110.644883 
L 434.286 110.166363 
L 434.844 110.166363 
L 434.844 110.086609 
L 434.844 109.687842 
L 435.402 109.687842 
L 435.402 109.608089 
L 435.402 108.571295 
L 435.96 108.571295 
L 435.96 108.491541 
L 435.96 108.172528 
L 436.518 108.172528 
L 436.518 108.092774 
L 436.518 107.773761 
L 437.076 107.773761 
L 437.076 107.694007 
L 437.076 107.374994 
L 437.634 107.374994 
L 437.634 107.29524 
L 437.634 107.05598 
L 438.192 107.05598 
L 438.192 106.976227 
L 438.192 106.417953 
L 438.75 106.417953 
L 438.75 106.3382 
L 438.75 106.178693 
L 439.308 106.178693 
L 439.308 106.09894 
L 439.308 105.460912 
L 439.866 105.460912 
L 439.866 105.381159 
L 439.866 105.301406 
L 440.424 105.301406 
L 440.424 105.221652 
L 440.424 104.982392 
L 440.982 104.982392 
L 440.982 104.902639 
L 440.982 104.743132 
L 441.54 104.743132 
L 441.54 104.663379 
L 441.54 104.264612 
L 442.098 104.264612 
L 442.098 104.184858 
L 442.098 103.865845 
L 442.656 103.865845 
L 442.656 103.786091 
L 442.656 103.227818 
L 443.214 103.227818 
L 443.214 103.148064 
L 443.214 102.988557 
L 443.772 102.988557 
L 443.772 102.908804 
L 443.772 102.510037 
L 444.33 102.510037 
L 444.33 102.430284 
L 444.33 102.35053 
L 444.888 102.35053 
L 444.888 102.270777 
L 444.888 101.712503 
L 445.446 101.712503 
L 445.446 101.63275 
L 445.446 101.313736 
L 446.004 101.313736 
L 446.004 101.233983 
L 446.004 100.914969 
L 446.562 100.914969 
L 446.562 100.835216 
L 446.562 100.595956 
L 447.12 100.595956 
L 447.12 100.516202 
L 447.12 100.356695 
L 447.678 100.356695 
L 447.678 100.276942 
L 447.678 100.117435 
L 448.236 100.117435 
L 448.236 100.037682 
L 448.236 99.638915 
L 448.794 99.638915 
L 448.794 99.559162 
L 448.794 99.080641 
L 449.352 99.080641 
L 449.352 99.000888 
L 449.352 98.522367 
L 449.91 98.522367 
L 449.91 98.442614 
L 449.91 98.043847 
L 450.468 98.043847 
L 450.468 97.964094 
L 450.468 97.64508 
L 451.026 97.64508 
L 451.026 97.565327 
L 451.026 97.40582 
L 451.584 97.40582 
L 451.584 97.326067 
L 451.584 96.767793 
L 452.142 96.767793 
L 452.142 96.688039 
L 452.142 96.608286 
L 452.7 96.608286 
L 452.7 96.528533 
L 452.7 96.209519 
L 453.258 96.209519 
L 453.258 96.129766 
L 453.258 96.050012 
L 453.816 96.050012 
L 453.816 95.970259 
L 453.816 95.730999 
L 454.374 95.730999 
L 454.374 95.651245 
L 454.374 95.092972 
L 454.932 95.092972 
L 454.932 95.013218 
L 454.932 94.773958 
L 455.49 94.773958 
L 455.49 94.694205 
L 455.49 94.135931 
L 456.048 94.135931 
L 456.048 94.056178 
L 456.048 93.497904 
L 456.606 93.497904 
L 456.606 93.41815 
L 456.606 93.17889 
L 457.164 93.17889 
L 457.164 93.099137 
L 457.164 92.780123 
L 457.722 92.780123 
L 457.722 92.70037 
L 457.722 92.301603 
L 458.28 92.301603 
L 458.28 92.22185 
L 458.28 92.062343 
L 459.396 91.982589 
L 459.396 91.663576 
L 459.954 91.663576 
L 459.954 91.583822 
L 459.954 91.344562 
L 460.512 91.344562 
L 460.512 91.264809 
L 460.512 91.025549 
L 461.07 91.025549 
L 461.07 90.945795 
L 461.07 90.866042 
L 461.628 90.866042 
L 461.628 90.786289 
L 461.628 90.547028 
L 462.186 90.547028 
L 462.186 90.467275 
L 462.186 90.387522 
L 462.744 90.387522 
L 462.744 90.307768 
L 462.744 90.068508 
L 463.86 90.068508 
L 463.86 89.988755 
L 463.86 89.510234 
L 464.418 89.510234 
L 464.418 89.430481 
L 464.418 89.350727 
L 464.976 89.350727 
L 464.976 89.270974 
L 464.976 89.111467 
L 465.534 89.111467 
L 465.534 89.031714 
L 465.534 88.792454 
L 466.092 88.792454 
L 466.092 88.7127 
L 466.092 88.553194 
L 466.65 88.553194 
L 466.65 88.47344 
L 466.65 87.99492 
L 467.208 87.99492 
L 467.208 87.915166 
L 467.208 87.835413 
L 467.766 87.835413 
L 467.766 87.75566 
L 467.766 87.5164 
L 468.324 87.5164 
L 468.324 87.436646 
L 468.324 87.117633 
L 468.882 87.117633 
L 468.882 87.037879 
L 468.882 86.958126 
L 469.44 86.958126 
L 469.44 86.878372 
L 469.44 86.718866 
L 469.998 86.718866 
L 469.998 86.639112 
L 469.998 86.320099 
L 470.556 86.320099 
L 470.556 86.240345 
L 470.556 85.921332 
L 471.114 85.921332 
L 471.114 85.841578 
L 471.114 85.602318 
L 471.672 85.602318 
L 471.672 85.522565 
L 471.672 85.203551 
L 472.23 85.203551 
L 472.23 85.123798 
L 472.23 84.804784 
L 472.788 84.804784 
L 472.788 84.725031 
L 472.788 84.565524 
L 473.904 84.485771 
L 473.904 84.087004 
L 474.462 84.087004 
L 474.462 84.00725 
L 474.462 83.52873 
L 475.02 83.52873 
L 475.02 83.448977 
L 475.02 83.369223 
L 475.578 83.369223 
L 475.578 83.28947 
L 475.578 82.970456 
L 476.136 82.970456 
L 476.136 82.890703 
L 476.136 82.491936 
L 476.694 82.491936 
L 476.694 82.412182 
L 476.694 82.013416 
L 477.252 82.013416 
L 477.252 81.933662 
L 477.252 81.694402 
L 477.81 81.694402 
L 477.81 81.614649 
L 477.81 81.295635 
L 478.368 81.295635 
L 478.368 81.215882 
L 478.368 80.976621 
L 478.926 80.976621 
L 478.926 80.896868 
L 478.926 80.657608 
L 479.484 80.657608 
L 479.484 80.577855 
L 479.484 80.099334 
L 480.042 80.099334 
L 480.042 80.019581 
L 480.042 79.54106 
L 480.6 79.54106 
L 480.6 79.461307 
L 480.6 79.222047 
L 481.158 79.222047 
L 481.158 79.142293 
L 481.158 78.58402 
L 481.716 78.58402 
L 481.716 78.504266 
L 481.716 78.265006 
L 482.274 78.265006 
L 482.274 78.185253 
L 482.274 78.025746 
L 482.832 78.025746 
L 482.832 77.945993 
L 482.832 77.786486 
L 483.948 77.706732 
L 483.948 77.547226 
L 484.506 77.547226 
L 484.506 77.467472 
L 484.506 76.909199 
L 485.622 76.829445 
L 485.622 76.749692 
L 486.18 76.749692 
L 486.18 76.669938 
L 486.18 76.350925 
L 486.738 76.350925 
L 486.738 76.271171 
L 486.738 75.633144 
L 487.296 75.633144 
L 487.296 75.553391 
L 487.296 75.234377 
L 487.854 75.234377 
L 487.854 75.154624 
L 487.854 74.995117 
L 488.412 74.995117 
L 488.412 74.915364 
L 488.412 74.755857 
L 489.528 74.676104 
L 489.528 74.277337 
L 490.086 74.277337 
L 490.086 74.197583 
L 490.086 73.958323 
L 490.644 73.958323 
L 490.644 73.87857 
L 490.644 73.798816 
L 491.202 73.798816 
L 491.202 73.719063 
L 491.202 73.559556 
L 491.76 73.559556 
L 491.76 73.479803 
L 491.76 73.320296 
L 492.318 73.320296 
L 492.318 73.240543 
L 492.318 72.921529 
L 492.876 72.921529 
L 492.876 72.841776 
L 492.876 72.762022 
L 493.434 72.762022 
L 493.434 72.682269 
L 493.434 72.522762 
L 493.992 72.522762 
L 493.992 72.443009 
L 493.992 72.283502 
L 494.55 72.283502 
L 494.55 72.203748 
L 494.55 71.964488 
L 495.108 71.964488 
L 495.108 71.884735 
L 495.108 71.725228 
L 495.666 71.725228 
L 495.666 71.645475 
L 495.666 71.565721 
L 496.224 71.565721 
L 496.224 71.485968 
L 496.224 71.326461 
L 496.782 71.326461 
L 496.782 71.246708 
L 496.782 71.087201 
L 497.34 71.087201 
L 497.34 71.007448 
L 497.34 70.768187 
L 497.898 70.768187 
L 497.898 70.688434 
L 497.898 70.13016 
L 498.456 70.13016 
L 498.456 70.050407 
L 498.456 69.8909 
L 499.572 69.811147 
L 499.572 69.65164 
L 500.13 69.65164 
L 500.13 69.571887 
L 500.13 69.332626 
L 500.688 69.332626 
L 500.688 69.252873 
L 500.688 68.933859 
L 501.246 68.933859 
L 501.246 68.854106 
L 501.246 68.614846 
L 501.804 68.614846 
L 501.804 68.535092 
L 501.804 68.455339 
L 502.362 68.455339 
L 502.362 68.375586 
L 502.362 68.056572 
L 502.92 68.056572 
L 502.92 67.976819 
L 502.92 67.737559 
L 503.478 67.737559 
L 503.478 67.657805 
L 503.478 67.498298 
L 504.036 67.498298 
L 504.036 67.418545 
L 504.036 67.338792 
L 504.594 67.338792 
L 504.594 67.259038 
L 504.594 66.940025 
L 505.152 66.940025 
L 505.152 66.860271 
L 505.152 66.461504 
L 506.268 66.461504 
L 506.268 66.381751 
L 506.268 66.222244 
L 506.826 66.222244 
L 506.826 66.142491 
L 506.826 66.062737 
L 507.384 66.062737 
L 507.384 65.982984 
L 507.384 65.903231 
L 507.942 65.903231 
L 507.942 65.823477 
L 507.942 65.743724 
L 509.058 65.66397 
L 509.058 65.42471 
L 509.616 65.42471 
L 509.616 65.344957 
L 509.616 65.265203 
L 510.174 65.265203 
L 510.174 65.18545 
L 510.174 64.866436 
L 512.406 64.786683 
L 512.406 64.70693 
L 513.522 64.627176 
L 513.522 64.547423 
L 514.638 64.46767 
L 514.638 64.387916 
L 515.196 64.387916 
L 515.196 64.308163 
L 515.196 64.228409 
L 516.87 64.148656 
L 516.87 63.989149 
L 517.428 63.989149 
L 517.428 63.909396 
L 517.428 63.749889 
L 519.102 63.670136 
L 519.102 63.510629 
L 521.334 63.430875 
L 521.334 63.271369 
L 524.124 63.191615 
L 524.124 63.032109 
L 525.24 63.032109 
L 525.24 62.952355 
L 525.24 62.792848 
L 525.798 62.792848 
L 525.798 62.713095 
L 525.798 62.633342 
L 526.914 62.633342 
L 526.914 62.553588 
L 526.914 62.394081 
L 529.146 62.314328 
L 529.146 62.154821 
L 529.704 62.154821 
L 529.704 62.075068 
L 529.704 61.995314 
L 535.284 61.915561 
L 535.284 61.835808 
L 537.516 61.756054 
L 537.516 61.596547 
L 538.632 61.596547 
L 538.632 61.516794 
L 538.632 61.437041 
L 539.748 61.357287 
L 539.748 61.277534 
L 541.422 61.197781 
L 541.422 61.118027 
L 544.77 61.038274 
L 544.77 60.95852 
L 566.532 60.878767 
L 566.532 60.799014 
L 583.272 60.71926 
L 583.272 60.639507 
L 588.294 60.559753 
L 588.294 60.48 
L 588.294 60.48 
" clip-path="url(#p363dca2a38)" style="fill: none; stroke-dasharray: 2.8,4.62; stroke-dashoffset: 0; stroke: #ff7f0e; stroke-width: 2.8"/>
   </g>
   <g id="line2d_14">
    <path d="M 244.008 448.56 
L 244.008 448.551504 
L 268.56 448.441059 
L 268.56 448.432563 
L 276.372 448.322117 
L 276.372 448.313622 
L 283.068 448.211672 
L 283.068 448.203176 
L 283.068 448.186184 
L 288.09 448.075739 
L 288.09 448.067243 
L 291.996 447.973789 
L 291.996 447.956798 
L 291.996 447.948302 
L 297.018 447.846352 
L 297.018 447.837856 
L 297.018 447.786881 
L 300.924 447.676436 
L 300.924 447.60847 
L 303.156 447.523511 
L 303.156 447.498024 
L 303.156 447.464041 
L 305.946 447.353595 
L 305.946 447.328108 
L 308.736 447.217662 
L 308.736 447.175183 
L 311.526 447.064738 
L 311.526 447.03925 
L 314.316 446.945797 
L 314.316 446.928805 
L 314.316 446.886326 
L 317.106 446.784376 
L 317.106 446.77588 
L 317.106 446.750393 
L 318.78 446.665435 
L 318.78 446.639947 
L 318.78 446.631452 
L 320.454 446.554989 
L 320.454 446.521006 
L 320.454 446.495519 
L 322.128 446.402065 
L 322.128 446.385073 
L 322.128 446.368082 
L 323.802 446.257636 
L 323.802 446.18967 
L 325.476 446.08772 
L 325.476 446.079224 
L 325.476 446.036745 
L 327.15 445.9263 
L 327.15 445.883821 
L 328.266 445.807358 
L 328.266 445.773375 
L 328.266 445.713904 
L 329.382 445.654434 
L 329.382 445.603459 
L 329.382 445.569476 
L 330.498 445.543988 
L 330.498 445.45903 
L 330.498 445.450534 
L 331.614 445.408055 
L 331.614 445.340089 
L 331.614 445.331593 
L 332.73 445.272122 
L 332.73 445.221148 
L 332.73 445.153181 
L 333.846 445.085215 
L 333.846 445.042736 
L 333.846 445.008752 
L 334.962 444.898307 
L 334.962 444.855828 
L 336.078 444.745382 
L 336.078 444.66892 
L 337.194 444.558475 
L 337.194 444.439533 
L 337.752 444.439533 
L 337.752 444.329088 
L 337.752 444.320592 
L 338.868 444.24413 
L 338.868 444.210146 
L 338.868 444.150676 
L 339.984 444.048726 
L 339.984 444.04023 
L 339.984 443.997751 
L 341.1 443.904297 
L 341.1 443.887306 
L 341.1 443.827835 
L 342.216 443.742877 
L 342.216 443.71739 
L 342.216 443.623936 
L 342.774 443.623936 
L 342.774 443.51349 
L 342.774 443.445524 
L 343.89 443.335078 
L 343.89 443.241624 
L 344.448 443.241624 
L 344.448 443.131179 
L 344.448 443.0887 
L 345.006 443.0887 
L 345.006 442.978254 
L 345.006 442.935775 
L 345.564 442.935775 
L 345.564 442.82533 
L 345.564 442.791347 
L 346.122 442.791347 
L 346.122 442.680901 
L 346.122 442.646918 
L 346.68 442.646918 
L 346.68 442.536472 
L 346.68 442.527977 
L 347.238 442.527977 
L 347.238 442.417531 
L 347.238 442.409035 
L 348.354 442.315581 
L 348.354 442.29859 
L 348.354 442.171153 
L 348.912 442.171153 
L 348.912 442.060707 
L 348.912 441.984245 
L 350.028 441.873799 
L 350.028 441.729371 
L 350.586 441.729371 
L 350.586 441.618925 
L 350.586 441.610429 
L 351.144 441.610429 
L 351.144 441.499984 
L 351.144 441.466001 
L 351.702 441.466001 
L 351.702 441.355555 
L 351.702 441.253605 
L 352.26 441.253605 
L 352.26 441.14316 
L 352.26 441.075193 
L 352.818 441.075193 
L 352.818 440.964748 
L 352.818 440.896781 
L 353.376 440.896781 
L 353.376 440.786336 
L 353.376 440.718369 
L 353.934 440.718369 
L 353.934 440.607924 
L 353.934 440.497478 
L 354.492 440.497478 
L 354.492 440.387033 
L 354.492 440.242604 
L 355.05 440.242604 
L 355.05 440.132159 
L 355.05 440.030209 
L 355.608 440.030209 
L 355.608 439.919764 
L 355.608 439.82631 
L 356.724 439.732856 
L 356.724 439.715864 
L 356.724 439.520461 
L 357.282 439.520461 
L 357.282 439.410015 
L 357.282 439.172132 
L 357.84 439.172132 
L 357.84 439.061687 
L 357.84 439.002216 
L 358.398 439.002216 
L 358.398 438.891771 
L 358.398 438.781325 
L 358.956 438.781325 
L 358.956 438.67088 
L 358.956 438.534947 
L 359.514 438.534947 
L 359.514 438.424501 
L 359.514 438.339543 
L 360.072 438.339543 
L 360.072 438.229098 
L 360.072 438.067677 
L 360.63 438.067677 
L 360.63 437.957232 
L 360.63 437.863778 
L 361.188 437.863778 
L 361.188 437.753333 
L 361.188 437.608904 
L 361.746 437.608904 
L 361.746 437.498458 
L 361.746 437.379517 
L 362.304 437.379517 
L 362.304 437.269072 
L 362.304 437.201105 
L 362.862 437.201105 
L 362.862 437.09066 
L 362.862 436.920743 
L 363.42 436.920743 
L 363.42 436.810298 
L 363.42 436.62339 
L 363.978 436.62339 
L 363.978 436.512945 
L 363.978 436.377012 
L 364.536 436.377012 
L 364.536 436.266566 
L 364.536 436.122138 
L 365.094 436.122138 
L 365.094 436.011692 
L 365.094 435.892751 
L 365.652 435.892751 
L 365.652 435.782305 
L 365.652 435.67186 
L 366.21 435.67186 
L 366.21 435.561414 
L 366.21 435.450969 
L 366.768 435.450969 
L 366.768 435.340523 
L 366.768 435.017683 
L 367.326 435.017683 
L 367.326 434.907237 
L 367.326 434.788296 
L 367.884 434.788296 
L 367.884 434.67785 
L 367.884 434.482447 
L 368.442 434.482447 
L 368.442 434.372001 
L 368.442 434.159606 
L 369 434.159606 
L 369 434.04916 
L 369 433.870748 
L 369.558 433.870748 
L 369.558 433.760303 
L 369.558 433.52242 
L 370.116 433.52242 
L 370.116 433.411975 
L 370.116 433.174092 
L 370.674 433.174092 
L 370.674 433.063647 
L 370.674 432.766293 
L 371.232 432.766293 
L 371.232 432.655848 
L 371.232 432.443453 
L 371.79 432.443453 
L 371.79 432.333007 
L 371.79 431.908217 
L 372.348 431.908217 
L 372.348 431.797771 
L 372.348 431.508914 
L 372.906 431.508914 
L 372.906 431.398468 
L 372.906 431.143594 
L 373.464 431.143594 
L 373.464 431.033149 
L 373.464 430.684821 
L 374.022 430.684821 
L 374.022 430.574375 
L 374.022 430.302509 
L 374.58 430.302509 
L 374.58 430.192064 
L 374.58 429.962677 
L 375.138 429.962677 
L 375.138 429.852231 
L 375.138 429.546382 
L 375.696 429.546382 
L 375.696 429.435937 
L 375.696 429.198054 
L 376.254 429.198054 
L 376.254 429.087609 
L 376.254 428.84123 
L 376.812 428.84123 
L 376.812 428.730785 
L 376.812 428.458919 
L 377.37 428.458919 
L 377.37 428.348473 
L 377.37 428.187053 
L 377.928 428.187053 
L 377.928 428.076608 
L 377.928 427.915187 
L 378.486 427.915187 
L 378.486 427.804742 
L 378.486 427.464909 
L 379.044 427.464909 
L 379.044 427.354464 
L 379.044 427.091094 
L 379.602 427.091094 
L 379.602 426.980648 
L 379.602 426.793741 
L 380.16 426.793741 
L 380.16 426.683295 
L 380.16 426.436917 
L 380.718 426.436917 
L 380.718 426.326471 
L 380.718 426.020622 
L 381.276 426.020622 
L 381.276 425.910177 
L 381.276 425.621319 
L 381.834 425.621319 
L 381.834 425.510874 
L 381.834 425.230512 
L 382.392 425.230512 
L 382.392 425.120067 
L 382.392 424.814217 
L 382.95 424.814217 
L 382.95 424.703772 
L 382.95 424.304469 
L 383.508 424.304469 
L 383.508 424.194024 
L 383.508 423.990124 
L 384.066 423.990124 
L 384.066 423.879679 
L 384.066 423.47188 
L 384.624 423.47188 
L 384.624 423.361434 
L 384.624 423.140543 
L 385.182 423.140543 
L 385.182 423.030098 
L 385.182 422.57982 
L 385.74 422.57982 
L 385.74 422.469375 
L 385.74 422.112551 
L 386.298 422.112551 
L 386.298 422.002105 
L 386.298 421.509348 
L 386.856 421.509348 
L 386.856 421.398903 
L 386.856 420.957121 
L 387.414 420.957121 
L 387.414 420.846675 
L 387.414 420.523835 
L 387.972 420.523835 
L 387.972 420.413389 
L 387.972 419.988599 
L 388.53 419.988599 
L 388.53 419.878153 
L 388.53 419.538321 
L 389.088 419.538321 
L 389.088 419.427875 
L 389.088 419.020077 
L 389.646 419.020077 
L 389.646 418.909631 
L 389.646 418.433866 
L 390.204 418.433866 
L 390.204 418.32342 
L 390.204 417.873143 
L 390.762 417.873143 
L 390.762 417.762697 
L 390.762 417.320915 
L 391.32 417.320915 
L 391.32 417.21047 
L 391.32 416.68373 
L 391.878 416.68373 
L 391.878 416.573284 
L 391.878 415.978577 
L 392.436 415.978577 
L 392.436 415.868132 
L 392.436 415.400863 
L 392.994 415.400863 
L 392.994 415.290417 
L 392.994 414.840139 
L 393.552 414.840139 
L 393.552 414.729694 
L 393.552 414.126491 
L 394.11 414.126491 
L 394.11 414.016046 
L 394.11 413.557272 
L 394.668 413.557272 
L 394.668 413.446827 
L 394.668 412.988053 
L 395.226 412.988053 
L 395.226 412.877608 
L 395.226 412.401842 
L 395.784 412.401842 
L 395.784 412.291397 
L 395.784 411.883598 
L 396.342 411.883598 
L 396.342 411.773153 
L 396.342 411.305883 
L 396.9 411.305883 
L 396.9 411.195438 
L 396.9 410.711177 
L 397.458 410.711177 
L 397.458 410.600731 
L 397.458 410.141958 
L 398.016 410.141958 
L 398.016 410.031512 
L 398.016 409.530259 
L 398.574 409.530259 
L 398.574 409.419814 
L 398.574 408.910065 
L 399.132 408.910065 
L 399.132 408.79962 
L 399.132 408.27288 
L 399.69 408.27288 
L 399.69 408.162434 
L 399.69 407.618703 
L 400.248 407.618703 
L 400.248 407.508257 
L 400.248 406.888063 
L 400.806 406.888063 
L 400.806 406.777618 
L 400.806 406.191407 
L 401.364 406.191407 
L 401.364 406.080961 
L 401.364 405.27386 
L 401.922 405.27386 
L 401.922 405.163414 
L 401.922 404.577204 
L 402.48 404.577204 
L 402.48 404.466758 
L 402.48 403.85506 
L 403.038 403.85506 
L 403.038 403.744614 
L 403.038 403.132916 
L 403.596 403.132916 
L 403.596 403.022471 
L 403.596 402.325814 
L 404.154 402.325814 
L 404.154 402.215369 
L 404.154 401.612167 
L 404.712 401.612167 
L 404.712 401.501721 
L 404.712 400.779577 
L 405.27 400.779577 
L 405.27 400.669132 
L 405.27 399.709106 
L 405.828 399.709106 
L 405.828 399.59866 
L 405.828 398.927491 
L 406.386 398.927491 
L 406.386 398.817046 
L 406.386 398.060919 
L 406.944 398.060919 
L 406.944 397.950474 
L 406.944 397.321784 
L 407.502 397.321784 
L 407.502 397.211338 
L 407.502 396.480699 
L 408.06 396.480699 
L 408.06 396.370253 
L 408.06 395.622622 
L 408.618 395.622622 
L 408.618 395.512177 
L 408.618 394.713571 
L 409.176 394.713571 
L 409.176 394.603125 
L 409.176 394.059394 
L 409.734 394.059394 
L 409.734 393.948948 
L 409.734 393.107863 
L 410.292 393.107863 
L 410.292 392.997418 
L 410.292 392.326249 
L 410.85 392.326249 
L 410.85 392.215803 
L 410.85 391.476668 
L 411.408 391.476668 
L 411.408 391.366223 
L 411.408 390.652575 
L 411.966 390.652575 
L 411.966 390.542129 
L 411.966 389.769011 
L 412.524 389.769011 
L 412.524 389.658565 
L 412.524 388.885447 
L 413.082 388.885447 
L 413.082 388.775001 
L 413.082 388.146311 
L 413.64 388.146311 
L 413.64 388.035866 
L 413.64 387.109823 
L 414.198 387.109823 
L 414.198 386.999377 
L 414.198 386.158292 
L 414.756 386.158292 
L 414.756 386.047847 
L 414.756 385.495619 
L 415.314 385.495619 
L 415.314 385.385174 
L 415.314 384.450635 
L 415.872 384.450635 
L 415.872 384.34019 
L 415.872 383.567071 
L 416.43 383.567071 
L 416.43 383.456626 
L 416.43 382.759969 
L 416.988 382.759969 
L 416.988 382.649524 
L 416.988 381.986851 
L 417.546 381.986851 
L 417.546 381.876405 
L 417.546 380.97585 
L 418.104 380.97585 
L 418.104 380.865404 
L 418.104 380.160252 
L 418.662 380.160252 
L 418.662 380.049807 
L 418.662 379.047301 
L 419.22 379.047301 
L 419.22 378.936856 
L 419.22 378.104267 
L 419.778 378.104267 
L 419.778 377.993821 
L 419.778 377.331148 
L 420.336 377.331148 
L 420.336 377.220703 
L 420.336 376.490063 
L 420.894 376.490063 
L 420.894 376.379618 
L 420.894 375.530037 
L 421.452 375.530037 
L 421.452 375.419591 
L 421.452 374.629481 
L 422.01 374.629481 
L 422.01 374.519036 
L 422.01 373.440068 
L 422.568 373.440068 
L 422.568 373.329623 
L 422.568 372.259151 
L 423.126 372.259151 
L 423.126 372.148706 
L 423.126 371.443553 
L 423.684 371.443553 
L 423.684 371.333108 
L 423.684 370.424057 
L 424.242 370.424057 
L 424.242 370.313611 
L 424.242 369.531997 
L 424.8 369.531997 
L 424.8 369.421551 
L 424.8 368.487012 
L 425.358 368.487012 
L 425.358 368.376567 
L 425.358 367.501499 
L 425.916 367.501499 
L 425.916 367.391053 
L 425.916 366.507489 
L 426.474 366.507489 
L 426.474 366.397044 
L 426.474 365.437017 
L 427.032 365.437017 
L 427.032 365.326572 
L 427.032 364.443008 
L 427.59 364.443008 
L 427.59 364.332562 
L 427.59 363.440503 
L 428.148 363.440503 
L 428.148 363.330057 
L 428.148 362.522955 
L 428.706 362.522955 
L 428.706 362.41251 
L 428.706 361.248584 
L 429.264 361.248584 
L 429.264 361.138139 
L 429.264 360.2036 
L 429.822 360.2036 
L 429.822 360.093154 
L 429.822 359.303044 
L 430.38 359.303044 
L 430.38 359.192599 
L 430.38 358.41948 
L 430.938 358.41948 
L 430.938 358.309035 
L 430.938 357.247059 
L 431.496 357.247059 
L 431.496 357.136613 
L 431.496 355.972688 
L 432.054 355.972688 
L 432.054 355.862242 
L 432.054 354.876728 
L 432.612 354.876728 
L 432.612 354.766283 
L 432.612 353.797761 
L 433.17 353.797761 
L 433.17 353.687315 
L 433.17 352.650827 
L 433.728 352.650827 
L 433.728 352.540381 
L 433.728 351.452918 
L 434.286 351.452918 
L 434.286 351.342472 
L 434.286 350.492892 
L 434.844 350.492892 
L 434.844 350.382446 
L 434.844 349.473395 
L 435.402 349.473395 
L 435.402 349.362949 
L 435.402 348.317965 
L 435.96 348.317965 
L 435.96 348.207519 
L 435.96 347.349443 
L 436.518 347.349443 
L 436.518 347.238997 
L 436.518 346.414904 
L 437.076 346.414904 
L 437.076 346.304459 
L 437.076 345.310449 
L 437.634 345.310449 
L 437.634 345.200004 
L 437.634 344.239977 
L 438.192 344.239977 
L 438.192 344.129532 
L 438.192 343.118531 
L 438.75 343.118531 
L 438.75 343.008085 
L 438.75 342.073546 
L 439.308 342.073546 
L 439.308 341.963101 
L 439.308 341.01157 
L 439.866 341.01157 
L 439.866 340.901125 
L 439.866 339.85614 
L 440.424 339.85614 
L 440.424 339.745695 
L 440.424 338.972576 
L 440.982 338.972576 
L 440.982 338.862131 
L 440.982 337.9106 
L 441.54 337.9106 
L 441.54 337.800155 
L 441.54 336.908095 
L 442.098 336.908095 
L 442.098 336.79765 
L 442.098 335.880102 
L 442.656 335.880102 
L 442.656 335.769657 
L 442.656 334.860606 
L 443.214 334.860606 
L 443.214 334.75016 
L 443.214 333.518268 
L 443.772 333.518268 
L 443.772 333.407822 
L 443.772 332.303367 
L 444.33 332.303367 
L 444.33 332.192922 
L 444.33 331.012005 
L 444.888 331.012005 
L 444.888 330.901559 
L 444.888 329.899054 
L 445.446 329.899054 
L 445.446 329.788608 
L 445.446 328.675658 
L 446.004 328.675658 
L 446.004 328.565212 
L 446.004 327.426774 
L 446.562 327.426774 
L 446.562 327.316328 
L 446.562 326.322319 
L 447.12 326.322319 
L 447.12 326.211873 
L 447.12 325.166889 
L 447.678 325.166889 
L 447.678 325.056443 
L 447.678 324.121905 
L 448.236 324.121905 
L 448.236 324.011459 
L 448.236 323.136391 
L 448.794 323.136391 
L 448.794 323.025945 
L 448.794 322.167869 
L 449.352 322.167869 
L 449.352 322.057423 
L 449.352 320.876506 
L 449.91 320.876506 
L 449.91 320.766061 
L 449.91 319.755059 
L 450.468 319.755059 
L 450.468 319.644614 
L 450.468 318.710075 
L 451.026 318.710075 
L 451.026 318.59963 
L 451.026 317.597124 
L 451.584 317.597124 
L 451.584 317.486679 
L 451.584 316.543644 
L 452.142 316.543644 
L 452.142 316.433199 
L 452.142 315.439189 
L 452.7 315.439189 
L 452.7 315.328744 
L 452.7 314.062868 
L 453.258 314.062868 
L 453.258 313.952423 
L 453.258 312.890447 
L 453.816 312.890447 
L 453.816 312.780001 
L 453.816 311.548109 
L 454.374 311.548109 
L 454.374 311.437664 
L 454.374 310.307721 
L 454.932 310.307721 
L 454.932 310.197276 
L 454.932 309.262737 
L 455.49 309.262737 
L 455.49 309.152291 
L 455.49 307.682517 
L 456.048 307.682517 
L 456.048 307.572071 
L 456.048 306.535583 
L 456.606 306.535583 
L 456.606 306.425137 
L 456.606 305.34617 
L 457.164 305.34617 
L 457.164 305.235724 
L 457.164 304.173748 
L 457.722 304.173748 
L 457.722 304.063303 
L 457.722 303.256201 
L 458.28 303.256201 
L 458.28 303.145755 
L 458.28 301.930855 
L 458.838 301.930855 
L 458.838 301.820409 
L 458.838 300.843391 
L 459.396 300.843391 
L 459.396 300.732946 
L 459.396 299.721945 
L 459.954 299.721945 
L 459.954 299.611499 
L 459.954 298.659969 
L 460.512 298.659969 
L 460.512 298.549523 
L 460.512 297.606489 
L 461.07 297.606489 
L 461.07 297.496043 
L 461.07 296.586992 
L 461.628 296.586992 
L 461.628 296.476546 
L 461.628 295.015267 
L 462.186 295.015267 
L 462.186 294.904822 
L 462.186 293.664434 
L 462.744 293.664434 
L 462.744 293.553988 
L 462.744 292.220147 
L 463.302 292.220147 
L 463.302 292.109701 
L 463.302 290.860817 
L 463.86 290.860817 
L 463.86 290.750372 
L 463.86 289.229622 
L 464.418 289.229622 
L 464.418 289.119177 
L 464.418 287.810822 
L 464.976 287.810822 
L 464.976 287.700377 
L 464.976 286.459989 
L 465.534 286.459989 
L 465.534 286.349544 
L 465.534 285.16013 
L 466.092 285.16013 
L 466.092 285.049685 
L 466.092 283.84328 
L 466.65 283.84328 
L 466.65 283.732835 
L 466.65 282.373506 
L 467.208 282.373506 
L 467.208 282.26306 
L 467.208 281.099134 
L 467.766 281.099134 
L 467.766 280.988689 
L 467.766 279.841755 
L 468.324 279.841755 
L 468.324 279.731309 
L 468.324 278.677829 
L 468.882 278.677829 
L 468.882 278.567384 
L 468.882 277.471425 
L 469.44 277.471425 
L 469.44 277.360979 
L 469.44 276.120591 
L 469.998 276.120591 
L 469.998 276.010146 
L 469.998 274.769758 
L 470.556 274.769758 
L 470.556 274.659312 
L 470.556 273.537866 
L 471.114 273.537866 
L 471.114 273.42742 
L 471.114 272.467394 
L 471.672 272.467394 
L 471.672 272.356948 
L 471.672 271.405418 
L 472.23 271.405418 
L 472.23 271.294972 
L 472.23 270.071576 
L 472.788 270.071576 
L 472.788 269.96113 
L 472.788 268.780213 
L 473.346 268.780213 
L 473.346 268.669768 
L 473.346 267.454867 
L 473.904 267.454867 
L 473.904 267.344422 
L 473.904 266.197488 
L 474.462 266.197488 
L 474.462 266.087042 
L 474.462 264.914621 
L 475.02 264.914621 
L 475.02 264.804175 
L 475.02 263.597771 
L 475.578 263.597771 
L 475.578 263.487325 
L 475.578 262.272425 
L 476.136 262.272425 
L 476.136 262.161979 
L 476.136 261.142482 
L 476.694 261.142482 
L 476.694 261.032037 
L 476.694 260.080506 
L 477.252 260.080506 
L 477.252 259.970061 
L 477.252 258.993043 
L 477.81 258.993043 
L 477.81 258.882597 
L 477.81 257.778142 
L 478.368 257.778142 
L 478.368 257.667697 
L 478.368 256.503771 
L 478.926 256.503771 
L 478.926 256.393326 
L 478.926 255.365333 
L 479.484 255.365333 
L 479.484 255.254887 
L 479.484 254.184416 
L 480.042 254.184416 
L 480.042 254.07397 
L 480.042 252.952523 
L 480.6 252.952523 
L 480.6 252.842078 
L 480.6 251.567707 
L 481.158 251.567707 
L 481.158 251.457261 
L 481.158 250.361302 
L 481.716 250.361302 
L 481.716 250.250857 
L 481.716 249.103923 
L 482.274 249.103923 
L 482.274 248.993477 
L 482.274 247.787072 
L 482.832 247.787072 
L 482.832 247.676627 
L 482.832 246.623147 
L 483.39 246.623147 
L 483.39 246.512701 
L 483.39 245.484709 
L 483.948 245.484709 
L 483.948 245.374263 
L 483.948 244.388749 
L 484.506 244.388749 
L 484.506 244.278304 
L 484.506 243.258807 
L 485.064 243.258807 
L 485.064 243.148361 
L 485.064 242.205327 
L 485.622 242.205327 
L 485.622 242.094881 
L 485.622 241.015914 
L 486.18 241.015914 
L 486.18 240.905468 
L 486.18 239.792517 
L 486.738 239.792517 
L 486.738 239.682072 
L 486.738 238.790012 
L 487.296 238.790012 
L 487.296 238.679567 
L 487.296 237.532633 
L 487.854 237.532633 
L 487.854 237.422187 
L 487.854 236.394194 
L 488.412 236.394194 
L 488.412 236.283749 
L 488.412 234.864949 
L 488.97 234.864949 
L 488.97 234.754503 
L 488.97 233.684032 
L 489.528 233.684032 
L 489.528 233.573586 
L 489.528 232.282223 
L 490.086 232.282223 
L 490.086 232.171778 
L 490.086 231.058827 
L 490.644 231.058827 
L 490.644 230.948382 
L 490.644 229.911893 
L 491.202 229.911893 
L 491.202 229.801447 
L 491.202 228.739472 
L 491.76 228.739472 
L 491.76 228.629026 
L 491.76 227.601033 
L 492.318 227.601033 
L 492.318 227.490588 
L 492.318 226.51357 
L 492.876 226.51357 
L 492.876 226.403124 
L 492.876 225.400619 
L 493.434 225.400619 
L 493.434 225.290174 
L 493.434 224.415105 
L 493.992 224.415105 
L 493.992 224.30466 
L 493.992 223.421096 
L 494.55 223.421096 
L 494.55 223.31065 
L 494.55 222.053271 
L 495.108 222.053271 
L 495.108 221.942825 
L 495.108 220.744916 
L 495.666 220.744916 
L 495.666 220.634471 
L 495.666 219.674445 
L 496.224 219.674445 
L 496.224 219.563999 
L 496.224 218.586981 
L 496.782 218.586981 
L 496.782 218.476536 
L 496.782 217.295619 
L 497.34 217.295619 
L 497.34 217.185173 
L 497.34 216.080718 
L 497.898 216.080718 
L 497.898 215.970273 
L 497.898 214.806347 
L 498.456 214.806347 
L 498.456 214.695901 
L 498.456 213.78685 
L 499.014 213.78685 
L 499.014 213.676404 
L 499.014 212.809832 
L 499.572 212.809832 
L 499.572 212.699387 
L 499.572 211.611923 
L 500.13 211.611923 
L 500.13 211.501478 
L 500.13 210.651897 
L 500.688 210.651897 
L 500.688 210.541451 
L 500.688 209.377526 
L 501.246 209.377526 
L 501.246 209.26708 
L 501.246 208.392012 
L 501.804 208.392012 
L 501.804 208.281567 
L 501.804 207.431986 
L 502.362 207.431986 
L 502.362 207.32154 
L 502.362 206.37001 
L 502.92 206.37001 
L 502.92 206.259564 
L 502.92 205.384496 
L 503.478 205.384496 
L 503.478 205.274051 
L 503.478 204.186587 
L 504.036 204.186587 
L 504.036 204.076142 
L 504.036 203.124611 
L 504.594 203.124611 
L 504.594 203.014166 
L 504.594 201.79077 
L 505.152 201.79077 
L 505.152 201.680324 
L 505.152 200.278516 
L 505.71 200.278516 
L 505.71 200.16807 
L 505.71 199.343977 
L 506.268 199.343977 
L 506.268 199.233531 
L 506.268 198.290497 
L 506.826 198.290497 
L 506.826 198.180051 
L 506.826 197.237017 
L 507.384 197.237017 
L 507.384 197.126571 
L 507.384 196.01362 
L 507.942 196.01362 
L 507.942 195.903175 
L 507.942 194.977132 
L 508.5 194.977132 
L 508.5 194.866686 
L 508.5 193.949139 
L 509.058 193.949139 
L 509.058 193.838693 
L 509.058 192.827692 
L 509.616 192.827692 
L 509.616 192.717247 
L 509.616 191.5958 
L 510.174 191.5958 
L 510.174 191.485355 
L 510.174 190.550816 
L 510.732 190.550816 
L 510.732 190.44037 
L 510.732 189.480344 
L 511.29 189.480344 
L 511.29 189.369899 
L 511.29 188.647755 
L 511.848 188.647755 
L 511.848 188.537309 
L 511.848 187.611266 
L 512.406 187.611266 
L 512.406 187.500821 
L 512.406 186.540795 
L 512.964 186.540795 
L 512.964 186.430349 
L 512.964 185.393861 
L 513.522 185.393861 
L 513.522 185.283415 
L 513.522 184.306397 
L 514.08 184.306397 
L 514.08 184.195952 
L 514.08 183.091497 
L 514.638 183.091497 
L 514.638 182.981051 
L 514.638 182.029521 
L 515.196 182.029521 
L 515.196 181.919075 
L 515.196 180.942057 
L 515.754 180.942057 
L 515.754 180.831612 
L 515.754 179.769636 
L 516.312 179.769636 
L 516.312 179.65919 
L 516.312 178.435794 
L 516.87 178.435794 
L 516.87 178.325349 
L 516.87 177.356827 
L 517.428 177.356827 
L 517.428 177.246381 
L 517.428 176.184405 
L 517.986 176.184405 
L 517.986 176.07396 
L 517.986 175.096942 
L 518.544 175.096942 
L 518.544 174.986496 
L 518.544 174.051957 
L 519.102 174.051957 
L 519.102 173.941512 
L 519.102 173.023965 
L 519.66 173.023965 
L 519.66 172.913519 
L 519.66 171.970484 
L 520.218 171.970484 
L 520.218 171.860039 
L 520.218 170.883021 
L 520.776 170.883021 
L 520.776 170.772576 
L 520.776 169.787062 
L 521.334 169.787062 
L 521.334 169.676616 
L 521.334 168.708094 
L 521.892 168.708094 
L 521.892 168.597649 
L 521.892 167.646118 
L 522.45 167.646118 
L 522.45 167.535673 
L 522.45 166.567151 
L 523.008 166.567151 
L 523.008 166.456705 
L 523.008 165.488183 
L 523.566 165.488183 
L 523.566 165.377738 
L 523.566 164.247795 
L 524.124 164.247795 
L 524.124 164.13735 
L 524.124 163.194315 
L 524.682 163.194315 
L 524.682 163.08387 
L 524.682 162.047381 
L 525.24 162.047381 
L 525.24 161.936936 
L 525.24 160.798497 
L 525.798 160.798497 
L 525.798 160.688052 
L 525.798 159.821479 
L 526.356 159.821479 
L 526.356 159.711034 
L 526.356 158.606579 
L 526.914 158.606579 
L 526.914 158.496133 
L 526.914 157.230258 
L 527.472 157.230258 
L 527.472 157.119813 
L 527.472 156.040845 
L 528.03 156.040845 
L 528.03 155.9304 
L 528.03 154.876919 
L 528.588 154.876919 
L 528.588 154.766474 
L 528.588 153.551573 
L 529.146 153.551573 
L 529.146 153.441128 
L 529.146 152.183748 
L 529.704 152.183748 
L 529.704 152.073303 
L 529.704 151.011327 
L 530.262 151.011327 
L 530.262 150.900881 
L 530.262 149.72846 
L 530.82 149.72846 
L 530.82 149.618014 
L 530.82 148.556038 
L 531.378 148.556038 
L 531.378 148.445593 
L 531.378 147.366625 
L 531.936 147.366625 
L 531.936 147.25618 
L 531.936 145.973313 
L 532.494 145.973313 
L 532.494 145.862867 
L 532.494 144.690446 
L 533.052 144.690446 
L 533.052 144.58 
L 533.052 143.458554 
L 533.61 143.458554 
L 533.61 143.348108 
L 533.61 142.073737 
L 534.168 142.073737 
L 534.168 141.963292 
L 534.168 140.824853 
L 534.726 140.824853 
L 534.726 140.714408 
L 534.726 139.499507 
L 535.284 139.499507 
L 535.284 139.389062 
L 535.284 138.225136 
L 535.842 138.225136 
L 535.842 138.114691 
L 535.842 136.721378 
L 536.4 136.721378 
L 536.4 136.610933 
L 536.4 135.175141 
L 536.958 135.175141 
L 536.958 135.064696 
L 536.958 133.960241 
L 537.516 133.960241 
L 537.516 133.849795 
L 537.516 132.634895 
L 538.074 132.634895 
L 538.074 132.524449 
L 538.074 131.411499 
L 538.632 131.411499 
L 538.632 131.301053 
L 538.632 129.992699 
L 539.19 129.992699 
L 539.19 129.882253 
L 539.19 128.726823 
L 539.748 128.726823 
L 539.748 128.616378 
L 539.748 127.452452 
L 540.306 127.452452 
L 540.306 127.342007 
L 540.306 126.331005 
L 540.864 126.331005 
L 540.864 126.22056 
L 540.864 125.082122 
L 541.422 125.082122 
L 541.422 124.971676 
L 541.422 123.603851 
L 541.98 123.603851 
L 541.98 123.493406 
L 541.98 122.278505 
L 542.538 122.278505 
L 542.538 122.16806 
L 542.538 121.004134 
L 543.096 121.004134 
L 543.096 120.893689 
L 543.096 119.704275 
L 543.654 119.704275 
L 543.654 119.59383 
L 543.654 118.251492 
L 544.212 118.251492 
L 544.212 118.141047 
L 544.212 116.832692 
L 544.77 116.832692 
L 544.77 116.722247 
L 544.77 115.057069 
L 545.328 115.057069 
L 545.328 114.946623 
L 545.328 113.833672 
L 545.886 113.833672 
L 545.886 113.723227 
L 545.886 112.159998 
L 546.444 112.159998 
L 546.444 112.049553 
L 546.444 111.098022 
L 547.002 111.098022 
L 547.002 110.987577 
L 547.002 109.407357 
L 547.56 109.407357 
L 547.56 109.296911 
L 547.56 108.302902 
L 548.118 108.302902 
L 548.118 108.192456 
L 548.118 106.722681 
L 548.676 106.722681 
L 548.676 106.612236 
L 548.676 104.853604 
L 549.234 104.853604 
L 549.234 104.743158 
L 549.234 103.511266 
L 549.792 103.511266 
L 549.792 103.400821 
L 549.792 102.330349 
L 550.35 102.330349 
L 550.35 102.219903 
L 550.35 101.021994 
L 550.908 101.021994 
L 550.908 100.911549 
L 550.908 99.705144 
L 551.466 99.705144 
L 551.466 99.594699 
L 551.466 97.717125 
L 552.024 97.717125 
L 552.024 97.60668 
L 552.024 96.51072 
L 552.582 96.51072 
L 552.582 96.400275 
L 552.582 95.210862 
L 553.14 95.210862 
L 553.14 95.100416 
L 553.14 94.114903 
L 553.698 94.114903 
L 553.698 94.004457 
L 553.698 92.577161 
L 554.256 92.577161 
L 554.256 92.466716 
L 554.256 91.710589 
L 554.814 91.710589 
L 554.814 91.600144 
L 554.814 90.461705 
L 555.372 90.461705 
L 555.372 90.35126 
L 555.372 89.578141 
L 555.93 89.578141 
L 555.93 89.467696 
L 555.93 88.694577 
L 556.488 88.694577 
L 556.488 88.584132 
L 556.488 87.114357 
L 557.046 87.114357 
L 557.046 87.003912 
L 557.046 85.856978 
L 557.604 85.856978 
L 557.604 85.746532 
L 557.604 84.862968 
L 558.162 84.862968 
L 558.162 84.752523 
L 558.162 83.88595 
L 558.72 83.88595 
L 558.72 83.775505 
L 558.72 82.891941 
L 559.278 82.891941 
L 559.278 82.781495 
L 559.278 81.838461 
L 559.836 81.838461 
L 559.836 81.728015 
L 559.836 80.810468 
L 560.394 80.810468 
L 560.394 80.700022 
L 560.394 79.858937 
L 560.952 79.858937 
L 560.952 79.748492 
L 560.952 78.805457 
L 561.51 78.805457 
L 561.51 78.695012 
L 561.51 78.074818 
L 562.068 78.074818 
L 562.068 77.964372 
L 562.068 77.19975 
L 562.626 77.19975 
L 562.626 77.089304 
L 562.626 76.36716 
L 563.184 76.36716 
L 563.184 76.256715 
L 563.184 75.500588 
L 563.742 75.500588 
L 563.742 75.390143 
L 563.742 74.880394 
L 564.3 74.880394 
L 564.3 74.769949 
L 564.3 74.149755 
L 564.858 74.149755 
L 564.858 74.039309 
L 564.858 73.249199 
L 565.416 73.249199 
L 565.416 73.138753 
L 565.416 72.484576 
L 565.974 72.484576 
L 565.974 72.374131 
L 565.974 71.838895 
L 566.532 71.838895 
L 566.532 71.728449 
L 566.532 71.218701 
L 567.09 71.218701 
L 567.09 71.108255 
L 567.09 70.488061 
L 567.648 70.488061 
L 567.648 70.377616 
L 567.648 70.029288 
L 568.206 70.029288 
L 568.206 69.918842 
L 568.206 69.451573 
L 568.764 69.451573 
L 568.764 69.341127 
L 568.764 69.15422 
L 569.322 69.15422 
L 569.322 69.043774 
L 569.322 68.635975 
L 569.88 68.635975 
L 569.88 68.52553 
L 569.88 68.075252 
L 570.438 68.075252 
L 570.438 67.964807 
L 570.438 67.650462 
L 570.996 67.650462 
L 570.996 67.540016 
L 570.996 67.310629 
L 571.554 67.310629 
L 571.554 67.200184 
L 571.554 66.877343 
L 572.112 66.877343 
L 572.112 66.766898 
L 572.112 66.562998 
L 572.67 66.562998 
L 572.67 66.452553 
L 572.67 66.1552 
L 573.228 66.1552 
L 573.228 66.044754 
L 573.228 65.959796 
L 573.786 65.959796 
L 573.786 65.84935 
L 573.786 65.662443 
L 574.344 65.662443 
L 574.344 65.551997 
L 574.344 65.305619 
L 574.902 65.305619 
L 574.902 65.195173 
L 574.902 64.89782 
L 575.46 64.89782 
L 575.46 64.787375 
L 575.46 64.566484 
L 576.018 64.566484 
L 576.018 64.456038 
L 576.018 64.422055 
L 576.576 64.422055 
L 576.576 64.311609 
L 576.576 64.099214 
L 577.134 64.099214 
L 577.134 63.988769 
L 577.134 63.903811 
L 577.692 63.903811 
L 577.692 63.793365 
L 577.692 63.767878 
L 578.25 63.767878 
L 578.25 63.657432 
L 578.25 63.521499 
L 578.808 63.521499 
L 578.808 63.411054 
L 578.808 63.37707 
L 579.366 63.37707 
L 579.366 63.266625 
L 579.366 63.190163 
L 579.924 63.190163 
L 579.924 63.079717 
L 579.924 63.045734 
L 581.04 62.943784 
L 581.04 62.935288 
L 581.04 62.85033 
L 581.598 62.85033 
L 581.598 62.739885 
L 581.598 62.680414 
L 582.156 62.680414 
L 582.156 62.569969 
L 582.156 62.544481 
L 582.714 62.544481 
L 582.714 62.434036 
L 582.714 62.391557 
L 583.272 62.391557 
L 583.272 62.281111 
L 583.272 62.272615 
L 584.388 62.196153 
L 584.388 62.16217 
L 584.388 62.068716 
L 585.504 61.958271 
L 585.504 61.771363 
L 586.62 61.720388 
L 586.62 61.660917 
L 586.62 61.609942 
L 588.294 61.524984 
L 588.294 61.499497 
L 588.294 61.397547 
L 589.41 61.346572 
L 589.41 61.287102 
L 589.41 61.278606 
L 591.642 61.16816 
L 591.642 61.151169 
L 592.758 61.066211 
L 592.758 61.040723 
L 592.758 60.921782 
L 593.316 60.921782 
L 593.316 60.811337 
L 593.316 60.777353 
L 594.432 60.709387 
L 594.432 60.666908 
L 594.432 60.658412 
L 596.664 60.556462 
L 596.664 60.547966 
L 596.664 60.505487 
L 599.454 60.488496 
L 599.454 60.48 
" clip-path="url(#p363dca2a38)" style="fill: none; stroke-dasharray: 17.92,4.48,2.8,4.48; stroke-dashoffset: 0; stroke: #2ca02c; stroke-width: 2.8"/>
   </g>
   <g id="line2d_15">
    <path d="M 321.012 448.56 
L 321.012 446.023529 
L 324.918 446.023529 
L 324.918 443.487059 
L 331.056 443.487059 
L 331.056 438.414118 
L 332.73 438.414118 
L 332.73 435.877647 
L 333.846 435.877647 
L 333.846 428.268235 
L 336.636 428.268235 
L 336.636 425.731765 
L 337.752 425.731765 
L 337.752 423.195294 
L 338.31 423.195294 
L 338.31 420.658824 
L 338.868 420.658824 
L 338.868 415.585882 
L 339.984 415.585882 
L 339.984 413.049412 
L 341.1 413.049412 
L 341.1 410.512941 
L 341.658 410.512941 
L 341.658 402.903529 
L 342.216 402.903529 
L 342.216 400.367059 
L 343.89 400.367059 
L 343.89 395.294118 
L 345.006 395.294118 
L 345.006 392.757647 
L 346.68 392.757647 
L 346.68 387.684706 
L 348.354 387.684706 
L 348.354 382.611765 
L 348.912 382.611765 
L 348.912 369.929412 
L 349.47 369.929412 
L 349.47 367.392941 
L 350.028 367.392941 
L 350.028 364.856471 
L 351.144 364.856471 
L 351.144 352.174118 
L 352.26 352.174118 
L 352.26 344.564706 
L 353.376 344.564706 
L 353.376 342.028235 
L 353.934 342.028235 
L 353.934 336.955294 
L 354.492 336.955294 
L 354.492 334.418824 
L 355.05 334.418824 
L 355.05 324.272941 
L 355.608 324.272941 
L 355.608 316.663529 
L 356.166 316.663529 
L 356.166 311.590588 
L 356.724 311.590588 
L 356.724 306.517647 
L 358.398 306.517647 
L 358.398 298.908235 
L 358.956 298.908235 
L 358.956 296.371765 
L 360.072 296.371765 
L 360.072 291.298824 
L 361.746 291.298824 
L 361.746 283.689412 
L 362.862 283.689412 
L 362.862 278.616471 
L 363.978 278.616471 
L 363.978 271.007059 
L 364.536 271.007059 
L 364.536 268.470588 
L 365.094 268.470588 
L 365.094 265.934118 
L 366.768 265.934118 
L 366.768 260.861176 
L 367.326 260.861176 
L 367.326 250.715294 
L 367.884 250.715294 
L 367.884 238.032941 
L 368.442 238.032941 
L 368.442 232.96 
L 369 232.96 
L 369 227.887059 
L 369.558 227.887059 
L 369.558 225.350588 
L 370.116 225.350588 
L 370.116 222.814118 
L 371.232 222.814118 
L 371.232 220.277647 
L 371.79 220.277647 
L 371.79 210.131765 
L 372.348 210.131765 
L 372.348 202.522353 
L 372.906 202.522353 
L 372.906 199.985882 
L 373.464 199.985882 
L 373.464 192.376471 
L 374.022 192.376471 
L 374.022 187.303529 
L 374.58 187.303529 
L 374.58 184.767059 
L 375.138 184.767059 
L 375.138 179.694118 
L 375.696 179.694118 
L 375.696 174.621176 
L 376.812 174.621176 
L 376.812 167.011765 
L 377.37 167.011765 
L 377.37 161.938824 
L 380.16 161.938824 
L 380.16 159.402353 
L 380.718 159.402353 
L 380.718 154.329412 
L 381.834 154.329412 
L 381.834 149.256471 
L 382.392 149.256471 
L 382.392 146.72 
L 382.95 146.72 
L 382.95 139.110588 
L 384.066 139.110588 
L 384.066 131.501176 
L 384.624 131.501176 
L 384.624 128.964706 
L 385.182 128.964706 
L 385.182 121.355294 
L 385.74 121.355294 
L 385.74 116.282353 
L 386.298 116.282353 
L 386.298 113.745882 
L 387.972 113.745882 
L 387.972 111.209412 
L 391.32 111.209412 
L 391.32 103.6 
L 391.878 103.6 
L 391.878 95.990588 
L 392.436 95.990588 
L 392.436 93.454118 
L 394.668 93.454118 
L 394.668 90.917647 
L 396.342 90.917647 
L 396.342 88.381176 
L 398.574 88.381176 
L 398.574 85.844706 
L 399.132 85.844706 
L 399.132 83.308235 
L 399.69 83.308235 
L 399.69 80.771765 
L 401.922 80.771765 
L 401.922 78.235294 
L 402.48 78.235294 
L 402.48 75.698824 
L 406.386 75.698824 
L 406.386 73.162353 
L 406.944 73.162353 
L 406.944 70.625882 
L 410.292 70.625882 
L 410.292 65.552941 
L 413.64 65.552941 
L 413.64 63.016471 
L 432.054 63.016471 
L 432.054 60.48 
L 432.054 60.48 
" clip-path="url(#p363dca2a38)" style="fill: none; stroke: #000000; stroke-width: 2.8; stroke-linecap: round"/>
   </g>
   <g id="patch_3">
    <path d="M 90 448.56 
L 90 60.48 
" style="fill: none; stroke: #262626; stroke-width: 1.25; stroke-linejoin: miter; stroke-linecap: square"/>
   </g>
   <g id="patch_4">
    <path d="M 648 448.56 
L 648 60.48 
" style="fill: none; stroke: #262626; stroke-width: 1.25; stroke-linejoin: miter; stroke-linecap: square"/>
   </g>
   <g id="patch_5">
    <path d="M 90 448.56 
L 648 448.56 
" style="fill: none; stroke: #262626; stroke-width: 1.25; stroke-linejoin: miter; stroke-linecap: square"/>
   </g>
   <g id="patch_6">
    <path d="M 90 60.48 
L 648 60.48 
" style="fill: none; stroke: #262626; stroke-width: 1.25; stroke-linejoin: miter; stroke-linecap: square"/>
   </g>
   <g id="text_14">
    <text style="fill: #262626; font: 25px 'Arial', 'Liberation Sans', 'DejaVu Sans', 'Bitstream Vera Sans', sans-serif; text-anchor: middle" x="369" y="54.48" transform="rotate(-0 369 54.48)">Distribution of NP_Like</text>
   </g>
   <g id="legend_1">
    <g id="text_15">
     <text style="fill: #262626; font: 20px 'Arial', 'Liberation Sans', 'DejaVu Sans', 'Bitstream Vera Sans', sans-serif; text-anchor: start" x="130.600781" y="88.295625" transform="rotate(-0 130.600781 88.295625)">DataSet</text>
    </g>
    <g id="line2d_16">
     <path d="M 103.5 105.257344 
L 118.5 105.257344 
L 118.5 105.257344 
L 133.5 105.257344 
L 133.5 105.257344 
" style="fill: none; stroke-dasharray: 10.36,4.48; stroke-dashoffset: 0; stroke: #1f77b4; stroke-width: 2.8"/>
    </g>
    <g id="text_16">
     <text style="fill: #262626; font: 15px 'Arial', 'Liberation Sans', 'DejaVu Sans', 'Bitstream Vera Sans', sans-serif; text-anchor: start" x="145.5" y="110.507344" transform="rotate(-0 145.5 110.507344)">Enamine</text>
    </g>
    <g id="line2d_17">
     <path d="M 103.5 126.475312 
L 118.5 126.475312 
L 118.5 126.475312 
L 133.5 126.475312 
L 133.5 126.475312 
" style="fill: none; stroke-dasharray: 2.8,4.62; stroke-dashoffset: 0; stroke: #ff7f0e; stroke-width: 2.8"/>
    </g>
    <g id="text_17">
     <text style="fill: #262626; font: 15px 'Arial', 'Liberation Sans', 'DejaVu Sans', 'Bitstream Vera Sans', sans-serif; text-anchor: start" x="145.5" y="131.725312" transform="rotate(-0 145.5 131.725312)">DrugBank</text>
    </g>
    <g id="line2d_18">
     <path d="M 103.5 147.869062 
L 118.5 147.869062 
L 118.5 147.869062 
L 133.5 147.869062 
L 133.5 147.869062 
" style="fill: none; stroke-dasharray: 17.92,4.48,2.8,4.48; stroke-dashoffset: 0; stroke: #2ca02c; stroke-width: 2.8"/>
    </g>
    <g id="text_18">
     <text style="fill: #262626; font: 15px 'Arial', 'Liberation Sans', 'DejaVu Sans', 'Bitstream Vera Sans', sans-serif; text-anchor: start" x="145.5" y="153.119062" transform="rotate(-0 145.5 153.119062)">ChEMBL NP</text>
    </g>
    <g id="line2d_19">
     <path d="M 103.5 169.087031 
L 118.5 169.087031 
L 118.5 169.087031 
L 133.5 169.087031 
L 133.5 169.087031 
" style="fill: none; stroke: #000000; stroke-width: 2.8; stroke-linecap: round"/>
    </g>
    <g id="text_19">
     <text style="fill: #262626; font: 15px 'Arial', 'Liberation Sans', 'DejaVu Sans', 'Bitstream Vera Sans', sans-serif; text-anchor: start" x="145.5" y="174.337031" transform="rotate(-0 145.5 174.337031)">PNPs</text>
    </g>
   </g>
  </g>
 </g>
 <defs>
  <clipPath id="p363dca2a38">
   <rect x="90" y="60.48" width="558" height="388.08"/>
  </clipPath>
 </defs>
</svg>
