<?xml version="1.0" encoding="utf-8" standalone="no"?>
<!DOCTYPE svg PUBLIC "-//W3C//DTD SVG 1.1//EN"
  "http://www.w3.org/Graphics/SVG/1.1/DTD/svg11.dtd">
<svg xmlns:xlink="http://www.w3.org/1999/xlink" width="921.6pt" height="633.6pt" viewBox="0 0 921.6 633.6" xmlns="http://www.w3.org/2000/svg" version="1.1">
 <metadata>
  <rdf:RDF xmlns:dc="http://purl.org/dc/elements/1.1/" xmlns:cc="http://creativecommons.org/ns#" xmlns:rdf="http://www.w3.org/1999/02/22-rdf-syntax-ns#">
   <cc:Work>
    <dc:type rdf:resource="http://purl.org/dc/dcmitype/StillImage"/>
    <dc:date>2022-08-17T09:48:01.193135</dc:date>
    <dc:format>image/svg+xml</dc:format>
    <dc:creator>
     <cc:Agent>
      <dc:title>Matplotlib v3.5.1, https://matplotlib.org/</dc:title>
     </cc:Agent>
    </dc:creator>
   </cc:Work>
  </rdf:RDF>
 </metadata>
 <defs>
  <style type="text/css">*{stroke-linejoin: round; stroke-linecap: butt}</style>
 </defs>
 <g id="figure_1">
  <g id="patch_1">
   <path d="M 0 633.6 
L 921.6 633.6 
L 921.6 0 
L 0 0 
z
" style="fill: #ffffff"/>
  </g>
  <g id="axes_1">
   <g id="patch_2">
    <path d="M 115.2 554.4 
L 829.44 554.4 
L 829.44 76.032 
L 115.2 76.032 
z
" style="fill: #ffffff"/>
   </g>
   <g id="matplotlib.axis_1">
    <g id="xtick_1">
     <g id="line2d_1"/>
     <g id="text_1">
      <text style="fill: #262626; font: 20px 'sans-serif'; text-anchor: middle" x="115.2" y="579.915625" transform="rotate(-0, 115.2, 579.915625)">0</text>
     </g>
    </g>
    <g id="xtick_2">
     <g id="line2d_2"/>
     <g id="text_2">
      <text style="fill: #262626; font: 20px 'sans-serif'; text-anchor: middle" x="204.48" y="579.915625" transform="rotate(-0, 204.48, 579.915625)">100</text>
     </g>
    </g>
    <g id="xtick_3">
     <g id="line2d_3"/>
     <g id="text_3">
      <text style="fill: #262626; font: 20px 'sans-serif'; text-anchor: middle" x="293.76" y="579.915625" transform="rotate(-0, 293.76, 579.915625)">200</text>
     </g>
    </g>
    <g id="xtick_4">
     <g id="line2d_4"/>
     <g id="text_4">
      <text style="fill: #262626; font: 20px 'sans-serif'; text-anchor: middle" x="383.04" y="579.915625" transform="rotate(-0, 383.04, 579.915625)">300</text>
     </g>
    </g>
    <g id="xtick_5">
     <g id="line2d_5"/>
     <g id="text_5">
      <text style="fill: #262626; font: 20px 'sans-serif'; text-anchor: middle" x="472.32" y="579.915625" transform="rotate(-0, 472.32, 579.915625)">400</text>
     </g>
    </g>
    <g id="xtick_6">
     <g id="line2d_6"/>
     <g id="text_6">
      <text style="fill: #262626; font: 20px 'sans-serif'; text-anchor: middle" x="561.6" y="579.915625" transform="rotate(-0, 561.6, 579.915625)">500</text>
     </g>
    </g>
    <g id="xtick_7">
     <g id="line2d_7"/>
     <g id="text_7">
      <text style="fill: #262626; font: 20px 'sans-serif'; text-anchor: middle" x="650.88" y="579.915625" transform="rotate(-0, 650.88, 579.915625)">600</text>
     </g>
    </g>
    <g id="xtick_8">
     <g id="line2d_8"/>
     <g id="text_8">
      <text style="fill: #262626; font: 20px 'sans-serif'; text-anchor: middle" x="740.16" y="579.915625" transform="rotate(-0, 740.16, 579.915625)">700</text>
     </g>
    </g>
    <g id="xtick_9">
     <g id="line2d_9"/>
     <g id="text_9">
      <text style="fill: #262626; font: 20px 'sans-serif'; text-anchor: middle" x="829.44" y="579.915625" transform="rotate(-0, 829.44, 579.915625)">800</text>
     </g>
    </g>
    <g id="text_10">
     <text style="fill: #262626; font: 25px 'sans-serif'; text-anchor: middle" x="472.32" y="605.785156" transform="rotate(-0, 472.32, 605.785156)">MW</text>
    </g>
   </g>
   <g id="matplotlib.axis_2">
    <g id="ytick_1">
     <g id="line2d_10"/>
     <g id="text_11">
      <text style="fill: #262626; font: 20px 'sans-serif'; text-anchor: end" x="104" y="561.557813" transform="rotate(-0, 104, 561.557813)">0</text>
     </g>
    </g>
    <g id="ytick_2">
     <g id="line2d_11"/>
     <g id="text_12">
      <text style="fill: #262626; font: 20px 'sans-serif'; text-anchor: end" x="104" y="501.761813" transform="rotate(-0, 104, 501.761813)">1</text>
     </g>
    </g>
    <g id="ytick_3">
     <g id="line2d_12"/>
     <g id="text_13">
      <text style="fill: #262626; font: 20px 'sans-serif'; text-anchor: end" x="104" y="441.965813" transform="rotate(-0, 104, 441.965813)">2</text>
     </g>
    </g>
    <g id="ytick_4">
     <g id="line2d_13"/>
     <g id="text_14">
      <text style="fill: #262626; font: 20px 'sans-serif'; text-anchor: end" x="104" y="382.169813" transform="rotate(-0, 104, 382.169813)">3</text>
     </g>
    </g>
    <g id="ytick_5">
     <g id="line2d_14"/>
     <g id="text_15">
      <text style="fill: #262626; font: 20px 'sans-serif'; text-anchor: end" x="104" y="322.373812" transform="rotate(-0, 104, 322.373812)">4</text>
     </g>
    </g>
    <g id="ytick_6">
     <g id="line2d_15"/>
     <g id="text_16">
      <text style="fill: #262626; font: 20px 'sans-serif'; text-anchor: end" x="104" y="262.577812" transform="rotate(-0, 104, 262.577812)">5</text>
     </g>
    </g>
    <g id="ytick_7">
     <g id="line2d_16"/>
     <g id="text_17">
      <text style="fill: #262626; font: 20px 'sans-serif'; text-anchor: end" x="104" y="202.781813" transform="rotate(-0, 104, 202.781813)">6</text>
     </g>
    </g>
    <g id="ytick_8">
     <g id="line2d_17"/>
     <g id="text_18">
      <text style="fill: #262626; font: 20px 'sans-serif'; text-anchor: end" x="104" y="142.985813" transform="rotate(-0, 104, 142.985813)">7</text>
     </g>
    </g>
    <g id="ytick_9">
     <g id="line2d_18"/>
     <g id="text_19">
      <text style="fill: #262626; font: 20px 'sans-serif'; text-anchor: end" x="104" y="83.189813" transform="rotate(-0, 104, 83.189813)">8</text>
     </g>
    </g>
    <g id="text_20">
     <text style="fill: #262626; font: 25px 'sans-serif'; text-anchor: middle" x="83.616406" y="315.216" transform="rotate(-90, 83.616406, 315.216)">LogP</text>
    </g>
   </g>
   <g id="line2d_19">
    <path d="M 115.2 255.42 
L 561.6 255.42 
L 561.6 554.4 
" clip-path="url(#p9238cac02b)" style="fill: none; stroke: #000000; stroke-width: 2.8; stroke-linecap: round"/>
   </g>
   <g id="line2d_20">
    <defs>
     <path id="me983e657d9" d="M 0 5 
C 1.326016 5 2.597899 4.473168 3.535534 3.535534 
C 4.473168 2.597899 5 1.326016 5 0 
C 5 -1.326016 4.473168 -2.597899 3.535534 -3.535534 
C 2.597899 -4.473168 1.326016 -5 0 -5 
C -1.326016 -5 -2.597899 -4.473168 -3.535534 -3.535534 
C -4.473168 -2.597899 -5 -1.326016 -5 0 
C -5 1.326016 -4.473168 2.597899 -3.535534 3.535534 
C -2.597899 4.473168 -1.326016 5 0 5 
z
"/>
    </defs>
    <g clip-path="url(#p9238cac02b)">
     <use xlink:href="#me983e657d9" x="335.81088" y="346.90788" style="fill: #d62728"/>
     <use xlink:href="#me983e657d9" x="362.603808" y="346.30992" style="fill: #d62728"/>
     <use xlink:href="#me983e657d9" x="375.085152" y="363.0528" style="fill: #d62728"/>
     <use xlink:href="#me983e657d9" x="378.66528" y="337.93848" style="fill: #d62728"/>
     <use xlink:href="#me983e657d9" x="348.327936" y="328.37112" style="fill: #d62728"/>
     <use xlink:href="#me983e657d9" x="351.872352" y="338.53644" style="fill: #d62728"/>
     <use xlink:href="#me983e657d9" x="348.327936" y="328.37112" style="fill: #d62728"/>
     <use xlink:href="#me983e657d9" x="407.243808" y="276.94656" style="fill: #d62728"/>
     <use xlink:href="#me983e657d9" x="351.872352" y="338.53644" style="fill: #d62728"/>
     <use xlink:href="#me983e657d9" x="421.501824" y="246.4506" style="fill: #d62728"/>
     <use xlink:href="#me983e657d9" x="366.130368" y="308.04048" style="fill: #d62728"/>
     <use xlink:href="#me983e657d9" x="351.872352" y="338.53644" style="fill: #d62728"/>
     <use xlink:href="#me983e657d9" x="366.130368" y="308.04048" style="fill: #d62728"/>
     <use xlink:href="#me983e657d9" x="387.602208" y="344.51604" style="fill: #d62728"/>
     <use xlink:href="#me983e657d9" x="378.647424" y="289.50372" style="fill: #d62728"/>
     <use xlink:href="#me983e657d9" x="403.690464" y="266.78124" style="fill: #d62728"/>
     <use xlink:href="#me983e657d9" x="391.146624" y="354.68136" style="fill: #d62728"/>
     <use xlink:href="#me983e657d9" x="367.933824" y="330.165" style="fill: #d62728"/>
     <use xlink:href="#me983e657d9" x="378.66528" y="337.93848" style="fill: #d62728"/>
     <use xlink:href="#me983e657d9" x="382.19184" y="299.66904" style="fill: #d62728"/>
     <use xlink:href="#me983e657d9" x="364.389408" y="319.99968" style="fill: #d62728"/>
     <use xlink:href="#me983e657d9" x="378.66528" y="337.93848" style="fill: #d62728"/>
     <use xlink:href="#me983e657d9" x="382.19184" y="299.66904" style="fill: #d62728"/>
     <use xlink:href="#me983e657d9" x="425.073024" y="235.08936" style="fill: #d62728"/>
     <use xlink:href="#me983e657d9" x="380.468736" y="278.14248" style="fill: #d62728"/>
     <use xlink:href="#me983e657d9" x="389.396736" y="345.71196" style="fill: #d62728"/>
     <use xlink:href="#me983e657d9" x="391.146624" y="354.68136" style="fill: #d62728"/>
     <use xlink:href="#me983e657d9" x="414.386208" y="238.07916" style="fill: #d62728"/>
     <use xlink:href="#me983e657d9" x="351.872352" y="338.53644" style="fill: #d62728"/>
     <use xlink:href="#me983e657d9" x="367.933824" y="330.165" style="fill: #d62728"/>
     <use xlink:href="#me983e657d9" x="401.87808" y="362.45484" style="fill: #d62728"/>
     <use xlink:href="#me983e657d9" x="382.19184" y="299.66904" style="fill: #d62728"/>
     <use xlink:href="#me983e657d9" x="419.716224" y="306.84456" style="fill: #d62728"/>
     <use xlink:href="#me983e657d9" x="416.189664" y="345.114" style="fill: #d62728"/>
     <use xlink:href="#me983e657d9" x="405.458208" y="337.34052" style="fill: #d62728"/>
     <use xlink:href="#me983e657d9" x="401.913792" y="327.1752" style="fill: #d62728"/>
     <use xlink:href="#me983e657d9" x="378.647424" y="289.50372" style="fill: #d62728"/>
     <use xlink:href="#me983e657d9" x="375.085152" y="363.0528" style="fill: #d62728"/>
     <use xlink:href="#me983e657d9" x="416.20752" y="250.63632" style="fill: #d62728"/>
     <use xlink:href="#me983e657d9" x="409.02048" y="267.3792" style="fill: #d62728"/>
    </g>
   </g>
   <g id="line2d_21">
    <defs>
     <path id="m3ea842f148" d="M 0 -5 
L -5 5 
L 5 5 
z
"/>
    </defs>
    <g clip-path="url(#p9238cac02b)">
     <use xlink:href="#m3ea842f148" x="380.441952" y="306.84456" style="fill: #d62728"/>
     <use xlink:href="#m3ea842f148" x="353.675808" y="355.87728" style="fill: #d62728"/>
     <use xlink:href="#m3ea842f148" x="383.995296" y="317.00988" style="fill: #d62728"/>
     <use xlink:href="#m3ea842f148" x="337.614336" y="364.24872" style="fill: #d62728"/>
     <use xlink:href="#m3ea842f148" x="350.122464" y="345.71196" style="fill: #d62728"/>
     <use xlink:href="#m3ea842f148" x="369.73728" y="347.50584" style="fill: #d62728"/>
     <use xlink:href="#m3ea842f148" x="353.675808" y="355.87728" style="fill: #d62728"/>
     <use xlink:href="#m3ea842f148" x="383.995296" y="317.00988" style="fill: #d62728"/>
     <use xlink:href="#m3ea842f148" x="389.396736" y="362.45484" style="fill: #d62728"/>
     <use xlink:href="#m3ea842f148" x="392.95008" y="372.0222" style="fill: #d62728"/>
     <use xlink:href="#m3ea842f148" x="380.468736" y="355.27932" style="fill: #d62728"/>
     <use xlink:href="#m3ea842f148" x="382.263264" y="295.48332" style="fill: #d62728"/>
     <use xlink:href="#m3ea842f148" x="391.200192" y="363.65076" style="fill: #d62728"/>
     <use xlink:href="#m3ea842f148" x="383.995296" y="317.00988" style="fill: #d62728"/>
     <use xlink:href="#m3ea842f148" x="407.261664" y="355.27932" style="fill: #d62728"/>
     <use xlink:href="#m3ea842f148" x="403.70832" y="345.114" style="fill: #d62728"/>
     <use xlink:href="#m3ea842f148" x="364.407264" y="363.65076" style="fill: #d62728"/>
     <use xlink:href="#m3ea842f148" x="376.888608" y="380.39364" style="fill: #d62728"/>
    </g>
   </g>
   <g id="line2d_22">
    <defs>
     <path id="m66922e7826" d="M -5 5 
L 5 5 
L 5 -5 
L -5 -5 
z
"/>
    </defs>
    <g clip-path="url(#p9238cac02b)">
     <use xlink:href="#m66922e7826" x="491.167008" y="290.69964" style="fill: #d62728"/>
     <use xlink:href="#m66922e7826" x="475.105536" y="299.07108" style="fill: #d62728"/>
     <use xlink:href="#m66922e7826" x="385.834464" y="358.26912" style="fill: #d62728"/>
     <use xlink:href="#m66922e7826" x="373.35312" y="329.56704" style="fill: #d62728"/>
     <use xlink:href="#m66922e7826" x="487.560096" y="223.72812" style="fill: #d62728"/>
     <use xlink:href="#m66922e7826" x="371.549664" y="362.45484" style="fill: #d62728"/>
     <use xlink:href="#m66922e7826" x="466.079328" y="287.11188" style="fill: #d62728"/>
     <use xlink:href="#m66922e7826" x="401.913792" y="331.36092" style="fill: #d62728"/>
     <use xlink:href="#m66922e7826" x="528.709248" y="231.5016" style="fill: #d62728"/>
     <use xlink:href="#m66922e7826" x="510.781824" y="292.49352" style="fill: #d62728"/>
     <use xlink:href="#m66922e7826" x="525.03984" y="261.99756" style="fill: #d62728"/>
     <use xlink:href="#m66922e7826" x="559.028736" y="192.6342" style="fill: #d62728"/>
     <use xlink:href="#m66922e7826" x="491.167008" y="290.69964" style="fill: #d62728"/>
     <use xlink:href="#m66922e7826" x="523.29888" y="256.61592" style="fill: #d62728"/>
     <use xlink:href="#m66922e7826" x="405.440352" y="354.68136" style="fill: #d62728"/>
     <use xlink:href="#m66922e7826" x="532.155456" y="272.16288" style="fill: #d62728"/>
     <use xlink:href="#m66922e7826" x="467.927424" y="347.50584" style="fill: #d62728"/>
    </g>
   </g>
   <g id="line2d_23">
    <defs>
     <path id="mfc0f3a9740" d="M 0 -5 
L -4.755283 -1.545085 
L -2.938926 4.045085 
L 2.938926 4.045085 
L 4.755283 -1.545085 
z
"/>
    </defs>
    <g clip-path="url(#p9238cac02b)">
     <use xlink:href="#mfc0f3a9740" x="442.875456" y="337.93848" style="fill: #d62728"/>
     <use xlink:href="#mfc0f3a9740" x="448.294752" y="278.14248" style="fill: #d62728"/>
     <use xlink:href="#mfc0f3a9740" x="450.017856" y="299.66904" style="fill: #d62728"/>
     <use xlink:href="#mfc0f3a9740" x="487.54224" y="307.44252" style="fill: #d62728"/>
     <use xlink:href="#mfc0f3a9740" x="446.491296" y="338.53644" style="fill: #d62728"/>
     <use xlink:href="#mfc0f3a9740" x="455.481792" y="297.2772" style="fill: #d62728"/>
     <use xlink:href="#mfc0f3a9740" x="373.317408" y="360.66096" style="fill: #d62728"/>
     <use xlink:href="#mfc0f3a9740" x="450.017856" y="299.66904" style="fill: #d62728"/>
     <use xlink:href="#mfc0f3a9740" x="419.698368" y="339.1344" style="fill: #d62728"/>
     <use xlink:href="#mfc0f3a9740" x="403.636896" y="347.50584" style="fill: #d62728"/>
    </g>
   </g>
   <g id="line2d_24">
    <defs>
     <path id="md2690f6e3f" d="M -1.666667 5 
L 1.666667 5 
L 1.666667 1.666667 
L 5 1.666667 
L 5 -1.666667 
L 1.666667 -1.666667 
L 1.666667 -5 
L -1.666667 -5 
L -1.666667 -1.666667 
L -5 -1.666667 
L -5 1.666667 
L -1.666667 1.666667 
z
"/>
    </defs>
    <g clip-path="url(#p9238cac02b)">
     <use xlink:href="#md2690f6e3f" x="426.885408" y="313.42212" style="fill: #d62728"/>
     <use xlink:href="#md2690f6e3f" x="467.05248" y="318.80376" style="fill: #d62728"/>
     <use xlink:href="#md2690f6e3f" x="453.678336" y="312.82416" style="fill: #d62728"/>
     <use xlink:href="#md2690f6e3f" x="439.402464" y="294.88536" style="fill: #d62728"/>
     <use xlink:href="#md2690f6e3f" x="459.008352" y="296.67924" style="fill: #d62728"/>
     <use xlink:href="#md2690f6e3f" x="432.206496" y="309.83436" style="fill: #d62728"/>
     <use xlink:href="#md2690f6e3f" x="473.266368" y="266.18328" style="fill: #d62728"/>
     <use xlink:href="#md2690f6e3f" x="457.204896" y="274.55472" style="fill: #d62728"/>
     <use xlink:href="#md2690f6e3f" x="442.94688" y="305.05068" style="fill: #d62728"/>
     <use xlink:href="#md2690f6e3f" x="471.543264" y="244.65672" style="fill: #d62728"/>
     <use xlink:href="#md2690f6e3f" x="485.783424" y="247.64652" style="fill: #d62728"/>
     <use xlink:href="#md2690f6e3f" x="507.264192" y="311.62824" style="fill: #d62728"/>
     <use xlink:href="#md2690f6e3f" x="498.336192" y="244.05876" style="fill: #d62728"/>
     <use xlink:href="#md2690f6e3f" x="484.051392" y="226.11996" style="fill: #d62728"/>
     <use xlink:href="#md2690f6e3f" x="485.783424" y="247.64652" style="fill: #d62728"/>
     <use xlink:href="#md2690f6e3f" x="480.471264" y="312.2262" style="fill: #d62728"/>
     <use xlink:href="#md2690f6e3f" x="492.98832" y="294.2874" style="fill: #d62728"/>
     <use xlink:href="#md2690f6e3f" x="480.471264" y="312.2262" style="fill: #d62728"/>
     <use xlink:href="#md2690f6e3f" x="482.256864" y="285.91596" style="fill: #d62728"/>
     <use xlink:href="#md2690f6e3f" x="466.195392" y="294.2874" style="fill: #d62728"/>
    </g>
   </g>
   <g id="line2d_25">
    <defs>
     <path id="m63cbd360d2" d="M 0 -5 
L -1.12257 -1.545085 
L -4.755283 -1.545085 
L -1.816356 0.59017 
L -2.938926 4.045085 
L -0 1.90983 
L 2.938926 4.045085 
L 1.816356 0.59017 
L 4.755283 -1.545085 
L 1.12257 -1.545085 
z
"/>
    </defs>
    <g clip-path="url(#p9238cac02b)">
     <use xlink:href="#m63cbd360d2" x="337.614336" y="336.74256" style="fill: #d62728"/>
     <use xlink:href="#m63cbd360d2" x="351.890208" y="354.68136" style="fill: #d62728"/>
     <use xlink:href="#m63cbd360d2" x="364.371552" y="371.42424" style="fill: #d62728"/>
     <use xlink:href="#m63cbd360d2" x="392.976864" y="268.57512" style="fill: #d62728"/>
     <use xlink:href="#m63cbd360d2" x="410.788224" y="247.64652" style="fill: #d62728"/>
     <use xlink:href="#m63cbd360d2" x="396.530208" y="278.74044" style="fill: #d62728"/>
     <use xlink:href="#m63cbd360d2" x="376.888608" y="352.88748" style="fill: #d62728"/>
     <use xlink:href="#m63cbd360d2" x="419.743008" y="303.2568" style="fill: #d62728"/>
     <use xlink:href="#m63cbd360d2" x="426.849696" y="239.27508" style="fill: #d62728"/>
     <use xlink:href="#m63cbd360d2" x="380.468736" y="287.11188" style="fill: #d62728"/>
     <use xlink:href="#m63cbd360d2" x="341.158752" y="346.90788" style="fill: #d62728"/>
     <use xlink:href="#m63cbd360d2" x="367.933824" y="297.2772" style="fill: #d62728"/>
     <use xlink:href="#m63cbd360d2" x="410.788224" y="247.64652" style="fill: #d62728"/>
     <use xlink:href="#m63cbd360d2" x="426.849696" y="239.27508" style="fill: #d62728"/>
     <use xlink:href="#m63cbd360d2" x="396.530208" y="278.74044" style="fill: #d62728"/>
     <use xlink:href="#m63cbd360d2" x="337.614336" y="336.74256" style="fill: #d62728"/>
     <use xlink:href="#m63cbd360d2" x="355.416768" y="315.81396" style="fill: #d62728"/>
     <use xlink:href="#m63cbd360d2" x="396.530208" y="278.74044" style="fill: #d62728"/>
     <use xlink:href="#m63cbd360d2" x="353.675808" y="328.37112" style="fill: #d62728"/>
     <use xlink:href="#m63cbd360d2" x="325.09728" y="354.68136" style="fill: #d62728"/>
     <use xlink:href="#m63cbd360d2" x="369.755136" y="285.91596" style="fill: #d62728"/>
     <use xlink:href="#m63cbd360d2" x="341.158752" y="346.90788" style="fill: #d62728"/>
     <use xlink:href="#m63cbd360d2" x="371.47824" y="307.44252" style="fill: #d62728"/>
     <use xlink:href="#m63cbd360d2" x="385.816608" y="277.54452" style="fill: #d62728"/>
    </g>
   </g>
   <g id="line2d_26">
    <defs>
     <path id="mb24b19aeba" d="M -2.5 5 
L 0 2.5 
L 2.5 5 
L 5 2.5 
L 2.5 0 
L 5 -2.5 
L 2.5 -5 
L 0 -2.5 
L -2.5 -5 
L -5 -2.5 
L -2.5 0 
L -5 2.5 
z
"/>
    </defs>
    <g clip-path="url(#p9238cac02b)">
     <use xlink:href="#mb24b19aeba" x="405.458208" y="316.41192" style="fill: #d62728"/>
     <use xlink:href="#mb24b19aeba" x="366.157152" y="376.20792" style="fill: #d62728"/>
     <use xlink:href="#mb24b19aeba" x="362.603808" y="366.0426" style="fill: #d62728"/>
     <use xlink:href="#mb24b19aeba" x="376.888608" y="383.9814" style="fill: #d62728"/>
     <use xlink:href="#mb24b19aeba" x="389.361024" y="400.72428" style="fill: #d62728"/>
     <use xlink:href="#mb24b19aeba" x="417.975264" y="297.87516" style="fill: #d62728"/>
     <use xlink:href="#mb24b19aeba" x="435.777696" y="277.54452" style="fill: #d62728"/>
     <use xlink:href="#mb24b19aeba" x="401.87808" y="382.18752" style="fill: #d62728"/>
     <use xlink:href="#mb24b19aeba" x="444.73248" y="332.55684" style="fill: #d62728"/>
     <use xlink:href="#mb24b19aeba" x="462.570624" y="276.94656" style="fill: #d62728"/>
     <use xlink:href="#mb24b19aeba" x="392.923296" y="326.57724" style="fill: #d62728"/>
     <use xlink:href="#mb24b19aeba" x="421.51968" y="308.04048" style="fill: #d62728"/>
     <use xlink:href="#mb24b19aeba" x="350.086752" y="384.57936" style="fill: #d62728"/>
     <use xlink:href="#mb24b19aeba" x="378.66528" y="357.67116" style="fill: #d62728"/>
     <use xlink:href="#mb24b19aeba" x="392.923296" y="326.57724" style="fill: #d62728"/>
     <use xlink:href="#mb24b19aeba" x="396.47664" y="336.74256" style="fill: #d62728"/>
     <use xlink:href="#mb24b19aeba" x="396.47664" y="336.74256" style="fill: #d62728"/>
     <use xlink:href="#mb24b19aeba" x="410.80608" y="306.84456" style="fill: #d62728"/>
     <use xlink:href="#mb24b19aeba" x="366.157152" y="376.20792" style="fill: #d62728"/>
     <use xlink:href="#mb24b19aeba" x="392.95008" y="375.60996" style="fill: #d62728"/>
    </g>
   </g>
   <g id="line2d_27">
    <defs>
     <path id="md432949742" d="M -5 -0 
L 5 5 
L 5 -5 
z
"/>
    </defs>
    <g clip-path="url(#p9238cac02b)">
     <use xlink:href="#md432949742" x="360.800352" y="361.85688" style="fill: #d62728"/>
     <use xlink:href="#md432949742" x="373.317408" y="343.32012" style="fill: #d62728"/>
     <use xlink:href="#md432949742" x="376.870752" y="353.48544" style="fill: #d62728"/>
     <use xlink:href="#md432949742" x="387.602208" y="361.25892" style="fill: #d62728"/>
    </g>
   </g>
   <g id="patch_3">
    <path d="M 115.2 554.4 
L 115.2 76.032 
" style="fill: none; stroke: #262626; stroke-width: 1.25; stroke-linejoin: miter; stroke-linecap: square"/>
   </g>
   <g id="patch_4">
    <path d="M 829.44 554.4 
L 829.44 76.032 
" style="fill: none; stroke: #262626; stroke-width: 1.25; stroke-linejoin: miter; stroke-linecap: square"/>
   </g>
   <g id="patch_5">
    <path d="M 115.2 554.4 
L 829.44 554.4 
" style="fill: none; stroke: #262626; stroke-width: 1.25; stroke-linejoin: miter; stroke-linecap: square"/>
   </g>
   <g id="patch_6">
    <path d="M 115.2 76.032 
L 829.44 76.032 
" style="fill: none; stroke: #262626; stroke-width: 1.25; stroke-linejoin: miter; stroke-linecap: square"/>
   </g>
   <g id="text_21">
    <text style="fill: #262626; font: 25px 'sans-serif'; text-anchor: middle" x="472.32" y="70.032" transform="rotate(-0, 472.32, 70.032)">LogP vs. MW</text>
   </g>
   <g id="legend_1">
    <g id="line2d_28">
     <g>
      <use xlink:href="#me983e657d9" x="777.272813" y="95.018719" style="fill: #d62728"/>
     </g>
    </g>
    <g id="text_22">
     <text style="fill: #262626; font: 15px 'sans-serif'; text-anchor: start" x="804.272813" y="100.268719" transform="rotate(-0, 804.272813, 100.268719)">A</text>
    </g>
    <g id="line2d_29">
     <g>
      <use xlink:href="#m3ea842f148" x="777.272813" y="116.236688" style="fill: #d62728"/>
     </g>
    </g>
    <g id="text_23">
     <text style="fill: #262626; font: 15px 'sans-serif'; text-anchor: start" x="804.272813" y="121.486688" transform="rotate(-0, 804.272813, 121.486688)">B</text>
    </g>
    <g id="line2d_30">
     <g>
      <use xlink:href="#m66922e7826" x="777.272813" y="137.454656" style="fill: #d62728"/>
     </g>
    </g>
    <g id="text_24">
     <text style="fill: #262626; font: 15px 'sans-serif'; text-anchor: start" x="804.272813" y="142.704656" transform="rotate(-0, 804.272813, 142.704656)">C</text>
    </g>
    <g id="line2d_31">
     <g>
      <use xlink:href="#mfc0f3a9740" x="777.272813" y="158.672625" style="fill: #d62728"/>
     </g>
    </g>
    <g id="text_25">
     <text style="fill: #262626; font: 15px 'sans-serif'; text-anchor: start" x="804.272813" y="163.922625" transform="rotate(-0, 804.272813, 163.922625)">D</text>
    </g>
    <g id="line2d_32">
     <g>
      <use xlink:href="#md2690f6e3f" x="777.272813" y="179.890594" style="fill: #d62728"/>
     </g>
    </g>
    <g id="text_26">
     <text style="fill: #262626; font: 15px 'sans-serif'; text-anchor: start" x="804.272813" y="185.140594" transform="rotate(-0, 804.272813, 185.140594)">E</text>
    </g>
    <g id="line2d_33">
     <g>
      <use xlink:href="#m63cbd360d2" x="777.272813" y="201.108563" style="fill: #d62728"/>
     </g>
    </g>
    <g id="text_27">
     <text style="fill: #262626; font: 15px 'sans-serif'; text-anchor: start" x="804.272813" y="206.358563" transform="rotate(-0, 804.272813, 206.358563)">F</text>
    </g>
    <g id="line2d_34">
     <g>
      <use xlink:href="#mb24b19aeba" x="777.272813" y="222.326531" style="fill: #d62728"/>
     </g>
    </g>
    <g id="text_28">
     <text style="fill: #262626; font: 15px 'sans-serif'; text-anchor: start" x="804.272813" y="227.576531" transform="rotate(-0, 804.272813, 227.576531)">G</text>
    </g>
    <g id="line2d_35">
     <g>
      <use xlink:href="#md432949742" x="777.272813" y="243.5445" style="fill: #d62728"/>
     </g>
    </g>
    <g id="text_29">
     <text style="fill: #262626; font: 15px 'sans-serif'; text-anchor: start" x="804.272813" y="248.7945" transform="rotate(-0, 804.272813, 248.7945)">H</text>
    </g>
   </g>
  </g>
 </g>
 <defs>
  <clipPath id="p9238cac02b">
   <rect x="115.2" y="76.032" width="714.24" height="478.368"/>
  </clipPath>
 </defs>
</svg>
