<?xml version="1.0" encoding="utf-8" standalone="no"?>
<!DOCTYPE svg PUBLIC "-//W3C//DTD SVG 1.1//EN"
  "http://www.w3.org/Graphics/SVG/1.1/DTD/svg11.dtd">
<svg xmlns:xlink="http://www.w3.org/1999/xlink" width="921.6pt" height="633.6pt" viewBox="0 0 921.6 633.6" xmlns="http://www.w3.org/2000/svg" version="1.1">
 <metadata>
  <rdf:RDF xmlns:dc="http://purl.org/dc/elements/1.1/" xmlns:cc="http://creativecommons.org/ns#" xmlns:rdf="http://www.w3.org/1999/02/22-rdf-syntax-ns#">
   <cc:Work>
    <dc:type rdf:resource="http://purl.org/dc/dcmitype/StillImage"/>
    <dc:date>2023-05-25T14:47:58.206704</dc:date>
    <dc:format>image/svg+xml</dc:format>
    <dc:creator>
     <cc:Agent>
      <dc:title>Matplotlib v3.6.3, https://matplotlib.org/</dc:title>
     </cc:Agent>
    </dc:creator>
   </cc:Work>
  </rdf:RDF>
 </metadata>
 <defs>
  <style type="text/css">*{stroke-linejoin: round; stroke-linecap: butt}</style>
 </defs>
 <g id="figure_1">
  <g id="patch_1">
   <path d="M 0 633.6 
L 921.6 633.6 
L 921.6 0 
L 0 0 
z
" style="fill: #ffffff"/>
  </g>
  <g id="axes_1">
   <g id="patch_2">
    <path d="M 115.2 563.904 
L 829.44 563.904 
L 829.44 76.032 
L 115.2 76.032 
z
" style="fill: #ffffff"/>
   </g>
   <g id="matplotlib.axis_1">
    <g id="xtick_1">
     <g id="line2d_1"/>
     <g id="text_1">
      <text style="fill: #262626; font: 20px 'Arial', 'Liberation Sans', 'DejaVu Sans', 'Bitstream Vera Sans', sans-serif; text-anchor: middle" x="115.2" y="589.419625" transform="rotate(-0 115.2 589.419625)">0</text>
     </g>
    </g>
    <g id="xtick_2">
     <g id="line2d_2"/>
     <g id="text_2">
      <text style="fill: #262626; font: 20px 'Arial', 'Liberation Sans', 'DejaVu Sans', 'Bitstream Vera Sans', sans-serif; text-anchor: middle" x="204.48" y="589.419625" transform="rotate(-0 204.48 589.419625)">100</text>
     </g>
    </g>
    <g id="xtick_3">
     <g id="line2d_3"/>
     <g id="text_3">
      <text style="fill: #262626; font: 20px 'Arial', 'Liberation Sans', 'DejaVu Sans', 'Bitstream Vera Sans', sans-serif; text-anchor: middle" x="293.76" y="589.419625" transform="rotate(-0 293.76 589.419625)">200</text>
     </g>
    </g>
    <g id="xtick_4">
     <g id="line2d_4"/>
     <g id="text_4">
      <text style="fill: #262626; font: 20px 'Arial', 'Liberation Sans', 'DejaVu Sans', 'Bitstream Vera Sans', sans-serif; text-anchor: middle" x="383.04" y="589.419625" transform="rotate(-0 383.04 589.419625)">300</text>
     </g>
    </g>
    <g id="xtick_5">
     <g id="line2d_5"/>
     <g id="text_5">
      <text style="fill: #262626; font: 20px 'Arial', 'Liberation Sans', 'DejaVu Sans', 'Bitstream Vera Sans', sans-serif; text-anchor: middle" x="472.32" y="589.419625" transform="rotate(-0 472.32 589.419625)">400</text>
     </g>
    </g>
    <g id="xtick_6">
     <g id="line2d_6"/>
     <g id="text_6">
      <text style="fill: #262626; font: 20px 'Arial', 'Liberation Sans', 'DejaVu Sans', 'Bitstream Vera Sans', sans-serif; text-anchor: middle" x="561.6" y="589.419625" transform="rotate(-0 561.6 589.419625)">500</text>
     </g>
    </g>
    <g id="xtick_7">
     <g id="line2d_7"/>
     <g id="text_7">
      <text style="fill: #262626; font: 20px 'Arial', 'Liberation Sans', 'DejaVu Sans', 'Bitstream Vera Sans', sans-serif; text-anchor: middle" x="650.88" y="589.419625" transform="rotate(-0 650.88 589.419625)">600</text>
     </g>
    </g>
    <g id="xtick_8">
     <g id="line2d_8"/>
     <g id="text_8">
      <text style="fill: #262626; font: 20px 'Arial', 'Liberation Sans', 'DejaVu Sans', 'Bitstream Vera Sans', sans-serif; text-anchor: middle" x="740.16" y="589.419625" transform="rotate(-0 740.16 589.419625)">700</text>
     </g>
    </g>
    <g id="xtick_9">
     <g id="line2d_9"/>
     <g id="text_9">
      <text style="fill: #262626; font: 20px 'Arial', 'Liberation Sans', 'DejaVu Sans', 'Bitstream Vera Sans', sans-serif; text-anchor: middle" x="829.44" y="589.419625" transform="rotate(-0 829.44 589.419625)">800</text>
     </g>
    </g>
    <g id="text_10">
     <text style="fill: #262626; font: 25px 'Arial', 'Liberation Sans', 'DejaVu Sans', 'Bitstream Vera Sans', sans-serif; text-anchor: middle" x="472.32" y="615.289156" transform="rotate(-0 472.32 615.289156)">MW</text>
    </g>
   </g>
   <g id="matplotlib.axis_2">
    <g id="ytick_1">
     <g id="line2d_10"/>
     <g id="text_11">
      <text style="fill: #262626; font: 20px 'Arial', 'Liberation Sans', 'DejaVu Sans', 'Bitstream Vera Sans', sans-serif; text-anchor: end" x="104" y="571.061812" transform="rotate(-0 104 571.061812)">0</text>
     </g>
    </g>
    <g id="ytick_2">
     <g id="line2d_11"/>
     <g id="text_12">
      <text style="fill: #262626; font: 20px 'Arial', 'Liberation Sans', 'DejaVu Sans', 'Bitstream Vera Sans', sans-serif; text-anchor: end" x="104" y="510.077813" transform="rotate(-0 104 510.077813)">1</text>
     </g>
    </g>
    <g id="ytick_3">
     <g id="line2d_12"/>
     <g id="text_13">
      <text style="fill: #262626; font: 20px 'Arial', 'Liberation Sans', 'DejaVu Sans', 'Bitstream Vera Sans', sans-serif; text-anchor: end" x="104" y="449.093813" transform="rotate(-0 104 449.093813)">2</text>
     </g>
    </g>
    <g id="ytick_4">
     <g id="line2d_13"/>
     <g id="text_14">
      <text style="fill: #262626; font: 20px 'Arial', 'Liberation Sans', 'DejaVu Sans', 'Bitstream Vera Sans', sans-serif; text-anchor: end" x="104" y="388.109813" transform="rotate(-0 104 388.109813)">3</text>
     </g>
    </g>
    <g id="ytick_5">
     <g id="line2d_14"/>
     <g id="text_15">
      <text style="fill: #262626; font: 20px 'Arial', 'Liberation Sans', 'DejaVu Sans', 'Bitstream Vera Sans', sans-serif; text-anchor: end" x="104" y="327.125813" transform="rotate(-0 104 327.125813)">4</text>
     </g>
    </g>
    <g id="ytick_6">
     <g id="line2d_15"/>
     <g id="text_16">
      <text style="fill: #262626; font: 20px 'Arial', 'Liberation Sans', 'DejaVu Sans', 'Bitstream Vera Sans', sans-serif; text-anchor: end" x="104" y="266.141813" transform="rotate(-0 104 266.141813)">5</text>
     </g>
    </g>
    <g id="ytick_7">
     <g id="line2d_16"/>
     <g id="text_17">
      <text style="fill: #262626; font: 20px 'Arial', 'Liberation Sans', 'DejaVu Sans', 'Bitstream Vera Sans', sans-serif; text-anchor: end" x="104" y="205.157812" transform="rotate(-0 104 205.157812)">6</text>
     </g>
    </g>
    <g id="ytick_8">
     <g id="line2d_17"/>
     <g id="text_18">
      <text style="fill: #262626; font: 20px 'Arial', 'Liberation Sans', 'DejaVu Sans', 'Bitstream Vera Sans', sans-serif; text-anchor: end" x="104" y="144.173813" transform="rotate(-0 104 144.173813)">7</text>
     </g>
    </g>
    <g id="ytick_9">
     <g id="line2d_18"/>
     <g id="text_19">
      <text style="fill: #262626; font: 20px 'Arial', 'Liberation Sans', 'DejaVu Sans', 'Bitstream Vera Sans', sans-serif; text-anchor: end" x="104" y="83.189813" transform="rotate(-0 104 83.189813)">8</text>
     </g>
    </g>
    <g id="text_20">
     <text style="fill: #262626; font: 25px 'Arial', 'Liberation Sans', 'DejaVu Sans', 'Bitstream Vera Sans', sans-serif; text-anchor: middle" x="83.616406" y="319.968" transform="rotate(-90 83.616406 319.968)">LogP</text>
    </g>
   </g>
   <g id="line2d_19">
    <path d="M 115.2 258.984 
L 561.6 258.984 
L 561.6 563.904 
" clip-path="url(#p0ee06d442c)" style="fill: none; stroke: #000000; stroke-width: 2.8; stroke-linecap: round"/>
   </g>
   <g id="line2d_20">
    <defs>
     <path id="m55eb6636af" d="M 0 5 
C 1.326016 5 2.597899 4.473168 3.535534 3.535534 
C 4.473168 2.597899 5 1.326016 5 0 
C 5 -1.326016 4.473168 -2.597899 3.535534 -3.535534 
C 2.597899 -4.473168 1.326016 -5 0 -5 
C -1.326016 -5 -2.597899 -4.473168 -3.535534 -3.535534 
C -4.473168 -2.597899 -5 -1.326016 -5 0 
C -5 1.326016 -4.473168 2.597899 -3.535534 3.535534 
C -2.597899 4.473168 -1.326016 5 0 5 
z
"/>
    </defs>
    <g clip-path="url(#p0ee06d442c)">
     <use xlink:href="#m55eb6636af" x="335.81088" y="352.28952"/>
     <use xlink:href="#m55eb6636af" x="362.603808" y="351.67968"/>
     <use xlink:href="#m55eb6636af" x="375.085152" y="368.7552"/>
     <use xlink:href="#m55eb6636af" x="378.66528" y="343.14192"/>
     <use xlink:href="#m55eb6636af" x="348.327936" y="333.38448"/>
     <use xlink:href="#m55eb6636af" x="351.872352" y="343.75176"/>
     <use xlink:href="#m55eb6636af" x="348.327936" y="333.38448"/>
     <use xlink:href="#m55eb6636af" x="407.243808" y="280.93824"/>
     <use xlink:href="#m55eb6636af" x="351.872352" y="343.75176"/>
     <use xlink:href="#m55eb6636af" x="421.501824" y="249.8364"/>
     <use xlink:href="#m55eb6636af" x="366.130368" y="312.64992"/>
     <use xlink:href="#m55eb6636af" x="351.872352" y="343.75176"/>
     <use xlink:href="#m55eb6636af" x="366.130368" y="312.64992"/>
     <use xlink:href="#m55eb6636af" x="387.602208" y="349.85016"/>
     <use xlink:href="#m55eb6636af" x="378.647424" y="293.74488"/>
     <use xlink:href="#m55eb6636af" x="403.690464" y="270.57096"/>
     <use xlink:href="#m55eb6636af" x="391.146624" y="360.21744"/>
     <use xlink:href="#m55eb6636af" x="367.933824" y="335.214"/>
     <use xlink:href="#m55eb6636af" x="378.66528" y="343.14192"/>
     <use xlink:href="#m55eb6636af" x="382.19184" y="304.11216"/>
     <use xlink:href="#m55eb6636af" x="364.389408" y="324.84672"/>
     <use xlink:href="#m55eb6636af" x="378.66528" y="343.14192"/>
     <use xlink:href="#m55eb6636af" x="382.19184" y="304.11216"/>
     <use xlink:href="#m55eb6636af" x="425.073024" y="238.24944"/>
     <use xlink:href="#m55eb6636af" x="380.468736" y="282.15792"/>
     <use xlink:href="#m55eb6636af" x="389.396736" y="351.06984"/>
     <use xlink:href="#m55eb6636af" x="391.146624" y="360.21744"/>
     <use xlink:href="#m55eb6636af" x="414.386208" y="241.29864"/>
     <use xlink:href="#m55eb6636af" x="351.872352" y="343.75176"/>
     <use xlink:href="#m55eb6636af" x="367.933824" y="335.214"/>
     <use xlink:href="#m55eb6636af" x="401.87808" y="368.14536"/>
     <use xlink:href="#m55eb6636af" x="382.19184" y="304.11216"/>
     <use xlink:href="#m55eb6636af" x="419.716224" y="311.43024"/>
     <use xlink:href="#m55eb6636af" x="416.189664" y="350.46"/>
     <use xlink:href="#m55eb6636af" x="405.458208" y="342.53208"/>
     <use xlink:href="#m55eb6636af" x="401.913792" y="332.1648"/>
     <use xlink:href="#m55eb6636af" x="378.647424" y="293.74488"/>
     <use xlink:href="#m55eb6636af" x="375.085152" y="368.7552"/>
     <use xlink:href="#m55eb6636af" x="416.20752" y="254.10528"/>
     <use xlink:href="#m55eb6636af" x="409.02048" y="271.1808"/>
    </g>
   </g>
   <g id="line2d_21">
    <defs>
     <path id="mddaf8afed4" d="M 0 -5 
L -5 5 
L 5 5 
z
"/>
    </defs>
    <g clip-path="url(#p0ee06d442c)">
     <use xlink:href="#mddaf8afed4" x="380.441952" y="311.43024"/>
     <use xlink:href="#mddaf8afed4" x="353.675808" y="361.43712"/>
     <use xlink:href="#mddaf8afed4" x="383.995296" y="321.79752"/>
     <use xlink:href="#mddaf8afed4" x="337.614336" y="369.97488"/>
     <use xlink:href="#mddaf8afed4" x="350.122464" y="351.06984"/>
     <use xlink:href="#mddaf8afed4" x="369.73728" y="352.89936"/>
     <use xlink:href="#mddaf8afed4" x="353.675808" y="361.43712"/>
     <use xlink:href="#mddaf8afed4" x="383.995296" y="321.79752"/>
     <use xlink:href="#mddaf8afed4" x="389.396736" y="368.14536"/>
     <use xlink:href="#mddaf8afed4" x="392.95008" y="377.9028"/>
     <use xlink:href="#mddaf8afed4" x="380.468736" y="360.82728"/>
     <use xlink:href="#mddaf8afed4" x="382.263264" y="299.84328"/>
     <use xlink:href="#mddaf8afed4" x="391.200192" y="369.36504"/>
     <use xlink:href="#mddaf8afed4" x="383.995296" y="321.79752"/>
     <use xlink:href="#mddaf8afed4" x="407.261664" y="360.82728"/>
     <use xlink:href="#mddaf8afed4" x="403.70832" y="350.46"/>
     <use xlink:href="#mddaf8afed4" x="364.407264" y="369.36504"/>
     <use xlink:href="#mddaf8afed4" x="376.888608" y="386.44056"/>
    </g>
   </g>
   <g id="line2d_22">
    <defs>
     <path id="m999a43178f" d="M -5 5 
L 5 5 
L 5 -5 
L -5 -5 
z
"/>
    </defs>
    <g clip-path="url(#p0ee06d442c)">
     <use xlink:href="#m999a43178f" x="491.167008" y="294.96456"/>
     <use xlink:href="#m999a43178f" x="475.105536" y="303.50232"/>
     <use xlink:href="#m999a43178f" x="385.834464" y="363.87648"/>
     <use xlink:href="#m999a43178f" x="373.35312" y="334.60416"/>
     <use xlink:href="#m999a43178f" x="487.560096" y="226.66248"/>
     <use xlink:href="#m999a43178f" x="371.549664" y="368.14536"/>
     <use xlink:href="#m999a43178f" x="466.079328" y="291.30552"/>
     <use xlink:href="#m999a43178f" x="401.913792" y="336.43368"/>
     <use xlink:href="#m999a43178f" x="528.709248" y="234.5904"/>
     <use xlink:href="#m999a43178f" x="510.781824" y="296.79408"/>
     <use xlink:href="#m999a43178f" x="525.03984" y="265.69224"/>
     <use xlink:href="#m999a43178f" x="559.028736" y="194.9508"/>
     <use xlink:href="#m999a43178f" x="491.167008" y="294.96456"/>
     <use xlink:href="#m999a43178f" x="523.29888" y="260.20368"/>
     <use xlink:href="#m999a43178f" x="405.440352" y="360.21744"/>
     <use xlink:href="#m999a43178f" x="532.155456" y="276.05952"/>
     <use xlink:href="#m999a43178f" x="467.927424" y="352.89936"/>
    </g>
   </g>
   <g id="line2d_23">
    <defs>
     <path id="m536f9178aa" d="M 0 -5 
L -4.755283 -1.545085 
L -2.938926 4.045085 
L 2.938926 4.045085 
L 4.755283 -1.545085 
z
"/>
    </defs>
    <g clip-path="url(#p0ee06d442c)">
     <use xlink:href="#m536f9178aa" x="442.875456" y="343.14192"/>
     <use xlink:href="#m536f9178aa" x="448.294752" y="282.15792"/>
     <use xlink:href="#m536f9178aa" x="450.017856" y="304.11216"/>
     <use xlink:href="#m536f9178aa" x="487.54224" y="312.04008"/>
     <use xlink:href="#m536f9178aa" x="446.491296" y="343.75176"/>
     <use xlink:href="#m536f9178aa" x="455.481792" y="301.6728"/>
     <use xlink:href="#m536f9178aa" x="373.317408" y="366.31584"/>
     <use xlink:href="#m536f9178aa" x="450.017856" y="304.11216"/>
     <use xlink:href="#m536f9178aa" x="419.698368" y="344.3616"/>
     <use xlink:href="#m536f9178aa" x="403.636896" y="352.89936"/>
    </g>
   </g>
   <g id="line2d_24">
    <defs>
     <path id="m8ada64a27d" d="M -1.666667 5 
L 1.666667 5 
L 1.666667 1.666667 
L 5 1.666667 
L 5 -1.666667 
L 1.666667 -1.666667 
L 1.666667 -5 
L -1.666667 -5 
L -1.666667 -1.666667 
L -5 -1.666667 
L -5 1.666667 
L -1.666667 1.666667 
z
"/>
    </defs>
    <g clip-path="url(#p0ee06d442c)">
     <use xlink:href="#m8ada64a27d" x="426.885408" y="318.13848"/>
     <use xlink:href="#m8ada64a27d" x="467.05248" y="323.62704"/>
     <use xlink:href="#m8ada64a27d" x="453.678336" y="317.52864"/>
     <use xlink:href="#m8ada64a27d" x="439.402464" y="299.23344"/>
     <use xlink:href="#m8ada64a27d" x="459.008352" y="301.06296"/>
     <use xlink:href="#m8ada64a27d" x="432.206496" y="314.47944"/>
     <use xlink:href="#m8ada64a27d" x="473.266368" y="269.96112"/>
     <use xlink:href="#m8ada64a27d" x="457.204896" y="278.49888"/>
     <use xlink:href="#m8ada64a27d" x="442.94688" y="309.60072"/>
     <use xlink:href="#m8ada64a27d" x="471.543264" y="248.00688"/>
     <use xlink:href="#m8ada64a27d" x="485.783424" y="251.05608"/>
     <use xlink:href="#m8ada64a27d" x="507.264192" y="316.30896"/>
     <use xlink:href="#m8ada64a27d" x="498.336192" y="247.39704"/>
     <use xlink:href="#m8ada64a27d" x="484.051392" y="229.10184"/>
     <use xlink:href="#m8ada64a27d" x="485.783424" y="251.05608"/>
     <use xlink:href="#m8ada64a27d" x="480.471264" y="316.9188"/>
     <use xlink:href="#m8ada64a27d" x="492.98832" y="298.6236"/>
     <use xlink:href="#m8ada64a27d" x="480.471264" y="316.9188"/>
     <use xlink:href="#m8ada64a27d" x="482.256864" y="290.08584"/>
     <use xlink:href="#m8ada64a27d" x="466.195392" y="298.6236"/>
    </g>
   </g>
   <g id="line2d_25">
    <defs>
     <path id="m8f3e9dcb70" d="M 0 -5 
L -1.12257 -1.545085 
L -4.755283 -1.545085 
L -1.816356 0.59017 
L -2.938926 4.045085 
L -0 1.90983 
L 2.938926 4.045085 
L 1.816356 0.59017 
L 4.755283 -1.545085 
L 1.12257 -1.545085 
z
"/>
    </defs>
    <g clip-path="url(#p0ee06d442c)">
     <use xlink:href="#m8f3e9dcb70" x="337.614336" y="341.92224"/>
     <use xlink:href="#m8f3e9dcb70" x="351.890208" y="360.21744"/>
     <use xlink:href="#m8f3e9dcb70" x="364.371552" y="377.29296"/>
     <use xlink:href="#m8f3e9dcb70" x="392.976864" y="272.40048"/>
     <use xlink:href="#m8f3e9dcb70" x="410.788224" y="251.05608"/>
     <use xlink:href="#m8f3e9dcb70" x="396.530208" y="282.76776"/>
     <use xlink:href="#m8f3e9dcb70" x="376.888608" y="358.38792"/>
     <use xlink:href="#m8f3e9dcb70" x="419.743008" y="307.7712"/>
     <use xlink:href="#m8f3e9dcb70" x="426.849696" y="242.51832"/>
     <use xlink:href="#m8f3e9dcb70" x="380.468736" y="291.30552"/>
     <use xlink:href="#m8f3e9dcb70" x="341.158752" y="352.28952"/>
     <use xlink:href="#m8f3e9dcb70" x="367.933824" y="301.6728"/>
     <use xlink:href="#m8f3e9dcb70" x="410.788224" y="251.05608"/>
     <use xlink:href="#m8f3e9dcb70" x="426.849696" y="242.51832"/>
     <use xlink:href="#m8f3e9dcb70" x="396.530208" y="282.76776"/>
     <use xlink:href="#m8f3e9dcb70" x="337.614336" y="341.92224"/>
     <use xlink:href="#m8f3e9dcb70" x="355.416768" y="320.57784"/>
     <use xlink:href="#m8f3e9dcb70" x="396.530208" y="282.76776"/>
     <use xlink:href="#m8f3e9dcb70" x="353.675808" y="333.38448"/>
     <use xlink:href="#m8f3e9dcb70" x="325.09728" y="360.21744"/>
     <use xlink:href="#m8f3e9dcb70" x="369.755136" y="290.08584"/>
     <use xlink:href="#m8f3e9dcb70" x="341.158752" y="352.28952"/>
     <use xlink:href="#m8f3e9dcb70" x="371.47824" y="312.04008"/>
     <use xlink:href="#m8f3e9dcb70" x="385.816608" y="281.54808"/>
    </g>
   </g>
   <g id="line2d_26">
    <defs>
     <path id="m1b25f1b090" d="M -2.5 5 
L 0 2.5 
L 2.5 5 
L 5 2.5 
L 2.5 0 
L 5 -2.5 
L 2.5 -5 
L 0 -2.5 
L -2.5 -5 
L -5 -2.5 
L -2.5 0 
L -5 2.5 
z
"/>
    </defs>
    <g clip-path="url(#p0ee06d442c)">
     <use xlink:href="#m1b25f1b090" x="405.458208" y="321.18768"/>
     <use xlink:href="#m1b25f1b090" x="366.157152" y="382.17168"/>
     <use xlink:href="#m1b25f1b090" x="362.603808" y="371.8044"/>
     <use xlink:href="#m1b25f1b090" x="376.888608" y="390.0996"/>
     <use xlink:href="#m1b25f1b090" x="389.361024" y="407.17512"/>
     <use xlink:href="#m1b25f1b090" x="417.975264" y="302.28264"/>
     <use xlink:href="#m1b25f1b090" x="435.777696" y="281.54808"/>
     <use xlink:href="#m1b25f1b090" x="401.87808" y="388.27008"/>
     <use xlink:href="#m1b25f1b090" x="444.73248" y="337.65336"/>
     <use xlink:href="#m1b25f1b090" x="462.570624" y="280.93824"/>
     <use xlink:href="#m1b25f1b090" x="392.923296" y="331.55496"/>
     <use xlink:href="#m1b25f1b090" x="421.51968" y="312.64992"/>
     <use xlink:href="#m1b25f1b090" x="350.086752" y="390.70944"/>
     <use xlink:href="#m1b25f1b090" x="378.66528" y="363.26664"/>
     <use xlink:href="#m1b25f1b090" x="392.923296" y="331.55496"/>
     <use xlink:href="#m1b25f1b090" x="396.47664" y="341.92224"/>
     <use xlink:href="#m1b25f1b090" x="396.47664" y="341.92224"/>
     <use xlink:href="#m1b25f1b090" x="410.80608" y="311.43024"/>
     <use xlink:href="#m1b25f1b090" x="366.157152" y="382.17168"/>
     <use xlink:href="#m1b25f1b090" x="392.95008" y="381.56184"/>
    </g>
   </g>
   <g id="line2d_27">
    <defs>
     <path id="mf07185f53d" d="M -5 -0 
L 5 5 
L 5 -5 
z
"/>
    </defs>
    <g clip-path="url(#p0ee06d442c)">
     <use xlink:href="#mf07185f53d" x="360.800352" y="367.53552"/>
     <use xlink:href="#mf07185f53d" x="373.317408" y="348.63048"/>
     <use xlink:href="#mf07185f53d" x="376.870752" y="358.99776"/>
     <use xlink:href="#mf07185f53d" x="387.602208" y="366.92568"/>
    </g>
   </g>
   <g id="patch_3">
    <path d="M 115.2 563.904 
L 115.2 76.032 
" style="fill: none; stroke: #262626; stroke-width: 1.25; stroke-linejoin: miter; stroke-linecap: square"/>
   </g>
   <g id="patch_4">
    <path d="M 829.44 563.904 
L 829.44 76.032 
" style="fill: none; stroke: #262626; stroke-width: 1.25; stroke-linejoin: miter; stroke-linecap: square"/>
   </g>
   <g id="patch_5">
    <path d="M 115.2 563.904 
L 829.44 563.904 
" style="fill: none; stroke: #262626; stroke-width: 1.25; stroke-linejoin: miter; stroke-linecap: square"/>
   </g>
   <g id="patch_6">
    <path d="M 115.2 76.032 
L 829.44 76.032 
" style="fill: none; stroke: #262626; stroke-width: 1.25; stroke-linejoin: miter; stroke-linecap: square"/>
   </g>
   <g id="text_21">
    <text style="fill: #262626; font: 25px 'Arial', 'Liberation Sans', 'DejaVu Sans', 'Bitstream Vera Sans', sans-serif; text-anchor: middle" x="472.32" y="70.032" transform="rotate(-0 472.32 70.032)">LogP vs. MW</text>
   </g>
   <g id="legend_1">
    <g id="line2d_28">
     <g>
      <use xlink:href="#m55eb6636af" x="777.272813" y="95.018719"/>
     </g>
    </g>
    <g id="text_22">
     <text style="fill: #262626; font: 15px 'Arial', 'Liberation Sans', 'DejaVu Sans', 'Bitstream Vera Sans', sans-serif; text-anchor: start" x="804.272813" y="100.268719" transform="rotate(-0 804.272813 100.268719)">A</text>
    </g>
    <g id="line2d_29">
     <g>
      <use xlink:href="#mddaf8afed4" x="777.272813" y="116.236688"/>
     </g>
    </g>
    <g id="text_23">
     <text style="fill: #262626; font: 15px 'Arial', 'Liberation Sans', 'DejaVu Sans', 'Bitstream Vera Sans', sans-serif; text-anchor: start" x="804.272813" y="121.486688" transform="rotate(-0 804.272813 121.486688)">B</text>
    </g>
    <g id="line2d_30">
     <g>
      <use xlink:href="#m999a43178f" x="777.272813" y="137.454656"/>
     </g>
    </g>
    <g id="text_24">
     <text style="fill: #262626; font: 15px 'Arial', 'Liberation Sans', 'DejaVu Sans', 'Bitstream Vera Sans', sans-serif; text-anchor: start" x="804.272813" y="142.704656" transform="rotate(-0 804.272813 142.704656)">C</text>
    </g>
    <g id="line2d_31">
     <g>
      <use xlink:href="#m536f9178aa" x="777.272813" y="158.672625"/>
     </g>
    </g>
    <g id="text_25">
     <text style="fill: #262626; font: 15px 'Arial', 'Liberation Sans', 'DejaVu Sans', 'Bitstream Vera Sans', sans-serif; text-anchor: start" x="804.272813" y="163.922625" transform="rotate(-0 804.272813 163.922625)">D</text>
    </g>
    <g id="line2d_32">
     <g>
      <use xlink:href="#m8ada64a27d" x="777.272813" y="179.890594"/>
     </g>
    </g>
    <g id="text_26">
     <text style="fill: #262626; font: 15px 'Arial', 'Liberation Sans', 'DejaVu Sans', 'Bitstream Vera Sans', sans-serif; text-anchor: start" x="804.272813" y="185.140594" transform="rotate(-0 804.272813 185.140594)">E</text>
    </g>
    <g id="line2d_33">
     <g>
      <use xlink:href="#m8f3e9dcb70" x="777.272813" y="201.108563"/>
     </g>
    </g>
    <g id="text_27">
     <text style="fill: #262626; font: 15px 'Arial', 'Liberation Sans', 'DejaVu Sans', 'Bitstream Vera Sans', sans-serif; text-anchor: start" x="804.272813" y="206.358563" transform="rotate(-0 804.272813 206.358563)">F</text>
    </g>
    <g id="line2d_34">
     <g>
      <use xlink:href="#m1b25f1b090" x="777.272813" y="222.326531"/>
     </g>
    </g>
    <g id="text_28">
     <text style="fill: #262626; font: 15px 'Arial', 'Liberation Sans', 'DejaVu Sans', 'Bitstream Vera Sans', sans-serif; text-anchor: start" x="804.272813" y="227.576531" transform="rotate(-0 804.272813 227.576531)">G</text>
    </g>
    <g id="line2d_35">
     <g>
      <use xlink:href="#mf07185f53d" x="777.272813" y="243.5445"/>
     </g>
    </g>
    <g id="text_29">
     <text style="fill: #262626; font: 15px 'Arial', 'Liberation Sans', 'DejaVu Sans', 'Bitstream Vera Sans', sans-serif; text-anchor: start" x="804.272813" y="248.7945" transform="rotate(-0 804.272813 248.7945)">H</text>
    </g>
   </g>
  </g>
 </g>
 <defs>
  <clipPath id="p0ee06d442c">
   <rect x="115.2" y="76.032" width="714.24" height="487.872"/>
  </clipPath>
 </defs>
</svg>
