<?xml version="1.0" encoding="utf-8" standalone="no"?>
<!DOCTYPE svg PUBLIC "-//W3C//DTD SVG 1.1//EN"
  "http://www.w3.org/Graphics/SVG/1.1/DTD/svg11.dtd">
<svg xmlns:xlink="http://www.w3.org/1999/xlink" width="720pt" height="504pt" viewBox="0 0 720 504" xmlns="http://www.w3.org/2000/svg" version="1.1">
 <metadata>
  <rdf:RDF xmlns:dc="http://purl.org/dc/elements/1.1/" xmlns:cc="http://creativecommons.org/ns#" xmlns:rdf="http://www.w3.org/1999/02/22-rdf-syntax-ns#">
   <cc:Work>
    <dc:type rdf:resource="http://purl.org/dc/dcmitype/StillImage"/>
    <dc:date>2022-08-17T09:23:37.351524</dc:date>
    <dc:format>image/svg+xml</dc:format>
    <dc:creator>
     <cc:Agent>
      <dc:title>Matplotlib v3.5.1, https://matplotlib.org/</dc:title>
     </cc:Agent>
    </dc:creator>
   </cc:Work>
  </rdf:RDF>
 </metadata>
 <defs>
  <style type="text/css">*{stroke-linejoin: round; stroke-linecap: butt}</style>
 </defs>
 <g id="figure_1">
  <g id="patch_1">
   <path d="M 0 504 
L 720 504 
L 720 0 
L 0 0 
z
" style="fill: #ffffff"/>
  </g>
  <g id="axes_1">
   <g id="patch_2">
    <path d="M 90 441 
L 648 441 
L 648 60.48 
L 90 60.48 
z
" style="fill: #ffffff"/>
   </g>
   <g id="matplotlib.axis_1">
    <g id="xtick_1">
     <g id="line2d_1"/>
     <g id="text_1">
      <text style="fill: #262626; font: 20px 'sans-serif'; text-anchor: middle" x="90" y="466.515625" transform="rotate(-0, 90, 466.515625)">0</text>
     </g>
    </g>
    <g id="xtick_2">
     <g id="line2d_2"/>
     <g id="text_2">
      <text style="fill: #262626; font: 20px 'sans-serif'; text-anchor: middle" x="183" y="466.515625" transform="rotate(-0, 183, 466.515625)">5</text>
     </g>
    </g>
    <g id="xtick_3">
     <g id="line2d_3"/>
     <g id="text_3">
      <text style="fill: #262626; font: 20px 'sans-serif'; text-anchor: middle" x="276" y="466.515625" transform="rotate(-0, 276, 466.515625)">10</text>
     </g>
    </g>
    <g id="xtick_4">
     <g id="line2d_4"/>
     <g id="text_4">
      <text style="fill: #262626; font: 20px 'sans-serif'; text-anchor: middle" x="369" y="466.515625" transform="rotate(-0, 369, 466.515625)">15</text>
     </g>
    </g>
    <g id="xtick_5">
     <g id="line2d_5"/>
     <g id="text_5">
      <text style="fill: #262626; font: 20px 'sans-serif'; text-anchor: middle" x="462" y="466.515625" transform="rotate(-0, 462, 466.515625)">20</text>
     </g>
    </g>
    <g id="xtick_6">
     <g id="line2d_6"/>
     <g id="text_6">
      <text style="fill: #262626; font: 20px 'sans-serif'; text-anchor: middle" x="555" y="466.515625" transform="rotate(-0, 555, 466.515625)">25</text>
     </g>
    </g>
    <g id="xtick_7">
     <g id="line2d_7"/>
     <g id="text_7">
      <text style="fill: #262626; font: 20px 'sans-serif'; text-anchor: middle" x="648" y="466.515625" transform="rotate(-0, 648, 466.515625)">30</text>
     </g>
    </g>
    <g id="text_8">
     <text style="fill: #262626; font: 25px 'sans-serif'; text-anchor: middle" x="369" y="492.385156" transform="rotate(-0, 369, 492.385156)">Duration per structure [s]</text>
    </g>
   </g>
   <g id="matplotlib.axis_2">
    <g id="ytick_1">
     <g id="line2d_8"/>
     <g id="text_9">
      <text style="fill: #262626; font: 20px 'sans-serif'; text-anchor: end" x="78.8" y="448.157812" transform="rotate(-0, 78.8, 448.157812)">0.0</text>
     </g>
    </g>
    <g id="ytick_2">
     <g id="line2d_9"/>
     <g id="text_10">
      <text style="fill: #262626; font: 20px 'sans-serif'; text-anchor: end" x="78.8" y="372.053813" transform="rotate(-0, 78.8, 372.053813)">0.2</text>
     </g>
    </g>
    <g id="ytick_3">
     <g id="line2d_10"/>
     <g id="text_11">
      <text style="fill: #262626; font: 20px 'sans-serif'; text-anchor: end" x="78.8" y="295.949813" transform="rotate(-0, 78.8, 295.949813)">0.4</text>
     </g>
    </g>
    <g id="ytick_4">
     <g id="line2d_11"/>
     <g id="text_12">
      <text style="fill: #262626; font: 20px 'sans-serif'; text-anchor: end" x="78.8" y="219.845812" transform="rotate(-0, 78.8, 219.845812)">0.6</text>
     </g>
    </g>
    <g id="ytick_5">
     <g id="line2d_12"/>
     <g id="text_13">
      <text style="fill: #262626; font: 20px 'sans-serif'; text-anchor: end" x="78.8" y="143.741812" transform="rotate(-0, 78.8, 143.741812)">0.8</text>
     </g>
    </g>
    <g id="ytick_6">
     <g id="line2d_13"/>
     <g id="text_14">
      <text style="fill: #262626; font: 20px 'sans-serif'; text-anchor: end" x="78.8" y="67.637812" transform="rotate(-0, 78.8, 67.637812)">1.0</text>
     </g>
    </g>
    <g id="text_15">
     <text style="fill: #262626; font: 25px 'sans-serif'; text-anchor: middle" x="42.03125" y="250.74" transform="rotate(-90, 42.03125, 250.74)">Proportion</text>
    </g>
   </g>
   <g id="line2d_14">
    <path d="M 90 441 
L 90 440.836911 
L 91.86 440.836911 
L 91.86 440.728184 
L 91.86 439.760521 
L 93.72 439.760521 
L 93.72 439.651795 
L 93.72 437.412035 
L 95.58 437.412035 
L 95.58 437.303309 
L 95.58 434.052395 
L 97.44 434.052395 
L 97.44 433.943669 
L 97.44 430.67101 
L 99.3 430.67101 
L 99.3 430.562284 
L 99.3 427.289625 
L 101.16 427.289625 
L 101.16 427.180898 
L 101.16 423.549443 
L 103.02 423.549443 
L 103.02 423.440717 
L 103.02 419.820134 
L 104.88 419.820134 
L 104.88 419.711408 
L 104.88 415.514576 
L 106.74 415.514576 
L 106.74 415.405849 
L 106.74 411.88312 
L 108.6 411.88312 
L 108.6 411.774394 
L 108.6 408.088575 
L 110.46 408.088575 
L 110.46 407.979849 
L 110.46 403.728654 
L 112.32 403.728654 
L 112.32 403.619928 
L 112.32 399.118663 
L 114.18 399.118663 
L 114.18 399.009937 
L 114.18 394.987067 
L 116.04 394.987067 
L 116.04 394.87834 
L 116.04 390.866343 
L 117.9 390.866343 
L 117.9 390.757617 
L 117.9 385.723593 
L 119.76 385.723593 
L 119.76 385.614867 
L 119.76 380.722188 
L 121.62 380.722188 
L 121.62 380.613461 
L 121.62 376.068706 
L 123.48 376.068706 
L 123.48 375.959979 
L 123.48 371.284752 
L 125.34 371.284752 
L 125.34 371.176026 
L 125.34 366.642143 
L 127.2 366.642143 
L 127.2 366.533417 
L 127.2 361.803827 
L 129.06 361.803827 
L 129.06 361.6951 
L 129.06 356.878529 
L 130.92 356.878529 
L 130.92 356.769803 
L 130.92 352.138066 
L 132.78 352.138066 
L 132.78 352.02934 
L 132.78 346.853972 
L 134.64 346.853972 
L 134.64 346.745246 
L 134.64 341.852566 
L 136.5 341.852566 
L 136.5 341.74384 
L 136.5 337.42741 
L 138.36 337.42741 
L 138.36 337.318683 
L 138.36 333.263196 
L 140.22 333.263196 
L 140.22 333.154469 
L 140.22 329.262071 
L 142.08 329.262071 
L 142.08 329.153345 
L 142.08 325.511017 
L 143.94 325.511017 
L 143.94 325.40229 
L 143.94 321.901306 
L 145.8 321.901306 
L 145.8 321.79258 
L 145.8 318.943953 
L 147.66 318.943953 
L 147.66 318.835227 
L 147.66 315.377734 
L 149.52 315.377734 
L 149.52 315.269007 
L 149.52 312.061584 
L 151.38 312.061584 
L 151.38 311.952858 
L 151.38 309.299938 
L 153.24 309.299938 
L 153.24 309.191212 
L 153.24 306.125133 
L 155.1 306.125133 
L 155.1 306.016407 
L 155.1 303.363487 
L 156.96 303.363487 
L 156.96 303.254761 
L 156.96 300.623586 
L 158.82 300.623586 
L 158.82 300.51486 
L 158.82 298.285973 
L 160.68 298.285973 
L 160.68 298.177247 
L 160.68 296.100576 
L 162.54 296.100576 
L 162.54 295.99185 
L 162.54 293.75209 
L 164.4 293.75209 
L 164.4 293.643364 
L 164.4 291.186151 
L 166.26 291.186151 
L 166.26 291.077425 
L 166.26 289.0225 
L 168.12 289.0225 
L 168.12 288.913773 
L 168.12 286.739249 
L 169.98 286.739249 
L 169.98 286.630523 
L 169.98 284.140693 
L 171.84 284.140693 
L 171.84 284.031966 
L 171.84 281.085486 
L 173.7 281.085486 
L 173.7 280.97676 
L 173.7 278.617401 
L 175.56 278.617401 
L 175.56 278.508675 
L 175.56 275.801392 
L 177.42 275.801392 
L 177.42 275.692666 
L 177.42 273.311562 
L 179.28 273.311562 
L 179.28 273.202836 
L 179.28 270.354209 
L 181.14 270.354209 
L 181.14 270.245483 
L 181.14 267.625181 
L 183 267.625181 
L 183 267.516455 
L 183 264.613465 
L 184.86 264.613465 
L 184.86 264.504739 
L 184.86 261.623494 
L 186.72 261.623494 
L 186.72 261.514768 
L 186.72 258.687886 
L 188.58 258.687886 
L 188.58 258.57916 
L 188.58 256.024094 
L 190.44 256.024094 
L 190.44 255.915368 
L 190.44 253.034123 
L 192.3 253.034123 
L 192.3 252.925397 
L 192.3 250.370331 
L 194.16 250.370331 
L 194.16 250.261605 
L 194.16 247.510831 
L 196.02 247.510831 
L 196.02 247.402105 
L 196.02 244.738313 
L 197.88 244.738313 
L 197.88 244.629587 
L 197.88 242.335464 
L 199.74 242.335464 
L 199.74 242.226738 
L 199.74 239.95436 
L 201.6 239.95436 
L 201.6 239.845633 
L 201.6 237.399294 
L 203.46 237.399294 
L 203.46 237.290567 
L 203.46 234.909463 
L 205.32 234.909463 
L 205.32 234.800737 
L 205.32 232.452251 
L 207.18 232.452251 
L 207.18 232.343525 
L 207.18 230.310345 
L 209.04 230.310345 
L 209.04 230.201618 
L 209.04 228.222801 
L 210.9 228.222801 
L 210.9 228.114075 
L 210.9 226.233112 
L 212.76 226.233112 
L 212.76 226.124385 
L 212.76 224.286912 
L 214.62 224.286912 
L 214.62 224.178186 
L 214.62 222.275477 
L 216.48 222.275477 
L 216.48 222.166751 
L 216.48 220.351023 
L 218.34 220.351023 
L 218.34 220.242297 
L 218.34 218.230862 
L 220.2 218.230862 
L 220.2 218.122136 
L 220.2 216.317281 
L 222.06 216.317281 
L 222.06 216.208555 
L 222.06 214.414572 
L 223.92 214.414572 
L 223.92 214.305846 
L 223.92 212.381392 
L 225.78 212.381392 
L 225.78 212.272666 
L 225.78 210.38083 
L 227.64 210.38083 
L 227.64 210.272104 
L 227.64 208.34765 
L 229.5 208.34765 
L 229.5 208.238923 
L 229.5 206.553667 
L 231.36 206.553667 
L 231.36 206.444941 
L 231.36 204.890156 
L 233.22 204.890156 
L 233.22 204.78143 
L 233.22 203.052683 
L 235.08 203.052683 
L 235.08 202.943957 
L 235.08 201.400045 
L 236.94 201.400045 
L 236.94 201.291318 
L 236.94 199.823514 
L 238.8 199.823514 
L 238.8 199.714788 
L 238.8 198.149131 
L 240.66 198.149131 
L 240.66 198.040405 
L 240.66 196.670454 
L 242.52 196.670454 
L 242.52 196.561728 
L 242.52 195.20265 
L 244.38 195.20265 
L 244.38 195.093924 
L 244.38 193.930554 
L 246.24 193.930554 
L 246.24 193.821828 
L 246.24 192.343151 
L 248.1 192.343151 
L 248.1 192.234425 
L 248.1 190.755748 
L 249.96 190.755748 
L 249.96 190.647022 
L 249.96 189.646741 
L 251.82 189.646741 
L 251.82 189.538015 
L 251.82 188.352899 
L 253.68 188.352899 
L 253.68 188.244173 
L 253.68 187.472217 
L 255.54 187.472217 
L 255.54 187.36349 
L 255.54 186.45019 
L 257.4 186.45019 
L 257.4 186.341464 
L 257.4 185.449909 
L 259.26 185.449909 
L 259.26 185.341183 
L 259.26 184.503991 
L 261.12 184.503991 
L 261.12 184.395265 
L 261.12 183.775525 
L 262.98 183.775525 
L 262.98 183.666799 
L 262.98 182.981824 
L 264.84 182.981824 
L 264.84 182.873098 
L 264.84 182.144632 
L 266.7 182.144632 
L 266.7 182.035906 
L 266.7 181.231332 
L 268.56 181.231332 
L 268.56 181.122606 
L 268.56 180.318032 
L 270.42 180.318032 
L 270.42 180.209306 
L 270.42 179.633057 
L 272.28 179.633057 
L 272.28 179.524331 
L 272.28 178.763247 
L 274.14 178.763247 
L 274.14 178.654521 
L 274.14 177.839074 
L 276 177.839074 
L 276 177.730348 
L 276 176.980137 
L 277.86 176.980137 
L 277.86 176.871411 
L 277.86 176.132073 
L 279.72 176.132073 
L 279.72 176.023346 
L 279.72 175.197027 
L 281.58 175.197027 
L 281.58 175.088301 
L 281.58 174.283727 
L 283.44 174.283727 
L 283.44 174.175001 
L 283.44 173.555261 
L 285.3 173.555261 
L 285.3 173.446535 
L 285.3 172.576726 
L 287.16 172.576726 
L 287.16 172.467999 
L 287.16 171.532954 
L 289.02 171.532954 
L 289.02 171.424228 
L 289.02 170.608781 
L 290.88 170.608781 
L 290.88 170.500055 
L 290.88 169.641118 
L 292.74 169.641118 
L 292.74 169.532392 
L 292.74 168.510365 
L 294.6 168.510365 
L 294.6 168.401639 
L 294.6 167.510084 
L 296.46 167.510084 
L 296.46 167.401358 
L 296.46 166.575039 
L 298.32 166.575039 
L 298.32 166.466312 
L 298.32 165.596503 
L 300.18 165.596503 
L 300.18 165.487776 
L 300.18 164.802801 
L 302.04 164.802801 
L 302.04 164.694075 
L 302.04 163.737284 
L 303.9 163.737284 
L 303.9 163.628558 
L 303.9 162.823984 
L 305.76 162.823984 
L 305.76 162.715258 
L 305.76 161.834576 
L 307.62 161.834576 
L 307.62 161.725849 
L 307.62 160.921276 
L 309.48 160.921276 
L 309.48 160.812549 
L 309.48 159.98623 
L 311.34 159.98623 
L 311.34 159.877504 
L 311.34 159.083803 
L 313.2 159.083803 
L 313.2 158.975076 
L 313.2 158.344464 
L 315.06 158.344464 
L 315.06 158.235738 
L 315.06 157.670362 
L 316.92 157.670362 
L 316.92 157.561636 
L 316.92 156.963641 
L 318.78 156.963641 
L 318.78 156.854915 
L 318.78 156.017723 
L 320.64 156.017723 
L 320.64 155.908997 
L 320.64 155.169659 
L 322.5 155.169659 
L 322.5 155.060933 
L 322.5 154.441193 
L 324.36 154.441193 
L 324.36 154.332467 
L 324.36 153.734473 
L 326.22 153.734473 
L 326.22 153.625747 
L 326.22 152.951644 
L 328.08 152.951644 
L 328.08 152.842918 
L 328.08 152.070962 
L 329.94 152.070962 
L 329.94 151.962236 
L 329.94 151.070681 
L 331.8 151.070681 
L 331.8 150.961954 
L 331.8 150.146508 
L 333.66 150.146508 
L 333.66 150.037782 
L 333.66 149.352806 
L 335.52 149.352806 
L 335.52 149.24408 
L 335.52 148.28729 
L 337.38 148.28729 
L 337.38 148.178563 
L 337.38 147.41748 
L 339.24 147.41748 
L 339.24 147.308754 
L 339.24 146.591161 
L 341.1 146.591161 
L 341.1 146.482434 
L 341.1 145.558262 
L 342.96 145.558262 
L 342.96 145.449535 
L 342.96 144.786306 
L 344.82 144.786306 
L 344.82 144.677579 
L 344.82 144.003477 
L 346.68 144.003477 
L 346.68 143.894751 
L 346.68 143.296756 
L 348.54 143.296756 
L 348.54 143.18803 
L 348.54 142.492182 
L 350.4 142.492182 
L 350.4 142.383456 
L 350.4 141.687608 
L 352.26 141.687608 
L 352.26 141.578882 
L 352.26 140.915652 
L 354.12 140.915652 
L 354.12 140.806926 
L 354.12 140.165441 
L 355.98 140.165441 
L 355.98 140.056715 
L 355.98 139.458721 
L 357.84 139.458721 
L 357.84 139.349995 
L 357.84 138.70851 
L 359.7 138.70851 
L 359.7 138.599784 
L 359.7 138.067026 
L 361.56 138.067026 
L 361.56 137.958299 
L 361.56 137.436414 
L 363.42 137.436414 
L 363.42 137.327687 
L 363.42 136.784056 
L 365.28 136.784056 
L 365.28 136.67533 
L 365.28 136.186062 
L 367.14 136.186062 
L 367.14 136.077336 
L 367.14 135.566323 
L 369 135.566323 
L 369 135.457596 
L 369 134.957456 
L 370.86 134.957456 
L 370.86 134.84873 
L 370.86 134.326844 
L 372.72 134.326844 
L 372.72 134.218118 
L 372.72 133.620123 
L 374.58 133.620123 
L 374.58 133.511397 
L 374.58 132.989511 
L 376.44 132.989511 
L 376.44 132.880785 
L 376.44 132.413262 
L 378.3 132.413262 
L 378.3 132.304536 
L 378.3 131.869631 
L 380.16 131.869631 
L 380.16 131.760905 
L 380.16 131.293382 
L 382.02 131.293382 
L 382.02 131.184656 
L 382.02 130.684516 
L 383.88 130.684516 
L 383.88 130.575789 
L 383.88 129.95605 
L 385.74 129.95605 
L 385.74 129.847324 
L 385.74 129.401546 
L 387.6 129.401546 
L 387.6 129.29282 
L 387.6 128.673081 
L 389.46 128.673081 
L 389.46 128.564355 
L 389.46 128.009851 
L 391.32 128.009851 
L 391.32 127.901125 
L 391.32 127.248767 
L 393.18 127.248767 
L 393.18 127.140041 
L 393.18 126.563792 
L 395.04 126.563792 
L 395.04 126.455066 
L 395.04 125.857072 
L 396.9 125.857072 
L 396.9 125.748346 
L 396.9 125.248205 
L 398.76 125.248205 
L 398.76 125.139479 
L 398.76 124.661083 
L 400.62 124.661083 
L 400.62 124.552357 
L 400.62 124.041344 
L 402.48 124.041344 
L 402.48 123.932618 
L 402.48 123.497713 
L 404.34 123.497713 
L 404.34 123.388987 
L 404.34 122.964955 
L 406.2 122.964955 
L 406.2 122.856228 
L 406.2 122.399578 
L 408.06 122.399578 
L 408.06 122.290852 
L 408.06 121.790711 
L 409.92 121.790711 
L 409.92 121.681985 
L 409.92 121.192717 
L 411.78 121.192717 
L 411.78 121.083991 
L 411.78 120.518615 
L 413.64 120.518615 
L 413.64 120.409889 
L 413.64 120.007602 
L 415.5 120.007602 
L 415.5 119.898875 
L 415.5 119.398735 
L 417.36 119.398735 
L 417.36 119.290009 
L 417.36 118.71376 
L 419.22 118.71376 
L 419.22 118.605033 
L 419.22 118.235364 
L 421.08 118.235364 
L 421.08 118.126638 
L 421.08 117.746096 
L 422.94 117.746096 
L 422.94 117.63737 
L 422.94 117.093739 
L 424.8 117.093739 
L 424.8 116.985013 
L 424.8 116.408764 
L 426.66 116.408764 
L 426.66 116.300038 
L 426.66 115.778152 
L 428.52 115.778152 
L 428.52 115.669426 
L 428.52 115.14754 
L 430.38 115.14754 
L 430.38 115.038814 
L 430.38 114.364711 
L 432.24 114.364711 
L 432.24 114.255985 
L 432.24 113.77759 
L 434.1 113.77759 
L 434.1 113.668863 
L 434.1 113.049124 
L 435.96 113.049124 
L 435.96 112.940398 
L 435.96 112.375021 
L 437.82 112.375021 
L 437.82 112.266295 
L 437.82 111.516084 
L 439.68 111.516084 
L 439.68 111.407358 
L 439.68 110.722383 
L 441.54 110.722383 
L 441.54 110.613657 
L 441.54 109.993917 
L 443.4 109.993917 
L 443.4 109.885191 
L 443.4 109.189343 
L 445.26 109.189343 
L 445.26 109.080617 
L 445.26 108.406515 
L 447.12 108.406515 
L 447.12 108.297788 
L 447.12 107.623686 
L 448.98 107.623686 
L 448.98 107.51496 
L 448.98 106.525551 
L 450.84 106.525551 
L 450.84 106.416825 
L 450.84 105.666614 
L 452.7 105.666614 
L 452.7 105.557888 
L 452.7 104.905531 
L 454.56 104.905531 
L 454.56 104.796804 
L 454.56 104.122702 
L 456.42 104.122702 
L 456.42 104.013976 
L 456.42 103.394236 
L 458.28 103.394236 
L 458.28 103.28551 
L 458.28 102.513554 
L 460.14 102.513554 
L 460.14 102.404828 
L 460.14 101.665489 
L 462 101.665489 
L 462 101.556763 
L 462 100.980514 
L 463.86 100.980514 
L 463.86 100.871788 
L 463.86 100.284667 
L 465.72 100.284667 
L 465.72 100.17594 
L 465.72 99.490965 
L 467.58 99.490965 
L 467.58 99.382239 
L 467.58 98.686391 
L 469.44 98.686391 
L 469.44 98.577665 
L 469.44 97.860072 
L 471.3 97.860072 
L 471.3 97.751346 
L 471.3 97.109861 
L 473.16 97.109861 
L 473.16 97.001135 
L 473.16 96.185688 
L 475.02 96.185688 
L 475.02 96.076962 
L 475.02 95.23977 
L 476.88 95.23977 
L 476.88 95.131044 
L 476.88 94.32647 
L 478.74 94.32647 
L 478.74 94.217744 
L 478.74 93.587132 
L 480.6 93.587132 
L 480.6 93.478406 
L 480.6 92.760813 
L 482.46 92.760813 
L 482.46 92.652086 
L 482.46 92.075837 
L 484.32 92.075837 
L 484.32 91.967111 
L 484.32 91.390862 
L 486.18 91.390862 
L 486.18 91.282136 
L 486.18 90.749378 
L 488.04 90.749378 
L 488.04 90.640651 
L 488.04 90.194874 
L 489.9 90.194874 
L 489.9 90.086148 
L 489.9 89.564262 
L 491.76 89.564262 
L 491.76 89.455536 
L 491.76 88.955395 
L 493.62 88.955395 
L 493.62 88.846669 
L 493.62 88.357401 
L 495.48 88.357401 
L 495.48 88.248675 
L 495.48 87.879006 
L 497.34 87.879006 
L 497.34 87.770279 
L 497.34 87.281011 
L 499.2 87.281011 
L 499.2 87.172285 
L 499.2 86.726508 
L 501.06 86.726508 
L 501.06 86.617782 
L 501.06 86.161131 
L 502.92 86.161131 
L 502.92 86.052405 
L 502.92 85.595755 
L 504.78 85.595755 
L 504.78 85.487029 
L 504.78 85.171723 
L 506.64 85.171723 
L 506.64 85.062997 
L 506.64 84.725945 
L 508.5 84.725945 
L 508.5 84.617219 
L 508.5 84.323658 
L 510.36 84.323658 
L 510.36 84.214932 
L 510.36 83.671301 
L 512.22 83.671301 
L 512.22 83.562575 
L 512.22 83.12767 
L 514.08 83.12767 
L 514.08 83.018944 
L 514.08 82.67102 
L 515.94 82.67102 
L 515.94 82.562294 
L 515.94 82.192625 
L 517.8 82.192625 
L 517.8 82.083899 
L 517.8 81.572885 
L 519.66 81.572885 
L 519.66 81.464159 
L 519.66 81.13798 
L 521.52 81.13798 
L 521.52 81.029254 
L 521.52 80.779184 
L 523.38 80.779184 
L 523.38 80.670458 
L 523.38 80.22468 
L 525.24 80.22468 
L 525.24 80.115954 
L 525.24 79.778903 
L 527.1 79.778903 
L 527.1 79.670177 
L 527.1 79.289635 
L 528.96 79.289635 
L 528.96 79.180909 
L 528.96 78.832985 
L 530.82 78.832985 
L 530.82 78.724259 
L 530.82 78.245863 
L 532.68 78.245863 
L 532.68 78.137137 
L 532.68 77.800086 
L 534.54 77.800086 
L 534.54 77.69136 
L 534.54 77.463034 
L 536.4 77.463034 
L 536.4 77.354308 
L 536.4 77.104238 
L 538.26 77.104238 
L 538.26 76.995512 
L 538.26 76.756314 
L 540.12 76.756314 
L 540.12 76.647588 
L 540.12 76.299664 
L 541.98 76.299664 
L 541.98 76.190938 
L 541.98 75.843014 
L 543.84 75.843014 
L 543.84 75.734288 
L 543.84 75.462472 
L 545.7 75.462472 
L 545.7 75.353746 
L 545.7 75.125421 
L 547.56 75.125421 
L 547.56 75.016695 
L 547.56 74.701389 
L 549.42 74.701389 
L 549.42 74.592662 
L 549.42 74.353465 
L 551.28 74.353465 
L 551.28 74.244739 
L 551.28 73.983796 
L 553.14 73.983796 
L 553.14 73.875069 
L 553.14 73.516273 
L 555 73.516273 
L 555 73.407547 
L 555 73.200967 
L 556.86 73.200967 
L 556.86 73.092241 
L 556.86 72.929151 
L 558.72 72.929151 
L 558.72 72.820425 
L 558.72 72.624718 
L 560.58 72.624718 
L 560.58 72.515992 
L 560.58 72.320285 
L 562.44 72.320285 
L 562.44 72.211558 
L 562.44 71.917998 
L 564.3 71.917998 
L 564.3 71.809271 
L 564.3 71.613564 
L 566.16 71.613564 
L 566.16 71.504838 
L 566.16 71.320003 
L 568.02 71.320003 
L 568.02 71.211277 
L 568.02 71.048188 
L 569.88 71.048188 
L 569.88 70.939462 
L 569.88 70.722009 
L 571.74 70.722009 
L 571.74 70.613283 
L 571.74 70.482812 
L 573.6 70.482812 
L 573.6 70.374085 
L 573.6 70.14576 
L 575.46 70.14576 
L 575.46 70.037034 
L 575.46 69.8522 
L 577.32 69.8522 
L 577.32 69.743473 
L 577.32 69.558639 
L 579.18 69.558639 
L 579.18 69.449913 
L 579.18 69.308568 
L 581.04 69.308568 
L 581.04 69.199842 
L 581.04 68.971517 
L 582.9 68.971517 
L 582.9 68.862791 
L 582.9 68.612721 
L 584.76 68.612721 
L 584.76 68.503995 
L 584.76 68.384396 
L 586.62 68.384396 
L 586.62 68.275669 
L 586.62 68.025599 
L 588.48 68.025599 
L 588.48 67.916873 
L 588.48 67.775529 
L 590.34 67.775529 
L 590.34 67.666803 
L 590.34 67.492841 
L 592.2 67.492841 
L 592.2 67.384115 
L 592.2 67.166662 
L 594.06 67.166662 
L 594.06 67.057936 
L 594.06 66.862229 
L 595.92 66.862229 
L 595.92 66.753502 
L 595.92 66.503432 
L 597.78 66.503432 
L 597.78 66.394706 
L 597.78 66.318598 
L 599.64 66.318598 
L 599.64 66.209871 
L 599.64 66.101145 
L 601.5 66.101145 
L 601.5 65.992419 
L 601.5 65.840202 
L 603.36 65.840202 
L 603.36 65.731476 
L 603.36 65.503151 
L 605.22 65.503151 
L 605.22 65.394425 
L 605.22 65.1661 
L 607.08 65.1661 
L 607.08 65.057374 
L 607.08 64.992138 
L 608.94 64.992138 
L 608.94 64.883412 
L 608.94 64.644214 
L 610.8 64.644214 
L 610.8 64.535488 
L 610.8 64.405016 
L 612.66 64.405016 
L 612.66 64.29629 
L 612.66 64.078838 
L 614.52 64.078838 
L 614.52 63.970111 
L 614.52 63.83964 
L 616.38 63.83964 
L 616.38 63.730914 
L 616.38 63.643933 
L 618.24 63.643933 
L 618.24 63.535207 
L 618.24 63.448226 
L 620.1 63.448226 
L 620.1 63.339499 
L 620.1 63.198155 
L 621.96 63.198155 
L 621.96 63.089429 
L 621.96 62.893722 
L 623.82 62.893722 
L 623.82 62.784996 
L 623.82 62.71976 
L 625.68 62.71976 
L 625.68 62.611034 
L 625.68 62.534925 
L 627.54 62.534925 
L 627.54 62.426199 
L 627.54 62.360963 
L 629.4 62.360963 
L 629.4 62.252237 
L 629.4 62.187002 
L 631.26 62.187002 
L 631.26 62.078275 
L 631.26 62.045657 
L 633.12 62.045657 
L 633.12 61.936931 
L 633.12 61.80646 
L 634.98 61.80646 
L 634.98 61.697734 
L 634.98 61.621625 
L 636.84 61.621625 
L 636.84 61.512899 
L 636.84 61.382428 
L 638.7 61.382428 
L 638.7 61.273701 
L 638.7 61.262829 
L 640.56 61.262829 
L 640.56 61.154103 
L 640.56 61.088867 
L 642.42 61.088867 
L 642.42 60.980141 
L 642.42 60.947523 
L 644.28 60.947523 
L 644.28 60.838797 
L 644.28 60.68658 
L 646.14 60.68658 
L 646.14 60.577854 
L 646.14 60.556108 
L 648 60.556108 
L 648 60.48 
" clip-path="url(#p27a34de265)" style="fill: none; stroke: #2ca02c; stroke-width: 2.8; stroke-linecap: round"/>
   </g>
   <g id="line2d_15">
    <path d="M 90 441 
L 90 430.751328 
L 91.86 430.751328 
L 91.86 430.649856 
L 91.86 421.21296 
L 93.72 421.21296 
L 93.72 421.111488 
L 93.72 412.08048 
L 95.58 412.08048 
L 95.58 411.979008 
L 95.58 404.571552 
L 97.44 404.571552 
L 97.44 404.47008 
L 97.44 397.569984 
L 99.3 397.569984 
L 99.3 397.468512 
L 99.3 392.496384 
L 101.16 392.496384 
L 101.16 392.394912 
L 101.16 386.408064 
L 103.02 386.408064 
L 103.02 386.306592 
L 103.02 380.1168 
L 104.88 380.1168 
L 104.88 380.015328 
L 104.88 373.115232 
L 106.74 373.115232 
L 106.74 373.01376 
L 106.74 366.92544 
L 108.6 366.92544 
L 108.6 366.823968 
L 108.6 360.025344 
L 110.46 360.025344 
L 110.46 359.923872 
L 110.46 353.835552 
L 112.32 353.835552 
L 112.32 353.73408 
L 112.32 346.63104 
L 114.18 346.63104 
L 114.18 346.529568 
L 114.18 340.339776 
L 116.04 340.339776 
L 116.04 340.238304 
L 116.04 335.164704 
L 117.9 335.164704 
L 117.9 335.063232 
L 117.9 329.177856 
L 119.76 329.177856 
L 119.76 329.076384 
L 119.76 324.713088 
L 121.62 324.713088 
L 121.62 324.611616 
L 121.62 320.045376 
L 123.48 320.045376 
L 123.48 319.943904 
L 123.48 314.66736 
L 125.34 314.66736 
L 125.34 314.565888 
L 125.34 309.999648 
L 127.2 309.999648 
L 127.2 309.898176 
L 127.2 304.824576 
L 129.06 304.824576 
L 129.06 304.723104 
L 129.06 300.055392 
L 130.92 300.055392 
L 130.92 299.95392 
L 130.92 295.184736 
L 132.78 295.184736 
L 132.78 295.083264 
L 132.78 291.125856 
L 134.64 291.125856 
L 134.64 291.024384 
L 134.64 286.153728 
L 136.5 286.153728 
L 136.5 286.052256 
L 136.5 281.283072 
L 138.36 281.283072 
L 138.36 281.1816 
L 138.36 277.12272 
L 140.22 277.12272 
L 140.22 277.021248 
L 140.22 272.252064 
L 142.08 272.252064 
L 142.08 272.150592 
L 142.08 268.700544 
L 143.94 268.700544 
L 143.94 268.599072 
L 143.94 264.844608 
L 145.8 264.844608 
L 145.8 264.743136 
L 145.8 260.481312 
L 147.66 260.481312 
L 147.66 260.37984 
L 147.66 255.509184 
L 149.52 255.509184 
L 149.52 255.407712 
L 149.52 251.450304 
L 151.38 251.450304 
L 151.38 251.348832 
L 151.38 247.289952 
L 153.24 247.289952 
L 153.24 247.18848 
L 153.24 243.941376 
L 155.1 243.941376 
L 155.1 243.839904 
L 155.1 239.07072 
L 156.96 239.07072 
L 156.96 238.969248 
L 156.96 235.01184 
L 158.82 235.01184 
L 158.82 234.910368 
L 158.82 231.054432 
L 160.68 231.054432 
L 160.68 230.95296 
L 160.68 227.40144 
L 162.54 227.40144 
L 162.54 227.299968 
L 162.54 224.763168 
L 164.4 224.763168 
L 164.4 224.661696 
L 164.4 221.617536 
L 166.26 221.617536 
L 166.26 221.516064 
L 166.26 217.964544 
L 168.12 217.964544 
L 168.12 217.863072 
L 168.12 214.21008 
L 169.98 214.21008 
L 169.98 214.108608 
L 169.98 210.049728 
L 171.84 210.049728 
L 171.84 209.948256 
L 171.84 206.59968 
L 173.7 206.59968 
L 173.7 206.498208 
L 173.7 202.743744 
L 175.56 202.743744 
L 175.56 202.642272 
L 175.56 199.598112 
L 177.42 199.598112 
L 177.42 199.49664 
L 177.42 196.351008 
L 179.28 196.351008 
L 179.28 196.249536 
L 179.28 193.002432 
L 181.14 193.002432 
L 181.14 192.90096 
L 181.14 189.8568 
L 183 189.8568 
L 183 189.755328 
L 183 187.624416 
L 184.86 187.624416 
L 184.86 187.522944 
L 184.86 184.580256 
L 186.72 184.580256 
L 186.72 184.478784 
L 186.72 182.2464 
L 188.58 182.2464 
L 188.58 182.144928 
L 188.58 179.20224 
L 190.44 179.20224 
L 190.44 179.100768 
L 190.44 176.056608 
L 192.3 176.056608 
L 192.3 175.955136 
L 192.3 174.636 
L 194.16 174.636 
L 194.16 174.534528 
L 194.16 171.08448 
L 196.02 171.08448 
L 196.02 170.983008 
L 196.02 168.852096 
L 197.88 168.852096 
L 197.88 168.750624 
L 197.88 166.01088 
L 199.74 166.01088 
L 199.74 165.909408 
L 199.74 163.372608 
L 201.6 163.372608 
L 201.6 163.271136 
L 201.6 160.93728 
L 203.46 160.93728 
L 203.46 160.835808 
L 203.46 158.096064 
L 205.32 158.096064 
L 205.32 157.994592 
L 205.32 154.84896 
L 207.18 154.84896 
L 207.18 154.747488 
L 207.18 152.515104 
L 209.04 152.515104 
L 209.04 152.413632 
L 209.04 150.181248 
L 210.9 150.181248 
L 210.9 150.079776 
L 210.9 148.25328 
L 212.76 148.25328 
L 212.76 148.151808 
L 212.76 146.528256 
L 214.62 146.528256 
L 214.62 146.426784 
L 214.62 144.904704 
L 216.48 144.904704 
L 216.48 144.803232 
L 216.48 143.17968 
L 218.34 143.17968 
L 218.34 143.078208 
L 218.34 141.454656 
L 220.2 141.454656 
L 220.2 141.353184 
L 220.2 139.526688 
L 222.06 139.526688 
L 222.06 139.425216 
L 222.06 137.700192 
L 223.92 137.700192 
L 223.92 137.59872 
L 223.92 136.381056 
L 225.78 136.381056 
L 225.78 136.279584 
L 225.78 135.366336 
L 227.64 135.366336 
L 227.64 135.264864 
L 227.64 133.235424 
L 229.5 133.235424 
L 229.5 133.133952 
L 229.5 132.220704 
L 231.36 132.220704 
L 231.36 132.119232 
L 231.36 131.104512 
L 233.22 131.104512 
L 233.22 131.00304 
L 233.22 129.176544 
L 235.08 129.176544 
L 235.08 129.075072 
L 235.08 127.654464 
L 236.94 127.654464 
L 236.94 127.552992 
L 236.94 126.741216 
L 238.8 126.741216 
L 238.8 126.639744 
L 238.8 125.625024 
L 240.66 125.625024 
L 240.66 125.523552 
L 240.66 124.813248 
L 242.52 124.813248 
L 242.52 124.711776 
L 242.52 123.494112 
L 244.38 123.494112 
L 244.38 123.39264 
L 244.38 121.667616 
L 246.24 121.667616 
L 246.24 121.566144 
L 246.24 119.638176 
L 248.1 119.638176 
L 248.1 119.536704 
L 248.1 118.521984 
L 249.96 118.521984 
L 249.96 118.420512 
L 249.96 117.405792 
L 251.82 117.405792 
L 251.82 117.30432 
L 251.82 116.695488 
L 253.68 116.695488 
L 253.68 116.594016 
L 253.68 115.376352 
L 255.54 115.376352 
L 255.54 115.27488 
L 255.54 114.26016 
L 257.4 114.26016 
L 257.4 114.158688 
L 257.4 113.854272 
L 259.26 113.854272 
L 259.26 113.7528 
L 259.26 113.24544 
L 261.12 113.24544 
L 261.12 113.143968 
L 261.12 112.332192 
L 262.98 112.332192 
L 262.98 112.23072 
L 262.98 111.317472 
L 264.84 111.317472 
L 264.84 111.216 
L 264.84 110.302752 
L 266.7 110.302752 
L 266.7 110.20128 
L 266.7 109.592448 
L 268.56 109.592448 
L 268.56 109.490976 
L 268.56 108.983616 
L 270.42 108.983616 
L 270.42 108.882144 
L 270.42 108.070368 
L 272.28 108.070368 
L 272.28 107.968896 
L 272.28 107.461536 
L 274.14 107.461536 
L 274.14 107.360064 
L 274.14 106.64976 
L 276 106.64976 
L 276 106.548288 
L 276 106.040928 
L 277.86 106.040928 
L 277.86 105.939456 
L 277.86 105.229152 
L 279.72 105.229152 
L 279.72 105.12768 
L 279.72 104.417376 
L 281.58 104.417376 
L 281.58 104.315904 
L 281.58 103.6056 
L 283.44 103.6056 
L 283.44 103.504128 
L 283.44 102.793824 
L 285.3 102.793824 
L 285.3 102.692352 
L 285.3 101.982048 
L 287.16 101.982048 
L 287.16 101.880576 
L 287.16 101.0688 
L 289.02 101.0688 
L 289.02 100.967328 
L 289.02 100.459968 
L 290.88 100.459968 
L 290.88 100.358496 
L 290.88 99.445248 
L 292.74 99.445248 
L 292.74 99.343776 
L 292.74 98.734944 
L 294.6 98.734944 
L 294.6 98.633472 
L 294.6 97.923168 
L 296.46 97.923168 
L 296.46 97.821696 
L 296.46 97.111392 
L 298.32 97.111392 
L 298.32 97.00992 
L 298.32 96.299616 
L 300.18 96.299616 
L 300.18 96.198144 
L 300.18 95.284896 
L 302.04 95.284896 
L 302.04 95.183424 
L 302.04 94.98048 
L 303.9 94.98048 
L 303.9 94.879008 
L 303.9 94.168704 
L 305.76 94.168704 
L 305.76 94.067232 
L 305.76 93.559872 
L 307.62 93.559872 
L 307.62 93.4584 
L 307.62 93.052512 
L 309.48 93.052512 
L 309.48 92.95104 
L 309.48 92.545152 
L 311.34 92.545152 
L 311.34 92.44368 
L 311.34 92.037792 
L 313.2 92.037792 
L 313.2 91.93632 
L 313.2 91.42896 
L 315.06 91.42896 
L 315.06 91.327488 
L 315.06 91.226016 
L 316.92 91.226016 
L 316.92 91.124544 
L 316.92 90.617184 
L 318.78 90.617184 
L 318.78 90.515712 
L 318.78 90.008352 
L 320.64 90.008352 
L 320.64 89.90688 
L 320.64 89.196576 
L 322.5 89.196576 
L 322.5 89.095104 
L 322.5 88.587744 
L 324.36 88.587744 
L 324.36 88.486272 
L 324.36 87.775968 
L 326.22 87.775968 
L 326.22 87.674496 
L 326.22 87.471552 
L 328.08 87.471552 
L 328.08 87.37008 
L 328.08 87.167136 
L 329.94 87.167136 
L 329.94 87.065664 
L 329.94 86.659776 
L 331.8 86.659776 
L 331.8 86.558304 
L 331.8 86.35536 
L 335.52 86.253888 
L 335.52 85.442112 
L 337.38 85.442112 
L 337.38 85.34064 
L 337.38 84.731808 
L 339.24 84.731808 
L 339.24 84.630336 
L 339.24 84.122976 
L 341.1 84.122976 
L 341.1 84.021504 
L 341.1 83.514144 
L 342.96 83.514144 
L 342.96 83.412672 
L 342.96 82.905312 
L 344.82 82.905312 
L 344.82 82.80384 
L 344.82 81.890592 
L 346.68 81.890592 
L 346.68 81.78912 
L 346.68 81.586176 
L 348.54 81.586176 
L 348.54 81.484704 
L 348.54 81.383232 
L 350.4 81.383232 
L 350.4 81.28176 
L 350.4 80.368512 
L 352.26 80.368512 
L 352.26 80.26704 
L 352.26 79.962624 
L 354.12 79.962624 
L 354.12 79.861152 
L 354.12 79.658208 
L 355.98 79.658208 
L 355.98 79.556736 
L 355.98 79.455264 
L 357.84 79.455264 
L 357.84 79.353792 
L 357.84 79.150848 
L 359.7 79.150848 
L 359.7 79.049376 
L 359.7 78.947904 
L 361.56 78.947904 
L 361.56 78.846432 
L 361.56 78.74496 
L 363.42 78.74496 
L 363.42 78.643488 
L 363.42 78.542016 
L 365.28 78.542016 
L 365.28 78.440544 
L 365.28 78.339072 
L 367.14 78.339072 
L 367.14 78.2376 
L 367.14 77.933184 
L 372.72 77.831712 
L 372.72 77.628768 
L 374.58 77.628768 
L 374.58 77.527296 
L 374.58 77.425824 
L 378.3 77.324352 
L 378.3 77.121408 
L 380.16 77.121408 
L 380.16 77.019936 
L 380.16 76.918464 
L 382.02 76.918464 
L 382.02 76.816992 
L 382.02 76.71552 
L 383.88 76.71552 
L 383.88 76.614048 
L 383.88 76.512576 
L 385.74 76.512576 
L 385.74 76.411104 
L 385.74 76.309632 
L 389.46 76.20816 
L 389.46 76.005216 
L 393.18 75.903744 
L 393.18 75.802272 
L 396.9 75.7008 
L 396.9 75.599328 
L 400.62 75.599328 
L 400.62 75.497856 
L 400.62 74.990496 
L 402.48 74.990496 
L 402.48 74.889024 
L 402.48 74.584608 
L 404.34 74.584608 
L 404.34 74.483136 
L 404.34 74.280192 
L 406.2 74.280192 
L 406.2 74.17872 
L 406.2 74.077248 
L 413.64 73.975776 
L 413.64 73.67136 
L 417.36 73.67136 
L 417.36 73.569888 
L 417.36 73.366944 
L 421.08 73.265472 
L 421.08 72.859584 
L 422.94 72.859584 
L 422.94 72.758112 
L 422.94 72.65664 
L 426.66 72.65664 
L 426.66 72.555168 
L 426.66 72.14928 
L 428.52 72.14928 
L 428.52 72.047808 
L 428.52 71.844864 
L 432.24 71.743392 
L 432.24 71.540448 
L 434.1 71.540448 
L 434.1 71.438976 
L 434.1 71.033088 
L 435.96 71.033088 
L 435.96 70.931616 
L 435.96 70.728672 
L 439.68 70.6272 
L 439.68 70.525728 
L 441.54 70.525728 
L 441.54 70.424256 
L 441.54 70.322784 
L 445.26 70.221312 
L 445.26 69.916896 
L 447.12 69.916896 
L 447.12 69.815424 
L 447.12 69.713952 
L 450.84 69.61248 
L 450.84 69.10512 
L 454.56 69.003648 
L 454.56 68.902176 
L 456.42 68.902176 
L 456.42 68.800704 
L 456.42 68.59776 
L 460.14 68.496288 
L 460.14 68.293344 
L 462 68.293344 
L 462 68.191872 
L 462 68.0904 
L 465.72 68.0904 
L 465.72 67.988928 
L 465.72 67.887456 
L 467.58 67.887456 
L 467.58 67.785984 
L 467.58 67.684512 
L 471.3 67.58304 
L 471.3 67.481568 
L 475.02 67.380096 
L 475.02 67.177152 
L 476.88 67.177152 
L 476.88 67.07568 
L 476.88 66.974208 
L 480.6 66.872736 
L 480.6 66.771264 
L 482.46 66.771264 
L 482.46 66.669792 
L 482.46 66.263904 
L 491.76 66.162432 
L 491.76 66.06096 
L 493.62 66.06096 
L 493.62 65.959488 
L 493.62 65.858016 
L 499.2 65.858016 
L 499.2 65.756544 
L 499.2 65.5536 
L 502.92 65.5536 
L 502.92 65.452128 
L 502.92 65.350656 
L 508.5 65.249184 
L 508.5 65.147712 
L 515.94 65.147712 
L 515.94 65.04624 
L 515.94 64.944768 
L 521.52 64.843296 
L 521.52 64.741824 
L 523.38 64.741824 
L 523.38 64.640352 
L 523.38 64.53888 
L 530.82 64.437408 
L 530.82 64.132992 
L 534.54 64.03152 
L 534.54 63.930048 
L 541.98 63.828576 
L 541.98 63.727104 
L 553.14 63.625632 
L 553.14 63.52416 
L 556.86 63.422688 
L 556.86 63.321216 
L 564.3 63.219744 
L 564.3 63.118272 
L 566.16 63.118272 
L 566.16 63.0168 
L 566.16 62.813856 
L 568.02 62.813856 
L 568.02 62.712384 
L 568.02 62.610912 
L 569.88 62.610912 
L 569.88 62.50944 
L 569.88 62.407968 
L 577.32 62.306496 
L 577.32 62.103552 
L 586.62 62.00208 
L 586.62 61.900608 
L 597.78 61.799136 
L 597.78 61.697664 
L 603.36 61.596192 
L 603.36 61.49472 
L 610.8 61.393248 
L 610.8 61.190304 
L 625.68 61.088832 
L 625.68 60.98736 
L 633.12 60.885888 
L 633.12 60.784416 
L 640.56 60.682944 
L 640.56 60.581472 
L 642.42 60.581472 
L 642.42 60.48 
" clip-path="url(#p27a34de265)" style="fill: none; stroke: #ff7f0e; stroke-width: 2.8; stroke-linecap: round"/>
   </g>
   <g id="line2d_16">
    <path d="M 90 441 
L 90 440.990929 
L 91.86 440.990929 
L 91.86 440.882071 
L 91.86 440.43757 
L 93.72 440.43757 
L 93.72 440.328713 
L 93.72 438.423709 
L 95.58 438.423709 
L 95.58 438.314852 
L 95.58 436.04699 
L 97.44 436.04699 
L 97.44 435.938132 
L 97.44 433.779128 
L 99.3 433.779128 
L 99.3 433.670271 
L 99.3 431.728981 
L 101.16 431.728981 
L 101.16 431.620123 
L 101.16 429.506476 
L 103.02 429.506476 
L 103.02 429.397619 
L 103.02 426.9574 
L 104.88 426.9574 
L 104.88 426.848542 
L 104.88 424.45368 
L 106.74 424.45368 
L 106.74 424.344823 
L 106.74 421.387531 
L 108.6 421.387531 
L 108.6 421.278674 
L 108.6 417.650095 
L 110.46 417.650095 
L 110.46 417.541237 
L 110.46 413.622372 
L 112.32 413.622372 
L 112.32 413.513515 
L 112.32 408.569576 
L 114.18 408.569576 
L 114.18 408.460719 
L 114.18 403.008779 
L 116.04 403.008779 
L 116.04 402.899921 
L 116.04 396.323122 
L 117.9 396.323122 
L 117.9 396.214265 
L 117.9 388.97525 
L 119.76 388.97525 
L 119.76 388.866392 
L 119.76 380.529732 
L 121.62 380.529732 
L 121.62 380.420875 
L 121.62 371.476428 
L 123.48 371.476428 
L 123.48 371.367571 
L 123.48 361.361764 
L 125.34 361.361764 
L 125.34 361.252907 
L 125.34 350.720956 
L 127.2 350.720956 
L 127.2 350.612099 
L 127.2 340.034792 
L 129.06 340.034792 
L 129.06 339.925934 
L 129.06 328.731768 
L 130.92 328.731768 
L 130.92 328.622911 
L 130.92 317.056816 
L 132.78 317.056816 
L 132.78 316.947958 
L 132.78 305.009933 
L 134.64 305.009933 
L 134.64 304.901076 
L 134.64 292.745337 
L 136.5 292.745337 
L 136.5 292.636479 
L 136.5 280.41724 
L 138.36 280.41724 
L 138.36 280.308382 
L 138.36 268.306858 
L 140.22 268.306858 
L 140.22 268.198 
L 140.22 256.178333 
L 142.08 256.178333 
L 142.08 256.069475 
L 142.08 244.204022 
L 143.94 244.204022 
L 143.94 244.095165 
L 143.94 233.136857 
L 145.8 233.136857 
L 145.8 233.027999 
L 145.8 221.779404 
L 147.66 221.779404 
L 147.66 221.670547 
L 147.66 211.183954 
L 149.52 211.183954 
L 149.52 211.075097 
L 149.52 200.470575 
L 151.38 200.470575 
L 151.38 200.361717 
L 151.38 190.219839 
L 153.24 190.219839 
L 153.24 190.110982 
L 153.24 180.69482 
L 155.1 180.69482 
L 155.1 180.585962 
L 155.1 172.203945 
L 156.96 172.203945 
L 156.96 172.095088 
L 156.96 164.057785 
L 158.82 164.057785 
L 158.82 163.948928 
L 158.82 155.966054 
L 160.68 155.966054 
L 160.68 155.857197 
L 160.68 148.590968 
L 162.54 148.590968 
L 162.54 148.48211 
L 162.54 141.39731 
L 164.4 141.39731 
L 164.4 141.288453 
L 164.4 134.675367 
L 166.26 134.675367 
L 166.26 134.56651 
L 166.26 129.05107 
L 168.12 129.05107 
L 168.12 128.942213 
L 168.12 123.753345 
L 169.98 123.753345 
L 169.98 123.644488 
L 169.98 118.627977 
L 171.84 118.627977 
L 171.84 118.51912 
L 171.84 113.738467 
L 173.7 113.738467 
L 173.7 113.62961 
L 173.7 109.347887 
L 175.56 109.347887 
L 175.56 109.239029 
L 175.56 105.646736 
L 177.42 105.646736 
L 177.42 105.537879 
L 177.42 101.8458 
L 179.28 101.8458 
L 179.28 101.736942 
L 179.28 98.679865 
L 181.14 98.679865 
L 181.14 98.571007 
L 181.14 95.477644 
L 183 95.477644 
L 183 95.368786 
L 183 92.629209 
L 184.86 92.629209 
L 184.86 92.520352 
L 184.86 89.989418 
L 186.72 89.989418 
L 186.72 89.880561 
L 186.72 87.658056 
L 188.58 87.658056 
L 188.58 87.549199 
L 188.58 85.725838 
L 190.44 85.725838 
L 190.44 85.61698 
L 190.44 83.820834 
L 192.3 83.820834 
L 192.3 83.711977 
L 192.3 81.91583 
L 194.16 81.91583 
L 194.16 81.806973 
L 194.16 80.337398 
L 196.02 80.337398 
L 196.02 80.228541 
L 196.02 78.804324 
L 197.88 78.804324 
L 197.88 78.695466 
L 197.88 77.371035 
L 199.74 77.371035 
L 199.74 77.262178 
L 199.74 76.27339 
L 201.6 76.27339 
L 201.6 76.164532 
L 201.6 75.302745 
L 203.46 75.302745 
L 203.46 75.193888 
L 203.46 74.2686 
L 205.32 74.2686 
L 205.32 74.159743 
L 205.32 73.180026 
L 207.18 73.180026 
L 207.18 73.071169 
L 207.18 72.173096 
L 209.04 72.173096 
L 209.04 72.064238 
L 209.04 71.32038 
L 210.9 71.32038 
L 210.9 71.211522 
L 210.9 70.349735 
L 212.76 70.349735 
L 212.76 70.240877 
L 212.76 69.524233 
L 214.62 69.524233 
L 214.62 69.415376 
L 214.62 68.898303 
L 216.48 68.898303 
L 216.48 68.789446 
L 216.48 68.245159 
L 218.34 68.245159 
L 218.34 68.136302 
L 218.34 67.610158 
L 220.2 67.610158 
L 220.2 67.5013 
L 220.2 67.093085 
L 222.06 67.093085 
L 222.06 66.984228 
L 222.06 66.585084 
L 223.92 66.585084 
L 223.92 66.476227 
L 223.92 66.18594 
L 225.78 66.18594 
L 225.78 66.077083 
L 225.78 65.777725 
L 227.64 65.777725 
L 227.64 65.668868 
L 227.64 65.360439 
L 229.5 65.360439 
L 229.5 65.251581 
L 229.5 64.979438 
L 231.36 64.979438 
L 231.36 64.87058 
L 231.36 64.652866 
L 233.22 64.652866 
L 233.22 64.544008 
L 233.22 64.326294 
L 235.08 64.326294 
L 235.08 64.217436 
L 235.08 64.05415 
L 236.94 64.05415 
L 236.94 63.945293 
L 236.94 63.818293 
L 238.8 63.818293 
L 238.8 63.709435 
L 238.8 63.600578 
L 240.66 63.600578 
L 240.66 63.491721 
L 240.66 63.410077 
L 242.52 63.410077 
L 242.52 63.30122 
L 242.52 63.292149 
L 244.38 63.292149 
L 244.38 63.183291 
L 244.38 63.147006 
L 248.1 63.04722 
L 248.1 63.038148 
L 248.1 62.956505 
L 251.82 62.856719 
L 251.82 62.847648 
L 251.82 62.73879 
L 253.68 62.73879 
L 253.68 62.629933 
L 253.68 62.575504 
L 257.4 62.475718 
L 257.4 62.466647 
L 257.4 62.366861 
L 259.26 62.366861 
L 259.26 62.258004 
L 259.26 62.248932 
L 262.98 62.167289 
L 262.98 62.140075 
L 262.98 62.067503 
L 266.7 62.022146 
L 266.7 61.958646 
L 266.7 61.92236 
L 270.42 61.822574 
L 270.42 61.813503 
L 270.42 61.750003 
L 276 61.650217 
L 276 61.641145 
L 276 61.595788 
L 279.72 61.505074 
L 279.72 61.486931 
L 279.72 61.459716 
L 290.88 61.369002 
L 290.88 61.350859 
L 290.88 61.314573 
L 300.18 61.205716 
L 300.18 61.187573 
L 311.34 61.087787 
L 311.34 61.078716 
L 311.34 61.069644 
L 329.94 60.960787 
L 329.94 60.951715 
L 346.68 60.842858 
L 346.68 60.824715 
L 380.16 60.715858 
L 380.16 60.697715 
L 437.82 60.588857 
L 437.82 60.579786 
L 597.78 60.498143 
L 597.78 60.48 
" clip-path="url(#p27a34de265)" style="fill: none; stroke: #1f77b4; stroke-width: 2.8; stroke-linecap: round"/>
   </g>
   <g id="patch_3">
    <path d="M 90 441 
L 90 60.48 
" style="fill: none; stroke: #262626; stroke-width: 1.25; stroke-linejoin: miter; stroke-linecap: square"/>
   </g>
   <g id="patch_4">
    <path d="M 648 441 
L 648 60.48 
" style="fill: none; stroke: #262626; stroke-width: 1.25; stroke-linejoin: miter; stroke-linecap: square"/>
   </g>
   <g id="patch_5">
    <path d="M 90 441 
L 648 441 
" style="fill: none; stroke: #262626; stroke-width: 1.25; stroke-linejoin: miter; stroke-linecap: square"/>
   </g>
   <g id="patch_6">
    <path d="M 90 60.48 
L 648 60.48 
" style="fill: none; stroke: #262626; stroke-width: 1.25; stroke-linejoin: miter; stroke-linecap: square"/>
   </g>
   <g id="text_16">
    <text style="fill: #262626; font: 25px 'sans-serif'; text-anchor: middle" x="369" y="54.48" transform="rotate(-0, 369, 54.48)">Distribution of PMI Calculation Duration</text>
   </g>
   <g id="legend_1">
    <g id="text_17">
     <text style="fill: #262626; font: 20px 'sans-serif'; text-anchor: start" x="535.136719" y="359.695312" transform="rotate(-0, 535.136719, 359.695312)">DataSet</text>
    </g>
    <g id="line2d_17">
     <path d="M 508.035937 376.657031 
L 523.035938 376.657031 
L 523.035938 376.657031 
L 538.035938 376.657031 
L 538.035938 376.657031 
" style="fill: none; stroke: #1f77b4; stroke-width: 2.8; stroke-linecap: round"/>
    </g>
    <g id="text_18">
     <text style="fill: #262626; font: 15px 'sans-serif'; text-anchor: start" x="550.035938" y="381.907031" transform="rotate(-0, 550.035938, 381.907031)">Enamine</text>
    </g>
    <g id="line2d_18">
     <path d="M 508.035937 397.875 
L 523.035938 397.875 
L 523.035938 397.875 
L 538.035938 397.875 
L 538.035938 397.875 
" style="fill: none; stroke: #ff7f0e; stroke-width: 2.8; stroke-linecap: round"/>
    </g>
    <g id="text_19">
     <text style="fill: #262626; font: 15px 'sans-serif'; text-anchor: start" x="550.035938" y="403.125" transform="rotate(-0, 550.035938, 403.125)">DrugBank</text>
    </g>
    <g id="line2d_19">
     <path d="M 508.035937 419.26875 
L 523.035938 419.26875 
L 523.035938 419.26875 
L 538.035938 419.26875 
L 538.035938 419.26875 
" style="fill: none; stroke: #2ca02c; stroke-width: 2.8; stroke-linecap: round"/>
    </g>
    <g id="text_20">
     <text style="fill: #262626; font: 15px 'sans-serif'; text-anchor: start" x="550.035938" y="424.51875" transform="rotate(-0, 550.035938, 424.51875)">ChEMBL NP</text>
    </g>
   </g>
  </g>
 </g>
 <defs>
  <clipPath id="p27a34de265">
   <rect x="90" y="60.48" width="558" height="380.52"/>
  </clipPath>
 </defs>
</svg>
