<?xml version="1.0" encoding="utf-8" standalone="no"?>
<!DOCTYPE svg PUBLIC "-//W3C//DTD SVG 1.1//EN"
  "http://www.w3.org/Graphics/SVG/1.1/DTD/svg11.dtd">
<svg xmlns:xlink="http://www.w3.org/1999/xlink" width="720pt" height="504pt" viewBox="0 0 720 504" xmlns="http://www.w3.org/2000/svg" version="1.1">
 <metadata>
  <rdf:RDF xmlns:dc="http://purl.org/dc/elements/1.1/" xmlns:cc="http://creativecommons.org/ns#" xmlns:rdf="http://www.w3.org/1999/02/22-rdf-syntax-ns#">
   <cc:Work>
    <dc:type rdf:resource="http://purl.org/dc/dcmitype/StillImage"/>
    <dc:date>2023-05-25T13:26:14.955283</dc:date>
    <dc:format>image/svg+xml</dc:format>
    <dc:creator>
     <cc:Agent>
      <dc:title>Matplotlib v3.6.3, https://matplotlib.org/</dc:title>
     </cc:Agent>
    </dc:creator>
   </cc:Work>
  </rdf:RDF>
 </metadata>
 <defs>
  <style type="text/css">*{stroke-linejoin: round; stroke-linecap: butt}</style>
 </defs>
 <g id="figure_1">
  <g id="patch_1">
   <path d="M 0 504 
L 720 504 
L 720 0 
L 0 0 
z
" style="fill: #ffffff"/>
  </g>
  <g id="axes_1">
   <g id="patch_2">
    <path d="M 90 448.56 
L 648 448.56 
L 648 60.48 
L 90 60.48 
z
" style="fill: #ffffff"/>
   </g>
   <g id="matplotlib.axis_1">
    <g id="xtick_1">
     <g id="line2d_1"/>
     <g id="text_1">
      <text style="fill: #262626; font: 20px 'Arial', 'Liberation Sans', 'DejaVu Sans', 'Bitstream Vera Sans', sans-serif; text-anchor: middle" x="90" y="474.075625" transform="rotate(-0 90 474.075625)">0</text>
     </g>
    </g>
    <g id="xtick_2">
     <g id="line2d_2"/>
     <g id="text_2">
      <text style="fill: #262626; font: 20px 'Arial', 'Liberation Sans', 'DejaVu Sans', 'Bitstream Vera Sans', sans-serif; text-anchor: middle" x="183" y="474.075625" transform="rotate(-0 183 474.075625)">5</text>
     </g>
    </g>
    <g id="xtick_3">
     <g id="line2d_3"/>
     <g id="text_3">
      <text style="fill: #262626; font: 20px 'Arial', 'Liberation Sans', 'DejaVu Sans', 'Bitstream Vera Sans', sans-serif; text-anchor: middle" x="276" y="474.075625" transform="rotate(-0 276 474.075625)">10</text>
     </g>
    </g>
    <g id="xtick_4">
     <g id="line2d_4"/>
     <g id="text_4">
      <text style="fill: #262626; font: 20px 'Arial', 'Liberation Sans', 'DejaVu Sans', 'Bitstream Vera Sans', sans-serif; text-anchor: middle" x="369" y="474.075625" transform="rotate(-0 369 474.075625)">15</text>
     </g>
    </g>
    <g id="xtick_5">
     <g id="line2d_5"/>
     <g id="text_5">
      <text style="fill: #262626; font: 20px 'Arial', 'Liberation Sans', 'DejaVu Sans', 'Bitstream Vera Sans', sans-serif; text-anchor: middle" x="462" y="474.075625" transform="rotate(-0 462 474.075625)">20</text>
     </g>
    </g>
    <g id="xtick_6">
     <g id="line2d_6"/>
     <g id="text_6">
      <text style="fill: #262626; font: 20px 'Arial', 'Liberation Sans', 'DejaVu Sans', 'Bitstream Vera Sans', sans-serif; text-anchor: middle" x="555" y="474.075625" transform="rotate(-0 555 474.075625)">25</text>
     </g>
    </g>
    <g id="xtick_7">
     <g id="line2d_7"/>
     <g id="text_7">
      <text style="fill: #262626; font: 20px 'Arial', 'Liberation Sans', 'DejaVu Sans', 'Bitstream Vera Sans', sans-serif; text-anchor: middle" x="648" y="474.075625" transform="rotate(-0 648 474.075625)">30</text>
     </g>
    </g>
    <g id="text_8">
     <text style="fill: #262626; font: 25px 'Arial', 'Liberation Sans', 'DejaVu Sans', 'Bitstream Vera Sans', sans-serif; text-anchor: middle" x="369" y="499.945156" transform="rotate(-0 369 499.945156)">Duration per structure [s]</text>
    </g>
   </g>
   <g id="matplotlib.axis_2">
    <g id="ytick_1">
     <g id="line2d_8"/>
     <g id="text_9">
      <text style="fill: #262626; font: 20px 'Arial', 'Liberation Sans', 'DejaVu Sans', 'Bitstream Vera Sans', sans-serif; text-anchor: end" x="78.8" y="455.717813" transform="rotate(-0 78.8 455.717813)">0.0</text>
     </g>
    </g>
    <g id="ytick_2">
     <g id="line2d_9"/>
     <g id="text_10">
      <text style="fill: #262626; font: 20px 'Arial', 'Liberation Sans', 'DejaVu Sans', 'Bitstream Vera Sans', sans-serif; text-anchor: end" x="78.8" y="378.101813" transform="rotate(-0 78.8 378.101813)">0.2</text>
     </g>
    </g>
    <g id="ytick_3">
     <g id="line2d_10"/>
     <g id="text_11">
      <text style="fill: #262626; font: 20px 'Arial', 'Liberation Sans', 'DejaVu Sans', 'Bitstream Vera Sans', sans-serif; text-anchor: end" x="78.8" y="300.485813" transform="rotate(-0 78.8 300.485813)">0.4</text>
     </g>
    </g>
    <g id="ytick_4">
     <g id="line2d_11"/>
     <g id="text_12">
      <text style="fill: #262626; font: 20px 'Arial', 'Liberation Sans', 'DejaVu Sans', 'Bitstream Vera Sans', sans-serif; text-anchor: end" x="78.8" y="222.869812" transform="rotate(-0 78.8 222.869812)">0.6</text>
     </g>
    </g>
    <g id="ytick_5">
     <g id="line2d_12"/>
     <g id="text_13">
      <text style="fill: #262626; font: 20px 'Arial', 'Liberation Sans', 'DejaVu Sans', 'Bitstream Vera Sans', sans-serif; text-anchor: end" x="78.8" y="145.253812" transform="rotate(-0 78.8 145.253812)">0.8</text>
     </g>
    </g>
    <g id="ytick_6">
     <g id="line2d_13"/>
     <g id="text_14">
      <text style="fill: #262626; font: 20px 'Arial', 'Liberation Sans', 'DejaVu Sans', 'Bitstream Vera Sans', sans-serif; text-anchor: end" x="78.8" y="67.637812" transform="rotate(-0 78.8 67.637812)">1.0</text>
     </g>
    </g>
    <g id="text_15">
     <text style="fill: #262626; font: 25px 'Arial', 'Liberation Sans', 'DejaVu Sans', 'Bitstream Vera Sans', sans-serif; text-anchor: middle" x="42.03125" y="254.52" transform="rotate(-90 42.03125 254.52)">Proportion</text>
    </g>
   </g>
   <g id="line2d_14">
    <path d="M 90 448.56 
L 90 448.39367 
L 91.86 448.39367 
L 91.86 448.282784 
L 91.86 447.295896 
L 93.72 447.295896 
L 93.72 447.185009 
L 93.72 444.900751 
L 95.58 444.900751 
L 95.58 444.789865 
L 95.58 441.474363 
L 97.44 441.474363 
L 97.44 441.363477 
L 97.44 438.025798 
L 99.3 438.025798 
L 99.3 437.914912 
L 99.3 434.577233 
L 101.16 434.577233 
L 101.16 434.466347 
L 101.16 430.762743 
L 103.02 430.762743 
L 103.02 430.651857 
L 103.02 426.959342 
L 104.88 426.959342 
L 104.88 426.848455 
L 104.88 422.568243 
L 106.74 422.568243 
L 106.74 422.457356 
L 106.74 418.864639 
L 108.6 418.864639 
L 108.6 418.753753 
L 108.6 414.994706 
L 110.46 414.994706 
L 110.46 414.88382 
L 110.46 410.548164 
L 112.32 410.548164 
L 112.32 410.437278 
L 112.32 405.846583 
L 114.18 405.846583 
L 114.18 405.735697 
L 114.18 401.632902 
L 116.04 401.632902 
L 116.04 401.522016 
L 116.04 397.43031 
L 117.9 397.43031 
L 117.9 397.319424 
L 117.9 392.185387 
L 119.76 392.185387 
L 119.76 392.0745 
L 119.76 387.084615 
L 121.62 387.084615 
L 121.62 386.973729 
L 121.62 382.33868 
L 123.48 382.33868 
L 123.48 382.227794 
L 123.48 377.459681 
L 125.34 377.459681 
L 125.34 377.348795 
L 125.34 372.724835 
L 127.2 372.724835 
L 127.2 372.613948 
L 127.2 367.790393 
L 129.06 367.790393 
L 129.06 367.679506 
L 129.06 362.767242 
L 130.92 362.767242 
L 130.92 362.656355 
L 130.92 357.932597 
L 132.78 357.932597 
L 132.78 357.821711 
L 132.78 352.543521 
L 134.64 352.543521 
L 134.64 352.432635 
L 134.64 347.44275 
L 136.5 347.44275 
L 136.5 347.331864 
L 136.5 342.929676 
L 138.36 342.929676 
L 138.36 342.81879 
L 138.36 338.682729 
L 140.22 338.682729 
L 140.22 338.571843 
L 140.22 334.602112 
L 142.08 334.602112 
L 142.08 334.491226 
L 142.08 330.776534 
L 143.94 330.776534 
L 143.94 330.665647 
L 143.94 327.095107 
L 145.8 327.095107 
L 145.8 326.984221 
L 145.8 324.078999 
L 147.66 324.078999 
L 147.66 323.968112 
L 147.66 320.441927 
L 149.52 320.441927 
L 149.52 320.331041 
L 149.52 317.059894 
L 151.38 317.059894 
L 151.38 316.949007 
L 151.38 314.243381 
L 153.24 314.243381 
L 153.24 314.132494 
L 153.24 311.0055 
L 155.1 311.0055 
L 155.1 310.894613 
L 155.1 308.188987 
L 156.96 308.188987 
L 156.96 308.0781 
L 156.96 305.394651 
L 158.82 305.394651 
L 158.82 305.283765 
L 158.82 303.010595 
L 160.68 303.010595 
L 160.68 302.899709 
L 160.68 300.78178 
L 162.54 300.78178 
L 162.54 300.670893 
L 162.54 298.386635 
L 164.4 298.386635 
L 164.4 298.275748 
L 164.4 295.769717 
L 166.26 295.769717 
L 166.26 295.658831 
L 166.26 293.563079 
L 168.12 293.563079 
L 168.12 293.452193 
L 168.12 291.234466 
L 169.98 291.234466 
L 169.98 291.12358 
L 169.98 288.584283 
L 171.84 288.584283 
L 171.84 288.473396 
L 171.84 285.468376 
L 173.7 285.468376 
L 173.7 285.35749 
L 173.7 282.951257 
L 175.56 282.951257 
L 175.56 282.84037 
L 175.56 280.079301 
L 177.42 280.079301 
L 177.42 279.968414 
L 177.42 277.540003 
L 179.28 277.540003 
L 179.28 277.429117 
L 179.28 274.523895 
L 181.14 274.523895 
L 181.14 274.413009 
L 181.14 271.740648 
L 183 271.740648 
L 183 271.629762 
L 183 268.669097 
L 184.86 268.669097 
L 184.86 268.55821 
L 184.86 265.619722 
L 186.72 265.619722 
L 186.72 265.508836 
L 186.72 262.625791 
L 188.58 262.625791 
L 188.58 262.514905 
L 188.58 259.909076 
L 190.44 259.909076 
L 190.44 259.79819 
L 190.44 256.859702 
L 192.3 256.859702 
L 192.3 256.748815 
L 192.3 254.142986 
L 194.16 254.142986 
L 194.16 254.0321 
L 194.16 251.226676 
L 196.02 251.226676 
L 196.02 251.115789 
L 196.02 248.399074 
L 197.88 248.399074 
L 197.88 248.288188 
L 197.88 245.948486 
L 199.74 245.948486 
L 199.74 245.8376 
L 199.74 243.520075 
L 201.6 243.520075 
L 201.6 243.409189 
L 201.6 240.914247 
L 203.46 240.914247 
L 203.46 240.80336 
L 203.46 238.374949 
L 205.32 238.374949 
L 205.32 238.264063 
L 205.32 235.868918 
L 207.18 235.868918 
L 207.18 235.758032 
L 207.18 233.684457 
L 209.04 233.684457 
L 209.04 233.573571 
L 209.04 231.55544 
L 210.9 231.55544 
L 210.9 231.444553 
L 210.9 229.52622 
L 212.76 229.52622 
L 212.76 229.415333 
L 212.76 227.541354 
L 214.62 227.541354 
L 214.62 227.430468 
L 214.62 225.489957 
L 216.48 225.489957 
L 216.48 225.379071 
L 216.48 223.527269 
L 218.34 223.527269 
L 218.34 223.416383 
L 218.34 221.364985 
L 220.2 221.364985 
L 220.2 221.254099 
L 220.2 219.413386 
L 222.06 219.413386 
L 222.06 219.3025 
L 222.06 217.472875 
L 223.92 217.472875 
L 223.92 217.361989 
L 223.92 215.399301 
L 225.78 215.399301 
L 225.78 215.288414 
L 225.78 213.358992 
L 227.64 213.358992 
L 227.64 213.248106 
L 227.64 211.285417 
L 229.5 211.285417 
L 229.5 211.174531 
L 229.5 209.455793 
L 231.36 209.455793 
L 231.36 209.344907 
L 231.36 207.759232 
L 233.22 207.759232 
L 233.22 207.648346 
L 233.22 205.885253 
L 235.08 205.885253 
L 235.08 205.774367 
L 235.08 204.199781 
L 236.94 204.199781 
L 236.94 204.088894 
L 236.94 202.591929 
L 238.8 202.591929 
L 238.8 202.481042 
L 238.8 200.884279 
L 240.66 200.884279 
L 240.66 200.773393 
L 240.66 199.376225 
L 242.52 199.376225 
L 242.52 199.265339 
L 242.52 197.879259 
L 244.38 197.879259 
L 244.38 197.768373 
L 244.38 196.581889 
L 246.24 196.581889 
L 246.24 196.471003 
L 246.24 194.962949 
L 248.1 194.962949 
L 248.1 194.852062 
L 248.1 193.344008 
L 249.96 193.344008 
L 249.96 193.233122 
L 249.96 192.212968 
L 251.82 192.212968 
L 251.82 192.102081 
L 251.82 190.89342 
L 253.68 190.89342 
L 253.68 190.782534 
L 253.68 189.995241 
L 255.54 189.995241 
L 255.54 189.884355 
L 255.54 188.952909 
L 257.4 188.952909 
L 257.4 188.842023 
L 257.4 187.932755 
L 259.26 187.932755 
L 259.26 187.821869 
L 259.26 186.968044 
L 261.12 186.968044 
L 261.12 186.857158 
L 261.12 186.225105 
L 262.98 186.225105 
L 262.98 186.114219 
L 262.98 185.415635 
L 264.84 185.415635 
L 264.84 185.304749 
L 264.84 184.56181 
L 266.7 184.56181 
L 266.7 184.450924 
L 266.7 183.630365 
L 268.56 183.630365 
L 268.56 183.519479 
L 268.56 182.69892 
L 270.42 182.69892 
L 270.42 182.588034 
L 270.42 182.000336 
L 272.28 182.000336 
L 272.28 181.88945 
L 272.28 181.113245 
L 274.14 181.113245 
L 274.14 181.002359 
L 274.14 180.170711 
L 276 180.170711 
L 276 180.059825 
L 276 179.294709 
L 277.86 179.294709 
L 277.86 179.183823 
L 277.86 178.429796 
L 279.72 178.429796 
L 279.72 178.31891 
L 279.72 177.476173 
L 281.58 177.476173 
L 281.58 177.365287 
L 281.58 176.544728 
L 283.44 176.544728 
L 283.44 176.433842 
L 283.44 175.80179 
L 285.3 175.80179 
L 285.3 175.690903 
L 285.3 174.803813 
L 287.16 174.803813 
L 287.16 174.692926 
L 287.16 173.739304 
L 289.02 173.739304 
L 289.02 173.628418 
L 289.02 172.79677 
L 290.88 172.79677 
L 290.88 172.685884 
L 290.88 171.809882 
L 292.74 171.809882 
L 292.74 171.698995 
L 292.74 170.656664 
L 294.6 170.656664 
L 294.6 170.545777 
L 294.6 169.63651 
L 296.46 169.63651 
L 296.46 169.525623 
L 296.46 168.682887 
L 298.32 168.682887 
L 298.32 168.572001 
L 298.32 167.68491 
L 300.18 167.68491 
L 300.18 167.574024 
L 300.18 166.87544 
L 302.04 166.87544 
L 302.04 166.764553 
L 302.04 165.788754 
L 303.9 165.788754 
L 303.9 165.677867 
L 303.9 164.857308 
L 305.76 164.857308 
L 305.76 164.746422 
L 305.76 163.848243 
L 307.62 163.848243 
L 307.62 163.737356 
L 307.62 162.916798 
L 309.48 162.916798 
L 309.48 162.805911 
L 309.48 161.963175 
L 311.34 161.963175 
L 311.34 161.852289 
L 311.34 161.042818 
L 313.2 161.042818 
L 313.2 160.931932 
L 313.2 160.288791 
L 315.06 160.288791 
L 315.06 160.177905 
L 315.06 159.601296 
L 316.92 159.601296 
L 316.92 159.49041 
L 316.92 158.880535 
L 318.78 158.880535 
L 318.78 158.769649 
L 318.78 157.915824 
L 320.64 157.915824 
L 320.64 157.804937 
L 320.64 157.05091 
L 322.5 157.05091 
L 322.5 156.940024 
L 322.5 156.307972 
L 324.36 156.307972 
L 324.36 156.197086 
L 324.36 155.587211 
L 326.22 155.587211 
L 326.22 155.476324 
L 326.22 154.788829 
L 328.08 154.788829 
L 328.08 154.677943 
L 328.08 153.89065 
L 329.94 153.89065 
L 329.94 153.779763 
L 329.94 152.870495 
L 331.8 152.870495 
L 331.8 152.759609 
L 331.8 151.927962 
L 333.66 151.927962 
L 333.66 151.817075 
L 333.66 151.118491 
L 335.52 151.118491 
L 335.52 151.007605 
L 335.52 150.031805 
L 337.38 150.031805 
L 337.38 149.920919 
L 337.38 149.144715 
L 339.24 149.144715 
L 339.24 149.033828 
L 339.24 148.301978 
L 341.1 148.301978 
L 341.1 148.191092 
L 341.1 147.248558 
L 342.96 147.248558 
L 342.96 147.137672 
L 342.96 146.461265 
L 344.82 146.461265 
L 344.82 146.350379 
L 344.82 145.662884 
L 346.68 145.662884 
L 346.68 145.551997 
L 346.68 144.942122 
L 348.54 144.942122 
L 348.54 144.831236 
L 348.54 144.121564 
L 350.4 144.121564 
L 350.4 144.010677 
L 350.4 143.301005 
L 352.26 143.301005 
L 352.26 143.190118 
L 352.26 142.513712 
L 354.12 142.513712 
L 354.12 142.402825 
L 354.12 141.748596 
L 355.98 141.748596 
L 355.98 141.63771 
L 355.98 141.027835 
L 357.84 141.027835 
L 357.84 140.916948 
L 357.84 140.262719 
L 359.7 140.262719 
L 359.7 140.151833 
L 359.7 139.60849 
L 361.56 139.60849 
L 361.56 139.497603 
L 361.56 138.965349 
L 363.42 138.965349 
L 363.42 138.854463 
L 363.42 138.300031 
L 365.28 138.300031 
L 365.28 138.189145 
L 365.28 137.690156 
L 367.14 137.690156 
L 367.14 137.57927 
L 367.14 137.058104 
L 369 137.058104 
L 369 136.947218 
L 369 136.43714 
L 370.86 136.43714 
L 370.86 136.326254 
L 370.86 135.794 
L 372.72 135.794 
L 372.72 135.683113 
L 372.72 135.073238 
L 374.58 135.073238 
L 374.58 134.962352 
L 374.58 134.430098 
L 376.44 134.430098 
L 376.44 134.319211 
L 376.44 133.8424 
L 378.3 133.8424 
L 378.3 133.731514 
L 378.3 133.287968 
L 380.16 133.287968 
L 380.16 133.177082 
L 380.16 132.700271 
L 382.02 132.700271 
L 382.02 132.589385 
L 382.02 132.079307 
L 383.88 132.079307 
L 383.88 131.968421 
L 383.88 131.336369 
L 385.74 131.336369 
L 385.74 131.225483 
L 385.74 130.770849 
L 387.6 130.770849 
L 387.6 130.659962 
L 387.6 130.02791 
L 389.46 130.02791 
L 389.46 129.917024 
L 389.46 129.351504 
L 391.32 129.351504 
L 391.32 129.240617 
L 391.32 128.575299 
L 393.18 128.575299 
L 393.18 128.464413 
L 393.18 127.876715 
L 395.04 127.876715 
L 395.04 127.765829 
L 395.04 127.155954 
L 396.9 127.155954 
L 396.9 127.045068 
L 396.9 126.534991 
L 398.76 126.534991 
L 398.76 126.424104 
L 398.76 125.936204 
L 400.62 125.936204 
L 400.62 125.825318 
L 400.62 125.304152 
L 402.48 125.304152 
L 402.48 125.193266 
L 402.48 124.749721 
L 404.34 124.749721 
L 404.34 124.638834 
L 404.34 124.206378 
L 406.2 124.206378 
L 406.2 124.095491 
L 406.2 123.629769 
L 408.06 123.629769 
L 408.06 123.518882 
L 408.06 123.008805 
L 409.92 123.008805 
L 409.92 122.897919 
L 409.92 122.39893 
L 411.78 122.39893 
L 411.78 122.288044 
L 411.78 121.711435 
L 413.64 121.711435 
L 413.64 121.600549 
L 413.64 121.190269 
L 415.5 121.190269 
L 415.5 121.079383 
L 415.5 120.569306 
L 417.36 120.569306 
L 417.36 120.458419 
L 417.36 119.870722 
L 419.22 119.870722 
L 419.22 119.759835 
L 419.22 119.382822 
L 421.08 119.382822 
L 421.08 119.271936 
L 421.08 118.883833 
L 422.94 118.883833 
L 422.94 118.772947 
L 422.94 118.218515 
L 424.8 118.218515 
L 424.8 118.107629 
L 424.8 117.519931 
L 426.66 117.519931 
L 426.66 117.409045 
L 426.66 116.876791 
L 428.52 116.876791 
L 428.52 116.765904 
L 428.52 116.23365 
L 430.38 116.23365 
L 430.38 116.122764 
L 430.38 115.435268 
L 432.24 115.435268 
L 432.24 115.324382 
L 432.24 114.836482 
L 434.1 114.836482 
L 434.1 114.725596 
L 434.1 114.093544 
L 435.96 114.093544 
L 435.96 113.982657 
L 435.96 113.406048 
L 437.82 113.406048 
L 437.82 113.295162 
L 437.82 112.530046 
L 439.68 112.530046 
L 439.68 112.41916 
L 439.68 111.720576 
L 441.54 111.720576 
L 441.54 111.60969 
L 441.54 110.977638 
L 443.4 110.977638 
L 443.4 110.866751 
L 443.4 110.157079 
L 445.26 110.157079 
L 445.26 110.046192 
L 445.26 109.358697 
L 447.12 109.358697 
L 447.12 109.247811 
L 447.12 108.560315 
L 448.98 108.560315 
L 448.98 108.449429 
L 448.98 107.440363 
L 450.84 107.440363 
L 450.84 107.329477 
L 450.84 106.564361 
L 452.7 106.564361 
L 452.7 106.453475 
L 452.7 105.788157 
L 454.56 105.788157 
L 454.56 105.677271 
L 454.56 104.989775 
L 456.42 104.989775 
L 456.42 104.878889 
L 456.42 104.246837 
L 458.28 104.246837 
L 458.28 104.135951 
L 458.28 103.348658 
L 460.14 103.348658 
L 460.14 103.237771 
L 460.14 102.483744 
L 462 102.483744 
L 462 102.372858 
L 462 101.78516 
L 463.86 101.78516 
L 463.86 101.674274 
L 463.86 101.075488 
L 465.72 101.075488 
L 465.72 100.964601 
L 465.72 100.266017 
L 467.58 100.266017 
L 467.58 100.155131 
L 467.58 99.445459 
L 469.44 99.445459 
L 469.44 99.334572 
L 469.44 98.602722 
L 471.3 98.602722 
L 471.3 98.491836 
L 471.3 97.837607 
L 473.16 97.837607 
L 473.16 97.72672 
L 473.16 96.895073 
L 475.02 96.895073 
L 475.02 96.784187 
L 475.02 95.930362 
L 476.88 95.930362 
L 476.88 95.819475 
L 476.88 94.998917 
L 478.74 94.998917 
L 478.74 94.88803 
L 478.74 94.244889 
L 480.6 94.244889 
L 480.6 94.134003 
L 480.6 93.402153 
L 482.46 93.402153 
L 482.46 93.291267 
L 482.46 92.703569 
L 484.32 92.703569 
L 484.32 92.592683 
L 484.32 92.004985 
L 486.18 92.004985 
L 486.18 91.894099 
L 486.18 91.350756 
L 488.04 91.350756 
L 488.04 91.23987 
L 488.04 90.785236 
L 489.9 90.785236 
L 489.9 90.674349 
L 489.9 90.142095 
L 491.76 90.142095 
L 491.76 90.031209 
L 491.76 89.521131 
L 493.62 89.521131 
L 493.62 89.410245 
L 493.62 88.911257 
L 495.48 88.911257 
L 495.48 88.80037 
L 495.48 88.423357 
L 497.34 88.423357 
L 497.34 88.31247 
L 497.34 87.813482 
L 499.2 87.813482 
L 499.2 87.702596 
L 499.2 87.247962 
L 501.06 87.247962 
L 501.06 87.137075 
L 501.06 86.671353 
L 502.92 86.671353 
L 502.92 86.560466 
L 502.92 86.094744 
L 504.78 86.094744 
L 504.78 85.983857 
L 504.78 85.662287 
L 506.64 85.662287 
L 506.64 85.551401 
L 506.64 85.207653 
L 508.5 85.207653 
L 508.5 85.096767 
L 508.5 84.797374 
L 510.36 84.797374 
L 510.36 84.686487 
L 510.36 84.132056 
L 512.22 84.132056 
L 512.22 84.021169 
L 512.22 83.577624 
L 514.08 83.577624 
L 514.08 83.466738 
L 514.08 83.111901 
L 515.94 83.111901 
L 515.94 83.001015 
L 515.94 82.624001 
L 517.8 82.624001 
L 517.8 82.513115 
L 517.8 81.991949 
L 519.66 81.991949 
L 519.66 81.881063 
L 519.66 81.548404 
L 521.52 81.548404 
L 521.52 81.437518 
L 521.52 81.182479 
L 523.38 81.182479 
L 523.38 81.071593 
L 523.38 80.616959 
L 525.24 80.616959 
L 525.24 80.506072 
L 525.24 80.162325 
L 527.1 80.162325 
L 527.1 80.051438 
L 527.1 79.663336 
L 528.96 79.663336 
L 528.96 79.55245 
L 528.96 79.197614 
L 530.82 79.197614 
L 530.82 79.086727 
L 530.82 78.598827 
L 532.68 78.598827 
L 532.68 78.487941 
L 532.68 78.144193 
L 534.54 78.144193 
L 534.54 78.033307 
L 534.54 77.800446 
L 536.4 77.800446 
L 536.4 77.689559 
L 536.4 77.434521 
L 538.26 77.434521 
L 538.26 77.323634 
L 538.26 77.079685 
L 540.12 77.079685 
L 540.12 76.968798 
L 540.12 76.613962 
L 541.98 76.613962 
L 541.98 76.503076 
L 541.98 76.148239 
L 543.84 76.148239 
L 543.84 76.037353 
L 543.84 75.760137 
L 545.7 75.760137 
L 545.7 75.649251 
L 545.7 75.41639 
L 547.56 75.41639 
L 547.56 75.305503 
L 547.56 74.983933 
L 549.42 74.983933 
L 549.42 74.873046 
L 549.42 74.629097 
L 551.28 74.629097 
L 551.28 74.51821 
L 551.28 74.252083 
L 553.14 74.252083 
L 553.14 74.141197 
L 553.14 73.775272 
L 555 73.775272 
L 555 73.664385 
L 555 73.453701 
L 556.86 73.453701 
L 556.86 73.342815 
L 556.86 73.176486 
L 558.72 73.176486 
L 558.72 73.065599 
L 558.72 72.866004 
L 560.58 72.866004 
L 560.58 72.755117 
L 560.58 72.555522 
L 562.44 72.555522 
L 562.44 72.444636 
L 562.44 72.145243 
L 564.3 72.145243 
L 564.3 72.034356 
L 564.3 71.834761 
L 566.16 71.834761 
L 566.16 71.723875 
L 566.16 71.535368 
L 568.02 71.535368 
L 568.02 71.424481 
L 568.02 71.258152 
L 569.88 71.258152 
L 569.88 71.147266 
L 569.88 70.925493 
L 571.74 70.925493 
L 571.74 70.814607 
L 571.74 70.681543 
L 573.6 70.681543 
L 573.6 70.570657 
L 573.6 70.337795 
L 575.46 70.337795 
L 575.46 70.226909 
L 575.46 70.038402 
L 577.32 70.038402 
L 577.32 69.927516 
L 577.32 69.739009 
L 579.18 69.739009 
L 579.18 69.628123 
L 579.18 69.483971 
L 581.04 69.483971 
L 581.04 69.373084 
L 581.04 69.140223 
L 582.9 69.140223 
L 582.9 69.029337 
L 582.9 68.774298 
L 584.76 68.774298 
L 584.76 68.663412 
L 584.76 68.541437 
L 586.62 68.541437 
L 586.62 68.43055 
L 586.62 68.175512 
L 588.48 68.175512 
L 588.48 68.064625 
L 588.48 67.920473 
L 590.34 67.920473 
L 590.34 67.809587 
L 590.34 67.632169 
L 592.2 67.632169 
L 592.2 67.521282 
L 592.2 67.29951 
L 594.06 67.29951 
L 594.06 67.188623 
L 594.06 66.989028 
L 595.92 66.989028 
L 595.92 66.878142 
L 595.92 66.623103 
L 597.78 66.623103 
L 597.78 66.512217 
L 597.78 66.434596 
L 599.64 66.434596 
L 599.64 66.32371 
L 599.64 66.212824 
L 601.5 66.212824 
L 601.5 66.101937 
L 601.5 65.946696 
L 603.36 65.946696 
L 603.36 65.83581 
L 603.36 65.602949 
L 605.22 65.602949 
L 605.22 65.492062 
L 605.22 65.259201 
L 607.08 65.259201 
L 607.08 65.148315 
L 607.08 65.081783 
L 608.94 65.081783 
L 608.94 64.970897 
L 608.94 64.726947 
L 610.8 64.726947 
L 610.8 64.61606 
L 610.8 64.482997 
L 612.66 64.482997 
L 612.66 64.37211 
L 612.66 64.150338 
L 614.52 64.150338 
L 614.52 64.039451 
L 614.52 63.906388 
L 616.38 63.906388 
L 616.38 63.795501 
L 616.38 63.706792 
L 618.24 63.706792 
L 618.24 63.595906 
L 618.24 63.507197 
L 620.1 63.507197 
L 620.1 63.396311 
L 620.1 63.252158 
L 621.96 63.252158 
L 621.96 63.141272 
L 621.96 62.941677 
L 623.82 62.941677 
L 623.82 62.83079 
L 623.82 62.764259 
L 625.68 62.764259 
L 625.68 62.653372 
L 625.68 62.575752 
L 627.54 62.575752 
L 627.54 62.464865 
L 627.54 62.398334 
L 629.4 62.398334 
L 629.4 62.287447 
L 629.4 62.220915 
L 631.26 62.220915 
L 631.26 62.110029 
L 631.26 62.076763 
L 633.12 62.076763 
L 633.12 61.965877 
L 633.12 61.832813 
L 634.98 61.832813 
L 634.98 61.721927 
L 634.98 61.644307 
L 636.84 61.644307 
L 636.84 61.53342 
L 636.84 61.400357 
L 638.7 61.400357 
L 638.7 61.28947 
L 638.7 61.278382 
L 640.56 61.278382 
L 640.56 61.167495 
L 640.56 61.100963 
L 642.42 61.100963 
L 642.42 60.990077 
L 642.42 60.956811 
L 644.28 60.956811 
L 644.28 60.845925 
L 644.28 60.690684 
L 646.14 60.690684 
L 646.14 60.579798 
L 646.14 60.55762 
L 648 60.55762 
L 648 60.48 
" clip-path="url(#pc1e1817f21)" style="fill: none; stroke: #2ca02c; stroke-width: 2.8; stroke-linecap: round"/>
   </g>
   <g id="line2d_15">
    <path d="M 90 448.56 
L 90 438.107712 
L 91.86 438.107712 
L 91.86 438.004224 
L 91.86 428.37984 
L 93.72 428.37984 
L 93.72 428.276352 
L 93.72 419.06592 
L 95.58 419.06592 
L 95.58 418.962432 
L 95.58 411.407808 
L 97.44 411.407808 
L 97.44 411.30432 
L 97.44 404.267136 
L 99.3 404.267136 
L 99.3 404.163648 
L 99.3 399.092736 
L 101.16 399.092736 
L 101.16 398.989248 
L 101.16 392.883456 
L 103.02 392.883456 
L 103.02 392.779968 
L 103.02 386.4672 
L 104.88 386.4672 
L 104.88 386.363712 
L 104.88 379.326528 
L 106.74 379.326528 
L 106.74 379.22304 
L 106.74 373.01376 
L 108.6 373.01376 
L 108.6 372.910272 
L 108.6 365.976576 
L 110.46 365.976576 
L 110.46 365.873088 
L 110.46 359.663808 
L 112.32 359.663808 
L 112.32 359.56032 
L 112.32 352.31616 
L 114.18 352.31616 
L 114.18 352.212672 
L 114.18 345.899904 
L 116.04 345.899904 
L 116.04 345.796416 
L 116.04 340.622016 
L 117.9 340.622016 
L 117.9 340.518528 
L 117.9 334.516224 
L 119.76 334.516224 
L 119.76 334.412736 
L 119.76 329.962752 
L 121.62 329.962752 
L 121.62 329.859264 
L 121.62 325.202304 
L 123.48 325.202304 
L 123.48 325.098816 
L 123.48 319.71744 
L 125.34 319.71744 
L 125.34 319.613952 
L 125.34 314.956992 
L 127.2 314.956992 
L 127.2 314.853504 
L 127.2 309.679104 
L 129.06 309.679104 
L 129.06 309.575616 
L 129.06 304.815168 
L 130.92 304.815168 
L 130.92 304.71168 
L 130.92 299.847744 
L 132.78 299.847744 
L 132.78 299.744256 
L 132.78 295.708224 
L 134.64 295.708224 
L 134.64 295.604736 
L 134.64 290.637312 
L 136.5 290.637312 
L 136.5 290.533824 
L 136.5 285.669888 
L 138.36 285.669888 
L 138.36 285.5664 
L 138.36 281.42688 
L 140.22 281.42688 
L 140.22 281.323392 
L 140.22 276.459456 
L 142.08 276.459456 
L 142.08 276.355968 
L 142.08 272.837376 
L 143.94 272.837376 
L 143.94 272.733888 
L 143.94 268.904832 
L 145.8 268.904832 
L 145.8 268.801344 
L 145.8 264.454848 
L 147.66 264.454848 
L 147.66 264.35136 
L 147.66 259.383936 
L 149.52 259.383936 
L 149.52 259.280448 
L 149.52 255.244416 
L 151.38 255.244416 
L 151.38 255.140928 
L 151.38 251.001408 
L 153.24 251.001408 
L 153.24 250.89792 
L 153.24 247.586304 
L 155.1 247.586304 
L 155.1 247.482816 
L 155.1 242.61888 
L 156.96 242.61888 
L 156.96 242.515392 
L 156.96 238.47936 
L 158.82 238.47936 
L 158.82 238.375872 
L 158.82 234.443328 
L 160.68 234.443328 
L 160.68 234.33984 
L 160.68 230.71776 
L 162.54 230.71776 
L 162.54 230.614272 
L 162.54 228.027072 
L 164.4 228.027072 
L 164.4 227.923584 
L 164.4 224.818944 
L 166.26 224.818944 
L 166.26 224.715456 
L 166.26 221.093376 
L 168.12 221.093376 
L 168.12 220.989888 
L 168.12 217.26432 
L 169.98 217.26432 
L 169.98 217.160832 
L 169.98 213.021312 
L 171.84 213.021312 
L 171.84 212.917824 
L 171.84 209.50272 
L 173.7 209.50272 
L 173.7 209.399232 
L 173.7 205.570176 
L 175.56 205.570176 
L 175.56 205.466688 
L 175.56 202.362048 
L 177.42 202.362048 
L 177.42 202.25856 
L 177.42 199.050432 
L 179.28 199.050432 
L 179.28 198.946944 
L 179.28 195.635328 
L 181.14 195.635328 
L 181.14 195.53184 
L 181.14 192.4272 
L 183 192.4272 
L 183 192.323712 
L 183 190.150464 
L 184.86 190.150464 
L 184.86 190.046976 
L 184.86 187.045824 
L 186.72 187.045824 
L 186.72 186.942336 
L 186.72 184.6656 
L 188.58 184.6656 
L 188.58 184.562112 
L 188.58 181.56096 
L 190.44 181.56096 
L 190.44 181.457472 
L 190.44 178.352832 
L 192.3 178.352832 
L 192.3 178.249344 
L 192.3 176.904 
L 194.16 176.904 
L 194.16 176.800512 
L 194.16 173.28192 
L 196.02 173.28192 
L 196.02 173.178432 
L 196.02 171.005184 
L 197.88 171.005184 
L 197.88 170.901696 
L 197.88 168.10752 
L 199.74 168.10752 
L 199.74 168.004032 
L 199.74 165.416832 
L 201.6 165.416832 
L 201.6 165.313344 
L 201.6 162.93312 
L 203.46 162.93312 
L 203.46 162.829632 
L 203.46 160.035456 
L 205.32 160.035456 
L 205.32 159.931968 
L 205.32 156.72384 
L 207.18 156.72384 
L 207.18 156.620352 
L 207.18 154.343616 
L 209.04 154.343616 
L 209.04 154.240128 
L 209.04 151.963392 
L 210.9 151.963392 
L 210.9 151.859904 
L 210.9 149.99712 
L 212.76 149.99712 
L 212.76 149.893632 
L 212.76 148.237824 
L 214.62 148.237824 
L 214.62 148.134336 
L 214.62 146.582016 
L 216.48 146.582016 
L 216.48 146.478528 
L 216.48 144.82272 
L 218.34 144.82272 
L 218.34 144.719232 
L 218.34 143.063424 
L 220.2 143.063424 
L 220.2 142.959936 
L 220.2 141.097152 
L 222.06 141.097152 
L 222.06 140.993664 
L 222.06 139.234368 
L 223.92 139.234368 
L 223.92 139.13088 
L 223.92 137.889024 
L 225.78 137.889024 
L 225.78 137.785536 
L 225.78 136.854144 
L 227.64 136.854144 
L 227.64 136.750656 
L 227.64 134.680896 
L 229.5 134.680896 
L 229.5 134.577408 
L 229.5 133.646016 
L 231.36 133.646016 
L 231.36 133.542528 
L 231.36 132.507648 
L 233.22 132.507648 
L 233.22 132.40416 
L 233.22 130.541376 
L 235.08 130.541376 
L 235.08 130.437888 
L 235.08 128.989056 
L 236.94 128.989056 
L 236.94 128.885568 
L 236.94 128.057664 
L 238.8 128.057664 
L 238.8 127.954176 
L 238.8 126.919296 
L 240.66 126.919296 
L 240.66 126.815808 
L 240.66 126.091392 
L 242.52 126.091392 
L 242.52 125.987904 
L 242.52 124.746048 
L 244.38 124.746048 
L 244.38 124.64256 
L 244.38 122.883264 
L 246.24 122.883264 
L 246.24 122.779776 
L 246.24 120.813504 
L 248.1 120.813504 
L 248.1 120.710016 
L 248.1 119.675136 
L 249.96 119.675136 
L 249.96 119.571648 
L 249.96 118.536768 
L 251.82 118.536768 
L 251.82 118.43328 
L 251.82 117.812352 
L 253.68 117.812352 
L 253.68 117.708864 
L 253.68 116.467008 
L 255.54 116.467008 
L 255.54 116.36352 
L 255.54 115.32864 
L 257.4 115.32864 
L 257.4 115.225152 
L 257.4 114.914688 
L 259.26 114.914688 
L 259.26 114.8112 
L 259.26 114.29376 
L 261.12 114.29376 
L 261.12 114.190272 
L 261.12 113.362368 
L 262.98 113.362368 
L 262.98 113.25888 
L 262.98 112.327488 
L 264.84 112.327488 
L 264.84 112.224 
L 264.84 111.292608 
L 266.7 111.292608 
L 266.7 111.18912 
L 266.7 110.568192 
L 268.56 110.568192 
L 268.56 110.464704 
L 268.56 109.947264 
L 270.42 109.947264 
L 270.42 109.843776 
L 270.42 109.015872 
L 272.28 109.015872 
L 272.28 108.912384 
L 272.28 108.394944 
L 274.14 108.394944 
L 274.14 108.291456 
L 274.14 107.56704 
L 276 107.56704 
L 276 107.463552 
L 276 106.946112 
L 277.86 106.946112 
L 277.86 106.842624 
L 277.86 106.118208 
L 279.72 106.118208 
L 279.72 106.01472 
L 279.72 105.290304 
L 281.58 105.290304 
L 281.58 105.186816 
L 281.58 104.4624 
L 283.44 104.4624 
L 283.44 104.358912 
L 283.44 103.634496 
L 285.3 103.634496 
L 285.3 103.531008 
L 285.3 102.806592 
L 287.16 102.806592 
L 287.16 102.703104 
L 287.16 101.8752 
L 289.02 101.8752 
L 289.02 101.771712 
L 289.02 101.254272 
L 290.88 101.254272 
L 290.88 101.150784 
L 290.88 100.219392 
L 292.74 100.219392 
L 292.74 100.115904 
L 292.74 99.494976 
L 294.6 99.494976 
L 294.6 99.391488 
L 294.6 98.667072 
L 296.46 98.667072 
L 296.46 98.563584 
L 296.46 97.839168 
L 298.32 97.839168 
L 298.32 97.73568 
L 298.32 97.011264 
L 300.18 97.011264 
L 300.18 96.907776 
L 300.18 95.976384 
L 302.04 95.976384 
L 302.04 95.872896 
L 302.04 95.66592 
L 303.9 95.66592 
L 303.9 95.562432 
L 303.9 94.838016 
L 305.76 94.838016 
L 305.76 94.734528 
L 305.76 94.217088 
L 307.62 94.217088 
L 307.62 94.1136 
L 307.62 93.699648 
L 309.48 93.699648 
L 309.48 93.59616 
L 309.48 93.182208 
L 311.34 93.182208 
L 311.34 93.07872 
L 311.34 92.664768 
L 313.2 92.664768 
L 313.2 92.56128 
L 313.2 92.04384 
L 315.06 92.04384 
L 315.06 91.940352 
L 315.06 91.836864 
L 316.92 91.836864 
L 316.92 91.733376 
L 316.92 91.215936 
L 318.78 91.215936 
L 318.78 91.112448 
L 318.78 90.595008 
L 320.64 90.595008 
L 320.64 90.49152 
L 320.64 89.767104 
L 322.5 89.767104 
L 322.5 89.663616 
L 322.5 89.146176 
L 324.36 89.146176 
L 324.36 89.042688 
L 324.36 88.318272 
L 326.22 88.318272 
L 326.22 88.214784 
L 326.22 88.007808 
L 328.08 88.007808 
L 328.08 87.90432 
L 328.08 87.697344 
L 329.94 87.697344 
L 329.94 87.593856 
L 329.94 87.179904 
L 331.8 87.179904 
L 331.8 87.076416 
L 331.8 86.86944 
L 335.52 86.765952 
L 335.52 85.938048 
L 337.38 85.938048 
L 337.38 85.83456 
L 337.38 85.213632 
L 339.24 85.213632 
L 339.24 85.110144 
L 339.24 84.592704 
L 341.1 84.592704 
L 341.1 84.489216 
L 341.1 83.971776 
L 342.96 83.971776 
L 342.96 83.868288 
L 342.96 83.350848 
L 344.82 83.350848 
L 344.82 83.24736 
L 344.82 82.315968 
L 346.68 82.315968 
L 346.68 82.21248 
L 346.68 82.005504 
L 348.54 82.005504 
L 348.54 81.902016 
L 348.54 81.798528 
L 350.4 81.798528 
L 350.4 81.69504 
L 350.4 80.763648 
L 352.26 80.763648 
L 352.26 80.66016 
L 352.26 80.349696 
L 354.12 80.349696 
L 354.12 80.246208 
L 354.12 80.039232 
L 355.98 80.039232 
L 355.98 79.935744 
L 355.98 79.832256 
L 357.84 79.832256 
L 357.84 79.728768 
L 357.84 79.521792 
L 359.7 79.521792 
L 359.7 79.418304 
L 359.7 79.314816 
L 361.56 79.314816 
L 361.56 79.211328 
L 361.56 79.10784 
L 363.42 79.10784 
L 363.42 79.004352 
L 363.42 78.900864 
L 365.28 78.900864 
L 365.28 78.797376 
L 365.28 78.693888 
L 367.14 78.693888 
L 367.14 78.5904 
L 367.14 78.279936 
L 372.72 78.176448 
L 372.72 77.969472 
L 374.58 77.969472 
L 374.58 77.865984 
L 374.58 77.762496 
L 378.3 77.659008 
L 378.3 77.452032 
L 380.16 77.452032 
L 380.16 77.348544 
L 380.16 77.245056 
L 382.02 77.245056 
L 382.02 77.141568 
L 382.02 77.03808 
L 383.88 77.03808 
L 383.88 76.934592 
L 383.88 76.831104 
L 385.74 76.831104 
L 385.74 76.727616 
L 385.74 76.624128 
L 389.46 76.52064 
L 389.46 76.313664 
L 393.18 76.210176 
L 393.18 76.106688 
L 396.9 76.0032 
L 396.9 75.899712 
L 400.62 75.899712 
L 400.62 75.796224 
L 400.62 75.278784 
L 402.48 75.278784 
L 402.48 75.175296 
L 402.48 74.864832 
L 404.34 74.864832 
L 404.34 74.761344 
L 404.34 74.554368 
L 406.2 74.554368 
L 406.2 74.45088 
L 406.2 74.347392 
L 413.64 74.243904 
L 413.64 73.93344 
L 417.36 73.93344 
L 417.36 73.829952 
L 417.36 73.622976 
L 421.08 73.519488 
L 421.08 73.105536 
L 422.94 73.105536 
L 422.94 73.002048 
L 422.94 72.89856 
L 426.66 72.89856 
L 426.66 72.795072 
L 426.66 72.38112 
L 428.52 72.38112 
L 428.52 72.277632 
L 428.52 72.070656 
L 432.24 71.967168 
L 432.24 71.760192 
L 434.1 71.760192 
L 434.1 71.656704 
L 434.1 71.242752 
L 435.96 71.242752 
L 435.96 71.139264 
L 435.96 70.932288 
L 439.68 70.8288 
L 439.68 70.725312 
L 441.54 70.725312 
L 441.54 70.621824 
L 441.54 70.518336 
L 445.26 70.414848 
L 445.26 70.104384 
L 447.12 70.104384 
L 447.12 70.000896 
L 447.12 69.897408 
L 450.84 69.79392 
L 450.84 69.27648 
L 454.56 69.172992 
L 454.56 69.069504 
L 456.42 69.069504 
L 456.42 68.966016 
L 456.42 68.75904 
L 460.14 68.655552 
L 460.14 68.448576 
L 462 68.448576 
L 462 68.345088 
L 462 68.2416 
L 465.72 68.2416 
L 465.72 68.138112 
L 465.72 68.034624 
L 467.58 68.034624 
L 467.58 67.931136 
L 467.58 67.827648 
L 471.3 67.72416 
L 471.3 67.620672 
L 475.02 67.517184 
L 475.02 67.310208 
L 476.88 67.310208 
L 476.88 67.20672 
L 476.88 67.103232 
L 480.6 66.999744 
L 480.6 66.896256 
L 482.46 66.896256 
L 482.46 66.792768 
L 482.46 66.378816 
L 491.76 66.275328 
L 491.76 66.17184 
L 493.62 66.17184 
L 493.62 66.068352 
L 493.62 65.964864 
L 499.2 65.964864 
L 499.2 65.861376 
L 499.2 65.6544 
L 502.92 65.6544 
L 502.92 65.550912 
L 502.92 65.447424 
L 508.5 65.343936 
L 508.5 65.240448 
L 515.94 65.240448 
L 515.94 65.13696 
L 515.94 65.033472 
L 521.52 64.929984 
L 521.52 64.826496 
L 523.38 64.826496 
L 523.38 64.723008 
L 523.38 64.61952 
L 530.82 64.516032 
L 530.82 64.205568 
L 534.54 64.10208 
L 534.54 63.998592 
L 541.98 63.895104 
L 541.98 63.791616 
L 553.14 63.688128 
L 553.14 63.58464 
L 556.86 63.481152 
L 556.86 63.377664 
L 564.3 63.274176 
L 564.3 63.170688 
L 566.16 63.170688 
L 566.16 63.0672 
L 566.16 62.860224 
L 568.02 62.860224 
L 568.02 62.756736 
L 568.02 62.653248 
L 569.88 62.653248 
L 569.88 62.54976 
L 569.88 62.446272 
L 577.32 62.342784 
L 577.32 62.135808 
L 586.62 62.03232 
L 586.62 61.928832 
L 597.78 61.825344 
L 597.78 61.721856 
L 603.36 61.618368 
L 603.36 61.51488 
L 610.8 61.411392 
L 610.8 61.204416 
L 625.68 61.100928 
L 625.68 60.99744 
L 633.12 60.893952 
L 633.12 60.790464 
L 640.56 60.686976 
L 640.56 60.583488 
L 642.42 60.583488 
L 642.42 60.48 
" clip-path="url(#pc1e1817f21)" style="fill: none; stroke: #ff7f0e; stroke-width: 2.8; stroke-linecap: round"/>
   </g>
   <g id="line2d_16">
    <path d="M 90 448.56 
L 90 448.550748 
L 91.86 448.550748 
L 91.86 448.439728 
L 91.86 447.986396 
L 93.72 447.986396 
L 93.72 447.875376 
L 93.72 445.932524 
L 95.58 445.932524 
L 95.58 445.821504 
L 95.58 443.508586 
L 97.44 443.508586 
L 97.44 443.397565 
L 97.44 441.195667 
L 99.3 441.195667 
L 99.3 441.084647 
L 99.3 439.104788 
L 101.16 439.104788 
L 101.16 438.993768 
L 101.16 436.838128 
L 103.02 436.838128 
L 103.02 436.727108 
L 103.02 434.238408 
L 104.88 434.238408 
L 104.88 434.127387 
L 104.88 431.684945 
L 106.74 431.684945 
L 106.74 431.573925 
L 106.74 428.557879 
L 108.6 428.557879 
L 108.6 428.446859 
L 108.6 424.746189 
L 110.46 424.746189 
L 110.46 424.635169 
L 110.46 420.638446 
L 112.32 420.638446 
L 112.32 420.527426 
L 112.32 415.485263 
L 114.18 415.485263 
L 114.18 415.374243 
L 114.18 409.813986 
L 116.04 409.813986 
L 116.04 409.702966 
L 116.04 402.995502 
L 117.9 402.995502 
L 117.9 402.884482 
L 117.9 395.501645 
L 119.76 395.501645 
L 119.76 395.390625 
L 119.76 386.888336 
L 121.62 386.888336 
L 121.62 386.777316 
L 121.62 377.655165 
L 123.48 377.655165 
L 123.48 377.544145 
L 123.48 367.339548 
L 125.34 367.339548 
L 125.34 367.228527 
L 125.34 356.487333 
L 127.2 356.487333 
L 127.2 356.376313 
L 127.2 345.58886 
L 129.06 345.58886 
L 129.06 345.47784 
L 129.06 334.061274 
L 130.92 334.061274 
L 130.92 333.950253 
L 130.92 322.154368 
L 132.78 322.154368 
L 132.78 322.043348 
L 132.78 309.868144 
L 134.64 309.868144 
L 134.64 309.757124 
L 134.64 297.35988 
L 136.5 297.35988 
L 136.5 297.24886 
L 136.5 284.786854 
L 138.36 284.786854 
L 138.36 284.675834 
L 138.36 272.435868 
L 140.22 272.435868 
L 140.22 272.324848 
L 140.22 260.066379 
L 142.08 260.066379 
L 142.08 259.955359 
L 142.08 247.854168 
L 143.94 247.854168 
L 143.94 247.743148 
L 143.94 236.567125 
L 145.8 236.567125 
L 145.8 236.456105 
L 145.8 224.984028 
L 147.66 224.984028 
L 147.66 224.873008 
L 147.66 214.178072 
L 149.52 214.178072 
L 149.52 214.067052 
L 149.52 203.251844 
L 151.38 203.251844 
L 151.38 203.140824 
L 151.38 192.797452 
L 153.24 192.797452 
L 153.24 192.686432 
L 153.24 183.083194 
L 155.1 183.083194 
L 155.1 182.972173 
L 155.1 174.423626 
L 156.96 174.423626 
L 156.96 174.312606 
L 156.96 166.115622 
L 158.82 166.115622 
L 158.82 166.004602 
L 158.82 157.863128 
L 160.68 157.863128 
L 160.68 157.752108 
L 160.68 150.341517 
L 162.54 150.341517 
L 162.54 150.230497 
L 162.54 143.004939 
L 164.4 143.004939 
L 164.4 142.893919 
L 164.4 136.149448 
L 166.26 136.149448 
L 166.26 136.038428 
L 166.26 130.413409 
L 168.12 130.413409 
L 168.12 130.302389 
L 168.12 125.010431 
L 169.98 125.010431 
L 169.98 124.899411 
L 169.98 119.783235 
L 171.84 119.783235 
L 171.84 119.672215 
L 171.84 114.796582 
L 173.7 114.796582 
L 173.7 114.685562 
L 173.7 110.318772 
L 175.56 110.318772 
L 175.56 110.207752 
L 175.56 106.544088 
L 177.42 106.544088 
L 177.42 106.433068 
L 177.42 102.667637 
L 179.28 102.667637 
L 179.28 102.556617 
L 179.28 99.438802 
L 181.14 99.438802 
L 181.14 99.327782 
L 181.14 96.172961 
L 183 96.172961 
L 183 96.061941 
L 183 93.267935 
L 184.86 93.267935 
L 184.86 93.156915 
L 184.86 90.575698 
L 186.72 90.575698 
L 186.72 90.464678 
L 186.72 88.198017 
L 188.58 88.198017 
L 188.58 88.086997 
L 188.58 86.227411 
L 190.44 86.227411 
L 190.44 86.116391 
L 190.44 84.284559 
L 192.3 84.284559 
L 192.3 84.173539 
L 192.3 82.341707 
L 194.16 82.341707 
L 194.16 82.230687 
L 194.16 80.731916 
L 196.02 80.731916 
L 196.02 80.620896 
L 196.02 79.168383 
L 197.88 79.168383 
L 197.88 79.057363 
L 197.88 77.706618 
L 199.74 77.706618 
L 199.74 77.595598 
L 199.74 76.587166 
L 201.6 76.587166 
L 201.6 76.476146 
L 201.6 75.597237 
L 203.46 75.597237 
L 203.46 75.486216 
L 203.46 74.542546 
L 205.32 74.542546 
L 205.32 74.431525 
L 205.32 73.432345 
L 207.18 73.432345 
L 207.18 73.321325 
L 207.18 72.405409 
L 209.04 72.405409 
L 209.04 72.294389 
L 209.04 71.535751 
L 210.9 71.535751 
L 210.9 71.424731 
L 210.9 70.545822 
L 212.76 70.545822 
L 212.76 70.434802 
L 212.76 69.70392 
L 214.62 69.70392 
L 214.62 69.5929 
L 214.62 69.065554 
L 216.48 69.065554 
L 216.48 68.954534 
L 216.48 68.399434 
L 218.34 68.399434 
L 218.34 68.288413 
L 218.34 67.751816 
L 220.2 67.751816 
L 220.2 67.640796 
L 220.2 67.224471 
L 222.06 67.224471 
L 222.06 67.113451 
L 222.06 66.706377 
L 223.92 66.706377 
L 223.92 66.595357 
L 223.92 66.299303 
L 225.78 66.299303 
L 225.78 66.188283 
L 225.78 65.882978 
L 227.64 65.882978 
L 227.64 65.771958 
L 227.64 65.457401 
L 229.5 65.457401 
L 229.5 65.346381 
L 229.5 65.068831 
L 231.36 65.068831 
L 231.36 64.957811 
L 231.36 64.73577 
L 233.22 64.73577 
L 233.22 64.62475 
L 233.22 64.40271 
L 235.08 64.40271 
L 235.08 64.29169 
L 235.08 64.12516 
L 236.94 64.12516 
L 236.94 64.01414 
L 236.94 63.884616 
L 238.8 63.884616 
L 238.8 63.773596 
L 238.8 63.662576 
L 240.66 63.662576 
L 240.66 63.551556 
L 240.66 63.468291 
L 242.52 63.468291 
L 242.52 63.357271 
L 242.52 63.348019 
L 244.38 63.348019 
L 244.38 63.236999 
L 244.38 63.199992 
L 248.1 63.098224 
L 248.1 63.088972 
L 248.1 63.005707 
L 251.82 62.903939 
L 251.82 62.894687 
L 251.82 62.783667 
L 253.68 62.783667 
L 253.68 62.672647 
L 253.68 62.617137 
L 257.4 62.515368 
L 257.4 62.506117 
L 257.4 62.404348 
L 259.26 62.404348 
L 259.26 62.293328 
L 259.26 62.284077 
L 262.98 62.200812 
L 262.98 62.173056 
L 262.98 62.099043 
L 266.7 62.052785 
L 266.7 61.988023 
L 266.7 61.951016 
L 270.42 61.849248 
L 270.42 61.839996 
L 270.42 61.775234 
L 276 61.673466 
L 276 61.664214 
L 276 61.617956 
L 279.72 61.525439 
L 279.72 61.506936 
L 279.72 61.479181 
L 290.88 61.386664 
L 290.88 61.368161 
L 290.88 61.331154 
L 300.18 61.220134 
L 300.18 61.201631 
L 311.34 61.099862 
L 311.34 61.090611 
L 311.34 61.081359 
L 329.94 60.970339 
L 329.94 60.961087 
L 346.68 60.850067 
L 346.68 60.831564 
L 380.16 60.720544 
L 380.16 60.70204 
L 437.82 60.59102 
L 437.82 60.581768 
L 597.78 60.498503 
L 597.78 60.48 
" clip-path="url(#pc1e1817f21)" style="fill: none; stroke: #1f77b4; stroke-width: 2.8; stroke-linecap: round"/>
   </g>
   <g id="patch_3">
    <path d="M 90 448.56 
L 90 60.48 
" style="fill: none; stroke: #262626; stroke-width: 1.25; stroke-linejoin: miter; stroke-linecap: square"/>
   </g>
   <g id="patch_4">
    <path d="M 648 448.56 
L 648 60.48 
" style="fill: none; stroke: #262626; stroke-width: 1.25; stroke-linejoin: miter; stroke-linecap: square"/>
   </g>
   <g id="patch_5">
    <path d="M 90 448.56 
L 648 448.56 
" style="fill: none; stroke: #262626; stroke-width: 1.25; stroke-linejoin: miter; stroke-linecap: square"/>
   </g>
   <g id="patch_6">
    <path d="M 90 60.48 
L 648 60.48 
" style="fill: none; stroke: #262626; stroke-width: 1.25; stroke-linejoin: miter; stroke-linecap: square"/>
   </g>
   <g id="text_16">
    <text style="fill: #262626; font: 25px 'Arial', 'Liberation Sans', 'DejaVu Sans', 'Bitstream Vera Sans', sans-serif; text-anchor: middle" x="369" y="54.48" transform="rotate(-0 369 54.48)">Distribution of PMI Calculation Duration</text>
   </g>
   <g id="legend_1">
    <g id="text_17">
     <text style="fill: #262626; font: 20px 'Arial', 'Liberation Sans', 'DejaVu Sans', 'Bitstream Vera Sans', sans-serif; text-anchor: start" x="535.136719" y="367.255313" transform="rotate(-0 535.136719 367.255313)">DataSet</text>
    </g>
    <g id="line2d_17">
     <path d="M 508.035937 384.217031 
L 523.035938 384.217031 
L 523.035938 384.217031 
L 538.035938 384.217031 
L 538.035938 384.217031 
" style="fill: none; stroke: #1f77b4; stroke-width: 2.8; stroke-linecap: round"/>
    </g>
    <g id="text_18">
     <text style="fill: #262626; font: 15px 'Arial', 'Liberation Sans', 'DejaVu Sans', 'Bitstream Vera Sans', sans-serif; text-anchor: start" x="550.035938" y="389.467031" transform="rotate(-0 550.035938 389.467031)">Enamine</text>
    </g>
    <g id="line2d_18">
     <path d="M 508.035937 405.435 
L 523.035938 405.435 
L 523.035938 405.435 
L 538.035938 405.435 
L 538.035938 405.435 
" style="fill: none; stroke: #ff7f0e; stroke-width: 2.8; stroke-linecap: round"/>
    </g>
    <g id="text_19">
     <text style="fill: #262626; font: 15px 'Arial', 'Liberation Sans', 'DejaVu Sans', 'Bitstream Vera Sans', sans-serif; text-anchor: start" x="550.035938" y="410.685" transform="rotate(-0 550.035938 410.685)">DrugBank</text>
    </g>
    <g id="line2d_19">
     <path d="M 508.035937 426.82875 
L 523.035938 426.82875 
L 523.035938 426.82875 
L 538.035938 426.82875 
L 538.035938 426.82875 
" style="fill: none; stroke: #2ca02c; stroke-width: 2.8; stroke-linecap: round"/>
    </g>
    <g id="text_20">
     <text style="fill: #262626; font: 15px 'Arial', 'Liberation Sans', 'DejaVu Sans', 'Bitstream Vera Sans', sans-serif; text-anchor: start" x="550.035938" y="432.07875" transform="rotate(-0 550.035938 432.07875)">ChEMBL NP</text>
    </g>
   </g>
  </g>
 </g>
 <defs>
  <clipPath id="pc1e1817f21">
   <rect x="90" y="60.48" width="558" height="388.08"/>
  </clipPath>
 </defs>
</svg>
